<svg width="375" height="160" viewBox="0 0 375 160" fill="none" xmlns="http://www.w3.org/2000/svg">
<g clip-path="url(#clip0_1452_79394)">
<rect x="-0.5" y="32.5" width="376" height="99" fill="#004973" fill-opacity="0.5" stroke="#0074A2"/>
<line x1="93.5" y1="32" x2="93.5" y2="132" stroke="#0074A2"/>
<line x1="140.5" y1="32" x2="140.5" y2="132" stroke="#0074A2"/>
<line x1="46.5" y1="32" x2="46.5" y2="132" stroke="#0074A2"/>
<line x1="187.5" y1="32" x2="187.5" y2="132" stroke="#0074A2"/>
<line x1="234.5" y1="32" x2="234.5" y2="132" stroke="#0074A2"/>
<line x1="281.5" y1="32" x2="281.5" y2="132" stroke="#0074A2"/>
<line x1="328.5" y1="32" x2="328.5" y2="132" stroke="#0074A2"/>
<circle cx="33.5" cy="52.5" r="1.5" fill="#51A3D3" fill-opacity="0.5"/>
<circle cx="9.5" cy="103.5" r="1.5" fill="#51A3D3" fill-opacity="0.3"/>
<circle cx="75.5" cy="102.5" r="1.5" fill="#51A3D3" fill-opacity="0.5"/>
<circle cx="104.5" cy="43.5" r="1.5" fill="#51A3D3" fill-opacity="0.3"/>
<circle cx="35.5" cy="122.5" r="1.5" fill="#51A3D3" fill-opacity="0.7"/>
<circle cx="126.5" cy="119.5" r="1.5" fill="#51A3D3" fill-opacity="0.3"/>
<circle cx="149.5" cy="56.5" r="1.5" fill="#51A3D3" fill-opacity="0.7"/>
<circle cx="172.5" cy="96.5" r="1.5" fill="#51A3D3" fill-opacity="0.25"/>
<circle cx="206.5" cy="63.5" r="1.5" fill="#51A3D3" fill-opacity="0.5"/>
<circle cx="242.5" cy="41.5" r="1.5" fill="#51A3D3" fill-opacity="0.3"/>
<circle cx="256.5" cy="96.5" r="1.5" fill="#51A3D3" fill-opacity="0.5"/>
<circle cx="217.5" cy="120.5" r="1.5" fill="#51A3D3" fill-opacity="0.5"/>
<circle cx="337.5" cy="43.5" r="1.5" fill="#51A3D3" fill-opacity="0.5"/>
<circle cx="295.5" cy="65.5" r="1.5" fill="#51A3D3" fill-opacity="0.5"/>
<circle cx="315.5" cy="116.5" r="1.5" fill="#51A3D3" fill-opacity="0.7"/>
<path d="M358 93.5C358 94.3284 357.328 95 356.5 95C355.672 95 355 94.3284 355 93.5C355 92.6716 355.672 92 356.5 92C357.328 92 358 92.6716 358 93.5Z" fill="#51A3D3" fill-opacity="0.5"/>
<path d="M97.352 150.234H95.616V148.26H93.908V150.234H90.702L95.252 144.2H93.306L88.476 150.514V151.774H93.852V154H95.616V151.774H97.352V150.234Z" fill="#51A3D3"/>
<path d="M46.704 154.14C49.042 154.14 50.806 152.32 50.806 149.1C50.806 145.88 49.042 144.06 46.704 144.06C44.38 144.06 42.616 145.88 42.616 149.1C42.616 152.32 44.38 154.14 46.704 154.14ZM46.704 152.558C45.374 152.558 44.45 151.466 44.45 149.1C44.45 146.734 45.374 145.642 46.704 145.642C48.048 145.642 48.972 146.734 48.972 149.1C48.972 151.466 48.048 152.558 46.704 152.558Z" fill="#51A3D3"/>
<path d="M143.406 148.848C144.204 148.414 144.652 147.714 144.652 146.79C144.652 145.11 143.168 144.06 140.984 144.06C138.814 144.06 137.344 145.11 137.344 146.79C137.344 147.714 137.778 148.414 138.562 148.848C137.554 149.31 136.994 150.108 136.994 151.186C136.994 153.006 138.548 154.14 140.984 154.14C143.42 154.14 145.002 153.006 145.002 151.186C145.002 150.108 144.428 149.31 143.406 148.848ZM140.984 145.488C142.104 145.488 142.86 145.992 142.86 146.874C142.86 147.714 142.146 148.246 140.984 148.246C139.836 148.246 139.136 147.714 139.136 146.874C139.136 145.992 139.864 145.488 140.984 145.488ZM140.984 152.712C139.64 152.712 138.828 152.124 138.828 151.13C138.828 150.164 139.64 149.562 140.984 149.562C142.328 149.562 143.168 150.164 143.168 151.13C143.168 152.124 142.328 152.712 140.984 152.712Z" fill="#51A3D3"/>
<path d="M181.232 144.2V145.726H183.304V154H185.124V144.2H181.232ZM189.826 152.46L192.444 149.968C193.802 148.694 194.068 147.826 194.068 146.874C194.068 145.138 192.696 144.06 190.568 144.06C188.958 144.06 187.6 144.662 186.844 145.684L188.118 146.664C188.664 145.964 189.462 145.642 190.414 145.642C191.618 145.642 192.234 146.16 192.234 147.056C192.234 147.602 192.066 148.176 191.114 149.086L187.222 152.782V154H194.446V152.46H189.826Z" fill="#51A3D3"/>
<rect x="223" y="138" width="24" height="22" rx="8" fill="#0074A2"/>
<path d="M228.417 144.2V145.726H230.489V154H232.309V144.2H228.417ZM238.985 147.952C237.893 147.952 236.955 148.288 236.367 148.974V148.96C236.367 146.734 237.529 145.586 239.377 145.586C240.063 145.586 240.707 145.712 241.239 146.062L241.911 144.69C241.253 144.27 240.315 144.06 239.335 144.06C236.493 144.06 234.533 145.908 234.533 149.268C234.533 152.418 236.101 154.14 238.775 154.14C240.777 154.14 242.359 152.908 242.359 150.962C242.359 149.128 240.917 147.952 238.985 147.952ZM238.677 152.712C237.375 152.712 236.647 151.984 236.647 151.06C236.647 150.094 237.459 149.38 238.635 149.38C239.825 149.38 240.595 150.024 240.595 151.046C240.595 152.068 239.811 152.712 238.677 152.712Z" fill="white"/>
<rect x="317" y="138" width="24" height="22" rx="8" fill="#F4435A"/>
<path d="M276.19 152.46L278.808 149.968C280.166 148.694 280.432 147.826 280.432 146.874C280.432 145.138 279.06 144.06 276.932 144.06C275.322 144.06 273.964 144.662 273.208 145.684L274.482 146.664C275.028 145.964 275.826 145.642 276.778 145.642C277.982 145.642 278.598 146.16 278.598 147.056C278.598 147.602 278.43 148.176 277.478 149.086L273.586 152.782V154H280.81V152.46H276.19ZM286.188 154.14C288.526 154.14 290.29 152.32 290.29 149.1C290.29 145.88 288.526 144.06 286.188 144.06C283.864 144.06 282.1 145.88 282.1 149.1C282.1 152.32 283.864 154.14 286.188 154.14ZM286.188 152.558C284.858 152.558 283.934 151.466 283.934 149.1C283.934 146.734 284.858 145.642 286.188 145.642C287.532 145.642 288.456 146.734 288.456 149.1C288.456 151.466 287.532 152.558 286.188 152.558Z" fill="#51A3D3"/>
<path d="M323.094 152.46L325.712 149.968C327.07 148.694 327.336 147.826 327.336 146.874C327.336 145.138 325.964 144.06 323.836 144.06C322.226 144.06 320.868 144.662 320.112 145.684L321.386 146.664C321.932 145.964 322.73 145.642 323.682 145.642C324.886 145.642 325.502 146.16 325.502 147.056C325.502 147.602 325.334 148.176 324.382 149.086L320.49 152.782V154H327.714V152.46H323.094ZM337.575 150.234H335.839V148.26H334.131V150.234H330.925L335.475 144.2H333.529L328.699 150.514V151.774H334.075V154H335.839V151.774H337.575V150.234Z" fill="white"/>
<g clip-path="url(#clip1_1452_79394)">
<mask id="mask0_1452_79394" style="mask-type:alpha" maskUnits="userSpaceOnUse" x="0" y="32" width="281" height="100">
<rect y="32" width="281" height="100" fill="#51A3D3"/>
</mask>
<g mask="url(#mask0_1452_79394)">
<path d="M351.211 62.4502C338.953 62.4502 332.831 70.8206 326.913 78.9152C321.048 86.9356 315.508 94.5142 304.322 94.5142C293.135 94.5142 287.595 86.9392 281.731 78.9152C275.813 70.8206 269.691 62.4502 257.432 62.4502C245.174 62.4502 239.055 70.8206 233.134 78.9152C227.27 86.9356 221.729 94.5142 210.543 94.5142C199.357 94.5142 193.817 86.9392 187.952 78.9152C182.034 70.8206 175.912 62.4502 163.654 62.4502C151.395 62.4502 145.277 70.8206 139.356 78.9152C133.491 86.9356 127.951 94.5142 116.765 94.5142C105.578 94.5142 100.042 86.9392 94.1768 78.9152C88.2592 70.8206 82.1371 62.4502 69.8787 62.4502C57.6204 62.4502 51.5018 70.8206 45.5806 78.9152C39.7265 86.9392 34.1863 94.5142 23 94.5142V96.6351C35.2584 96.6351 41.377 88.2647 47.2981 80.1701C53.1628 72.1496 58.703 64.5711 69.8893 64.5711C81.0756 64.5711 86.6159 72.1461 92.4805 80.1701C98.3981 88.2647 104.52 96.6351 116.775 96.6351C129.03 96.6351 135.152 88.2647 141.073 80.1701C146.938 72.1496 152.478 64.5711 163.664 64.5711C174.851 64.5711 180.391 72.1461 186.256 80.1701C192.173 88.2647 198.295 96.6351 210.554 96.6351C222.812 96.6351 228.931 88.2647 234.852 80.1701C240.717 72.1496 246.257 64.5711 257.443 64.5711C268.629 64.5711 274.17 72.1461 280.034 80.1701C285.952 88.2647 292.074 96.6351 304.332 96.6351C316.591 96.6351 322.713 88.2647 328.63 80.1701C334.495 72.1496 340.035 64.5711 351.222 64.5711V62.4502H351.211Z" fill="#51A3D3"/>
<path d="M70.2111 62.4502C57.9527 62.4502 51.8306 70.8206 45.913 78.9152C40.0483 86.9356 34.5081 94.5142 23.3218 94.5142C12.1355 94.5142 6.59525 86.9392 0.73056 78.9152C-5.18703 70.8206 -11.3091 62.4502 -23.5675 62.4502C-35.8259 62.4502 -41.9445 70.8206 -47.8656 78.9152C-53.7303 86.9356 -59.2706 94.5142 -70.4568 94.5142C-81.6431 94.5142 -87.1834 86.9392 -93.0481 78.9152C-98.9657 70.8206 -105.088 62.4502 -117.346 62.4502C-129.605 62.4502 -135.723 70.8206 -141.644 78.9152C-147.509 86.9356 -153.049 94.5142 -164.235 94.5142C-175.422 94.5142 -180.958 86.9392 -186.823 78.9152C-192.741 70.8206 -198.863 62.4502 -211.121 62.4502C-223.38 62.4502 -229.498 70.8206 -235.419 78.9152C-241.273 86.9392 -246.814 94.5142 -258 94.5142V96.6351C-245.742 96.6351 -239.623 88.2647 -233.702 80.1701C-227.837 72.1496 -222.297 64.5711 -211.111 64.5711C-199.924 64.5711 -194.384 72.1461 -188.519 80.1701C-182.602 88.2647 -176.48 96.6351 -164.225 96.6351C-151.97 96.6351 -145.848 88.2647 -139.927 80.1701C-134.062 72.1496 -128.522 64.5711 -117.336 64.5711C-106.149 64.5711 -100.609 72.1461 -94.7444 80.1701C-88.8268 88.2647 -82.7046 96.6351 -70.4463 96.6351C-58.1879 96.6351 -52.0693 88.2647 -46.1482 80.1701C-40.2835 72.1496 -34.7432 64.5711 -23.5569 64.5711C-12.3707 64.5711 -6.83041 72.1461 -0.965729 80.1701C4.95187 88.2647 11.074 96.6351 23.3324 96.6351C35.5907 96.6351 41.7129 88.2647 47.6305 80.1701C53.4952 72.1496 59.0354 64.5711 70.2217 64.5711V62.4502H70.2111Z" fill="#51A3D3"/>
</g>
</g>
<mask id="path-37-inside-1_1452_79394" fill="white">
<path fill-rule="evenodd" clip-rule="evenodd" d="M301 50C309.284 50 316 43.2843 316 35C316 26.7157 309.284 20 301 20L261 20C252.716 20 246 26.7157 246 35C246 43.2843 252.716 50 261 50L277.536 50L281 56L284.464 50L301 50Z"/>
</mask>
<path fill-rule="evenodd" clip-rule="evenodd" d="M301 50C309.284 50 316 43.2843 316 35C316 26.7157 309.284 20 301 20L261 20C252.716 20 246 26.7157 246 35C246 43.2843 252.716 50 261 50L277.536 50L281 56L284.464 50L301 50Z" fill="#0074A2" fill-opacity="0.8"/>
<path d="M301 50V49V50ZM301 20V21V20ZM261 20V19V20ZM246 35H245H246ZM261 50V49V50ZM277.536 50L278.402 49.5L278.113 49H277.536V50ZM281 56L280.134 56.5L281 58L281.866 56.5L281 56ZM284.464 50V49H283.887L283.598 49.5L284.464 50ZM315 35C315 42.732 308.732 49 301 49V51C309.837 51 317 43.8366 317 35H315ZM301 21C308.732 21 315 27.268 315 35H317C317 26.1635 309.837 19 301 19V21ZM261 21L301 21V19L261 19V21ZM247 35C247 27.268 253.268 21 261 21V19C252.163 19 245 26.1634 245 35H247ZM261 49C253.268 49 247 42.732 247 35H245C245 43.8366 252.163 51 261 51V49ZM277.536 49L261 49V51L277.536 51V49ZM281.866 55.5L278.402 49.5L276.67 50.5L280.134 56.5L281.866 55.5ZM283.598 49.5L280.134 55.5L281.866 56.5L285.33 50.5L283.598 49.5ZM301 49L284.464 49V51L301 51V49Z" fill="#51A3D3" mask="url(#path-37-inside-1_1452_79394)"/>
<path d="M261.599 39.24L264.591 36.392C266.143 34.936 266.447 33.944 266.447 32.856C266.447 30.872 264.879 29.64 262.447 29.64C260.607 29.64 259.055 30.328 258.191 31.496L259.647 32.616C260.271 31.816 261.183 31.448 262.271 31.448C263.647 31.448 264.351 32.04 264.351 33.064C264.351 33.688 264.159 34.344 263.071 35.384L258.623 39.608V41H266.879V39.24H261.599ZM273.025 41.16C275.697 41.16 277.713 39.08 277.713 35.4C277.713 31.72 275.697 29.64 273.025 29.64C270.369 29.64 268.353 31.72 268.353 35.4C268.353 39.08 270.369 41.16 273.025 41.16ZM273.025 39.352C271.505 39.352 270.449 38.104 270.449 35.4C270.449 32.696 271.505 31.448 273.025 31.448C274.561 31.448 275.617 32.696 275.617 35.4C275.617 38.104 274.561 39.352 273.025 39.352ZM277.942 42.6H279.734L285.014 27.528H283.222L277.942 42.6ZM288.215 39.24L291.207 36.392C292.759 34.936 293.063 33.944 293.063 32.856C293.063 30.872 291.495 29.64 289.063 29.64C287.223 29.64 285.671 30.328 284.807 31.496L286.263 32.616C286.887 31.816 287.799 31.448 288.887 31.448C290.263 31.448 290.967 32.04 290.967 33.064C290.967 33.688 290.775 34.344 289.687 35.384L285.239 39.608V41H293.495V39.24H288.215ZM304.766 36.696H302.781V34.44H300.829V36.696H297.165L302.365 29.8H300.141L294.621 37.016V38.456H300.765V41H302.781V38.456H304.766V36.696Z" fill="white"/>
<circle cx="281" cy="82" r="24.5" fill="#022B42" fill-opacity="0.8" stroke="#51A3D3"/>
<circle cx="281" cy="82" r="28.5" stroke="#51A3D3" stroke-opacity="0.4"/>
<mask id="path-42-inside-2_1452_79394" fill="white">
<path fill-rule="evenodd" clip-rule="evenodd" d="M281.002 86.7004C285.724 86.7004 289.552 85.4436 289.552 81.1588C289.552 80.1521 289.34 79.1902 288.956 78.3076C293.85 79.7766 297.152 82.5594 297.152 85.7504C297.152 90.4724 289.921 94.3004 281.002 94.3004C272.082 94.3004 264.852 90.4724 264.852 85.7504C264.852 82.5594 268.154 79.7766 273.047 78.3076C272.663 79.1902 272.452 80.1521 272.452 81.1588C272.452 85.4436 276.28 86.7004 281.002 86.7004Z"/>
</mask>
<path d="M288.956 78.3076L289.531 76.3921L285.399 75.1519L287.122 79.1065L288.956 78.3076ZM273.047 78.3076L274.881 79.1065L276.604 75.1519L272.472 76.3921L273.047 78.3076ZM287.552 81.1588C287.552 81.9232 287.384 82.4379 287.165 82.8026C286.945 83.1694 286.604 83.4983 286.085 83.7834C284.982 84.3888 283.253 84.7004 281.002 84.7004V88.7004C283.472 88.7004 286.018 88.3836 288.01 87.2894C289.038 86.7247 289.949 85.9359 290.594 84.862C291.241 83.7859 291.552 82.5367 291.552 81.1588H287.552ZM287.122 79.1065C287.4 79.745 287.552 80.4355 287.552 81.1588H291.552C291.552 79.8687 291.28 78.6354 290.789 77.5088L287.122 79.1065ZM288.381 80.2232C290.635 80.8999 292.399 81.8454 293.56 82.8777C294.717 83.9073 295.152 84.8972 295.152 85.7504H299.152C299.152 83.4126 297.935 81.4156 296.218 79.8888C294.504 78.3648 292.17 77.1843 289.531 76.3921L288.381 80.2232ZM295.152 85.7504C295.152 87.0056 294.156 88.615 291.486 90.0286C288.905 91.3948 285.202 92.3004 281.002 92.3004V96.3004C285.721 96.3004 290.093 95.292 293.357 93.5638C296.532 91.8829 299.152 89.2173 299.152 85.7504H295.152ZM281.002 92.3004C276.801 92.3004 273.098 91.3948 270.518 90.0286C267.847 88.615 266.852 87.0056 266.852 85.7504H262.852C262.852 89.2173 265.471 91.8829 268.646 93.5638C271.911 95.292 276.282 96.3004 281.002 96.3004V92.3004ZM266.852 85.7504C266.852 84.8972 267.286 83.9073 268.443 82.8777C269.604 81.8454 271.368 80.8999 273.622 80.2232L272.472 76.3921C269.833 77.1843 267.499 78.3648 265.785 79.8888C264.068 81.4156 262.852 83.4126 262.852 85.7504H266.852ZM274.452 81.1588C274.452 80.4355 274.603 79.745 274.881 79.1065L271.214 77.5088C270.723 78.6354 270.452 79.8687 270.452 81.1588H274.452ZM281.002 84.7004C278.75 84.7004 277.021 84.3888 275.919 83.7834C275.399 83.4983 275.058 83.1694 274.838 82.8026C274.619 82.4379 274.452 81.9232 274.452 81.1588H270.452C270.452 82.5367 270.763 83.7859 271.409 84.862C272.054 85.9359 272.965 86.7247 273.993 87.2894C275.985 88.3836 278.531 88.7004 281.002 88.7004V84.7004Z" fill="#FF7987" mask="url(#path-42-inside-2_1452_79394)"/>
<path d="M281.003 87.7004C283.419 87.7004 285.761 87.3849 287.53 86.4129C288.431 85.9181 289.2 85.2443 289.738 84.3471C290.278 83.4489 290.553 82.3833 290.553 81.1587C290.553 76.2324 286.184 72.4004 281.003 72.4004C275.822 72.4004 271.453 76.2324 271.453 81.1587C271.453 82.3833 271.728 83.4489 272.268 84.3471C272.807 85.2443 273.575 85.9181 274.476 86.4129C276.246 87.3849 278.587 87.7004 281.003 87.7004Z" stroke="#FF7987" stroke-width="2"/>
<path fill-rule="evenodd" clip-rule="evenodd" d="M294.689 87.752C292.969 91.3144 287.492 93.9189 281 93.9189C274.138 93.9189 268.409 91.0091 267.054 87.1338C266.855 87.8275 266.75 88.5722 266.75 89.3678C266.75 93.0947 273.13 96.2005 281 96.2005C288.87 96.2005 295.25 93.7159 295.25 89.3678C295.25 88.9472 295.054 88.3881 294.689 87.752Z" fill="#FF7987"/>
<path d="M283.22 95.7256C283.22 96.322 282.57 97.1006 281.37 97.1006C280.169 97.1006 279.52 96.322 279.52 95.7256C279.52 95.1292 280.169 94.3506 281.37 94.3506C282.57 94.3506 283.22 95.1292 283.22 95.7256Z" fill="#FF7987" stroke="#FF7987" stroke-width="2"/>
<path d="M274.642 95.0965C274.538 95.6838 273.763 96.3377 272.581 96.1293C271.399 95.9209 270.895 95.0413 270.998 94.454C271.102 93.8666 271.877 93.2127 273.059 93.4211C274.241 93.6295 274.746 94.5091 274.642 95.0965Z" fill="#FF7987" stroke="#FF7987" stroke-width="2"/>
<path d="M291.162 94.4544C291.266 95.0418 290.761 95.9214 289.579 96.1298C288.397 96.3382 287.622 95.6843 287.518 95.0969C287.415 94.5096 287.919 93.63 289.101 93.4216C290.283 93.2131 291.059 93.8671 291.162 94.4544Z" fill="#FF7987" stroke="#FF7987" stroke-width="2"/>
<path d="M282.902 76.25C283.536 76.3652 285.942 77.2864 286.702 80.05" stroke="#FF7987" stroke-width="2" stroke-linecap="round"/>
<path d="M281 72.4504V68.6504" stroke="#FF7987" stroke-width="2" stroke-linecap="round"/>
<path d="M282.852 66.7504C282.852 67.7721 282.024 68.6004 281.002 68.6004C279.981 68.6004 279.152 67.7721 279.152 66.7504C279.152 65.7287 279.981 64.9004 281.002 64.9004C282.024 64.9004 282.852 65.7287 282.852 66.7504Z" stroke="#FF7987" stroke-width="2"/>
</g>
<defs>
<clipPath id="clip0_1452_79394">
<rect width="375" height="160" fill="white"/>
</clipPath>
<clipPath id="clip1_1452_79394">
<rect width="375" height="58" fill="white" transform="translate(0 51)"/>
</clipPath>
</defs>
</svg>
