<svg width="375" height="160" viewBox="0 0 375 160" fill="none" xmlns="http://www.w3.org/2000/svg">
<g clip-path="url(#clip0_1452_66002)">
<rect x="-0.5" y="32.5" width="376" height="99" fill="#004973" fill-opacity="0.5" stroke="#0074A2"/>
<line x1="93.5" y1="32" x2="93.5" y2="132" stroke="#0074A2"/>
<line x1="140.5" y1="32" x2="140.5" y2="132" stroke="#0074A2"/>
<line x1="46.5" y1="32" x2="46.5" y2="132" stroke="#0074A2"/>
<line x1="187.5" y1="32" x2="187.5" y2="132" stroke="#0074A2"/>
<line x1="234.5" y1="32" x2="234.5" y2="132" stroke="#0074A2"/>
<line x1="281.5" y1="32" x2="281.5" y2="132" stroke="#0074A2"/>
<line x1="328.5" y1="32" x2="328.5" y2="132" stroke="#0074A2"/>
<circle cx="33.5" cy="52.5" r="1.5" fill="#51A3D3" fill-opacity="0.5"/>
<circle cx="9.5" cy="103.5" r="1.5" fill="#51A3D3" fill-opacity="0.3"/>
<circle cx="75.5" cy="102.5" r="1.5" fill="#51A3D3" fill-opacity="0.5"/>
<circle cx="104.5" cy="43.5" r="1.5" fill="#51A3D3" fill-opacity="0.3"/>
<circle cx="35.5" cy="122.5" r="1.5" fill="#51A3D3" fill-opacity="0.7"/>
<circle cx="126.5" cy="119.5" r="1.5" fill="#51A3D3" fill-opacity="0.3"/>
<circle cx="149.5" cy="56.5" r="1.5" fill="#51A3D3" fill-opacity="0.7"/>
<circle cx="172.5" cy="96.5" r="1.5" fill="#51A3D3" fill-opacity="0.25"/>
<circle cx="206.5" cy="63.5" r="1.5" fill="#51A3D3" fill-opacity="0.5"/>
<circle cx="242.5" cy="41.5" r="1.5" fill="#51A3D3" fill-opacity="0.3"/>
<circle cx="256.5" cy="96.5" r="1.5" fill="#51A3D3" fill-opacity="0.5"/>
<circle cx="217.5" cy="120.5" r="1.5" fill="#51A3D3" fill-opacity="0.5"/>
<circle cx="337.5" cy="43.5" r="1.5" fill="#51A3D3" fill-opacity="0.5"/>
<circle cx="295.5" cy="65.5" r="1.5" fill="#51A3D3" fill-opacity="0.5"/>
<circle cx="315.5" cy="116.5" r="1.5" fill="#51A3D3" fill-opacity="0.7"/>
<path d="M358 93.5C358 94.3284 357.328 95 356.5 95C355.672 95 355 94.3284 355 93.5C355 92.6716 355.672 92 356.5 92C357.328 92 358 92.6716 358 93.5Z" fill="#51A3D3" fill-opacity="0.5"/>
<path d="M97.352 150.234H95.616V148.26H93.908V150.234H90.702L95.252 144.2H93.306L88.476 150.514V151.774H93.852V154H95.616V151.774H97.352V150.234Z" fill="#51A3D3"/>
<path d="M46.704 154.14C49.042 154.14 50.806 152.32 50.806 149.1C50.806 145.88 49.042 144.06 46.704 144.06C44.38 144.06 42.616 145.88 42.616 149.1C42.616 152.32 44.38 154.14 46.704 154.14ZM46.704 152.558C45.374 152.558 44.45 151.466 44.45 149.1C44.45 146.734 45.374 145.642 46.704 145.642C48.048 145.642 48.972 146.734 48.972 149.1C48.972 151.466 48.048 152.558 46.704 152.558Z" fill="#51A3D3"/>
<path d="M143.406 148.848C144.204 148.414 144.652 147.714 144.652 146.79C144.652 145.11 143.168 144.06 140.984 144.06C138.814 144.06 137.344 145.11 137.344 146.79C137.344 147.714 137.778 148.414 138.562 148.848C137.554 149.31 136.994 150.108 136.994 151.186C136.994 153.006 138.548 154.14 140.984 154.14C143.42 154.14 145.002 153.006 145.002 151.186C145.002 150.108 144.428 149.31 143.406 148.848ZM140.984 145.488C142.104 145.488 142.86 145.992 142.86 146.874C142.86 147.714 142.146 148.246 140.984 148.246C139.836 148.246 139.136 147.714 139.136 146.874C139.136 145.992 139.864 145.488 140.984 145.488ZM140.984 152.712C139.64 152.712 138.828 152.124 138.828 151.13C138.828 150.164 139.64 149.562 140.984 149.562C142.328 149.562 143.168 150.164 143.168 151.13C143.168 152.124 142.328 152.712 140.984 152.712Z" fill="#51A3D3"/>
<path d="M181.232 144.2V145.726H183.304V154H185.124V144.2H181.232ZM189.826 152.46L192.444 149.968C193.802 148.694 194.068 147.826 194.068 146.874C194.068 145.138 192.696 144.06 190.568 144.06C188.958 144.06 187.6 144.662 186.844 145.684L188.118 146.664C188.664 145.964 189.462 145.642 190.414 145.642C191.618 145.642 192.234 146.16 192.234 147.056C192.234 147.602 192.066 148.176 191.114 149.086L187.222 152.782V154H194.446V152.46H189.826Z" fill="#51A3D3"/>
<rect x="223" y="138" width="24" height="22" rx="8" fill="#F4435A"/>
<path d="M228.417 144.2V145.726H230.489V154H232.309V144.2H228.417ZM238.985 147.952C237.893 147.952 236.955 148.288 236.367 148.974V148.96C236.367 146.734 237.529 145.586 239.377 145.586C240.063 145.586 240.707 145.712 241.239 146.062L241.911 144.69C241.253 144.27 240.315 144.06 239.335 144.06C236.493 144.06 234.533 145.908 234.533 149.268C234.533 152.418 236.101 154.14 238.775 154.14C240.777 154.14 242.359 152.908 242.359 150.962C242.359 149.128 240.917 147.952 238.985 147.952ZM238.677 152.712C237.375 152.712 236.647 151.984 236.647 151.06C236.647 150.094 237.459 149.38 238.635 149.38C239.825 149.38 240.595 150.024 240.595 151.046C240.595 152.068 239.811 152.712 238.677 152.712Z" fill="white"/>
<rect x="317" y="138" width="24" height="22" rx="8" fill="#F4435A"/>
<path d="M276.19 152.46L278.808 149.968C280.166 148.694 280.432 147.826 280.432 146.874C280.432 145.138 279.06 144.06 276.932 144.06C275.322 144.06 273.964 144.662 273.208 145.684L274.482 146.664C275.028 145.964 275.826 145.642 276.778 145.642C277.982 145.642 278.598 146.16 278.598 147.056C278.598 147.602 278.43 148.176 277.478 149.086L273.586 152.782V154H280.81V152.46H276.19ZM286.188 154.14C288.526 154.14 290.29 152.32 290.29 149.1C290.29 145.88 288.526 144.06 286.188 144.06C283.864 144.06 282.1 145.88 282.1 149.1C282.1 152.32 283.864 154.14 286.188 154.14ZM286.188 152.558C284.858 152.558 283.934 151.466 283.934 149.1C283.934 146.734 284.858 145.642 286.188 145.642C287.532 145.642 288.456 146.734 288.456 149.1C288.456 151.466 287.532 152.558 286.188 152.558Z" fill="#51A3D3"/>
<path d="M323.094 152.46L325.712 149.968C327.07 148.694 327.336 147.826 327.336 146.874C327.336 145.138 325.964 144.06 323.836 144.06C322.226 144.06 320.868 144.662 320.112 145.684L321.386 146.664C321.932 145.964 322.73 145.642 323.682 145.642C324.886 145.642 325.502 146.16 325.502 147.056C325.502 147.602 325.334 148.176 324.382 149.086L320.49 152.782V154H327.714V152.46H323.094ZM337.575 150.234H335.839V148.26H334.131V150.234H330.925L335.475 144.2H333.529L328.699 150.514V151.774H334.075V154H335.839V151.774H337.575V150.234Z" fill="white"/>
<g clip-path="url(#clip1_1452_66002)">
<mask id="mask0_1452_66002" style="mask-type:alpha" maskUnits="userSpaceOnUse" x="0" y="32" width="70" height="100">
<rect y="32" width="70" height="100" fill="#51A3D3"/>
</mask>
<g mask="url(#mask0_1452_66002)">
<path d="M351.211 62.4502C338.953 62.4502 332.831 70.8206 326.913 78.9152C321.048 86.9356 315.508 94.5142 304.322 94.5142C293.135 94.5142 287.595 86.9392 281.731 78.9152C275.813 70.8206 269.691 62.4502 257.432 62.4502C245.174 62.4502 239.055 70.8206 233.134 78.9152C227.27 86.9356 221.729 94.5142 210.543 94.5142C199.357 94.5142 193.817 86.9392 187.952 78.9152C182.034 70.8206 175.912 62.4502 163.654 62.4502C151.395 62.4502 145.277 70.8206 139.356 78.9152C133.491 86.9356 127.951 94.5142 116.765 94.5142C105.578 94.5142 100.042 86.9392 94.1768 78.9152C88.2592 70.8206 82.1371 62.4502 69.8787 62.4502C57.6204 62.4502 51.5018 70.8206 45.5806 78.9152C39.7265 86.9392 34.1863 94.5142 23 94.5142V96.6351C35.2584 96.6351 41.377 88.2647 47.2981 80.1701C53.1628 72.1496 58.703 64.5711 69.8893 64.5711C81.0756 64.5711 86.6159 72.1461 92.4805 80.1701C98.3981 88.2647 104.52 96.6351 116.775 96.6351C129.03 96.6351 135.152 88.2647 141.073 80.1701C146.938 72.1496 152.478 64.5711 163.664 64.5711C174.851 64.5711 180.391 72.1461 186.256 80.1701C192.173 88.2647 198.295 96.6351 210.554 96.6351C222.812 96.6351 228.931 88.2647 234.852 80.1701C240.717 72.1496 246.257 64.5711 257.443 64.5711C268.629 64.5711 274.17 72.1461 280.034 80.1701C285.952 88.2647 292.074 96.6351 304.332 96.6351C316.591 96.6351 322.713 88.2647 328.63 80.1701C334.495 72.1496 340.035 64.5711 351.222 64.5711V62.4502H351.211Z" fill="#51A3D3"/>
<path d="M70.2111 62.4502C57.9527 62.4502 51.8306 70.8206 45.913 78.9152C40.0483 86.9356 34.5081 94.5142 23.3218 94.5142C12.1355 94.5142 6.59525 86.9392 0.73056 78.9152C-5.18703 70.8206 -11.3091 62.4502 -23.5675 62.4502C-35.8259 62.4502 -41.9445 70.8206 -47.8656 78.9152C-53.7303 86.9356 -59.2706 94.5142 -70.4568 94.5142C-81.6431 94.5142 -87.1834 86.9392 -93.0481 78.9152C-98.9657 70.8206 -105.088 62.4502 -117.346 62.4502C-129.605 62.4502 -135.723 70.8206 -141.644 78.9152C-147.509 86.9356 -153.049 94.5142 -164.235 94.5142C-175.422 94.5142 -180.958 86.9392 -186.823 78.9152C-192.741 70.8206 -198.863 62.4502 -211.121 62.4502C-223.38 62.4502 -229.498 70.8206 -235.419 78.9152C-241.273 86.9392 -246.814 94.5142 -258 94.5142V96.6351C-245.742 96.6351 -239.623 88.2647 -233.702 80.1701C-227.837 72.1496 -222.297 64.5711 -211.111 64.5711C-199.924 64.5711 -194.384 72.1461 -188.519 80.1701C-182.602 88.2647 -176.48 96.6351 -164.225 96.6351C-151.97 96.6351 -145.848 88.2647 -139.927 80.1701C-134.062 72.1496 -128.522 64.5711 -117.336 64.5711C-106.149 64.5711 -100.609 72.1461 -94.7444 80.1701C-88.8268 88.2647 -82.7046 96.6351 -70.4463 96.6351C-58.1879 96.6351 -52.0693 88.2647 -46.1482 80.1701C-40.2835 72.1496 -34.7432 64.5711 -23.5569 64.5711C-12.3707 64.5711 -6.83041 72.1461 -0.965729 80.1701C4.95187 88.2647 11.074 96.6351 23.3324 96.6351C35.5907 96.6351 41.7129 88.2647 47.6305 80.1701C53.4952 72.1496 59.0354 64.5711 70.2217 64.5711V62.4502H70.2111Z" fill="#51A3D3"/>
</g>
</g>
<mask id="path-37-inside-1_1452_66002" fill="white">
<path fill-rule="evenodd" clip-rule="evenodd" d="M90 30C98.2843 30 105 23.2843 105 15C105 6.71573 98.2843 5.13494e-06 90 4.4107e-06L50 0C41.7157 0 35 6.71573 35 15C35 23.2843 41.7157 30 50 30L66.5359 30L70 36L73.4641 30L90 30Z"/>
</mask>
<path fill-rule="evenodd" clip-rule="evenodd" d="M90 30C98.2843 30 105 23.2843 105 15C105 6.71573 98.2843 5.13494e-06 90 4.4107e-06L50 0C41.7157 0 35 6.71573 35 15C35 23.2843 41.7157 30 50 30L66.5359 30L70 36L73.4641 30L90 30Z" fill="#0074A2" fill-opacity="0.8"/>
<path d="M90 30V29V30ZM90 4.4107e-06V1V4.4107e-06ZM50 0V-1V0ZM35 15H34H35ZM50 30V29V30ZM66.5359 30L67.4019 29.5L67.1132 29H66.5359V30ZM70 36L69.134 36.5L70 38L70.866 36.5L70 36ZM73.4641 30V29H72.8868L72.5981 29.5L73.4641 30ZM104 15C104 22.732 97.732 29 90 29V31C98.8366 31 106 23.8366 106 15H104ZM90 1C97.732 1.00001 104 7.26802 104 15H106C106 6.16345 98.8366 -0.999995 90 -0.999996V1ZM50 1L90 1V-0.999996L50 -1V1ZM36 15C36 7.26801 42.268 1 50 1V-1C41.1634 -1 34 6.16344 34 15H36ZM50 29C42.268 29 36 22.732 36 15H34C34 23.8366 41.1634 31 50 31V29ZM66.5359 29L50 29V31L66.5359 31V29ZM70.866 35.5L67.4019 29.5L65.6699 30.5L69.134 36.5L70.866 35.5ZM72.5981 29.5L69.134 35.5L70.866 36.5L74.3301 30.5L72.5981 29.5ZM90 29L73.4641 29V31L90 31V29Z" fill="#51A3D3" mask="url(#path-37-inside-1_1452_66002)"/>
<path d="M55.8841 19.24L58.8761 16.392C60.4281 14.936 60.7321 13.944 60.7321 12.856C60.7321 10.872 59.1641 9.64 56.7321 9.64C54.8921 9.64 53.3401 10.328 52.4761 11.496L53.9321 12.616C54.5561 11.816 55.4681 11.448 56.5561 11.448C57.9321 11.448 58.6361 12.04 58.6361 13.064C58.6361 13.688 58.4441 14.344 57.3561 15.384L52.9081 19.608V21H61.1641V19.24H55.8841ZM61.6569 22.6H63.4489L68.7289 7.528H66.9369L61.6569 22.6ZM71.9304 19.24L74.9224 16.392C76.4744 14.936 76.7784 13.944 76.7784 12.856C76.7784 10.872 75.2104 9.64 72.7784 9.64C70.9384 9.64 69.3864 10.328 68.5224 11.496L69.9784 12.616C70.6024 11.816 71.5144 11.448 72.6024 11.448C73.9784 11.448 74.6824 12.04 74.6824 13.064C74.6824 13.688 74.4904 14.344 73.4024 15.384L68.9544 19.608V21H77.2104V19.24H71.9304ZM88.4805 16.696H86.4965V14.44H84.5445V16.696H80.8805L86.0805 9.8H83.8565L78.3365 17.016V18.456H84.4805V21H86.4965V18.456H88.4805V16.696Z" fill="white"/>
<circle cx="70" cy="62" r="24.5" fill="#022B42" fill-opacity="0.8" stroke="#51A3D3"/>
<circle cx="70" cy="62" r="28.5" stroke="#51A3D3" stroke-opacity="0.4"/>
<mask id="path-42-inside-2_1452_66002" fill="white">
<path fill-rule="evenodd" clip-rule="evenodd" d="M70.0016 66.7004C74.7236 66.7004 78.5516 65.4436 78.5516 61.1588C78.5516 60.1521 78.3403 59.1902 77.9557 58.3076C82.8495 59.7766 86.1516 62.5594 86.1516 65.7504C86.1516 70.4724 78.921 74.3004 70.0016 74.3004C61.0822 74.3004 53.8516 70.4724 53.8516 65.7504C53.8516 62.5594 57.1536 59.7766 62.0474 58.3076C61.6629 59.1902 61.4516 60.1521 61.4516 61.1588C61.4516 65.4436 65.2795 66.7004 70.0016 66.7004Z"/>
</mask>
<path d="M77.9557 58.3076L78.5307 56.3921L74.3992 55.1519L76.1222 59.1065L77.9557 58.3076ZM62.0474 58.3076L63.8809 59.1065L65.6039 55.1519L61.4724 56.3921L62.0474 58.3076ZM76.5516 61.1588C76.5516 61.9232 76.3841 62.4379 76.1651 62.8026C75.9448 63.1694 75.6036 63.4983 75.0845 63.7834C73.9822 64.3888 72.2533 64.7004 70.0016 64.7004V68.7004C72.4719 68.7004 75.0179 68.3836 77.0101 67.2894C78.0382 66.7247 78.9492 65.9359 79.5942 64.862C80.2405 63.7859 80.5516 62.5367 80.5516 61.1588H76.5516ZM76.1222 59.1065C76.4004 59.745 76.5516 60.4355 76.5516 61.1588H80.5516C80.5516 59.8687 80.2802 58.6354 79.7893 57.5088L76.1222 59.1065ZM77.3807 60.2232C79.6352 60.8999 81.3989 61.8454 82.5597 62.8777C83.7174 63.9073 84.1516 64.8972 84.1516 65.7504H88.1516C88.1516 63.4126 86.9347 61.4156 85.2179 59.8888C83.5043 58.3648 81.1701 57.1843 78.5307 56.3921L77.3807 60.2232ZM84.1516 65.7504C84.1516 67.0056 83.1557 68.615 80.4856 70.0286C77.9049 71.3948 74.2017 72.3004 70.0016 72.3004V76.3004C74.7209 76.3004 79.0926 75.292 82.3571 73.5638C85.5321 71.8829 88.1516 69.2173 88.1516 65.7504H84.1516ZM70.0016 72.3004C65.8015 72.3004 62.0982 71.3948 59.5176 70.0286C56.8474 68.615 55.8516 67.0056 55.8516 65.7504H51.8516C51.8516 69.2173 54.471 71.8829 57.646 73.5638C60.9105 75.292 65.2823 76.3004 70.0016 76.3004V72.3004ZM55.8516 65.7504C55.8516 64.8972 56.2857 63.9073 57.4434 62.8777C58.6042 61.8454 60.368 60.8999 62.6224 60.2232L61.4724 56.3921C58.833 57.1843 56.4988 58.3648 54.7852 59.8888C53.0684 61.4156 51.8516 63.4126 51.8516 65.7504H55.8516ZM63.4516 61.1588C63.4516 60.4355 63.6027 59.745 63.8809 59.1065L60.2139 57.5088C59.723 58.6354 59.4516 59.8687 59.4516 61.1588H63.4516ZM70.0016 64.7004C67.7498 64.7004 66.0209 64.3888 64.9186 63.7834C64.3995 63.4983 64.0583 63.1694 63.838 62.8026C63.619 62.4379 63.4516 61.9232 63.4516 61.1588H59.4516C59.4516 62.5367 59.7626 63.7859 60.4089 64.862C61.0539 65.9359 61.9649 66.7247 62.993 67.2894C64.9852 68.3836 67.5312 68.7004 70.0016 68.7004V64.7004Z" fill="#FF7987" mask="url(#path-42-inside-2_1452_66002)"/>
<path d="M70.0031 67.7004C72.4188 67.7004 74.7606 67.3849 76.5303 66.4129C77.4312 65.9181 78.1997 65.2443 78.7385 64.3471C79.278 63.4489 79.5531 62.3833 79.5531 61.1587C79.5531 56.2324 75.1838 52.4004 70.0031 52.4004C64.8224 52.4004 60.4531 56.2324 60.4531 61.1587C60.4531 62.3833 60.7283 63.4489 61.2678 64.3471C61.8066 65.2443 62.5751 65.9181 63.476 66.4129C65.2457 67.3849 67.5875 67.7004 70.0031 67.7004Z" stroke="#FF7987" stroke-width="2"/>
<path fill-rule="evenodd" clip-rule="evenodd" d="M83.6891 67.752C81.9695 71.3144 76.4917 73.9189 70 73.9189C63.1383 73.9189 57.4094 71.0091 56.0539 67.1338C55.8548 67.8275 55.7501 68.5722 55.75 69.3678C55.7496 73.0947 62.1299 76.2005 70 76.2005C77.8701 76.2005 84.25 73.7159 84.25 69.3678C84.25 68.9472 84.0543 68.3881 83.6891 67.752Z" fill="#FF7987"/>
<path d="M72.2195 75.7256C72.2195 76.322 71.5697 77.1006 70.3695 77.1006C69.1693 77.1006 68.5195 76.322 68.5195 75.7256C68.5195 75.1292 69.1693 74.3506 70.3695 74.3506C71.5697 74.3506 72.2195 75.1292 72.2195 75.7256Z" fill="#FF7987" stroke="#FF7987" stroke-width="2"/>
<path d="M63.642 75.0965C63.5384 75.6838 62.7633 76.3377 61.5813 76.1293C60.3993 75.9209 59.8946 75.0413 59.9982 74.454C60.1017 73.8666 60.8769 73.2127 62.0588 73.4211C63.2408 73.6295 63.7455 74.5091 63.642 75.0965Z" fill="#FF7987" stroke="#FF7987" stroke-width="2"/>
<path d="M80.1621 74.4544C80.2657 75.0418 79.7609 75.9214 78.579 76.1298C77.397 76.3382 76.6219 75.6843 76.5183 75.0969C76.4147 74.5096 76.9195 73.63 78.1014 73.4216C79.2834 73.2131 80.0585 73.8671 80.1621 74.4544Z" fill="#FF7987" stroke="#FF7987" stroke-width="2"/>
<path d="M71.9023 56.25C72.5357 56.3652 74.9423 57.2864 75.7023 60.05" stroke="#FF7987" stroke-width="2" stroke-linecap="round"/>
<path d="M70 52.4504V48.6504" stroke="#FF7987" stroke-width="2" stroke-linecap="round"/>
<path d="M71.8523 46.7504C71.8523 47.7721 71.0241 48.6004 70.0023 48.6004C68.9806 48.6004 68.1523 47.7721 68.1523 46.7504C68.1523 45.7287 68.9806 44.9004 70.0023 44.9004C71.0241 44.9004 71.8523 45.7287 71.8523 46.7504Z" stroke="#FF7987" stroke-width="2"/>
</g>
<defs>
<clipPath id="clip0_1452_66002">
<rect width="375" height="160" fill="white"/>
</clipPath>
<clipPath id="clip1_1452_66002">
<rect width="375" height="58" fill="white" transform="translate(0 51)"/>
</clipPath>
</defs>
</svg>
