<svg width="375" height="160" viewBox="0 0 375 160" fill="none" xmlns="http://www.w3.org/2000/svg">
<g clip-path="url(#clip0_1452_72698)">
<rect x="-0.5" y="32.5" width="376" height="99" fill="#004973" fill-opacity="0.5" stroke="#0074A2"/>
<line x1="93.5" y1="32" x2="93.5" y2="132" stroke="#0074A2"/>
<line x1="140.5" y1="32" x2="140.5" y2="132" stroke="#0074A2"/>
<line x1="46.5" y1="32" x2="46.5" y2="132" stroke="#0074A2"/>
<line x1="187.5" y1="32" x2="187.5" y2="132" stroke="#0074A2"/>
<line x1="234.5" y1="32" x2="234.5" y2="132" stroke="#0074A2"/>
<line x1="281.5" y1="32" x2="281.5" y2="132" stroke="#0074A2"/>
<line x1="328.5" y1="32" x2="328.5" y2="132" stroke="#0074A2"/>
<circle cx="33.5" cy="52.5" r="1.5" fill="#51A3D3" fill-opacity="0.5"/>
<circle cx="9.5" cy="103.5" r="1.5" fill="#51A3D3" fill-opacity="0.3"/>
<circle cx="75.5" cy="102.5" r="1.5" fill="#51A3D3" fill-opacity="0.5"/>
<circle cx="104.5" cy="43.5" r="1.5" fill="#51A3D3" fill-opacity="0.3"/>
<circle cx="35.5" cy="122.5" r="1.5" fill="#51A3D3" fill-opacity="0.7"/>
<circle cx="126.5" cy="119.5" r="1.5" fill="#51A3D3" fill-opacity="0.3"/>
<circle cx="149.5" cy="56.5" r="1.5" fill="#51A3D3" fill-opacity="0.7"/>
<circle cx="172.5" cy="96.5" r="1.5" fill="#51A3D3" fill-opacity="0.25"/>
<circle cx="206.5" cy="63.5" r="1.5" fill="#51A3D3" fill-opacity="0.5"/>
<circle cx="242.5" cy="41.5" r="1.5" fill="#51A3D3" fill-opacity="0.3"/>
<circle cx="256.5" cy="96.5" r="1.5" fill="#51A3D3" fill-opacity="0.5"/>
<circle cx="217.5" cy="120.5" r="1.5" fill="#51A3D3" fill-opacity="0.5"/>
<circle cx="337.5" cy="43.5" r="1.5" fill="#51A3D3" fill-opacity="0.5"/>
<circle cx="295.5" cy="65.5" r="1.5" fill="#51A3D3" fill-opacity="0.5"/>
<circle cx="315.5" cy="116.5" r="1.5" fill="#51A3D3" fill-opacity="0.7"/>
<path d="M358 93.5C358 94.3284 357.328 95 356.5 95C355.672 95 355 94.3284 355 93.5C355 92.6716 355.672 92 356.5 92C357.328 92 358 92.6716 358 93.5Z" fill="#51A3D3" fill-opacity="0.5"/>
<path d="M97.352 150.234H95.616V148.26H93.908V150.234H90.702L95.252 144.2H93.306L88.476 150.514V151.774H93.852V154H95.616V151.774H97.352V150.234Z" fill="#51A3D3"/>
<path d="M46.704 154.14C49.042 154.14 50.806 152.32 50.806 149.1C50.806 145.88 49.042 144.06 46.704 144.06C44.38 144.06 42.616 145.88 42.616 149.1C42.616 152.32 44.38 154.14 46.704 154.14ZM46.704 152.558C45.374 152.558 44.45 151.466 44.45 149.1C44.45 146.734 45.374 145.642 46.704 145.642C48.048 145.642 48.972 146.734 48.972 149.1C48.972 151.466 48.048 152.558 46.704 152.558Z" fill="#51A3D3"/>
<path d="M143.406 148.848C144.204 148.414 144.652 147.714 144.652 146.79C144.652 145.11 143.168 144.06 140.984 144.06C138.814 144.06 137.344 145.11 137.344 146.79C137.344 147.714 137.778 148.414 138.562 148.848C137.554 149.31 136.994 150.108 136.994 151.186C136.994 153.006 138.548 154.14 140.984 154.14C143.42 154.14 145.002 153.006 145.002 151.186C145.002 150.108 144.428 149.31 143.406 148.848ZM140.984 145.488C142.104 145.488 142.86 145.992 142.86 146.874C142.86 147.714 142.146 148.246 140.984 148.246C139.836 148.246 139.136 147.714 139.136 146.874C139.136 145.992 139.864 145.488 140.984 145.488ZM140.984 152.712C139.64 152.712 138.828 152.124 138.828 151.13C138.828 150.164 139.64 149.562 140.984 149.562C142.328 149.562 143.168 150.164 143.168 151.13C143.168 152.124 142.328 152.712 140.984 152.712Z" fill="#51A3D3"/>
<path d="M181.232 144.2V145.726H183.304V154H185.124V144.2H181.232ZM189.826 152.46L192.444 149.968C193.802 148.694 194.068 147.826 194.068 146.874C194.068 145.138 192.696 144.06 190.568 144.06C188.958 144.06 187.6 144.662 186.844 145.684L188.118 146.664C188.664 145.964 189.462 145.642 190.414 145.642C191.618 145.642 192.234 146.16 192.234 147.056C192.234 147.602 192.066 148.176 191.114 149.086L187.222 152.782V154H194.446V152.46H189.826Z" fill="#51A3D3"/>
<rect x="223" y="138" width="24" height="22" rx="8" fill="#F4435A"/>
<path d="M228.417 144.2V145.726H230.489V154H232.309V144.2H228.417ZM238.985 147.952C237.893 147.952 236.955 148.288 236.367 148.974V148.96C236.367 146.734 237.529 145.586 239.377 145.586C240.063 145.586 240.707 145.712 241.239 146.062L241.911 144.69C241.253 144.27 240.315 144.06 239.335 144.06C236.493 144.06 234.533 145.908 234.533 149.268C234.533 152.418 236.101 154.14 238.775 154.14C240.777 154.14 242.359 152.908 242.359 150.962C242.359 149.128 240.917 147.952 238.985 147.952ZM238.677 152.712C237.375 152.712 236.647 151.984 236.647 151.06C236.647 150.094 237.459 149.38 238.635 149.38C239.825 149.38 240.595 150.024 240.595 151.046C240.595 152.068 239.811 152.712 238.677 152.712Z" fill="white"/>
<rect x="317" y="138" width="24" height="22" rx="8" fill="#F4435A"/>
<path d="M276.19 152.46L278.808 149.968C280.166 148.694 280.432 147.826 280.432 146.874C280.432 145.138 279.06 144.06 276.932 144.06C275.322 144.06 273.964 144.662 273.208 145.684L274.482 146.664C275.028 145.964 275.826 145.642 276.778 145.642C277.982 145.642 278.598 146.16 278.598 147.056C278.598 147.602 278.43 148.176 277.478 149.086L273.586 152.782V154H280.81V152.46H276.19ZM286.188 154.14C288.526 154.14 290.29 152.32 290.29 149.1C290.29 145.88 288.526 144.06 286.188 144.06C283.864 144.06 282.1 145.88 282.1 149.1C282.1 152.32 283.864 154.14 286.188 154.14ZM286.188 152.558C284.858 152.558 283.934 151.466 283.934 149.1C283.934 146.734 284.858 145.642 286.188 145.642C287.532 145.642 288.456 146.734 288.456 149.1C288.456 151.466 287.532 152.558 286.188 152.558Z" fill="#51A3D3"/>
<path d="M323.094 152.46L325.712 149.968C327.07 148.694 327.336 147.826 327.336 146.874C327.336 145.138 325.964 144.06 323.836 144.06C322.226 144.06 320.868 144.662 320.112 145.684L321.386 146.664C321.932 145.964 322.73 145.642 323.682 145.642C324.886 145.642 325.502 146.16 325.502 147.056C325.502 147.602 325.334 148.176 324.382 149.086L320.49 152.782V154H327.714V152.46H323.094ZM337.575 150.234H335.839V148.26H334.131V150.234H330.925L335.475 144.2H333.529L328.699 150.514V151.774H334.075V154H335.839V151.774H337.575V150.234Z" fill="white"/>
<g clip-path="url(#clip1_1452_72698)">
<mask id="mask0_1452_72698" style="mask-type:alpha" maskUnits="userSpaceOnUse" x="0" y="32" width="93" height="100">
<rect y="32" width="93" height="100" fill="#51A3D3"/>
</mask>
<g mask="url(#mask0_1452_72698)">
<path d="M351.211 62.4502C338.953 62.4502 332.831 70.8206 326.913 78.9152C321.048 86.9356 315.508 94.5142 304.322 94.5142C293.135 94.5142 287.595 86.9392 281.731 78.9152C275.813 70.8206 269.691 62.4502 257.432 62.4502C245.174 62.4502 239.055 70.8206 233.134 78.9152C227.27 86.9356 221.729 94.5142 210.543 94.5142C199.357 94.5142 193.817 86.9392 187.952 78.9152C182.034 70.8206 175.912 62.4502 163.654 62.4502C151.395 62.4502 145.277 70.8206 139.356 78.9152C133.491 86.9356 127.951 94.5142 116.765 94.5142C105.578 94.5142 100.042 86.9392 94.1768 78.9152C88.2592 70.8206 82.1371 62.4502 69.8787 62.4502C57.6204 62.4502 51.5018 70.8206 45.5806 78.9152C39.7265 86.9392 34.1863 94.5142 23 94.5142V96.6351C35.2584 96.6351 41.377 88.2647 47.2981 80.1701C53.1628 72.1496 58.703 64.5711 69.8893 64.5711C81.0756 64.5711 86.6159 72.1461 92.4805 80.1701C98.3981 88.2647 104.52 96.6351 116.775 96.6351C129.03 96.6351 135.152 88.2647 141.073 80.1701C146.938 72.1496 152.478 64.5711 163.664 64.5711C174.851 64.5711 180.391 72.1461 186.256 80.1701C192.173 88.2647 198.295 96.6351 210.554 96.6351C222.812 96.6351 228.931 88.2647 234.852 80.1701C240.717 72.1496 246.257 64.5711 257.443 64.5711C268.629 64.5711 274.17 72.1461 280.034 80.1701C285.952 88.2647 292.074 96.6351 304.332 96.6351C316.591 96.6351 322.713 88.2647 328.63 80.1701C334.495 72.1496 340.035 64.5711 351.222 64.5711V62.4502H351.211Z" fill="#51A3D3"/>
<path d="M70.2111 62.4502C57.9527 62.4502 51.8306 70.8206 45.913 78.9152C40.0483 86.9356 34.5081 94.5142 23.3218 94.5142C12.1355 94.5142 6.59525 86.9392 0.73056 78.9152C-5.18703 70.8206 -11.3091 62.4502 -23.5675 62.4502C-35.8259 62.4502 -41.9445 70.8206 -47.8656 78.9152C-53.7303 86.9356 -59.2706 94.5142 -70.4568 94.5142C-81.6431 94.5142 -87.1834 86.9392 -93.0481 78.9152C-98.9657 70.8206 -105.088 62.4502 -117.346 62.4502C-129.605 62.4502 -135.723 70.8206 -141.644 78.9152C-147.509 86.9356 -153.049 94.5142 -164.235 94.5142C-175.422 94.5142 -180.958 86.9392 -186.823 78.9152C-192.741 70.8206 -198.863 62.4502 -211.121 62.4502C-223.38 62.4502 -229.498 70.8206 -235.419 78.9152C-241.273 86.9392 -246.814 94.5142 -258 94.5142V96.6351C-245.742 96.6351 -239.623 88.2647 -233.702 80.1701C-227.837 72.1496 -222.297 64.5711 -211.111 64.5711C-199.924 64.5711 -194.384 72.1461 -188.519 80.1701C-182.602 88.2647 -176.48 96.6351 -164.225 96.6351C-151.97 96.6351 -145.848 88.2647 -139.927 80.1701C-134.062 72.1496 -128.522 64.5711 -117.336 64.5711C-106.149 64.5711 -100.609 72.1461 -94.7444 80.1701C-88.8268 88.2647 -82.7046 96.6351 -70.4463 96.6351C-58.1879 96.6351 -52.0693 88.2647 -46.1482 80.1701C-40.2835 72.1496 -34.7432 64.5711 -23.5569 64.5711C-12.3707 64.5711 -6.83041 72.1461 -0.965729 80.1701C4.95187 88.2647 11.074 96.6351 23.3324 96.6351C35.5907 96.6351 41.7129 88.2647 47.6305 80.1701C53.4952 72.1496 59.0354 64.5711 70.2217 64.5711V62.4502H70.2111Z" fill="#51A3D3"/>
</g>
</g>
<mask id="path-37-inside-1_1452_72698" fill="white">
<path fill-rule="evenodd" clip-rule="evenodd" d="M113 50C121.284 50 128 43.2843 128 35C128 26.7157 121.284 20 113 20L73 20C64.7157 20 58 26.7157 58 35C58 43.2843 64.7157 50 73 50L89.5359 50L93 56L96.4641 50L113 50Z"/>
</mask>
<path fill-rule="evenodd" clip-rule="evenodd" d="M113 50C121.284 50 128 43.2843 128 35C128 26.7157 121.284 20 113 20L73 20C64.7157 20 58 26.7157 58 35C58 43.2843 64.7157 50 73 50L89.5359 50L93 56L96.4641 50L113 50Z" fill="#0074A2" fill-opacity="0.8"/>
<path d="M113 50V49V50ZM113 20V21V20ZM73 20V19V20ZM58 35H57H58ZM73 50V49V50ZM89.5359 50L90.4019 49.5L90.1132 49H89.5359V50ZM93 56L92.134 56.5L93 58L93.866 56.5L93 56ZM96.4641 50V49H95.8868L95.5981 49.5L96.4641 50ZM127 35C127 42.732 120.732 49 113 49V51C121.837 51 129 43.8366 129 35H127ZM113 21C120.732 21 127 27.268 127 35H129C129 26.1635 121.837 19 113 19V21ZM73 21L113 21V19L73 19V21ZM59 35C59 27.268 65.268 21 73 21V19C64.1634 19 57 26.1634 57 35H59ZM73 49C65.268 49 59 42.732 59 35H57C57 43.8366 64.1634 51 73 51V49ZM89.5359 49L73 49V51L89.5359 51V49ZM93.866 55.5L90.4019 49.5L88.6699 50.5L92.134 56.5L93.866 55.5ZM95.5981 49.5L92.134 55.5L93.866 56.5L97.3301 50.5L95.5981 49.5ZM113 49L96.4641 49V51L113 51V49Z" fill="#51A3D3" mask="url(#path-37-inside-1_1452_72698)"/>
<path d="M85.1377 36.696H83.1537V34.44H81.2017V36.696H77.5377L82.7377 29.8H80.5137L74.9937 37.016V38.456H81.1377V41H83.1537V38.456H85.1377V36.696ZM85.5553 42.6H87.3473L92.6273 27.528H90.8353L85.5553 42.6ZM95.8288 39.24L98.8208 36.392C100.373 34.936 100.677 33.944 100.677 32.856C100.677 30.872 99.1088 29.64 96.6768 29.64C94.8368 29.64 93.2848 30.328 92.4208 31.496L93.8768 32.616C94.5008 31.816 95.4128 31.448 96.5008 31.448C97.8768 31.448 98.5808 32.04 98.5808 33.064C98.5808 33.688 98.3888 34.344 97.3008 35.384L92.8528 39.608V41H101.109V39.24H95.8288ZM112.379 36.696H110.395V34.44H108.443V36.696H104.779L109.979 29.8H107.755L102.235 37.016V38.456H108.379V41H110.395V38.456H112.379V36.696Z" fill="white"/>
<circle cx="93" cy="82" r="24.5" fill="#022B42" fill-opacity="0.8" stroke="#51A3D3"/>
<circle cx="93" cy="82" r="28.5" stroke="#51A3D3" stroke-opacity="0.4"/>
<mask id="path-42-inside-2_1452_72698" fill="white">
<path fill-rule="evenodd" clip-rule="evenodd" d="M93.0016 86.7004C97.7236 86.7004 101.552 85.4436 101.552 81.1588C101.552 80.1521 101.34 79.1902 100.956 78.3076C105.85 79.7766 109.152 82.5594 109.152 85.7504C109.152 90.4724 101.921 94.3004 93.0016 94.3004C84.0822 94.3004 76.8516 90.4724 76.8516 85.7504C76.8516 82.5594 80.1536 79.7766 85.0474 78.3076C84.6629 79.1902 84.4516 80.1521 84.4516 81.1588C84.4516 85.4436 88.2795 86.7004 93.0016 86.7004Z"/>
</mask>
<path d="M100.956 78.3076L101.531 76.3921L97.3992 75.1519L99.1222 79.1065L100.956 78.3076ZM85.0474 78.3076L86.8809 79.1065L88.6039 75.1519L84.4724 76.3921L85.0474 78.3076ZM99.5516 81.1588C99.5516 81.9232 99.3841 82.4379 99.1651 82.8026C98.9448 83.1694 98.6036 83.4983 98.0845 83.7834C96.9822 84.3888 95.2533 84.7004 93.0016 84.7004V88.7004C95.4719 88.7004 98.0179 88.3836 100.01 87.2894C101.038 86.7247 101.949 85.9359 102.594 84.862C103.241 83.7859 103.552 82.5367 103.552 81.1588H99.5516ZM99.1222 79.1065C99.4004 79.745 99.5516 80.4355 99.5516 81.1588H103.552C103.552 79.8687 103.28 78.6354 102.789 77.5088L99.1222 79.1065ZM100.381 80.2232C102.635 80.8999 104.399 81.8454 105.56 82.8777C106.717 83.9073 107.152 84.8972 107.152 85.7504H111.152C111.152 83.4126 109.935 81.4156 108.218 79.8888C106.504 78.3648 104.17 77.1843 101.531 76.3921L100.381 80.2232ZM107.152 85.7504C107.152 87.0056 106.156 88.615 103.486 90.0286C100.905 91.3948 97.2017 92.3004 93.0016 92.3004V96.3004C97.7209 96.3004 102.093 95.292 105.357 93.5638C108.532 91.8829 111.152 89.2173 111.152 85.7504H107.152ZM93.0016 92.3004C88.8015 92.3004 85.0982 91.3948 82.5176 90.0286C79.8474 88.615 78.8516 87.0056 78.8516 85.7504H74.8516C74.8516 89.2173 77.471 91.8829 80.646 93.5638C83.9105 95.292 88.2823 96.3004 93.0016 96.3004V92.3004ZM78.8516 85.7504C78.8516 84.8972 79.2857 83.9073 80.4434 82.8777C81.6042 81.8454 83.368 80.8999 85.6224 80.2232L84.4724 76.3921C81.833 77.1843 79.4988 78.3648 77.7852 79.8888C76.0684 81.4156 74.8516 83.4126 74.8516 85.7504H78.8516ZM86.4516 81.1588C86.4516 80.4355 86.6027 79.745 86.8809 79.1065L83.2139 77.5088C82.723 78.6354 82.4516 79.8687 82.4516 81.1588H86.4516ZM93.0016 84.7004C90.7498 84.7004 89.0209 84.3888 87.9186 83.7834C87.3995 83.4983 87.0583 83.1694 86.838 82.8026C86.619 82.4379 86.4516 81.9232 86.4516 81.1588H82.4516C82.4516 82.5367 82.7626 83.7859 83.4089 84.862C84.0539 85.9359 84.9649 86.7247 85.993 87.2894C87.9852 88.3836 90.5312 88.7004 93.0016 88.7004V84.7004Z" fill="#FF7987" mask="url(#path-42-inside-2_1452_72698)"/>
<path d="M93.0031 87.7004C95.4188 87.7004 97.7606 87.3849 99.5303 86.4129C100.431 85.9181 101.2 85.2443 101.738 84.3471C102.278 83.4489 102.553 82.3833 102.553 81.1587C102.553 76.2324 98.1838 72.4004 93.0031 72.4004C87.8224 72.4004 83.4531 76.2324 83.4531 81.1587C83.4531 82.3833 83.7283 83.4489 84.2678 84.3471C84.8066 85.2443 85.5751 85.9181 86.476 86.4129C88.2457 87.3849 90.5875 87.7004 93.0031 87.7004Z" stroke="#FF7987" stroke-width="2"/>
<path fill-rule="evenodd" clip-rule="evenodd" d="M106.689 87.752C104.969 91.3144 99.4917 93.9189 93 93.9189C86.1383 93.9189 80.4094 91.0091 79.0539 87.1338C78.8548 87.8275 78.7501 88.5722 78.75 89.3678C78.7496 93.0947 85.1299 96.2005 93 96.2005C100.87 96.2005 107.25 93.7159 107.25 89.3678C107.25 88.9472 107.054 88.3881 106.689 87.752Z" fill="#FF7987"/>
<path d="M95.2195 95.7256C95.2195 96.322 94.5697 97.1006 93.3695 97.1006C92.1693 97.1006 91.5195 96.322 91.5195 95.7256C91.5195 95.1292 92.1693 94.3506 93.3695 94.3506C94.5697 94.3506 95.2195 95.1292 95.2195 95.7256Z" fill="#FF7987" stroke="#FF7987" stroke-width="2"/>
<path d="M86.642 95.0965C86.5384 95.6838 85.7633 96.3377 84.5813 96.1293C83.3993 95.9209 82.8946 95.0413 82.9982 94.454C83.1017 93.8666 83.8769 93.2127 85.0588 93.4211C86.2408 93.6295 86.7455 94.5091 86.642 95.0965Z" fill="#FF7987" stroke="#FF7987" stroke-width="2"/>
<path d="M103.162 94.4544C103.266 95.0418 102.761 95.9214 101.579 96.1298C100.397 96.3382 99.6219 95.6843 99.5183 95.0969C99.4147 94.5096 99.9195 93.63 101.101 93.4216C102.283 93.2131 103.059 93.8671 103.162 94.4544Z" fill="#FF7987" stroke="#FF7987" stroke-width="2"/>
<path d="M94.9023 76.25C95.5357 76.3652 97.9423 77.2864 98.7023 80.05" stroke="#FF7987" stroke-width="2" stroke-linecap="round"/>
<path d="M93 72.4504V68.6504" stroke="#FF7987" stroke-width="2" stroke-linecap="round"/>
<path d="M94.8523 66.7504C94.8523 67.7721 94.0241 68.6004 93.0023 68.6004C91.9806 68.6004 91.1523 67.7721 91.1523 66.7504C91.1523 65.7287 91.9806 64.9004 93.0023 64.9004C94.0241 64.9004 94.8523 65.7287 94.8523 66.7504Z" stroke="#FF7987" stroke-width="2"/>
</g>
<defs>
<clipPath id="clip0_1452_72698">
<rect width="375" height="160" fill="white"/>
</clipPath>
<clipPath id="clip1_1452_72698">
<rect width="375" height="58" fill="white" transform="translate(0 51)"/>
</clipPath>
</defs>
</svg>
