<svg width="375" height="160" viewBox="0 0 375 160" fill="none" xmlns="http://www.w3.org/2000/svg">
<g clip-path="url(#clip0_1452_78650)">
<rect x="-0.5" y="32.5" width="376" height="99" fill="#004973" fill-opacity="0.5" stroke="#0074A2"/>
<line x1="93.5" y1="32" x2="93.5" y2="132" stroke="#0074A2"/>
<line x1="140.5" y1="32" x2="140.5" y2="132" stroke="#0074A2"/>
<line x1="46.5" y1="32" x2="46.5" y2="132" stroke="#0074A2"/>
<line x1="187.5" y1="32" x2="187.5" y2="132" stroke="#0074A2"/>
<line x1="234.5" y1="32" x2="234.5" y2="132" stroke="#0074A2"/>
<line x1="281.5" y1="32" x2="281.5" y2="132" stroke="#0074A2"/>
<line x1="328.5" y1="32" x2="328.5" y2="132" stroke="#0074A2"/>
<circle cx="33.5" cy="52.5" r="1.5" fill="#51A3D3" fill-opacity="0.5"/>
<circle cx="9.5" cy="103.5" r="1.5" fill="#51A3D3" fill-opacity="0.3"/>
<circle cx="75.5" cy="102.5" r="1.5" fill="#51A3D3" fill-opacity="0.5"/>
<circle cx="104.5" cy="43.5" r="1.5" fill="#51A3D3" fill-opacity="0.3"/>
<circle cx="35.5" cy="122.5" r="1.5" fill="#51A3D3" fill-opacity="0.7"/>
<circle cx="126.5" cy="119.5" r="1.5" fill="#51A3D3" fill-opacity="0.3"/>
<circle cx="149.5" cy="56.5" r="1.5" fill="#51A3D3" fill-opacity="0.7"/>
<circle cx="172.5" cy="96.5" r="1.5" fill="#51A3D3" fill-opacity="0.25"/>
<circle cx="206.5" cy="63.5" r="1.5" fill="#51A3D3" fill-opacity="0.5"/>
<circle cx="242.5" cy="41.5" r="1.5" fill="#51A3D3" fill-opacity="0.3"/>
<circle cx="256.5" cy="96.5" r="1.5" fill="#51A3D3" fill-opacity="0.5"/>
<circle cx="217.5" cy="120.5" r="1.5" fill="#51A3D3" fill-opacity="0.5"/>
<circle cx="337.5" cy="43.5" r="1.5" fill="#51A3D3" fill-opacity="0.5"/>
<circle cx="295.5" cy="65.5" r="1.5" fill="#51A3D3" fill-opacity="0.5"/>
<circle cx="315.5" cy="116.5" r="1.5" fill="#51A3D3" fill-opacity="0.7"/>
<path d="M358 93.5C358 94.3284 357.328 95 356.5 95C355.672 95 355 94.3284 355 93.5C355 92.6716 355.672 92 356.5 92C357.328 92 358 92.6716 358 93.5Z" fill="#51A3D3" fill-opacity="0.5"/>
<path d="M97.352 150.234H95.616V148.26H93.908V150.234H90.702L95.252 144.2H93.306L88.476 150.514V151.774H93.852V154H95.616V151.774H97.352V150.234Z" fill="#51A3D3"/>
<path d="M46.704 154.14C49.042 154.14 50.806 152.32 50.806 149.1C50.806 145.88 49.042 144.06 46.704 144.06C44.38 144.06 42.616 145.88 42.616 149.1C42.616 152.32 44.38 154.14 46.704 154.14ZM46.704 152.558C45.374 152.558 44.45 151.466 44.45 149.1C44.45 146.734 45.374 145.642 46.704 145.642C48.048 145.642 48.972 146.734 48.972 149.1C48.972 151.466 48.048 152.558 46.704 152.558Z" fill="#51A3D3"/>
<path d="M143.406 148.848C144.204 148.414 144.652 147.714 144.652 146.79C144.652 145.11 143.168 144.06 140.984 144.06C138.814 144.06 137.344 145.11 137.344 146.79C137.344 147.714 137.778 148.414 138.562 148.848C137.554 149.31 136.994 150.108 136.994 151.186C136.994 153.006 138.548 154.14 140.984 154.14C143.42 154.14 145.002 153.006 145.002 151.186C145.002 150.108 144.428 149.31 143.406 148.848ZM140.984 145.488C142.104 145.488 142.86 145.992 142.86 146.874C142.86 147.714 142.146 148.246 140.984 148.246C139.836 148.246 139.136 147.714 139.136 146.874C139.136 145.992 139.864 145.488 140.984 145.488ZM140.984 152.712C139.64 152.712 138.828 152.124 138.828 151.13C138.828 150.164 139.64 149.562 140.984 149.562C142.328 149.562 143.168 150.164 143.168 151.13C143.168 152.124 142.328 152.712 140.984 152.712Z" fill="#51A3D3"/>
<path d="M181.232 144.2V145.726H183.304V154H185.124V144.2H181.232ZM189.826 152.46L192.444 149.968C193.802 148.694 194.068 147.826 194.068 146.874C194.068 145.138 192.696 144.06 190.568 144.06C188.958 144.06 187.6 144.662 186.844 145.684L188.118 146.664C188.664 145.964 189.462 145.642 190.414 145.642C191.618 145.642 192.234 146.16 192.234 147.056C192.234 147.602 192.066 148.176 191.114 149.086L187.222 152.782V154H194.446V152.46H189.826Z" fill="#51A3D3"/>
<rect x="223" y="138" width="24" height="22" rx="8" fill="#F4435A"/>
<path d="M228.417 144.2V145.726H230.489V154H232.309V144.2H228.417ZM238.985 147.952C237.893 147.952 236.955 148.288 236.367 148.974V148.96C236.367 146.734 237.529 145.586 239.377 145.586C240.063 145.586 240.707 145.712 241.239 146.062L241.911 144.69C241.253 144.27 240.315 144.06 239.335 144.06C236.493 144.06 234.533 145.908 234.533 149.268C234.533 152.418 236.101 154.14 238.775 154.14C240.777 154.14 242.359 152.908 242.359 150.962C242.359 149.128 240.917 147.952 238.985 147.952ZM238.677 152.712C237.375 152.712 236.647 151.984 236.647 151.06C236.647 150.094 237.459 149.38 238.635 149.38C239.825 149.38 240.595 150.024 240.595 151.046C240.595 152.068 239.811 152.712 238.677 152.712Z" fill="white"/>
<rect x="317" y="138" width="24" height="22" rx="8" fill="#F4435A"/>
<path d="M276.19 152.46L278.808 149.968C280.166 148.694 280.432 147.826 280.432 146.874C280.432 145.138 279.06 144.06 276.932 144.06C275.322 144.06 273.964 144.662 273.208 145.684L274.482 146.664C275.028 145.964 275.826 145.642 276.778 145.642C277.982 145.642 278.598 146.16 278.598 147.056C278.598 147.602 278.43 148.176 277.478 149.086L273.586 152.782V154H280.81V152.46H276.19ZM286.188 154.14C288.526 154.14 290.29 152.32 290.29 149.1C290.29 145.88 288.526 144.06 286.188 144.06C283.864 144.06 282.1 145.88 282.1 149.1C282.1 152.32 283.864 154.14 286.188 154.14ZM286.188 152.558C284.858 152.558 283.934 151.466 283.934 149.1C283.934 146.734 284.858 145.642 286.188 145.642C287.532 145.642 288.456 146.734 288.456 149.1C288.456 151.466 287.532 152.558 286.188 152.558Z" fill="#51A3D3"/>
<path d="M323.094 152.46L325.712 149.968C327.07 148.694 327.336 147.826 327.336 146.874C327.336 145.138 325.964 144.06 323.836 144.06C322.226 144.06 320.868 144.662 320.112 145.684L321.386 146.664C321.932 145.964 322.73 145.642 323.682 145.642C324.886 145.642 325.502 146.16 325.502 147.056C325.502 147.602 325.334 148.176 324.382 149.086L320.49 152.782V154H327.714V152.46H323.094ZM337.575 150.234H335.839V148.26H334.131V150.234H330.925L335.475 144.2H333.529L328.699 150.514V151.774H334.075V154H335.839V151.774H337.575V150.234Z" fill="white"/>
<g clip-path="url(#clip1_1452_78650)">
<mask id="mask0_1452_78650" style="mask-type:alpha" maskUnits="userSpaceOnUse" x="0" y="32" width="58" height="100">
<rect y="32" width="58" height="100" fill="#51A3D3"/>
</mask>
<g mask="url(#mask0_1452_78650)">
<path d="M351.211 62.4502C338.953 62.4502 332.831 70.8206 326.913 78.9152C321.048 86.9356 315.508 94.5142 304.322 94.5142C293.135 94.5142 287.595 86.9392 281.731 78.9152C275.813 70.8206 269.691 62.4502 257.432 62.4502C245.174 62.4502 239.055 70.8206 233.134 78.9152C227.27 86.9356 221.729 94.5142 210.543 94.5142C199.357 94.5142 193.817 86.9392 187.952 78.9152C182.034 70.8206 175.912 62.4502 163.654 62.4502C151.395 62.4502 145.277 70.8206 139.356 78.9152C133.491 86.9356 127.951 94.5142 116.765 94.5142C105.578 94.5142 100.042 86.9392 94.1768 78.9152C88.2592 70.8206 82.1371 62.4502 69.8787 62.4502C57.6204 62.4502 51.5018 70.8206 45.5806 78.9152C39.7265 86.9392 34.1863 94.5142 23 94.5142V96.6351C35.2584 96.6351 41.377 88.2647 47.2981 80.1701C53.1628 72.1496 58.703 64.5711 69.8893 64.5711C81.0756 64.5711 86.6159 72.1461 92.4805 80.1701C98.3981 88.2647 104.52 96.6351 116.775 96.6351C129.03 96.6351 135.152 88.2647 141.073 80.1701C146.938 72.1496 152.478 64.5711 163.664 64.5711C174.851 64.5711 180.391 72.1461 186.256 80.1701C192.173 88.2647 198.295 96.6351 210.554 96.6351C222.812 96.6351 228.931 88.2647 234.852 80.1701C240.717 72.1496 246.257 64.5711 257.443 64.5711C268.629 64.5711 274.17 72.1461 280.034 80.1701C285.952 88.2647 292.074 96.6351 304.332 96.6351C316.591 96.6351 322.713 88.2647 328.63 80.1701C334.495 72.1496 340.035 64.5711 351.222 64.5711V62.4502H351.211Z" fill="#51A3D3"/>
<path d="M70.2111 62.4502C57.9527 62.4502 51.8306 70.8206 45.913 78.9152C40.0483 86.9356 34.5081 94.5142 23.3218 94.5142C12.1355 94.5142 6.59525 86.9392 0.73056 78.9152C-5.18703 70.8206 -11.3091 62.4502 -23.5675 62.4502C-35.8259 62.4502 -41.9445 70.8206 -47.8656 78.9152C-53.7303 86.9356 -59.2706 94.5142 -70.4568 94.5142C-81.6431 94.5142 -87.1834 86.9392 -93.0481 78.9152C-98.9657 70.8206 -105.088 62.4502 -117.346 62.4502C-129.605 62.4502 -135.723 70.8206 -141.644 78.9152C-147.509 86.9356 -153.049 94.5142 -164.235 94.5142C-175.422 94.5142 -180.958 86.9392 -186.823 78.9152C-192.741 70.8206 -198.863 62.4502 -211.121 62.4502C-223.38 62.4502 -229.498 70.8206 -235.419 78.9152C-241.273 86.9392 -246.814 94.5142 -258 94.5142V96.6351C-245.742 96.6351 -239.623 88.2647 -233.702 80.1701C-227.837 72.1496 -222.297 64.5711 -211.111 64.5711C-199.924 64.5711 -194.384 72.1461 -188.519 80.1701C-182.602 88.2647 -176.48 96.6351 -164.225 96.6351C-151.97 96.6351 -145.848 88.2647 -139.927 80.1701C-134.062 72.1496 -128.522 64.5711 -117.336 64.5711C-106.149 64.5711 -100.609 72.1461 -94.7444 80.1701C-88.8268 88.2647 -82.7046 96.6351 -70.4463 96.6351C-58.1879 96.6351 -52.0693 88.2647 -46.1482 80.1701C-40.2835 72.1496 -34.7432 64.5711 -23.5569 64.5711C-12.3707 64.5711 -6.83041 72.1461 -0.965729 80.1701C4.95187 88.2647 11.074 96.6351 23.3324 96.6351C35.5907 96.6351 41.7129 88.2647 47.6305 80.1701C53.4952 72.1496 59.0354 64.5711 70.2217 64.5711V62.4502H70.2111Z" fill="#51A3D3"/>
</g>
</g>
<mask id="path-37-inside-1_1452_78650" fill="white">
<path fill-rule="evenodd" clip-rule="evenodd" d="M78 40C86.2843 40 93 33.2843 93 25C93 16.7157 86.2843 10 78 10L38 10C29.7157 10 23 16.7157 23 25C23 33.2843 29.7157 40 38 40L54.5359 40L58 46L61.4641 40L78 40Z"/>
</mask>
<path fill-rule="evenodd" clip-rule="evenodd" d="M78 40C86.2843 40 93 33.2843 93 25C93 16.7157 86.2843 10 78 10L38 10C29.7157 10 23 16.7157 23 25C23 33.2843 29.7157 40 38 40L54.5359 40L58 46L61.4641 40L78 40Z" fill="#0074A2" fill-opacity="0.8"/>
<path d="M78 40V39V40ZM78 10V11V10ZM38 10V9V10ZM23 25H22H23ZM38 40V39V40ZM54.5359 40L55.4019 39.5L55.1132 39H54.5359V40ZM58 46L57.134 46.5L58 48L58.866 46.5L58 46ZM61.4641 40V39H60.8868L60.5981 39.5L61.4641 40ZM92 25C92 32.732 85.732 39 78 39V41C86.8366 41 94 33.8366 94 25H92ZM78 11C85.732 11 92 17.268 92 25H94C94 16.1635 86.8366 9.00001 78 9V11ZM38 11L78 11V9L38 9V11ZM24 25C24 17.268 30.268 11 38 11V9C29.1634 9 22 16.1634 22 25H24ZM38 39C30.268 39 24 32.732 24 25H22C22 33.8366 29.1634 41 38 41V39ZM54.5359 39L38 39V41L54.5359 41V39ZM58.866 45.5L55.4019 39.5L53.6699 40.5L57.134 46.5L58.866 45.5ZM60.5981 39.5L57.134 45.5L58.866 46.5L62.3301 40.5L60.5981 39.5ZM78 39L61.4641 39V41L78 41V39Z" fill="#51A3D3" mask="url(#path-37-inside-1_1452_78650)"/>
<path d="M42.1636 19.8V21.544H44.5316V31H46.6116V19.8H42.1636ZM47.9694 32.6H49.7614L55.0414 17.528H53.2494L47.9694 32.6ZM58.2429 29.24L61.2349 26.392C62.7869 24.936 63.0909 23.944 63.0909 22.856C63.0909 20.872 61.5229 19.64 59.0909 19.64C57.2509 19.64 55.6989 20.328 54.8349 21.496L56.2909 22.616C56.9149 21.816 57.8269 21.448 58.9149 21.448C60.2909 21.448 60.9949 22.04 60.9949 23.064C60.9949 23.688 60.8029 24.344 59.7149 25.384L55.2669 29.608V31H63.5229V29.24H58.2429ZM74.793 26.696H72.809V24.44H70.857V26.696H67.193L72.393 19.8H70.169L64.649 27.016V28.456H70.793V31H72.809V28.456H74.793V26.696Z" fill="white"/>
<circle cx="58" cy="72" r="24.5" fill="#022B42" fill-opacity="0.8" stroke="#51A3D3"/>
<circle cx="58" cy="72" r="28.5" stroke="#51A3D3" stroke-opacity="0.4"/>
<mask id="path-42-inside-2_1452_78650" fill="white">
<path fill-rule="evenodd" clip-rule="evenodd" d="M58.0016 76.7004C62.7236 76.7004 66.5516 75.4436 66.5516 71.1588C66.5516 70.1521 66.3403 69.1902 65.9557 68.3076C70.8495 69.7766 74.1516 72.5594 74.1516 75.7504C74.1516 80.4724 66.921 84.3004 58.0016 84.3004C49.0822 84.3004 41.8516 80.4724 41.8516 75.7504C41.8516 72.5594 45.1536 69.7766 50.0474 68.3076C49.6629 69.1902 49.4516 70.1521 49.4516 71.1588C49.4516 75.4436 53.2795 76.7004 58.0016 76.7004Z"/>
</mask>
<path d="M65.9557 68.3076L66.5307 66.3921L62.3992 65.1519L64.1222 69.1065L65.9557 68.3076ZM50.0474 68.3076L51.8809 69.1065L53.6039 65.1519L49.4724 66.3921L50.0474 68.3076ZM64.5516 71.1588C64.5516 71.9232 64.3841 72.4379 64.1651 72.8026C63.9448 73.1694 63.6036 73.4983 63.0845 73.7834C61.9822 74.3888 60.2533 74.7004 58.0016 74.7004V78.7004C60.4719 78.7004 63.0179 78.3836 65.0101 77.2894C66.0382 76.7247 66.9492 75.9359 67.5942 74.862C68.2405 73.7859 68.5516 72.5367 68.5516 71.1588H64.5516ZM64.1222 69.1065C64.4004 69.745 64.5516 70.4355 64.5516 71.1588H68.5516C68.5516 69.8687 68.2802 68.6354 67.7893 67.5088L64.1222 69.1065ZM65.3807 70.2232C67.6352 70.8999 69.3989 71.8454 70.5597 72.8777C71.7174 73.9073 72.1516 74.8972 72.1516 75.7504H76.1516C76.1516 73.4126 74.9347 71.4156 73.2179 69.8888C71.5043 68.3648 69.1701 67.1843 66.5307 66.3921L65.3807 70.2232ZM72.1516 75.7504C72.1516 77.0056 71.1557 78.615 68.4856 80.0286C65.9049 81.3948 62.2017 82.3004 58.0016 82.3004V86.3004C62.7209 86.3004 67.0926 85.292 70.3571 83.5638C73.5321 81.8829 76.1516 79.2173 76.1516 75.7504H72.1516ZM58.0016 82.3004C53.8015 82.3004 50.0982 81.3948 47.5176 80.0286C44.8474 78.615 43.8516 77.0056 43.8516 75.7504H39.8516C39.8516 79.2173 42.471 81.8829 45.646 83.5638C48.9105 85.292 53.2823 86.3004 58.0016 86.3004V82.3004ZM43.8516 75.7504C43.8516 74.8972 44.2857 73.9073 45.4434 72.8777C46.6042 71.8454 48.368 70.8999 50.6224 70.2232L49.4724 66.3921C46.833 67.1843 44.4988 68.3648 42.7852 69.8888C41.0684 71.4156 39.8516 73.4126 39.8516 75.7504H43.8516ZM51.4516 71.1588C51.4516 70.4355 51.6027 69.745 51.8809 69.1065L48.2139 67.5088C47.723 68.6354 47.4516 69.8687 47.4516 71.1588H51.4516ZM58.0016 74.7004C55.7498 74.7004 54.0209 74.3888 52.9186 73.7834C52.3995 73.4983 52.0583 73.1694 51.838 72.8026C51.619 72.4379 51.4516 71.9232 51.4516 71.1588H47.4516C47.4516 72.5367 47.7626 73.7859 48.4089 74.862C49.0539 75.9359 49.9649 76.7247 50.993 77.2894C52.9852 78.3836 55.5312 78.7004 58.0016 78.7004V74.7004Z" fill="#FF7987" mask="url(#path-42-inside-2_1452_78650)"/>
<path d="M58.0031 77.7004C60.4188 77.7004 62.7606 77.3849 64.5303 76.4129C65.4312 75.9181 66.1997 75.2443 66.7385 74.3471C67.278 73.4489 67.5531 72.3833 67.5531 71.1587C67.5531 66.2324 63.1838 62.4004 58.0031 62.4004C52.8224 62.4004 48.4531 66.2324 48.4531 71.1587C48.4531 72.3833 48.7283 73.4489 49.2678 74.3471C49.8066 75.2443 50.5751 75.9181 51.476 76.4129C53.2457 77.3849 55.5875 77.7004 58.0031 77.7004Z" stroke="#FF7987" stroke-width="2"/>
<path fill-rule="evenodd" clip-rule="evenodd" d="M71.6891 77.752C69.9695 81.3144 64.4917 83.9189 58 83.9189C51.1383 83.9189 45.4094 81.0091 44.0539 77.1338C43.8548 77.8275 43.7501 78.5722 43.75 79.3678C43.7496 83.0947 50.1299 86.2005 58 86.2005C65.8701 86.2005 72.25 83.7159 72.25 79.3678C72.25 78.9472 72.0543 78.3881 71.6891 77.752Z" fill="#FF7987"/>
<path d="M60.2195 85.7256C60.2195 86.322 59.5697 87.1006 58.3695 87.1006C57.1693 87.1006 56.5195 86.322 56.5195 85.7256C56.5195 85.1292 57.1693 84.3506 58.3695 84.3506C59.5697 84.3506 60.2195 85.1292 60.2195 85.7256Z" fill="#FF7987" stroke="#FF7987" stroke-width="2"/>
<path d="M51.642 85.0965C51.5384 85.6838 50.7633 86.3377 49.5813 86.1293C48.3993 85.9209 47.8946 85.0413 47.9982 84.454C48.1017 83.8666 48.8769 83.2127 50.0588 83.4211C51.2408 83.6295 51.7455 84.5091 51.642 85.0965Z" fill="#FF7987" stroke="#FF7987" stroke-width="2"/>
<path d="M68.1621 84.4544C68.2657 85.0418 67.7609 85.9214 66.579 86.1298C65.397 86.3382 64.6219 85.6843 64.5183 85.0969C64.4147 84.5096 64.9195 83.63 66.1014 83.4216C67.2834 83.2131 68.0585 83.8671 68.1621 84.4544Z" fill="#FF7987" stroke="#FF7987" stroke-width="2"/>
<path d="M59.9023 66.25C60.5357 66.3652 62.9423 67.2864 63.7023 70.05" stroke="#FF7987" stroke-width="2" stroke-linecap="round"/>
<path d="M58 62.4504V58.6504" stroke="#FF7987" stroke-width="2" stroke-linecap="round"/>
<path d="M59.8523 56.7504C59.8523 57.7721 59.0241 58.6004 58.0023 58.6004C56.9806 58.6004 56.1523 57.7721 56.1523 56.7504C56.1523 55.7287 56.9806 54.9004 58.0023 54.9004C59.0241 54.9004 59.8523 55.7287 59.8523 56.7504Z" stroke="#FF7987" stroke-width="2"/>
</g>
<defs>
<clipPath id="clip0_1452_78650">
<rect width="375" height="160" fill="white"/>
</clipPath>
<clipPath id="clip1_1452_78650">
<rect width="375" height="58" fill="white" transform="translate(0 51)"/>
</clipPath>
</defs>
</svg>
