<svg width="375" height="160" viewBox="0 0 375 160" fill="none" xmlns="http://www.w3.org/2000/svg">
<g clip-path="url(#clip0_1452_65258)">
<rect x="-0.5" y="32.5" width="376" height="99" fill="#004973" fill-opacity="0.5" stroke="#0074A2"/>
<line x1="93.5" y1="32" x2="93.5" y2="132" stroke="#0074A2"/>
<line x1="140.5" y1="32" x2="140.5" y2="132" stroke="#0074A2"/>
<line x1="46.5" y1="32" x2="46.5" y2="132" stroke="#0074A2"/>
<line x1="187.5" y1="32" x2="187.5" y2="132" stroke="#0074A2"/>
<line x1="234.5" y1="32" x2="234.5" y2="132" stroke="#0074A2"/>
<line x1="281.5" y1="32" x2="281.5" y2="132" stroke="#0074A2"/>
<line x1="328.5" y1="32" x2="328.5" y2="132" stroke="#0074A2"/>
<circle cx="33.5" cy="52.5" r="1.5" fill="#51A3D3" fill-opacity="0.5"/>
<circle cx="9.5" cy="103.5" r="1.5" fill="#51A3D3" fill-opacity="0.3"/>
<circle cx="75.5" cy="102.5" r="1.5" fill="#51A3D3" fill-opacity="0.5"/>
<circle cx="104.5" cy="43.5" r="1.5" fill="#51A3D3" fill-opacity="0.3"/>
<circle cx="35.5" cy="122.5" r="1.5" fill="#51A3D3" fill-opacity="0.7"/>
<circle cx="126.5" cy="119.5" r="1.5" fill="#51A3D3" fill-opacity="0.3"/>
<circle cx="149.5" cy="56.5" r="1.5" fill="#51A3D3" fill-opacity="0.7"/>
<circle cx="172.5" cy="96.5" r="1.5" fill="#51A3D3" fill-opacity="0.25"/>
<circle cx="206.5" cy="63.5" r="1.5" fill="#51A3D3" fill-opacity="0.5"/>
<circle cx="242.5" cy="41.5" r="1.5" fill="#51A3D3" fill-opacity="0.3"/>
<circle cx="256.5" cy="96.5" r="1.5" fill="#51A3D3" fill-opacity="0.5"/>
<circle cx="217.5" cy="120.5" r="1.5" fill="#51A3D3" fill-opacity="0.5"/>
<circle cx="337.5" cy="43.5" r="1.5" fill="#51A3D3" fill-opacity="0.5"/>
<circle cx="295.5" cy="65.5" r="1.5" fill="#51A3D3" fill-opacity="0.5"/>
<circle cx="315.5" cy="116.5" r="1.5" fill="#51A3D3" fill-opacity="0.7"/>
<path d="M358 93.5C358 94.3284 357.328 95 356.5 95C355.672 95 355 94.3284 355 93.5C355 92.6716 355.672 92 356.5 92C357.328 92 358 92.6716 358 93.5Z" fill="#51A3D3" fill-opacity="0.5"/>
<path d="M97.352 150.234H95.616V148.26H93.908V150.234H90.702L95.252 144.2H93.306L88.476 150.514V151.774H93.852V154H95.616V151.774H97.352V150.234Z" fill="#51A3D3"/>
<path d="M46.704 154.14C49.042 154.14 50.806 152.32 50.806 149.1C50.806 145.88 49.042 144.06 46.704 144.06C44.38 144.06 42.616 145.88 42.616 149.1C42.616 152.32 44.38 154.14 46.704 154.14ZM46.704 152.558C45.374 152.558 44.45 151.466 44.45 149.1C44.45 146.734 45.374 145.642 46.704 145.642C48.048 145.642 48.972 146.734 48.972 149.1C48.972 151.466 48.048 152.558 46.704 152.558Z" fill="#51A3D3"/>
<path d="M143.406 148.848C144.204 148.414 144.652 147.714 144.652 146.79C144.652 145.11 143.168 144.06 140.984 144.06C138.814 144.06 137.344 145.11 137.344 146.79C137.344 147.714 137.778 148.414 138.562 148.848C137.554 149.31 136.994 150.108 136.994 151.186C136.994 153.006 138.548 154.14 140.984 154.14C143.42 154.14 145.002 153.006 145.002 151.186C145.002 150.108 144.428 149.31 143.406 148.848ZM140.984 145.488C142.104 145.488 142.86 145.992 142.86 146.874C142.86 147.714 142.146 148.246 140.984 148.246C139.836 148.246 139.136 147.714 139.136 146.874C139.136 145.992 139.864 145.488 140.984 145.488ZM140.984 152.712C139.64 152.712 138.828 152.124 138.828 151.13C138.828 150.164 139.64 149.562 140.984 149.562C142.328 149.562 143.168 150.164 143.168 151.13C143.168 152.124 142.328 152.712 140.984 152.712Z" fill="#51A3D3"/>
<path d="M181.232 144.2V145.726H183.304V154H185.124V144.2H181.232ZM189.826 152.46L192.444 149.968C193.802 148.694 194.068 147.826 194.068 146.874C194.068 145.138 192.696 144.06 190.568 144.06C188.958 144.06 187.6 144.662 186.844 145.684L188.118 146.664C188.664 145.964 189.462 145.642 190.414 145.642C191.618 145.642 192.234 146.16 192.234 147.056C192.234 147.602 192.066 148.176 191.114 149.086L187.222 152.782V154H194.446V152.46H189.826Z" fill="#51A3D3"/>
<rect x="223" y="138" width="24" height="22" rx="8" fill="#F4435A"/>
<path d="M228.417 144.2V145.726H230.489V154H232.309V144.2H228.417ZM238.985 147.952C237.893 147.952 236.955 148.288 236.367 148.974V148.96C236.367 146.734 237.529 145.586 239.377 145.586C240.063 145.586 240.707 145.712 241.239 146.062L241.911 144.69C241.253 144.27 240.315 144.06 239.335 144.06C236.493 144.06 234.533 145.908 234.533 149.268C234.533 152.418 236.101 154.14 238.775 154.14C240.777 154.14 242.359 152.908 242.359 150.962C242.359 149.128 240.917 147.952 238.985 147.952ZM238.677 152.712C237.375 152.712 236.647 151.984 236.647 151.06C236.647 150.094 237.459 149.38 238.635 149.38C239.825 149.38 240.595 150.024 240.595 151.046C240.595 152.068 239.811 152.712 238.677 152.712Z" fill="white"/>
<rect x="317" y="138" width="24" height="22" rx="8" fill="#F4435A"/>
<path d="M276.19 152.46L278.808 149.968C280.166 148.694 280.432 147.826 280.432 146.874C280.432 145.138 279.06 144.06 276.932 144.06C275.322 144.06 273.964 144.662 273.208 145.684L274.482 146.664C275.028 145.964 275.826 145.642 276.778 145.642C277.982 145.642 278.598 146.16 278.598 147.056C278.598 147.602 278.43 148.176 277.478 149.086L273.586 152.782V154H280.81V152.46H276.19ZM286.188 154.14C288.526 154.14 290.29 152.32 290.29 149.1C290.29 145.88 288.526 144.06 286.188 144.06C283.864 144.06 282.1 145.88 282.1 149.1C282.1 152.32 283.864 154.14 286.188 154.14ZM286.188 152.558C284.858 152.558 283.934 151.466 283.934 149.1C283.934 146.734 284.858 145.642 286.188 145.642C287.532 145.642 288.456 146.734 288.456 149.1C288.456 151.466 287.532 152.558 286.188 152.558Z" fill="#51A3D3"/>
<path d="M323.094 152.46L325.712 149.968C327.07 148.694 327.336 147.826 327.336 146.874C327.336 145.138 325.964 144.06 323.836 144.06C322.226 144.06 320.868 144.662 320.112 145.684L321.386 146.664C321.932 145.964 322.73 145.642 323.682 145.642C324.886 145.642 325.502 146.16 325.502 147.056C325.502 147.602 325.334 148.176 324.382 149.086L320.49 152.782V154H327.714V152.46H323.094ZM337.575 150.234H335.839V148.26H334.131V150.234H330.925L335.475 144.2H333.529L328.699 150.514V151.774H334.075V154H335.839V151.774H337.575V150.234Z" fill="white"/>
<g clip-path="url(#clip1_1452_65258)">
<mask id="mask0_1452_65258" style="mask-type:alpha" maskUnits="userSpaceOnUse" x="0" y="32" width="152" height="100">
<rect y="32" width="152" height="100" fill="#51A3D3"/>
</mask>
<g mask="url(#mask0_1452_65258)">
<path d="M351.211 62.4502C338.953 62.4502 332.831 70.8206 326.913 78.9152C321.048 86.9356 315.508 94.5142 304.322 94.5142C293.135 94.5142 287.595 86.9392 281.731 78.9152C275.813 70.8206 269.691 62.4502 257.432 62.4502C245.174 62.4502 239.055 70.8206 233.134 78.9152C227.27 86.9356 221.729 94.5142 210.543 94.5142C199.357 94.5142 193.817 86.9392 187.952 78.9152C182.034 70.8206 175.912 62.4502 163.654 62.4502C151.395 62.4502 145.277 70.8206 139.356 78.9152C133.491 86.9356 127.951 94.5142 116.765 94.5142C105.578 94.5142 100.042 86.9392 94.1768 78.9152C88.2592 70.8206 82.1371 62.4502 69.8787 62.4502C57.6204 62.4502 51.5018 70.8206 45.5806 78.9152C39.7265 86.9392 34.1863 94.5142 23 94.5142V96.6351C35.2584 96.6351 41.377 88.2647 47.2981 80.1701C53.1628 72.1496 58.703 64.5711 69.8893 64.5711C81.0756 64.5711 86.6159 72.1461 92.4805 80.1701C98.3981 88.2647 104.52 96.6351 116.775 96.6351C129.03 96.6351 135.152 88.2647 141.073 80.1701C146.938 72.1496 152.478 64.5711 163.664 64.5711C174.851 64.5711 180.391 72.1461 186.256 80.1701C192.173 88.2647 198.295 96.6351 210.554 96.6351C222.812 96.6351 228.931 88.2647 234.852 80.1701C240.717 72.1496 246.257 64.5711 257.443 64.5711C268.629 64.5711 274.17 72.1461 280.034 80.1701C285.952 88.2647 292.074 96.6351 304.332 96.6351C316.591 96.6351 322.713 88.2647 328.63 80.1701C334.495 72.1496 340.035 64.5711 351.222 64.5711V62.4502H351.211Z" fill="#51A3D3"/>
<path d="M70.2111 62.4502C57.9527 62.4502 51.8306 70.8206 45.913 78.9152C40.0483 86.9356 34.5081 94.5142 23.3218 94.5142C12.1355 94.5142 6.59525 86.9392 0.73056 78.9152C-5.18703 70.8206 -11.3091 62.4502 -23.5675 62.4502C-35.8259 62.4502 -41.9445 70.8206 -47.8656 78.9152C-53.7303 86.9356 -59.2706 94.5142 -70.4568 94.5142C-81.6431 94.5142 -87.1834 86.9392 -93.0481 78.9152C-98.9657 70.8206 -105.088 62.4502 -117.346 62.4502C-129.605 62.4502 -135.723 70.8206 -141.644 78.9152C-147.509 86.9356 -153.049 94.5142 -164.235 94.5142C-175.422 94.5142 -180.958 86.9392 -186.823 78.9152C-192.741 70.8206 -198.863 62.4502 -211.121 62.4502C-223.38 62.4502 -229.498 70.8206 -235.419 78.9152C-241.273 86.9392 -246.814 94.5142 -258 94.5142V96.6351C-245.742 96.6351 -239.623 88.2647 -233.702 80.1701C-227.837 72.1496 -222.297 64.5711 -211.111 64.5711C-199.924 64.5711 -194.384 72.1461 -188.519 80.1701C-182.602 88.2647 -176.48 96.6351 -164.225 96.6351C-151.97 96.6351 -145.848 88.2647 -139.927 80.1701C-134.062 72.1496 -128.522 64.5711 -117.336 64.5711C-106.149 64.5711 -100.609 72.1461 -94.7444 80.1701C-88.8268 88.2647 -82.7046 96.6351 -70.4463 96.6351C-58.1879 96.6351 -52.0693 88.2647 -46.1482 80.1701C-40.2835 72.1496 -34.7432 64.5711 -23.5569 64.5711C-12.3707 64.5711 -6.83041 72.1461 -0.965729 80.1701C4.95187 88.2647 11.074 96.6351 23.3324 96.6351C35.5907 96.6351 41.7129 88.2647 47.6305 80.1701C53.4952 72.1496 59.0354 64.5711 70.2217 64.5711V62.4502H70.2111Z" fill="#51A3D3"/>
</g>
</g>
<mask id="path-37-inside-1_1452_65258" fill="white">
<path fill-rule="evenodd" clip-rule="evenodd" d="M172 40C180.284 40 187 33.2843 187 25C187 16.7157 180.284 10 172 10L132 10C123.716 10 117 16.7157 117 25C117 33.2843 123.716 40 132 40L148.536 40L152 46L155.464 40L172 40Z"/>
</mask>
<path fill-rule="evenodd" clip-rule="evenodd" d="M172 40C180.284 40 187 33.2843 187 25C187 16.7157 180.284 10 172 10L132 10C123.716 10 117 16.7157 117 25C117 33.2843 123.716 40 132 40L148.536 40L152 46L155.464 40L172 40Z" fill="#0074A2" fill-opacity="0.8"/>
<path d="M172 40V39V40ZM172 10V11V10ZM132 10V9V10ZM117 25H116H117ZM132 40V39V40ZM148.536 40L149.402 39.5L149.113 39H148.536V40ZM152 46L151.134 46.5L152 48L152.866 46.5L152 46ZM155.464 40V39H154.887L154.598 39.5L155.464 40ZM186 25C186 32.732 179.732 39 172 39V41C180.837 41 188 33.8366 188 25H186ZM172 11C179.732 11 186 17.268 186 25H188C188 16.1635 180.837 9.00001 172 9V11ZM132 11L172 11V9L132 9V11ZM118 25C118 17.268 124.268 11 132 11V9C123.163 9 116 16.1634 116 25H118ZM132 39C124.268 39 118 32.732 118 25H116C116 33.8366 123.163 41 132 41V39ZM148.536 39L132 39V41L148.536 41V39ZM152.866 45.5L149.402 39.5L147.67 40.5L151.134 46.5L152.866 45.5ZM154.598 39.5L151.134 45.5L152.866 46.5L156.33 40.5L154.598 39.5ZM172 39L155.464 39V41L172 41V39Z" fill="#51A3D3" mask="url(#path-37-inside-1_1452_65258)"/>
<path d="M138.703 19.64C136.415 19.64 134.607 21.048 134.607 23.272C134.607 25.368 136.255 26.712 138.463 26.712C139.711 26.712 140.783 26.328 141.455 25.544V25.56C141.455 28.104 140.127 29.416 138.015 29.416C137.231 29.416 136.495 29.272 135.887 28.872L135.119 30.44C135.871 30.92 136.943 31.16 138.063 31.16C141.311 31.16 143.551 29.048 143.551 25.208C143.551 21.608 141.759 19.64 138.703 19.64ZM138.863 25.08C137.503 25.08 136.623 24.344 136.623 23.176C136.623 22.008 137.519 21.272 138.815 21.272C140.303 21.272 141.135 22.104 141.135 23.16C141.135 24.264 140.207 25.08 138.863 25.08ZM143.782 32.6H145.574L150.854 17.528H149.062L143.782 32.6ZM154.055 29.24L157.047 26.392C158.599 24.936 158.903 23.944 158.903 22.856C158.903 20.872 157.335 19.64 154.903 19.64C153.063 19.64 151.511 20.328 150.647 21.496L152.103 22.616C152.727 21.816 153.639 21.448 154.727 21.448C156.103 21.448 156.807 22.04 156.807 23.064C156.807 23.688 156.615 24.344 155.527 25.384L151.079 29.608V31H159.335V29.24H154.055ZM170.606 26.696H168.622V24.44H166.669V26.696H163.005L168.205 19.8H165.981L160.461 27.016V28.456H166.605V31H168.622V28.456H170.606V26.696Z" fill="white"/>
<circle cx="152" cy="72" r="24.5" fill="#022B42" fill-opacity="0.8" stroke="#51A3D3"/>
<circle cx="152" cy="72" r="28.5" stroke="#51A3D3" stroke-opacity="0.4"/>
<mask id="path-42-inside-2_1452_65258" fill="white">
<path fill-rule="evenodd" clip-rule="evenodd" d="M152.002 76.7004C156.724 76.7004 160.552 75.4436 160.552 71.1588C160.552 70.1521 160.34 69.1902 159.956 68.3076C164.85 69.7766 168.152 72.5594 168.152 75.7504C168.152 80.4724 160.921 84.3004 152.002 84.3004C143.082 84.3004 135.852 80.4724 135.852 75.7504C135.852 72.5594 139.154 69.7766 144.047 68.3076C143.663 69.1902 143.452 70.1521 143.452 71.1588C143.452 75.4436 147.28 76.7004 152.002 76.7004Z"/>
</mask>
<path d="M159.956 68.3076L160.531 66.3921L156.399 65.1519L158.122 69.1065L159.956 68.3076ZM144.047 68.3076L145.881 69.1065L147.604 65.1519L143.472 66.3921L144.047 68.3076ZM158.552 71.1588C158.552 71.9232 158.384 72.4379 158.165 72.8026C157.945 73.1694 157.604 73.4983 157.085 73.7834C155.982 74.3888 154.253 74.7004 152.002 74.7004V78.7004C154.472 78.7004 157.018 78.3836 159.01 77.2894C160.038 76.7247 160.949 75.9359 161.594 74.862C162.241 73.7859 162.552 72.5367 162.552 71.1588H158.552ZM158.122 69.1065C158.4 69.745 158.552 70.4355 158.552 71.1588H162.552C162.552 69.8687 162.28 68.6354 161.789 67.5088L158.122 69.1065ZM159.381 70.2232C161.635 70.8999 163.399 71.8454 164.56 72.8777C165.717 73.9073 166.152 74.8972 166.152 75.7504H170.152C170.152 73.4126 168.935 71.4156 167.218 69.8888C165.504 68.3648 163.17 67.1843 160.531 66.3921L159.381 70.2232ZM166.152 75.7504C166.152 77.0056 165.156 78.615 162.486 80.0286C159.905 81.3948 156.202 82.3004 152.002 82.3004V86.3004C156.721 86.3004 161.093 85.292 164.357 83.5638C167.532 81.8829 170.152 79.2173 170.152 75.7504H166.152ZM152.002 82.3004C147.801 82.3004 144.098 81.3948 141.518 80.0286C138.847 78.615 137.852 77.0056 137.852 75.7504H133.852C133.852 79.2173 136.471 81.8829 139.646 83.5638C142.911 85.292 147.282 86.3004 152.002 86.3004V82.3004ZM137.852 75.7504C137.852 74.8972 138.286 73.9073 139.443 72.8777C140.604 71.8454 142.368 70.8999 144.622 70.2232L143.472 66.3921C140.833 67.1843 138.499 68.3648 136.785 69.8888C135.068 71.4156 133.852 73.4126 133.852 75.7504H137.852ZM145.452 71.1588C145.452 70.4355 145.603 69.745 145.881 69.1065L142.214 67.5088C141.723 68.6354 141.452 69.8687 141.452 71.1588H145.452ZM152.002 74.7004C149.75 74.7004 148.021 74.3888 146.919 73.7834C146.399 73.4983 146.058 73.1694 145.838 72.8026C145.619 72.4379 145.452 71.9232 145.452 71.1588H141.452C141.452 72.5367 141.763 73.7859 142.409 74.862C143.054 75.9359 143.965 76.7247 144.993 77.2894C146.985 78.3836 149.531 78.7004 152.002 78.7004V74.7004Z" fill="#FF7987" mask="url(#path-42-inside-2_1452_65258)"/>
<path d="M152.003 77.7004C154.419 77.7004 156.761 77.3849 158.53 76.4129C159.431 75.9181 160.2 75.2443 160.738 74.3471C161.278 73.4489 161.553 72.3833 161.553 71.1587C161.553 66.2324 157.184 62.4004 152.003 62.4004C146.822 62.4004 142.453 66.2324 142.453 71.1587C142.453 72.3833 142.728 73.4489 143.268 74.3471C143.807 75.2443 144.575 75.9181 145.476 76.4129C147.246 77.3849 149.587 77.7004 152.003 77.7004Z" stroke="#FF7987" stroke-width="2"/>
<path fill-rule="evenodd" clip-rule="evenodd" d="M165.689 77.752C163.969 81.3144 158.492 83.9189 152 83.9189C145.138 83.9189 139.409 81.0091 138.054 77.1338C137.855 77.8275 137.75 78.5722 137.75 79.3678C137.75 83.0947 144.13 86.2005 152 86.2005C159.87 86.2005 166.25 83.7159 166.25 79.3678C166.25 78.9472 166.054 78.3881 165.689 77.752Z" fill="#FF7987"/>
<path d="M154.22 85.7256C154.22 86.322 153.57 87.1006 152.37 87.1006C151.169 87.1006 150.52 86.322 150.52 85.7256C150.52 85.1292 151.169 84.3506 152.37 84.3506C153.57 84.3506 154.22 85.1292 154.22 85.7256Z" fill="#FF7987" stroke="#FF7987" stroke-width="2"/>
<path d="M145.642 85.0965C145.538 85.6838 144.763 86.3377 143.581 86.1293C142.399 85.9209 141.895 85.0413 141.998 84.454C142.102 83.8666 142.877 83.2127 144.059 83.4211C145.241 83.6295 145.746 84.5091 145.642 85.0965Z" fill="#FF7987" stroke="#FF7987" stroke-width="2"/>
<path d="M162.162 84.4544C162.266 85.0418 161.761 85.9214 160.579 86.1298C159.397 86.3382 158.622 85.6843 158.518 85.0969C158.415 84.5096 158.919 83.63 160.101 83.4216C161.283 83.2131 162.059 83.8671 162.162 84.4544Z" fill="#FF7987" stroke="#FF7987" stroke-width="2"/>
<path d="M153.902 66.25C154.536 66.3652 156.942 67.2864 157.702 70.05" stroke="#FF7987" stroke-width="2" stroke-linecap="round"/>
<path d="M152 62.4504V58.6504" stroke="#FF7987" stroke-width="2" stroke-linecap="round"/>
<path d="M153.852 56.7504C153.852 57.7721 153.024 58.6004 152.002 58.6004C150.981 58.6004 150.152 57.7721 150.152 56.7504C150.152 55.7287 150.981 54.9004 152.002 54.9004C153.024 54.9004 153.852 55.7287 153.852 56.7504Z" stroke="#FF7987" stroke-width="2"/>
</g>
<defs>
<clipPath id="clip0_1452_65258">
<rect width="375" height="160" fill="white"/>
</clipPath>
<clipPath id="clip1_1452_65258">
<rect width="375" height="58" fill="white" transform="translate(0 51)"/>
</clipPath>
</defs>
</svg>
