<svg width="375" height="160" viewBox="0 0 375 160" fill="none" xmlns="http://www.w3.org/2000/svg">
<g clip-path="url(#clip0_1452_70466)">
<rect x="-0.5" y="32.5" width="376" height="99" fill="#004973" fill-opacity="0.5" stroke="#0074A2"/>
<line x1="93.5" y1="32" x2="93.5" y2="132" stroke="#0074A2"/>
<line x1="140.5" y1="32" x2="140.5" y2="132" stroke="#0074A2"/>
<line x1="46.5" y1="32" x2="46.5" y2="132" stroke="#0074A2"/>
<line x1="187.5" y1="32" x2="187.5" y2="132" stroke="#0074A2"/>
<line x1="234.5" y1="32" x2="234.5" y2="132" stroke="#0074A2"/>
<line x1="281.5" y1="32" x2="281.5" y2="132" stroke="#0074A2"/>
<line x1="328.5" y1="32" x2="328.5" y2="132" stroke="#0074A2"/>
<circle cx="33.5" cy="52.5" r="1.5" fill="#51A3D3" fill-opacity="0.5"/>
<circle cx="9.5" cy="103.5" r="1.5" fill="#51A3D3" fill-opacity="0.3"/>
<circle cx="75.5" cy="102.5" r="1.5" fill="#51A3D3" fill-opacity="0.5"/>
<circle cx="104.5" cy="43.5" r="1.5" fill="#51A3D3" fill-opacity="0.3"/>
<circle cx="35.5" cy="122.5" r="1.5" fill="#51A3D3" fill-opacity="0.7"/>
<circle cx="126.5" cy="119.5" r="1.5" fill="#51A3D3" fill-opacity="0.3"/>
<circle cx="149.5" cy="56.5" r="1.5" fill="#51A3D3" fill-opacity="0.7"/>
<circle cx="172.5" cy="96.5" r="1.5" fill="#51A3D3" fill-opacity="0.25"/>
<circle cx="206.5" cy="63.5" r="1.5" fill="#51A3D3" fill-opacity="0.5"/>
<circle cx="242.5" cy="41.5" r="1.5" fill="#51A3D3" fill-opacity="0.3"/>
<circle cx="256.5" cy="96.5" r="1.5" fill="#51A3D3" fill-opacity="0.5"/>
<circle cx="217.5" cy="120.5" r="1.5" fill="#51A3D3" fill-opacity="0.5"/>
<circle cx="337.5" cy="43.5" r="1.5" fill="#51A3D3" fill-opacity="0.5"/>
<circle cx="295.5" cy="65.5" r="1.5" fill="#51A3D3" fill-opacity="0.5"/>
<circle cx="315.5" cy="116.5" r="1.5" fill="#51A3D3" fill-opacity="0.7"/>
<path d="M358 93.5C358 94.3284 357.328 95 356.5 95C355.672 95 355 94.3284 355 93.5C355 92.6716 355.672 92 356.5 92C357.328 92 358 92.6716 358 93.5Z" fill="#51A3D3" fill-opacity="0.5"/>
<path d="M97.352 150.234H95.616V148.26H93.908V150.234H90.702L95.252 144.2H93.306L88.476 150.514V151.774H93.852V154H95.616V151.774H97.352V150.234Z" fill="#51A3D3"/>
<path d="M46.704 154.14C49.042 154.14 50.806 152.32 50.806 149.1C50.806 145.88 49.042 144.06 46.704 144.06C44.38 144.06 42.616 145.88 42.616 149.1C42.616 152.32 44.38 154.14 46.704 154.14ZM46.704 152.558C45.374 152.558 44.45 151.466 44.45 149.1C44.45 146.734 45.374 145.642 46.704 145.642C48.048 145.642 48.972 146.734 48.972 149.1C48.972 151.466 48.048 152.558 46.704 152.558Z" fill="#51A3D3"/>
<path d="M143.406 148.848C144.204 148.414 144.652 147.714 144.652 146.79C144.652 145.11 143.168 144.06 140.984 144.06C138.814 144.06 137.344 145.11 137.344 146.79C137.344 147.714 137.778 148.414 138.562 148.848C137.554 149.31 136.994 150.108 136.994 151.186C136.994 153.006 138.548 154.14 140.984 154.14C143.42 154.14 145.002 153.006 145.002 151.186C145.002 150.108 144.428 149.31 143.406 148.848ZM140.984 145.488C142.104 145.488 142.86 145.992 142.86 146.874C142.86 147.714 142.146 148.246 140.984 148.246C139.836 148.246 139.136 147.714 139.136 146.874C139.136 145.992 139.864 145.488 140.984 145.488ZM140.984 152.712C139.64 152.712 138.828 152.124 138.828 151.13C138.828 150.164 139.64 149.562 140.984 149.562C142.328 149.562 143.168 150.164 143.168 151.13C143.168 152.124 142.328 152.712 140.984 152.712Z" fill="#51A3D3"/>
<path d="M181.232 144.2V145.726H183.304V154H185.124V144.2H181.232ZM189.826 152.46L192.444 149.968C193.802 148.694 194.068 147.826 194.068 146.874C194.068 145.138 192.696 144.06 190.568 144.06C188.958 144.06 187.6 144.662 186.844 145.684L188.118 146.664C188.664 145.964 189.462 145.642 190.414 145.642C191.618 145.642 192.234 146.16 192.234 147.056C192.234 147.602 192.066 148.176 191.114 149.086L187.222 152.782V154H194.446V152.46H189.826Z" fill="#51A3D3"/>
<rect x="223" y="138" width="24" height="22" rx="8" fill="#F4435A"/>
<path d="M228.417 144.2V145.726H230.489V154H232.309V144.2H228.417ZM238.985 147.952C237.893 147.952 236.955 148.288 236.367 148.974V148.96C236.367 146.734 237.529 145.586 239.377 145.586C240.063 145.586 240.707 145.712 241.239 146.062L241.911 144.69C241.253 144.27 240.315 144.06 239.335 144.06C236.493 144.06 234.533 145.908 234.533 149.268C234.533 152.418 236.101 154.14 238.775 154.14C240.777 154.14 242.359 152.908 242.359 150.962C242.359 149.128 240.917 147.952 238.985 147.952ZM238.677 152.712C237.375 152.712 236.647 151.984 236.647 151.06C236.647 150.094 237.459 149.38 238.635 149.38C239.825 149.38 240.595 150.024 240.595 151.046C240.595 152.068 239.811 152.712 238.677 152.712Z" fill="white"/>
<rect x="317" y="138" width="24" height="22" rx="8" fill="#F4435A"/>
<path d="M276.19 152.46L278.808 149.968C280.166 148.694 280.432 147.826 280.432 146.874C280.432 145.138 279.06 144.06 276.932 144.06C275.322 144.06 273.964 144.662 273.208 145.684L274.482 146.664C275.028 145.964 275.826 145.642 276.778 145.642C277.982 145.642 278.598 146.16 278.598 147.056C278.598 147.602 278.43 148.176 277.478 149.086L273.586 152.782V154H280.81V152.46H276.19ZM286.188 154.14C288.526 154.14 290.29 152.32 290.29 149.1C290.29 145.88 288.526 144.06 286.188 144.06C283.864 144.06 282.1 145.88 282.1 149.1C282.1 152.32 283.864 154.14 286.188 154.14ZM286.188 152.558C284.858 152.558 283.934 151.466 283.934 149.1C283.934 146.734 284.858 145.642 286.188 145.642C287.532 145.642 288.456 146.734 288.456 149.1C288.456 151.466 287.532 152.558 286.188 152.558Z" fill="#51A3D3"/>
<path d="M323.094 152.46L325.712 149.968C327.07 148.694 327.336 147.826 327.336 146.874C327.336 145.138 325.964 144.06 323.836 144.06C322.226 144.06 320.868 144.662 320.112 145.684L321.386 146.664C321.932 145.964 322.73 145.642 323.682 145.642C324.886 145.642 325.502 146.16 325.502 147.056C325.502 147.602 325.334 148.176 324.382 149.086L320.49 152.782V154H327.714V152.46H323.094ZM337.575 150.234H335.839V148.26H334.131V150.234H330.925L335.475 144.2H333.529L328.699 150.514V151.774H334.075V154H335.839V151.774H337.575V150.234Z" fill="white"/>
<g clip-path="url(#clip1_1452_70466)">
<mask id="mask0_1452_70466" style="mask-type:alpha" maskUnits="userSpaceOnUse" x="0" y="32" width="164" height="100">
<rect y="32" width="164" height="100" fill="#51A3D3"/>
</mask>
<g mask="url(#mask0_1452_70466)">
<path d="M351.211 62.4502C338.953 62.4502 332.831 70.8206 326.913 78.9152C321.048 86.9356 315.508 94.5142 304.322 94.5142C293.135 94.5142 287.595 86.9392 281.731 78.9152C275.813 70.8206 269.691 62.4502 257.432 62.4502C245.174 62.4502 239.055 70.8206 233.134 78.9152C227.27 86.9356 221.729 94.5142 210.543 94.5142C199.357 94.5142 193.817 86.9392 187.952 78.9152C182.034 70.8206 175.912 62.4502 163.654 62.4502C151.395 62.4502 145.277 70.8206 139.356 78.9152C133.491 86.9356 127.951 94.5142 116.765 94.5142C105.578 94.5142 100.042 86.9392 94.1768 78.9152C88.2592 70.8206 82.1371 62.4502 69.8787 62.4502C57.6204 62.4502 51.5018 70.8206 45.5806 78.9152C39.7265 86.9392 34.1863 94.5142 23 94.5142V96.6351C35.2584 96.6351 41.377 88.2647 47.2981 80.1701C53.1628 72.1496 58.703 64.5711 69.8893 64.5711C81.0756 64.5711 86.6159 72.1461 92.4805 80.1701C98.3981 88.2647 104.52 96.6351 116.775 96.6351C129.03 96.6351 135.152 88.2647 141.073 80.1701C146.938 72.1496 152.478 64.5711 163.664 64.5711C174.851 64.5711 180.391 72.1461 186.256 80.1701C192.173 88.2647 198.295 96.6351 210.554 96.6351C222.812 96.6351 228.931 88.2647 234.852 80.1701C240.717 72.1496 246.257 64.5711 257.443 64.5711C268.629 64.5711 274.17 72.1461 280.034 80.1701C285.952 88.2647 292.074 96.6351 304.332 96.6351C316.591 96.6351 322.713 88.2647 328.63 80.1701C334.495 72.1496 340.035 64.5711 351.222 64.5711V62.4502H351.211Z" fill="#51A3D3"/>
<path d="M70.2111 62.4502C57.9527 62.4502 51.8306 70.8206 45.913 78.9152C40.0483 86.9356 34.5081 94.5142 23.3218 94.5142C12.1355 94.5142 6.59525 86.9392 0.73056 78.9152C-5.18703 70.8206 -11.3091 62.4502 -23.5675 62.4502C-35.8259 62.4502 -41.9445 70.8206 -47.8656 78.9152C-53.7303 86.9356 -59.2706 94.5142 -70.4568 94.5142C-81.6431 94.5142 -87.1834 86.9392 -93.0481 78.9152C-98.9657 70.8206 -105.088 62.4502 -117.346 62.4502C-129.605 62.4502 -135.723 70.8206 -141.644 78.9152C-147.509 86.9356 -153.049 94.5142 -164.235 94.5142C-175.422 94.5142 -180.958 86.9392 -186.823 78.9152C-192.741 70.8206 -198.863 62.4502 -211.121 62.4502C-223.38 62.4502 -229.498 70.8206 -235.419 78.9152C-241.273 86.9392 -246.814 94.5142 -258 94.5142V96.6351C-245.742 96.6351 -239.623 88.2647 -233.702 80.1701C-227.837 72.1496 -222.297 64.5711 -211.111 64.5711C-199.924 64.5711 -194.384 72.1461 -188.519 80.1701C-182.602 88.2647 -176.48 96.6351 -164.225 96.6351C-151.97 96.6351 -145.848 88.2647 -139.927 80.1701C-134.062 72.1496 -128.522 64.5711 -117.336 64.5711C-106.149 64.5711 -100.609 72.1461 -94.7444 80.1701C-88.8268 88.2647 -82.7046 96.6351 -70.4463 96.6351C-58.1879 96.6351 -52.0693 88.2647 -46.1482 80.1701C-40.2835 72.1496 -34.7432 64.5711 -23.5569 64.5711C-12.3707 64.5711 -6.83041 72.1461 -0.965729 80.1701C4.95187 88.2647 11.074 96.6351 23.3324 96.6351C35.5907 96.6351 41.7129 88.2647 47.6305 80.1701C53.4952 72.1496 59.0354 64.5711 70.2217 64.5711V62.4502H70.2111Z" fill="#51A3D3"/>
</g>
</g>
<mask id="path-37-inside-1_1452_70466" fill="white">
<path fill-rule="evenodd" clip-rule="evenodd" d="M184 30C192.284 30 199 23.2843 199 15C199 6.71573 192.284 5.13494e-06 184 4.4107e-06L144 0C135.716 0 129 6.71573 129 15C129 23.2843 135.716 30 144 30L160.536 30L164 36L167.464 30L184 30Z"/>
</mask>
<path fill-rule="evenodd" clip-rule="evenodd" d="M184 30C192.284 30 199 23.2843 199 15C199 6.71573 192.284 5.13494e-06 184 4.4107e-06L144 0C135.716 0 129 6.71573 129 15C129 23.2843 135.716 30 144 30L160.536 30L164 36L167.464 30L184 30Z" fill="#0074A2" fill-opacity="0.8"/>
<path d="M184 30V29V30ZM184 4.4107e-06V1V4.4107e-06ZM144 0V-1V0ZM129 15H128H129ZM144 30V29V30ZM160.536 30L161.402 29.5L161.113 29H160.536V30ZM164 36L163.134 36.5L164 38L164.866 36.5L164 36ZM167.464 30V29H166.887L166.598 29.5L167.464 30ZM198 15C198 22.732 191.732 29 184 29V31C192.837 31 200 23.8366 200 15H198ZM184 1C191.732 1.00001 198 7.26802 198 15H200C200 6.16345 192.837 -0.999995 184 -0.999996V1ZM144 1L184 1V-0.999996L144 -1V1ZM130 15C130 7.26801 136.268 1 144 1V-1C135.163 -1 128 6.16344 128 15H130ZM144 29C136.268 29 130 22.732 130 15H128C128 23.8366 135.163 31 144 31V29ZM160.536 29L144 29V31L160.536 31V29ZM164.866 35.5L161.402 29.5L159.67 30.5L163.134 36.5L164.866 35.5ZM166.598 29.5L163.134 35.5L164.866 36.5L168.33 30.5L166.598 29.5ZM184 29L167.464 29V31L184 31V29Z" fill="#51A3D3" mask="url(#path-37-inside-1_1452_70466)"/>
<path d="M142.277 9.8V11.544H144.645V21H146.725V9.8H142.277ZM153.939 21.16C156.611 21.16 158.627 19.08 158.627 15.4C158.627 11.72 156.611 9.64 153.939 9.64C151.283 9.64 149.267 11.72 149.267 15.4C149.267 19.08 151.283 21.16 153.939 21.16ZM153.939 19.352C152.419 19.352 151.363 18.104 151.363 15.4C151.363 12.696 152.419 11.448 153.939 11.448C155.475 11.448 156.531 12.696 156.531 15.4C156.531 18.104 155.475 19.352 153.939 19.352ZM158.856 22.6H160.648L165.928 7.528H164.136L158.856 22.6ZM169.129 19.24L172.121 16.392C173.673 14.936 173.977 13.944 173.977 12.856C173.977 10.872 172.409 9.64 169.977 9.64C168.137 9.64 166.585 10.328 165.721 11.496L167.177 12.616C167.801 11.816 168.713 11.448 169.801 11.448C171.177 11.448 171.881 12.04 171.881 13.064C171.881 13.688 171.689 14.344 170.601 15.384L166.153 19.608V21H174.409V19.24H169.129ZM185.68 16.696H183.696V14.44H181.744V16.696H178.08L183.28 9.8H181.056L175.536 17.016V18.456H181.68V21H183.696V18.456H185.68V16.696Z" fill="white"/>
<circle cx="164" cy="62" r="24.5" fill="#022B42" fill-opacity="0.8" stroke="#51A3D3"/>
<circle cx="164" cy="62" r="28.5" stroke="#51A3D3" stroke-opacity="0.4"/>
<mask id="path-42-inside-2_1452_70466" fill="white">
<path fill-rule="evenodd" clip-rule="evenodd" d="M164.002 66.7004C168.724 66.7004 172.552 65.4436 172.552 61.1588C172.552 60.1521 172.34 59.1902 171.956 58.3076C176.85 59.7766 180.152 62.5594 180.152 65.7504C180.152 70.4724 172.921 74.3004 164.002 74.3004C155.082 74.3004 147.852 70.4724 147.852 65.7504C147.852 62.5594 151.154 59.7766 156.047 58.3076C155.663 59.1902 155.452 60.1521 155.452 61.1588C155.452 65.4436 159.28 66.7004 164.002 66.7004Z"/>
</mask>
<path d="M171.956 58.3076L172.531 56.3921L168.399 55.1519L170.122 59.1065L171.956 58.3076ZM156.047 58.3076L157.881 59.1065L159.604 55.1519L155.472 56.3921L156.047 58.3076ZM170.552 61.1588C170.552 61.9232 170.384 62.4379 170.165 62.8026C169.945 63.1694 169.604 63.4983 169.085 63.7834C167.982 64.3888 166.253 64.7004 164.002 64.7004V68.7004C166.472 68.7004 169.018 68.3836 171.01 67.2894C172.038 66.7247 172.949 65.9359 173.594 64.862C174.241 63.7859 174.552 62.5367 174.552 61.1588H170.552ZM170.122 59.1065C170.4 59.745 170.552 60.4355 170.552 61.1588H174.552C174.552 59.8687 174.28 58.6354 173.789 57.5088L170.122 59.1065ZM171.381 60.2232C173.635 60.8999 175.399 61.8454 176.56 62.8777C177.717 63.9073 178.152 64.8972 178.152 65.7504H182.152C182.152 63.4126 180.935 61.4156 179.218 59.8888C177.504 58.3648 175.17 57.1843 172.531 56.3921L171.381 60.2232ZM178.152 65.7504C178.152 67.0056 177.156 68.615 174.486 70.0286C171.905 71.3948 168.202 72.3004 164.002 72.3004V76.3004C168.721 76.3004 173.093 75.292 176.357 73.5638C179.532 71.8829 182.152 69.2173 182.152 65.7504H178.152ZM164.002 72.3004C159.801 72.3004 156.098 71.3948 153.518 70.0286C150.847 68.615 149.852 67.0056 149.852 65.7504H145.852C145.852 69.2173 148.471 71.8829 151.646 73.5638C154.911 75.292 159.282 76.3004 164.002 76.3004V72.3004ZM149.852 65.7504C149.852 64.8972 150.286 63.9073 151.443 62.8777C152.604 61.8454 154.368 60.8999 156.622 60.2232L155.472 56.3921C152.833 57.1843 150.499 58.3648 148.785 59.8888C147.068 61.4156 145.852 63.4126 145.852 65.7504H149.852ZM157.452 61.1588C157.452 60.4355 157.603 59.745 157.881 59.1065L154.214 57.5088C153.723 58.6354 153.452 59.8687 153.452 61.1588H157.452ZM164.002 64.7004C161.75 64.7004 160.021 64.3888 158.919 63.7834C158.399 63.4983 158.058 63.1694 157.838 62.8026C157.619 62.4379 157.452 61.9232 157.452 61.1588H153.452C153.452 62.5367 153.763 63.7859 154.409 64.862C155.054 65.9359 155.965 66.7247 156.993 67.2894C158.985 68.3836 161.531 68.7004 164.002 68.7004V64.7004Z" fill="#FF7987" mask="url(#path-42-inside-2_1452_70466)"/>
<path d="M164.003 67.7004C166.419 67.7004 168.761 67.3849 170.53 66.4129C171.431 65.9181 172.2 65.2443 172.738 64.3471C173.278 63.4489 173.553 62.3833 173.553 61.1587C173.553 56.2324 169.184 52.4004 164.003 52.4004C158.822 52.4004 154.453 56.2324 154.453 61.1587C154.453 62.3833 154.728 63.4489 155.268 64.3471C155.807 65.2443 156.575 65.9181 157.476 66.4129C159.246 67.3849 161.587 67.7004 164.003 67.7004Z" stroke="#FF7987" stroke-width="2"/>
<path fill-rule="evenodd" clip-rule="evenodd" d="M177.689 67.752C175.969 71.3144 170.492 73.9189 164 73.9189C157.138 73.9189 151.409 71.0091 150.054 67.1338C149.855 67.8275 149.75 68.5722 149.75 69.3678C149.75 73.0947 156.13 76.2005 164 76.2005C171.87 76.2005 178.25 73.7159 178.25 69.3678C178.25 68.9472 178.054 68.3881 177.689 67.752Z" fill="#FF7987"/>
<path d="M166.22 75.7256C166.22 76.322 165.57 77.1006 164.37 77.1006C163.169 77.1006 162.52 76.322 162.52 75.7256C162.52 75.1292 163.169 74.3506 164.37 74.3506C165.57 74.3506 166.22 75.1292 166.22 75.7256Z" fill="#FF7987" stroke="#FF7987" stroke-width="2"/>
<path d="M157.642 75.0965C157.538 75.6838 156.763 76.3377 155.581 76.1293C154.399 75.9209 153.895 75.0413 153.998 74.454C154.102 73.8666 154.877 73.2127 156.059 73.4211C157.241 73.6295 157.746 74.5091 157.642 75.0965Z" fill="#FF7987" stroke="#FF7987" stroke-width="2"/>
<path d="M174.162 74.4544C174.266 75.0418 173.761 75.9214 172.579 76.1298C171.397 76.3382 170.622 75.6843 170.518 75.0969C170.415 74.5096 170.919 73.63 172.101 73.4216C173.283 73.2131 174.059 73.8671 174.162 74.4544Z" fill="#FF7987" stroke="#FF7987" stroke-width="2"/>
<path d="M165.902 56.25C166.536 56.3652 168.942 57.2864 169.702 60.05" stroke="#FF7987" stroke-width="2" stroke-linecap="round"/>
<path d="M164 52.4504V48.6504" stroke="#FF7987" stroke-width="2" stroke-linecap="round"/>
<path d="M165.852 46.7504C165.852 47.7721 165.024 48.6004 164.002 48.6004C162.981 48.6004 162.152 47.7721 162.152 46.7504C162.152 45.7287 162.981 44.9004 164.002 44.9004C165.024 44.9004 165.852 45.7287 165.852 46.7504Z" stroke="#FF7987" stroke-width="2"/>
</g>
<defs>
<clipPath id="clip0_1452_70466">
<rect width="375" height="160" fill="white"/>
</clipPath>
<clipPath id="clip1_1452_70466">
<rect width="375" height="58" fill="white" transform="translate(0 51)"/>
</clipPath>
</defs>
</svg>
