<svg width="375" height="160" viewBox="0 0 375 160" fill="none" xmlns="http://www.w3.org/2000/svg">
<g clip-path="url(#clip0_1452_77162)">
<rect x="-0.5" y="32.5" width="376" height="99" fill="#004973" fill-opacity="0.5" stroke="#0074A2"/>
<line x1="93.5" y1="32" x2="93.5" y2="132" stroke="#0074A2"/>
<line x1="140.5" y1="32" x2="140.5" y2="132" stroke="#0074A2"/>
<line x1="46.5" y1="32" x2="46.5" y2="132" stroke="#0074A2"/>
<line x1="187.5" y1="32" x2="187.5" y2="132" stroke="#0074A2"/>
<line x1="234.5" y1="32" x2="234.5" y2="132" stroke="#0074A2"/>
<line x1="281.5" y1="32" x2="281.5" y2="132" stroke="#0074A2"/>
<line x1="328.5" y1="32" x2="328.5" y2="132" stroke="#0074A2"/>
<circle cx="33.5" cy="52.5" r="1.5" fill="#51A3D3" fill-opacity="0.5"/>
<circle cx="9.5" cy="103.5" r="1.5" fill="#51A3D3" fill-opacity="0.3"/>
<circle cx="75.5" cy="102.5" r="1.5" fill="#51A3D3" fill-opacity="0.5"/>
<circle cx="104.5" cy="43.5" r="1.5" fill="#51A3D3" fill-opacity="0.3"/>
<circle cx="35.5" cy="122.5" r="1.5" fill="#51A3D3" fill-opacity="0.7"/>
<circle cx="126.5" cy="119.5" r="1.5" fill="#51A3D3" fill-opacity="0.3"/>
<circle cx="149.5" cy="56.5" r="1.5" fill="#51A3D3" fill-opacity="0.7"/>
<circle cx="172.5" cy="96.5" r="1.5" fill="#51A3D3" fill-opacity="0.25"/>
<circle cx="206.5" cy="63.5" r="1.5" fill="#51A3D3" fill-opacity="0.5"/>
<circle cx="242.5" cy="41.5" r="1.5" fill="#51A3D3" fill-opacity="0.3"/>
<circle cx="256.5" cy="96.5" r="1.5" fill="#51A3D3" fill-opacity="0.5"/>
<circle cx="217.5" cy="120.5" r="1.5" fill="#51A3D3" fill-opacity="0.5"/>
<circle cx="337.5" cy="43.5" r="1.5" fill="#51A3D3" fill-opacity="0.5"/>
<circle cx="295.5" cy="65.5" r="1.5" fill="#51A3D3" fill-opacity="0.5"/>
<circle cx="315.5" cy="116.5" r="1.5" fill="#51A3D3" fill-opacity="0.7"/>
<path d="M358 93.5C358 94.3284 357.328 95 356.5 95C355.672 95 355 94.3284 355 93.5C355 92.6716 355.672 92 356.5 92C357.328 92 358 92.6716 358 93.5Z" fill="#51A3D3" fill-opacity="0.5"/>
<path d="M97.352 150.234H95.616V148.26H93.908V150.234H90.702L95.252 144.2H93.306L88.476 150.514V151.774H93.852V154H95.616V151.774H97.352V150.234Z" fill="#51A3D3"/>
<path d="M46.704 154.14C49.042 154.14 50.806 152.32 50.806 149.1C50.806 145.88 49.042 144.06 46.704 144.06C44.38 144.06 42.616 145.88 42.616 149.1C42.616 152.32 44.38 154.14 46.704 154.14ZM46.704 152.558C45.374 152.558 44.45 151.466 44.45 149.1C44.45 146.734 45.374 145.642 46.704 145.642C48.048 145.642 48.972 146.734 48.972 149.1C48.972 151.466 48.048 152.558 46.704 152.558Z" fill="#51A3D3"/>
<path d="M143.406 148.848C144.204 148.414 144.652 147.714 144.652 146.79C144.652 145.11 143.168 144.06 140.984 144.06C138.814 144.06 137.344 145.11 137.344 146.79C137.344 147.714 137.778 148.414 138.562 148.848C137.554 149.31 136.994 150.108 136.994 151.186C136.994 153.006 138.548 154.14 140.984 154.14C143.42 154.14 145.002 153.006 145.002 151.186C145.002 150.108 144.428 149.31 143.406 148.848ZM140.984 145.488C142.104 145.488 142.86 145.992 142.86 146.874C142.86 147.714 142.146 148.246 140.984 148.246C139.836 148.246 139.136 147.714 139.136 146.874C139.136 145.992 139.864 145.488 140.984 145.488ZM140.984 152.712C139.64 152.712 138.828 152.124 138.828 151.13C138.828 150.164 139.64 149.562 140.984 149.562C142.328 149.562 143.168 150.164 143.168 151.13C143.168 152.124 142.328 152.712 140.984 152.712Z" fill="#51A3D3"/>
<path d="M181.232 144.2V145.726H183.304V154H185.124V144.2H181.232ZM189.826 152.46L192.444 149.968C193.802 148.694 194.068 147.826 194.068 146.874C194.068 145.138 192.696 144.06 190.568 144.06C188.958 144.06 187.6 144.662 186.844 145.684L188.118 146.664C188.664 145.964 189.462 145.642 190.414 145.642C191.618 145.642 192.234 146.16 192.234 147.056C192.234 147.602 192.066 148.176 191.114 149.086L187.222 152.782V154H194.446V152.46H189.826Z" fill="#51A3D3"/>
<rect x="223" y="138" width="24" height="22" rx="8" fill="#0074A2"/>
<path d="M228.417 144.2V145.726H230.489V154H232.309V144.2H228.417ZM238.985 147.952C237.893 147.952 236.955 148.288 236.367 148.974V148.96C236.367 146.734 237.529 145.586 239.377 145.586C240.063 145.586 240.707 145.712 241.239 146.062L241.911 144.69C241.253 144.27 240.315 144.06 239.335 144.06C236.493 144.06 234.533 145.908 234.533 149.268C234.533 152.418 236.101 154.14 238.775 154.14C240.777 154.14 242.359 152.908 242.359 150.962C242.359 149.128 240.917 147.952 238.985 147.952ZM238.677 152.712C237.375 152.712 236.647 151.984 236.647 151.06C236.647 150.094 237.459 149.38 238.635 149.38C239.825 149.38 240.595 150.024 240.595 151.046C240.595 152.068 239.811 152.712 238.677 152.712Z" fill="white"/>
<rect x="317" y="138" width="24" height="22" rx="8" fill="#F4435A"/>
<path d="M276.19 152.46L278.808 149.968C280.166 148.694 280.432 147.826 280.432 146.874C280.432 145.138 279.06 144.06 276.932 144.06C275.322 144.06 273.964 144.662 273.208 145.684L274.482 146.664C275.028 145.964 275.826 145.642 276.778 145.642C277.982 145.642 278.598 146.16 278.598 147.056C278.598 147.602 278.43 148.176 277.478 149.086L273.586 152.782V154H280.81V152.46H276.19ZM286.188 154.14C288.526 154.14 290.29 152.32 290.29 149.1C290.29 145.88 288.526 144.06 286.188 144.06C283.864 144.06 282.1 145.88 282.1 149.1C282.1 152.32 283.864 154.14 286.188 154.14ZM286.188 152.558C284.858 152.558 283.934 151.466 283.934 149.1C283.934 146.734 284.858 145.642 286.188 145.642C287.532 145.642 288.456 146.734 288.456 149.1C288.456 151.466 287.532 152.558 286.188 152.558Z" fill="#51A3D3"/>
<path d="M323.094 152.46L325.712 149.968C327.07 148.694 327.336 147.826 327.336 146.874C327.336 145.138 325.964 144.06 323.836 144.06C322.226 144.06 320.868 144.662 320.112 145.684L321.386 146.664C321.932 145.964 322.73 145.642 323.682 145.642C324.886 145.642 325.502 146.16 325.502 147.056C325.502 147.602 325.334 148.176 324.382 149.086L320.49 152.782V154H327.714V152.46H323.094ZM337.575 150.234H335.839V148.26H334.131V150.234H330.925L335.475 144.2H333.529L328.699 150.514V151.774H334.075V154H335.839V151.774H337.575V150.234Z" fill="white"/>
<g clip-path="url(#clip1_1452_77162)">
<mask id="mask0_1452_77162" style="mask-type:alpha" maskUnits="userSpaceOnUse" x="0" y="32" width="258" height="100">
<rect y="32" width="258" height="100" fill="#51A3D3"/>
</mask>
<g mask="url(#mask0_1452_77162)">
<path d="M351.211 62.4502C338.953 62.4502 332.831 70.8206 326.913 78.9152C321.048 86.9356 315.508 94.5142 304.322 94.5142C293.135 94.5142 287.595 86.9392 281.731 78.9152C275.813 70.8206 269.691 62.4502 257.432 62.4502C245.174 62.4502 239.055 70.8206 233.134 78.9152C227.27 86.9356 221.729 94.5142 210.543 94.5142C199.357 94.5142 193.817 86.9392 187.952 78.9152C182.034 70.8206 175.912 62.4502 163.654 62.4502C151.395 62.4502 145.277 70.8206 139.356 78.9152C133.491 86.9356 127.951 94.5142 116.765 94.5142C105.578 94.5142 100.042 86.9392 94.1768 78.9152C88.2592 70.8206 82.1371 62.4502 69.8787 62.4502C57.6204 62.4502 51.5018 70.8206 45.5806 78.9152C39.7265 86.9392 34.1863 94.5142 23 94.5142V96.6351C35.2584 96.6351 41.377 88.2647 47.2981 80.1701C53.1628 72.1496 58.703 64.5711 69.8893 64.5711C81.0756 64.5711 86.6159 72.1461 92.4805 80.1701C98.3981 88.2647 104.52 96.6351 116.775 96.6351C129.03 96.6351 135.152 88.2647 141.073 80.1701C146.938 72.1496 152.478 64.5711 163.664 64.5711C174.851 64.5711 180.391 72.1461 186.256 80.1701C192.173 88.2647 198.295 96.6351 210.554 96.6351C222.812 96.6351 228.931 88.2647 234.852 80.1701C240.717 72.1496 246.257 64.5711 257.443 64.5711C268.629 64.5711 274.17 72.1461 280.034 80.1701C285.952 88.2647 292.074 96.6351 304.332 96.6351C316.591 96.6351 322.713 88.2647 328.63 80.1701C334.495 72.1496 340.035 64.5711 351.222 64.5711V62.4502H351.211Z" fill="#51A3D3"/>
<path d="M70.2111 62.4502C57.9527 62.4502 51.8306 70.8206 45.913 78.9152C40.0483 86.9356 34.5081 94.5142 23.3218 94.5142C12.1355 94.5142 6.59525 86.9392 0.73056 78.9152C-5.18703 70.8206 -11.3091 62.4502 -23.5675 62.4502C-35.8259 62.4502 -41.9445 70.8206 -47.8656 78.9152C-53.7303 86.9356 -59.2706 94.5142 -70.4568 94.5142C-81.6431 94.5142 -87.1834 86.9392 -93.0481 78.9152C-98.9657 70.8206 -105.088 62.4502 -117.346 62.4502C-129.605 62.4502 -135.723 70.8206 -141.644 78.9152C-147.509 86.9356 -153.049 94.5142 -164.235 94.5142C-175.422 94.5142 -180.958 86.9392 -186.823 78.9152C-192.741 70.8206 -198.863 62.4502 -211.121 62.4502C-223.38 62.4502 -229.498 70.8206 -235.419 78.9152C-241.273 86.9392 -246.814 94.5142 -258 94.5142V96.6351C-245.742 96.6351 -239.623 88.2647 -233.702 80.1701C-227.837 72.1496 -222.297 64.5711 -211.111 64.5711C-199.924 64.5711 -194.384 72.1461 -188.519 80.1701C-182.602 88.2647 -176.48 96.6351 -164.225 96.6351C-151.97 96.6351 -145.848 88.2647 -139.927 80.1701C-134.062 72.1496 -128.522 64.5711 -117.336 64.5711C-106.149 64.5711 -100.609 72.1461 -94.7444 80.1701C-88.8268 88.2647 -82.7046 96.6351 -70.4463 96.6351C-58.1879 96.6351 -52.0693 88.2647 -46.1482 80.1701C-40.2835 72.1496 -34.7432 64.5711 -23.5569 64.5711C-12.3707 64.5711 -6.83041 72.1461 -0.965729 80.1701C4.95187 88.2647 11.074 96.6351 23.3324 96.6351C35.5907 96.6351 41.7129 88.2647 47.6305 80.1701C53.4952 72.1496 59.0354 64.5711 70.2217 64.5711V62.4502H70.2111Z" fill="#51A3D3"/>
</g>
</g>
<mask id="path-37-inside-1_1452_77162" fill="white">
<path fill-rule="evenodd" clip-rule="evenodd" d="M278 30C286.284 30 293 23.2843 293 15C293 6.71573 286.284 5.13494e-06 278 4.4107e-06L238 0C229.716 0 223 6.71573 223 15C223 23.2843 229.716 30 238 30L254.536 30L258 36L261.464 30L278 30Z"/>
</mask>
<path fill-rule="evenodd" clip-rule="evenodd" d="M278 30C286.284 30 293 23.2843 293 15C293 6.71573 286.284 5.13494e-06 278 4.4107e-06L238 0C229.716 0 223 6.71573 223 15C223 23.2843 229.716 30 238 30L254.536 30L258 36L261.464 30L278 30Z" fill="#0074A2" fill-opacity="0.8"/>
<path d="M278 30V29V30ZM278 4.4107e-06V1V4.4107e-06ZM238 0V-1V0ZM223 15H222H223ZM238 30V29V30ZM254.536 30L255.402 29.5L255.113 29H254.536V30ZM258 36L257.134 36.5L258 38L258.866 36.5L258 36ZM261.464 30V29H260.887L260.598 29.5L261.464 30ZM292 15C292 22.732 285.732 29 278 29V31C286.837 31 294 23.8366 294 15H292ZM278 1C285.732 1.00001 292 7.26802 292 15H294C294 6.16345 286.837 -0.999995 278 -0.999996V1ZM238 1L278 1V-0.999996L238 -1V1ZM224 15C224 7.26801 230.268 1 238 1V-1C229.163 -1 222 6.16344 222 15H224ZM238 29C230.268 29 224 22.732 224 15H222C222 23.8366 229.163 31 238 31V29ZM254.536 29L238 29V31L254.536 31V29ZM258.866 35.5L255.402 29.5L253.67 30.5L257.134 36.5L258.866 35.5ZM260.598 29.5L257.134 35.5L258.866 36.5L262.33 30.5L260.598 29.5ZM278 29L261.464 29V31L278 31V29Z" fill="#51A3D3" mask="url(#path-37-inside-1_1452_77162)"/>
<path d="M236.285 9.8V11.544H238.653V21H240.733V9.8H236.285ZM250.539 15.112C251.451 14.616 251.963 13.816 251.963 12.76C251.963 10.84 250.267 9.64 247.771 9.64C245.291 9.64 243.611 10.84 243.611 12.76C243.611 13.816 244.107 14.616 245.003 15.112C243.851 15.64 243.211 16.552 243.211 17.784C243.211 19.864 244.987 21.16 247.771 21.16C250.555 21.16 252.363 19.864 252.363 17.784C252.363 16.552 251.707 15.64 250.539 15.112ZM247.771 11.272C249.051 11.272 249.915 11.848 249.915 12.856C249.915 13.816 249.099 14.424 247.771 14.424C246.459 14.424 245.659 13.816 245.659 12.856C245.659 11.848 246.491 11.272 247.771 11.272ZM247.771 19.528C246.235 19.528 245.307 18.856 245.307 17.72C245.307 16.616 246.235 15.928 247.771 15.928C249.307 15.928 250.267 16.616 250.267 17.72C250.267 18.856 249.307 19.528 247.771 19.528ZM252.848 22.6H254.64L259.92 7.528H258.128L252.848 22.6ZM263.122 19.24L266.114 16.392C267.666 14.936 267.97 13.944 267.97 12.856C267.97 10.872 266.402 9.64 263.97 9.64C262.13 9.64 260.578 10.328 259.714 11.496L261.17 12.616C261.794 11.816 262.706 11.448 263.794 11.448C265.17 11.448 265.874 12.04 265.874 13.064C265.874 13.688 265.682 14.344 264.594 15.384L260.146 19.608V21H268.402V19.24H263.122ZM279.672 16.696H277.688V14.44H275.736V16.696H272.072L277.272 9.8H275.048L269.528 17.016V18.456H275.672V21H277.688V18.456H279.672V16.696Z" fill="white"/>
<circle cx="258" cy="62" r="24.5" fill="#022B42" fill-opacity="0.8" stroke="#51A3D3"/>
<circle cx="258" cy="62" r="28.5" stroke="#51A3D3" stroke-opacity="0.4"/>
<mask id="path-42-inside-2_1452_77162" fill="white">
<path fill-rule="evenodd" clip-rule="evenodd" d="M258.002 66.7004C262.724 66.7004 266.552 65.4436 266.552 61.1588C266.552 60.1521 266.34 59.1902 265.956 58.3076C270.85 59.7766 274.152 62.5594 274.152 65.7504C274.152 70.4724 266.921 74.3004 258.002 74.3004C249.082 74.3004 241.852 70.4724 241.852 65.7504C241.852 62.5594 245.154 59.7766 250.047 58.3076C249.663 59.1902 249.452 60.1521 249.452 61.1588C249.452 65.4436 253.28 66.7004 258.002 66.7004Z"/>
</mask>
<path d="M265.956 58.3076L266.531 56.3921L262.399 55.1519L264.122 59.1065L265.956 58.3076ZM250.047 58.3076L251.881 59.1065L253.604 55.1519L249.472 56.3921L250.047 58.3076ZM264.552 61.1588C264.552 61.9232 264.384 62.4379 264.165 62.8026C263.945 63.1694 263.604 63.4983 263.085 63.7834C261.982 64.3888 260.253 64.7004 258.002 64.7004V68.7004C260.472 68.7004 263.018 68.3836 265.01 67.2894C266.038 66.7247 266.949 65.9359 267.594 64.862C268.241 63.7859 268.552 62.5367 268.552 61.1588H264.552ZM264.122 59.1065C264.4 59.745 264.552 60.4355 264.552 61.1588H268.552C268.552 59.8687 268.28 58.6354 267.789 57.5088L264.122 59.1065ZM265.381 60.2232C267.635 60.8999 269.399 61.8454 270.56 62.8777C271.717 63.9073 272.152 64.8972 272.152 65.7504H276.152C276.152 63.4126 274.935 61.4156 273.218 59.8888C271.504 58.3648 269.17 57.1843 266.531 56.3921L265.381 60.2232ZM272.152 65.7504C272.152 67.0056 271.156 68.615 268.486 70.0286C265.905 71.3948 262.202 72.3004 258.002 72.3004V76.3004C262.721 76.3004 267.093 75.292 270.357 73.5638C273.532 71.8829 276.152 69.2173 276.152 65.7504H272.152ZM258.002 72.3004C253.801 72.3004 250.098 71.3948 247.518 70.0286C244.847 68.615 243.852 67.0056 243.852 65.7504H239.852C239.852 69.2173 242.471 71.8829 245.646 73.5638C248.911 75.292 253.282 76.3004 258.002 76.3004V72.3004ZM243.852 65.7504C243.852 64.8972 244.286 63.9073 245.443 62.8777C246.604 61.8454 248.368 60.8999 250.622 60.2232L249.472 56.3921C246.833 57.1843 244.499 58.3648 242.785 59.8888C241.068 61.4156 239.852 63.4126 239.852 65.7504H243.852ZM251.452 61.1588C251.452 60.4355 251.603 59.745 251.881 59.1065L248.214 57.5088C247.723 58.6354 247.452 59.8687 247.452 61.1588H251.452ZM258.002 64.7004C255.75 64.7004 254.021 64.3888 252.919 63.7834C252.399 63.4983 252.058 63.1694 251.838 62.8026C251.619 62.4379 251.452 61.9232 251.452 61.1588H247.452C247.452 62.5367 247.763 63.7859 248.409 64.862C249.054 65.9359 249.965 66.7247 250.993 67.2894C252.985 68.3836 255.531 68.7004 258.002 68.7004V64.7004Z" fill="#FF7987" mask="url(#path-42-inside-2_1452_77162)"/>
<path d="M258.003 67.7004C260.419 67.7004 262.761 67.3849 264.53 66.4129C265.431 65.9181 266.2 65.2443 266.738 64.3471C267.278 63.4489 267.553 62.3833 267.553 61.1587C267.553 56.2324 263.184 52.4004 258.003 52.4004C252.822 52.4004 248.453 56.2324 248.453 61.1587C248.453 62.3833 248.728 63.4489 249.268 64.3471C249.807 65.2443 250.575 65.9181 251.476 66.4129C253.246 67.3849 255.587 67.7004 258.003 67.7004Z" stroke="#FF7987" stroke-width="2"/>
<path fill-rule="evenodd" clip-rule="evenodd" d="M271.689 67.752C269.969 71.3144 264.492 73.9189 258 73.9189C251.138 73.9189 245.409 71.0091 244.054 67.1338C243.855 67.8275 243.75 68.5722 243.75 69.3678C243.75 73.0947 250.13 76.2005 258 76.2005C265.87 76.2005 272.25 73.7159 272.25 69.3678C272.25 68.9472 272.054 68.3881 271.689 67.752Z" fill="#FF7987"/>
<path d="M260.22 75.7256C260.22 76.322 259.57 77.1006 258.37 77.1006C257.169 77.1006 256.52 76.322 256.52 75.7256C256.52 75.1292 257.169 74.3506 258.37 74.3506C259.57 74.3506 260.22 75.1292 260.22 75.7256Z" fill="#FF7987" stroke="#FF7987" stroke-width="2"/>
<path d="M251.642 75.0965C251.538 75.6838 250.763 76.3377 249.581 76.1293C248.399 75.9209 247.895 75.0413 247.998 74.454C248.102 73.8666 248.877 73.2127 250.059 73.4211C251.241 73.6295 251.746 74.5091 251.642 75.0965Z" fill="#FF7987" stroke="#FF7987" stroke-width="2"/>
<path d="M268.162 74.4544C268.266 75.0418 267.761 75.9214 266.579 76.1298C265.397 76.3382 264.622 75.6843 264.518 75.0969C264.415 74.5096 264.919 73.63 266.101 73.4216C267.283 73.2131 268.059 73.8671 268.162 74.4544Z" fill="#FF7987" stroke="#FF7987" stroke-width="2"/>
<path d="M259.902 56.25C260.536 56.3652 262.942 57.2864 263.702 60.05" stroke="#FF7987" stroke-width="2" stroke-linecap="round"/>
<path d="M258 52.4504V48.6504" stroke="#FF7987" stroke-width="2" stroke-linecap="round"/>
<path d="M259.852 46.7504C259.852 47.7721 259.024 48.6004 258.002 48.6004C256.981 48.6004 256.152 47.7721 256.152 46.7504C256.152 45.7287 256.981 44.9004 258.002 44.9004C259.024 44.9004 259.852 45.7287 259.852 46.7504Z" stroke="#FF7987" stroke-width="2"/>
</g>
<defs>
<clipPath id="clip0_1452_77162">
<rect width="375" height="160" fill="white"/>
</clipPath>
<clipPath id="clip1_1452_77162">
<rect width="375" height="58" fill="white" transform="translate(0 51)"/>
</clipPath>
</defs>
</svg>
