<svg width="375" height="160" viewBox="0 0 375 160" fill="none" xmlns="http://www.w3.org/2000/svg">
<g clip-path="url(#clip0_1452_63770)">
<rect x="-0.5" y="32.5" width="376" height="99" fill="#004973" fill-opacity="0.5" stroke="#0074A2"/>
<line x1="93.5" y1="32" x2="93.5" y2="132" stroke="#0074A2"/>
<line x1="140.5" y1="32" x2="140.5" y2="132" stroke="#0074A2"/>
<line x1="46.5" y1="32" x2="46.5" y2="132" stroke="#0074A2"/>
<line x1="187.5" y1="32" x2="187.5" y2="132" stroke="#0074A2"/>
<line x1="234.5" y1="32" x2="234.5" y2="132" stroke="#0074A2"/>
<line x1="281.5" y1="32" x2="281.5" y2="132" stroke="#0074A2"/>
<line x1="328.5" y1="32" x2="328.5" y2="132" stroke="#0074A2"/>
<circle cx="33.5" cy="52.5" r="1.5" fill="#51A3D3" fill-opacity="0.5"/>
<circle cx="9.5" cy="103.5" r="1.5" fill="#51A3D3" fill-opacity="0.3"/>
<circle cx="75.5" cy="102.5" r="1.5" fill="#51A3D3" fill-opacity="0.5"/>
<circle cx="104.5" cy="43.5" r="1.5" fill="#51A3D3" fill-opacity="0.3"/>
<circle cx="35.5" cy="122.5" r="1.5" fill="#51A3D3" fill-opacity="0.7"/>
<circle cx="126.5" cy="119.5" r="1.5" fill="#51A3D3" fill-opacity="0.3"/>
<circle cx="149.5" cy="56.5" r="1.5" fill="#51A3D3" fill-opacity="0.7"/>
<circle cx="172.5" cy="96.5" r="1.5" fill="#51A3D3" fill-opacity="0.25"/>
<circle cx="206.5" cy="63.5" r="1.5" fill="#51A3D3" fill-opacity="0.5"/>
<circle cx="242.5" cy="41.5" r="1.5" fill="#51A3D3" fill-opacity="0.3"/>
<circle cx="256.5" cy="96.5" r="1.5" fill="#51A3D3" fill-opacity="0.5"/>
<circle cx="217.5" cy="120.5" r="1.5" fill="#51A3D3" fill-opacity="0.5"/>
<circle cx="337.5" cy="43.5" r="1.5" fill="#51A3D3" fill-opacity="0.5"/>
<circle cx="295.5" cy="65.5" r="1.5" fill="#51A3D3" fill-opacity="0.5"/>
<circle cx="315.5" cy="116.5" r="1.5" fill="#51A3D3" fill-opacity="0.7"/>
<path d="M358 93.5C358 94.3284 357.328 95 356.5 95C355.672 95 355 94.3284 355 93.5C355 92.6716 355.672 92 356.5 92C357.328 92 358 92.6716 358 93.5Z" fill="#51A3D3" fill-opacity="0.5"/>
<path d="M97.352 150.234H95.616V148.26H93.908V150.234H90.702L95.252 144.2H93.306L88.476 150.514V151.774H93.852V154H95.616V151.774H97.352V150.234Z" fill="#51A3D3"/>
<path d="M46.704 154.14C49.042 154.14 50.806 152.32 50.806 149.1C50.806 145.88 49.042 144.06 46.704 144.06C44.38 144.06 42.616 145.88 42.616 149.1C42.616 152.32 44.38 154.14 46.704 154.14ZM46.704 152.558C45.374 152.558 44.45 151.466 44.45 149.1C44.45 146.734 45.374 145.642 46.704 145.642C48.048 145.642 48.972 146.734 48.972 149.1C48.972 151.466 48.048 152.558 46.704 152.558Z" fill="#51A3D3"/>
<path d="M143.406 148.848C144.204 148.414 144.652 147.714 144.652 146.79C144.652 145.11 143.168 144.06 140.984 144.06C138.814 144.06 137.344 145.11 137.344 146.79C137.344 147.714 137.778 148.414 138.562 148.848C137.554 149.31 136.994 150.108 136.994 151.186C136.994 153.006 138.548 154.14 140.984 154.14C143.42 154.14 145.002 153.006 145.002 151.186C145.002 150.108 144.428 149.31 143.406 148.848ZM140.984 145.488C142.104 145.488 142.86 145.992 142.86 146.874C142.86 147.714 142.146 148.246 140.984 148.246C139.836 148.246 139.136 147.714 139.136 146.874C139.136 145.992 139.864 145.488 140.984 145.488ZM140.984 152.712C139.64 152.712 138.828 152.124 138.828 151.13C138.828 150.164 139.64 149.562 140.984 149.562C142.328 149.562 143.168 150.164 143.168 151.13C143.168 152.124 142.328 152.712 140.984 152.712Z" fill="#51A3D3"/>
<path d="M181.232 144.2V145.726H183.304V154H185.124V144.2H181.232ZM189.826 152.46L192.444 149.968C193.802 148.694 194.068 147.826 194.068 146.874C194.068 145.138 192.696 144.06 190.568 144.06C188.958 144.06 187.6 144.662 186.844 145.684L188.118 146.664C188.664 145.964 189.462 145.642 190.414 145.642C191.618 145.642 192.234 146.16 192.234 147.056C192.234 147.602 192.066 148.176 191.114 149.086L187.222 152.782V154H194.446V152.46H189.826Z" fill="#51A3D3"/>
<rect x="223" y="138" width="24" height="22" rx="8" fill="#0074A2"/>
<path d="M228.417 144.2V145.726H230.489V154H232.309V144.2H228.417ZM238.985 147.952C237.893 147.952 236.955 148.288 236.367 148.974V148.96C236.367 146.734 237.529 145.586 239.377 145.586C240.063 145.586 240.707 145.712 241.239 146.062L241.911 144.69C241.253 144.27 240.315 144.06 239.335 144.06C236.493 144.06 234.533 145.908 234.533 149.268C234.533 152.418 236.101 154.14 238.775 154.14C240.777 154.14 242.359 152.908 242.359 150.962C242.359 149.128 240.917 147.952 238.985 147.952ZM238.677 152.712C237.375 152.712 236.647 151.984 236.647 151.06C236.647 150.094 237.459 149.38 238.635 149.38C239.825 149.38 240.595 150.024 240.595 151.046C240.595 152.068 239.811 152.712 238.677 152.712Z" fill="white"/>
<rect x="317" y="138" width="24" height="22" rx="8" fill="#F4435A"/>
<path d="M276.19 152.46L278.808 149.968C280.166 148.694 280.432 147.826 280.432 146.874C280.432 145.138 279.06 144.06 276.932 144.06C275.322 144.06 273.964 144.662 273.208 145.684L274.482 146.664C275.028 145.964 275.826 145.642 276.778 145.642C277.982 145.642 278.598 146.16 278.598 147.056C278.598 147.602 278.43 148.176 277.478 149.086L273.586 152.782V154H280.81V152.46H276.19ZM286.188 154.14C288.526 154.14 290.29 152.32 290.29 149.1C290.29 145.88 288.526 144.06 286.188 144.06C283.864 144.06 282.1 145.88 282.1 149.1C282.1 152.32 283.864 154.14 286.188 154.14ZM286.188 152.558C284.858 152.558 283.934 151.466 283.934 149.1C283.934 146.734 284.858 145.642 286.188 145.642C287.532 145.642 288.456 146.734 288.456 149.1C288.456 151.466 287.532 152.558 286.188 152.558Z" fill="#51A3D3"/>
<path d="M323.094 152.46L325.712 149.968C327.07 148.694 327.336 147.826 327.336 146.874C327.336 145.138 325.964 144.06 323.836 144.06C322.226 144.06 320.868 144.662 320.112 145.684L321.386 146.664C321.932 145.964 322.73 145.642 323.682 145.642C324.886 145.642 325.502 146.16 325.502 147.056C325.502 147.602 325.334 148.176 324.382 149.086L320.49 152.782V154H327.714V152.46H323.094ZM337.575 150.234H335.839V148.26H334.131V150.234H330.925L335.475 144.2H333.529L328.699 150.514V151.774H334.075V154H335.839V151.774H337.575V150.234Z" fill="white"/>
<g clip-path="url(#clip1_1452_63770)">
<mask id="mask0_1452_63770" style="mask-type:alpha" maskUnits="userSpaceOnUse" x="0" y="32" width="246" height="100">
<rect y="32" width="246" height="100" fill="#51A3D3"/>
</mask>
<g mask="url(#mask0_1452_63770)">
<path d="M351.211 62.4502C338.953 62.4502 332.831 70.8206 326.913 78.9152C321.048 86.9356 315.508 94.5142 304.322 94.5142C293.135 94.5142 287.595 86.9392 281.731 78.9152C275.813 70.8206 269.691 62.4502 257.432 62.4502C245.174 62.4502 239.055 70.8206 233.134 78.9152C227.27 86.9356 221.729 94.5142 210.543 94.5142C199.357 94.5142 193.817 86.9392 187.952 78.9152C182.034 70.8206 175.912 62.4502 163.654 62.4502C151.395 62.4502 145.277 70.8206 139.356 78.9152C133.491 86.9356 127.951 94.5142 116.765 94.5142C105.578 94.5142 100.042 86.9392 94.1768 78.9152C88.2592 70.8206 82.1371 62.4502 69.8787 62.4502C57.6204 62.4502 51.5018 70.8206 45.5806 78.9152C39.7265 86.9392 34.1863 94.5142 23 94.5142V96.6351C35.2584 96.6351 41.377 88.2647 47.2981 80.1701C53.1628 72.1496 58.703 64.5711 69.8893 64.5711C81.0756 64.5711 86.6159 72.1461 92.4805 80.1701C98.3981 88.2647 104.52 96.6351 116.775 96.6351C129.03 96.6351 135.152 88.2647 141.073 80.1701C146.938 72.1496 152.478 64.5711 163.664 64.5711C174.851 64.5711 180.391 72.1461 186.256 80.1701C192.173 88.2647 198.295 96.6351 210.554 96.6351C222.812 96.6351 228.931 88.2647 234.852 80.1701C240.717 72.1496 246.257 64.5711 257.443 64.5711C268.629 64.5711 274.17 72.1461 280.034 80.1701C285.952 88.2647 292.074 96.6351 304.332 96.6351C316.591 96.6351 322.713 88.2647 328.63 80.1701C334.495 72.1496 340.035 64.5711 351.222 64.5711V62.4502H351.211Z" fill="#51A3D3"/>
<path d="M70.2111 62.4502C57.9527 62.4502 51.8306 70.8206 45.913 78.9152C40.0483 86.9356 34.5081 94.5142 23.3218 94.5142C12.1355 94.5142 6.59525 86.9392 0.73056 78.9152C-5.18703 70.8206 -11.3091 62.4502 -23.5675 62.4502C-35.8259 62.4502 -41.9445 70.8206 -47.8656 78.9152C-53.7303 86.9356 -59.2706 94.5142 -70.4568 94.5142C-81.6431 94.5142 -87.1834 86.9392 -93.0481 78.9152C-98.9657 70.8206 -105.088 62.4502 -117.346 62.4502C-129.605 62.4502 -135.723 70.8206 -141.644 78.9152C-147.509 86.9356 -153.049 94.5142 -164.235 94.5142C-175.422 94.5142 -180.958 86.9392 -186.823 78.9152C-192.741 70.8206 -198.863 62.4502 -211.121 62.4502C-223.38 62.4502 -229.498 70.8206 -235.419 78.9152C-241.273 86.9392 -246.814 94.5142 -258 94.5142V96.6351C-245.742 96.6351 -239.623 88.2647 -233.702 80.1701C-227.837 72.1496 -222.297 64.5711 -211.111 64.5711C-199.924 64.5711 -194.384 72.1461 -188.519 80.1701C-182.602 88.2647 -176.48 96.6351 -164.225 96.6351C-151.97 96.6351 -145.848 88.2647 -139.927 80.1701C-134.062 72.1496 -128.522 64.5711 -117.336 64.5711C-106.149 64.5711 -100.609 72.1461 -94.7444 80.1701C-88.8268 88.2647 -82.7046 96.6351 -70.4463 96.6351C-58.1879 96.6351 -52.0693 88.2647 -46.1482 80.1701C-40.2835 72.1496 -34.7432 64.5711 -23.5569 64.5711C-12.3707 64.5711 -6.83041 72.1461 -0.965729 80.1701C4.95187 88.2647 11.074 96.6351 23.3324 96.6351C35.5907 96.6351 41.7129 88.2647 47.6305 80.1701C53.4952 72.1496 59.0354 64.5711 70.2217 64.5711V62.4502H70.2111Z" fill="#51A3D3"/>
</g>
</g>
<mask id="path-37-inside-1_1452_63770" fill="white">
<path fill-rule="evenodd" clip-rule="evenodd" d="M266 40C274.284 40 281 33.2843 281 25C281 16.7157 274.284 10 266 10L226 10C217.716 10 211 16.7157 211 25C211 33.2843 217.716 40 226 40L242.536 40L246 46L249.464 40L266 40Z"/>
</mask>
<path fill-rule="evenodd" clip-rule="evenodd" d="M266 40C274.284 40 281 33.2843 281 25C281 16.7157 274.284 10 266 10L226 10C217.716 10 211 16.7157 211 25C211 33.2843 217.716 40 226 40L242.536 40L246 46L249.464 40L266 40Z" fill="#0074A2" fill-opacity="0.8"/>
<path d="M266 40V39V40ZM266 10V11V10ZM226 10V9V10ZM211 25H210H211ZM226 40V39V40ZM242.536 40L243.402 39.5L243.113 39H242.536V40ZM246 46L245.134 46.5L246 48L246.866 46.5L246 46ZM249.464 40V39H248.887L248.598 39.5L249.464 40ZM280 25C280 32.732 273.732 39 266 39V41C274.837 41 282 33.8366 282 25H280ZM266 11C273.732 11 280 17.268 280 25H282C282 16.1635 274.837 9.00001 266 9V11ZM226 11L266 11V9L226 9V11ZM212 25C212 17.268 218.268 11 226 11V9C217.163 9 210 16.1634 210 25H212ZM226 39C218.268 39 212 32.732 212 25H210C210 33.8366 217.163 41 226 41V39ZM242.536 39L226 39V41L242.536 41V39ZM246.866 45.5L243.402 39.5L241.67 40.5L245.134 46.5L246.866 45.5ZM248.598 39.5L245.134 45.5L246.866 46.5L250.33 40.5L248.598 39.5ZM266 39L249.464 39V41L266 41V39Z" fill="#51A3D3" mask="url(#path-37-inside-1_1452_63770)"/>
<path d="M225.457 19.8V21.544H227.825V31H229.905V19.8H225.457ZM232.191 19.8V23.464H234.127V21.56H238.527L234.319 31H236.543L240.895 21.192V19.8H232.191ZM240.676 32.6H242.468L247.748 17.528H245.956L240.676 32.6ZM250.95 29.24L253.942 26.392C255.494 24.936 255.798 23.944 255.798 22.856C255.798 20.872 254.23 19.64 251.798 19.64C249.958 19.64 248.406 20.328 247.542 21.496L248.998 22.616C249.622 21.816 250.534 21.448 251.622 21.448C252.998 21.448 253.702 22.04 253.702 23.064C253.702 23.688 253.51 24.344 252.422 25.384L247.974 29.608V31H256.23V29.24H250.95ZM267.5 26.696H265.516V24.44H263.564V26.696H259.9L265.1 19.8H262.876L257.356 27.016V28.456H263.5V31H265.516V28.456H267.5V26.696Z" fill="white"/>
<circle cx="246" cy="72" r="24.5" fill="#022B42" fill-opacity="0.8" stroke="#51A3D3"/>
<circle cx="246" cy="72" r="28.5" stroke="#51A3D3" stroke-opacity="0.4"/>
<mask id="path-42-inside-2_1452_63770" fill="white">
<path fill-rule="evenodd" clip-rule="evenodd" d="M246.002 76.7004C250.724 76.7004 254.552 75.4436 254.552 71.1588C254.552 70.1521 254.34 69.1902 253.956 68.3076C258.85 69.7766 262.152 72.5594 262.152 75.7504C262.152 80.4724 254.921 84.3004 246.002 84.3004C237.082 84.3004 229.852 80.4724 229.852 75.7504C229.852 72.5594 233.154 69.7766 238.047 68.3076C237.663 69.1902 237.452 70.1521 237.452 71.1588C237.452 75.4436 241.28 76.7004 246.002 76.7004Z"/>
</mask>
<path d="M253.956 68.3076L254.531 66.3921L250.399 65.1519L252.122 69.1065L253.956 68.3076ZM238.047 68.3076L239.881 69.1065L241.604 65.1519L237.472 66.3921L238.047 68.3076ZM252.552 71.1588C252.552 71.9232 252.384 72.4379 252.165 72.8026C251.945 73.1694 251.604 73.4983 251.085 73.7834C249.982 74.3888 248.253 74.7004 246.002 74.7004V78.7004C248.472 78.7004 251.018 78.3836 253.01 77.2894C254.038 76.7247 254.949 75.9359 255.594 74.862C256.241 73.7859 256.552 72.5367 256.552 71.1588H252.552ZM252.122 69.1065C252.4 69.745 252.552 70.4355 252.552 71.1588H256.552C256.552 69.8687 256.28 68.6354 255.789 67.5088L252.122 69.1065ZM253.381 70.2232C255.635 70.8999 257.399 71.8454 258.56 72.8777C259.717 73.9073 260.152 74.8972 260.152 75.7504H264.152C264.152 73.4126 262.935 71.4156 261.218 69.8888C259.504 68.3648 257.17 67.1843 254.531 66.3921L253.381 70.2232ZM260.152 75.7504C260.152 77.0056 259.156 78.615 256.486 80.0286C253.905 81.3948 250.202 82.3004 246.002 82.3004V86.3004C250.721 86.3004 255.093 85.292 258.357 83.5638C261.532 81.8829 264.152 79.2173 264.152 75.7504H260.152ZM246.002 82.3004C241.801 82.3004 238.098 81.3948 235.518 80.0286C232.847 78.615 231.852 77.0056 231.852 75.7504H227.852C227.852 79.2173 230.471 81.8829 233.646 83.5638C236.911 85.292 241.282 86.3004 246.002 86.3004V82.3004ZM231.852 75.7504C231.852 74.8972 232.286 73.9073 233.443 72.8777C234.604 71.8454 236.368 70.8999 238.622 70.2232L237.472 66.3921C234.833 67.1843 232.499 68.3648 230.785 69.8888C229.068 71.4156 227.852 73.4126 227.852 75.7504H231.852ZM239.452 71.1588C239.452 70.4355 239.603 69.745 239.881 69.1065L236.214 67.5088C235.723 68.6354 235.452 69.8687 235.452 71.1588H239.452ZM246.002 74.7004C243.75 74.7004 242.021 74.3888 240.919 73.7834C240.399 73.4983 240.058 73.1694 239.838 72.8026C239.619 72.4379 239.452 71.9232 239.452 71.1588H235.452C235.452 72.5367 235.763 73.7859 236.409 74.862C237.054 75.9359 237.965 76.7247 238.993 77.2894C240.985 78.3836 243.531 78.7004 246.002 78.7004V74.7004Z" fill="#FF7987" mask="url(#path-42-inside-2_1452_63770)"/>
<path d="M246.003 77.7004C248.419 77.7004 250.761 77.3849 252.53 76.4129C253.431 75.9181 254.2 75.2443 254.738 74.3471C255.278 73.4489 255.553 72.3833 255.553 71.1587C255.553 66.2324 251.184 62.4004 246.003 62.4004C240.822 62.4004 236.453 66.2324 236.453 71.1587C236.453 72.3833 236.728 73.4489 237.268 74.3471C237.807 75.2443 238.575 75.9181 239.476 76.4129C241.246 77.3849 243.587 77.7004 246.003 77.7004Z" stroke="#FF7987" stroke-width="2"/>
<path fill-rule="evenodd" clip-rule="evenodd" d="M259.689 77.752C257.969 81.3144 252.492 83.9189 246 83.9189C239.138 83.9189 233.409 81.0091 232.054 77.1338C231.855 77.8275 231.75 78.5722 231.75 79.3678C231.75 83.0947 238.13 86.2005 246 86.2005C253.87 86.2005 260.25 83.7159 260.25 79.3678C260.25 78.9472 260.054 78.3881 259.689 77.752Z" fill="#FF7987"/>
<path d="M248.22 85.7256C248.22 86.322 247.57 87.1006 246.37 87.1006C245.169 87.1006 244.52 86.322 244.52 85.7256C244.52 85.1292 245.169 84.3506 246.37 84.3506C247.57 84.3506 248.22 85.1292 248.22 85.7256Z" fill="#FF7987" stroke="#FF7987" stroke-width="2"/>
<path d="M239.642 85.0965C239.538 85.6838 238.763 86.3377 237.581 86.1293C236.399 85.9209 235.895 85.0413 235.998 84.454C236.102 83.8666 236.877 83.2127 238.059 83.4211C239.241 83.6295 239.746 84.5091 239.642 85.0965Z" fill="#FF7987" stroke="#FF7987" stroke-width="2"/>
<path d="M256.162 84.4544C256.266 85.0418 255.761 85.9214 254.579 86.1298C253.397 86.3382 252.622 85.6843 252.518 85.0969C252.415 84.5096 252.919 83.63 254.101 83.4216C255.283 83.2131 256.059 83.8671 256.162 84.4544Z" fill="#FF7987" stroke="#FF7987" stroke-width="2"/>
<path d="M247.902 66.25C248.536 66.3652 250.942 67.2864 251.702 70.05" stroke="#FF7987" stroke-width="2" stroke-linecap="round"/>
<path d="M246 62.4504V58.6504" stroke="#FF7987" stroke-width="2" stroke-linecap="round"/>
<path d="M247.852 56.7504C247.852 57.7721 247.024 58.6004 246.002 58.6004C244.981 58.6004 244.152 57.7721 244.152 56.7504C244.152 55.7287 244.981 54.9004 246.002 54.9004C247.024 54.9004 247.852 55.7287 247.852 56.7504Z" stroke="#FF7987" stroke-width="2"/>
</g>
<defs>
<clipPath id="clip0_1452_63770">
<rect width="375" height="160" fill="white"/>
</clipPath>
<clipPath id="clip1_1452_63770">
<rect width="375" height="58" fill="white" transform="translate(0 51)"/>
</clipPath>
</defs>
</svg>
