<svg width="375" height="160" viewBox="0 0 375 160" fill="none" xmlns="http://www.w3.org/2000/svg">
<g clip-path="url(#clip0_1452_74930)">
<rect x="-0.5" y="32.5" width="376" height="99" fill="#004973" fill-opacity="0.5" stroke="#0074A2"/>
<line x1="93.5" y1="32" x2="93.5" y2="132" stroke="#0074A2"/>
<line x1="140.5" y1="32" x2="140.5" y2="132" stroke="#0074A2"/>
<line x1="46.5" y1="32" x2="46.5" y2="132" stroke="#0074A2"/>
<line x1="187.5" y1="32" x2="187.5" y2="132" stroke="#0074A2"/>
<line x1="234.5" y1="32" x2="234.5" y2="132" stroke="#0074A2"/>
<line x1="281.5" y1="32" x2="281.5" y2="132" stroke="#0074A2"/>
<line x1="328.5" y1="32" x2="328.5" y2="132" stroke="#0074A2"/>
<circle cx="33.5" cy="52.5" r="1.5" fill="#51A3D3" fill-opacity="0.5"/>
<circle cx="9.5" cy="103.5" r="1.5" fill="#51A3D3" fill-opacity="0.3"/>
<circle cx="75.5" cy="102.5" r="1.5" fill="#51A3D3" fill-opacity="0.5"/>
<circle cx="104.5" cy="43.5" r="1.5" fill="#51A3D3" fill-opacity="0.3"/>
<circle cx="35.5" cy="122.5" r="1.5" fill="#51A3D3" fill-opacity="0.7"/>
<circle cx="126.5" cy="119.5" r="1.5" fill="#51A3D3" fill-opacity="0.3"/>
<circle cx="149.5" cy="56.5" r="1.5" fill="#51A3D3" fill-opacity="0.7"/>
<circle cx="172.5" cy="96.5" r="1.5" fill="#51A3D3" fill-opacity="0.25"/>
<circle cx="206.5" cy="63.5" r="1.5" fill="#51A3D3" fill-opacity="0.5"/>
<circle cx="242.5" cy="41.5" r="1.5" fill="#51A3D3" fill-opacity="0.3"/>
<circle cx="256.5" cy="96.5" r="1.5" fill="#51A3D3" fill-opacity="0.5"/>
<circle cx="217.5" cy="120.5" r="1.5" fill="#51A3D3" fill-opacity="0.5"/>
<circle cx="337.5" cy="43.5" r="1.5" fill="#51A3D3" fill-opacity="0.5"/>
<circle cx="295.5" cy="65.5" r="1.5" fill="#51A3D3" fill-opacity="0.5"/>
<circle cx="315.5" cy="116.5" r="1.5" fill="#51A3D3" fill-opacity="0.7"/>
<path d="M358 93.5C358 94.3284 357.328 95 356.5 95C355.672 95 355 94.3284 355 93.5C355 92.6716 355.672 92 356.5 92C357.328 92 358 92.6716 358 93.5Z" fill="#51A3D3" fill-opacity="0.5"/>
<path d="M97.352 150.234H95.616V148.26H93.908V150.234H90.702L95.252 144.2H93.306L88.476 150.514V151.774H93.852V154H95.616V151.774H97.352V150.234Z" fill="#51A3D3"/>
<path d="M46.704 154.14C49.042 154.14 50.806 152.32 50.806 149.1C50.806 145.88 49.042 144.06 46.704 144.06C44.38 144.06 42.616 145.88 42.616 149.1C42.616 152.32 44.38 154.14 46.704 154.14ZM46.704 152.558C45.374 152.558 44.45 151.466 44.45 149.1C44.45 146.734 45.374 145.642 46.704 145.642C48.048 145.642 48.972 146.734 48.972 149.1C48.972 151.466 48.048 152.558 46.704 152.558Z" fill="#51A3D3"/>
<path d="M143.406 148.848C144.204 148.414 144.652 147.714 144.652 146.79C144.652 145.11 143.168 144.06 140.984 144.06C138.814 144.06 137.344 145.11 137.344 146.79C137.344 147.714 137.778 148.414 138.562 148.848C137.554 149.31 136.994 150.108 136.994 151.186C136.994 153.006 138.548 154.14 140.984 154.14C143.42 154.14 145.002 153.006 145.002 151.186C145.002 150.108 144.428 149.31 143.406 148.848ZM140.984 145.488C142.104 145.488 142.86 145.992 142.86 146.874C142.86 147.714 142.146 148.246 140.984 148.246C139.836 148.246 139.136 147.714 139.136 146.874C139.136 145.992 139.864 145.488 140.984 145.488ZM140.984 152.712C139.64 152.712 138.828 152.124 138.828 151.13C138.828 150.164 139.64 149.562 140.984 149.562C142.328 149.562 143.168 150.164 143.168 151.13C143.168 152.124 142.328 152.712 140.984 152.712Z" fill="#51A3D3"/>
<path d="M181.232 144.2V145.726H183.304V154H185.124V144.2H181.232ZM189.826 152.46L192.444 149.968C193.802 148.694 194.068 147.826 194.068 146.874C194.068 145.138 192.696 144.06 190.568 144.06C188.958 144.06 187.6 144.662 186.844 145.684L188.118 146.664C188.664 145.964 189.462 145.642 190.414 145.642C191.618 145.642 192.234 146.16 192.234 147.056C192.234 147.602 192.066 148.176 191.114 149.086L187.222 152.782V154H194.446V152.46H189.826Z" fill="#51A3D3"/>
<rect x="223" y="138" width="24" height="22" rx="8" fill="#F4435A"/>
<path d="M228.417 144.2V145.726H230.489V154H232.309V144.2H228.417ZM238.985 147.952C237.893 147.952 236.955 148.288 236.367 148.974V148.96C236.367 146.734 237.529 145.586 239.377 145.586C240.063 145.586 240.707 145.712 241.239 146.062L241.911 144.69C241.253 144.27 240.315 144.06 239.335 144.06C236.493 144.06 234.533 145.908 234.533 149.268C234.533 152.418 236.101 154.14 238.775 154.14C240.777 154.14 242.359 152.908 242.359 150.962C242.359 149.128 240.917 147.952 238.985 147.952ZM238.677 152.712C237.375 152.712 236.647 151.984 236.647 151.06C236.647 150.094 237.459 149.38 238.635 149.38C239.825 149.38 240.595 150.024 240.595 151.046C240.595 152.068 239.811 152.712 238.677 152.712Z" fill="white"/>
<rect x="317" y="138" width="24" height="22" rx="8" fill="#F4435A"/>
<path d="M276.19 152.46L278.808 149.968C280.166 148.694 280.432 147.826 280.432 146.874C280.432 145.138 279.06 144.06 276.932 144.06C275.322 144.06 273.964 144.662 273.208 145.684L274.482 146.664C275.028 145.964 275.826 145.642 276.778 145.642C277.982 145.642 278.598 146.16 278.598 147.056C278.598 147.602 278.43 148.176 277.478 149.086L273.586 152.782V154H280.81V152.46H276.19ZM286.188 154.14C288.526 154.14 290.29 152.32 290.29 149.1C290.29 145.88 288.526 144.06 286.188 144.06C283.864 144.06 282.1 145.88 282.1 149.1C282.1 152.32 283.864 154.14 286.188 154.14ZM286.188 152.558C284.858 152.558 283.934 151.466 283.934 149.1C283.934 146.734 284.858 145.642 286.188 145.642C287.532 145.642 288.456 146.734 288.456 149.1C288.456 151.466 287.532 152.558 286.188 152.558Z" fill="#51A3D3"/>
<path d="M323.094 152.46L325.712 149.968C327.07 148.694 327.336 147.826 327.336 146.874C327.336 145.138 325.964 144.06 323.836 144.06C322.226 144.06 320.868 144.662 320.112 145.684L321.386 146.664C321.932 145.964 322.73 145.642 323.682 145.642C324.886 145.642 325.502 146.16 325.502 147.056C325.502 147.602 325.334 148.176 324.382 149.086L320.49 152.782V154H327.714V152.46H323.094ZM337.575 150.234H335.839V148.26H334.131V150.234H330.925L335.475 144.2H333.529L328.699 150.514V151.774H334.075V154H335.839V151.774H337.575V150.234Z" fill="white"/>
<g clip-path="url(#clip1_1452_74930)">
<mask id="mask0_1452_74930" style="mask-type:alpha" maskUnits="userSpaceOnUse" x="0" y="32" width="211" height="100">
<rect y="32" width="211" height="100" fill="#51A3D3"/>
</mask>
<g mask="url(#mask0_1452_74930)">
<path d="M351.211 62.4502C338.953 62.4502 332.831 70.8206 326.913 78.9152C321.048 86.9356 315.508 94.5142 304.322 94.5142C293.135 94.5142 287.595 86.9392 281.731 78.9152C275.813 70.8206 269.691 62.4502 257.432 62.4502C245.174 62.4502 239.055 70.8206 233.134 78.9152C227.27 86.9356 221.729 94.5142 210.543 94.5142C199.357 94.5142 193.817 86.9392 187.952 78.9152C182.034 70.8206 175.912 62.4502 163.654 62.4502C151.395 62.4502 145.277 70.8206 139.356 78.9152C133.491 86.9356 127.951 94.5142 116.765 94.5142C105.578 94.5142 100.042 86.9392 94.1768 78.9152C88.2592 70.8206 82.1371 62.4502 69.8787 62.4502C57.6204 62.4502 51.5018 70.8206 45.5806 78.9152C39.7265 86.9392 34.1863 94.5142 23 94.5142V96.6351C35.2584 96.6351 41.377 88.2647 47.2981 80.1701C53.1628 72.1496 58.703 64.5711 69.8893 64.5711C81.0756 64.5711 86.6159 72.1461 92.4805 80.1701C98.3981 88.2647 104.52 96.6351 116.775 96.6351C129.03 96.6351 135.152 88.2647 141.073 80.1701C146.938 72.1496 152.478 64.5711 163.664 64.5711C174.851 64.5711 180.391 72.1461 186.256 80.1701C192.173 88.2647 198.295 96.6351 210.554 96.6351C222.812 96.6351 228.931 88.2647 234.852 80.1701C240.717 72.1496 246.257 64.5711 257.443 64.5711C268.629 64.5711 274.17 72.1461 280.034 80.1701C285.952 88.2647 292.074 96.6351 304.332 96.6351C316.591 96.6351 322.713 88.2647 328.63 80.1701C334.495 72.1496 340.035 64.5711 351.222 64.5711V62.4502H351.211Z" fill="#51A3D3"/>
<path d="M70.2111 62.4502C57.9527 62.4502 51.8306 70.8206 45.913 78.9152C40.0483 86.9356 34.5081 94.5142 23.3218 94.5142C12.1355 94.5142 6.59525 86.9392 0.73056 78.9152C-5.18703 70.8206 -11.3091 62.4502 -23.5675 62.4502C-35.8259 62.4502 -41.9445 70.8206 -47.8656 78.9152C-53.7303 86.9356 -59.2706 94.5142 -70.4568 94.5142C-81.6431 94.5142 -87.1834 86.9392 -93.0481 78.9152C-98.9657 70.8206 -105.088 62.4502 -117.346 62.4502C-129.605 62.4502 -135.723 70.8206 -141.644 78.9152C-147.509 86.9356 -153.049 94.5142 -164.235 94.5142C-175.422 94.5142 -180.958 86.9392 -186.823 78.9152C-192.741 70.8206 -198.863 62.4502 -211.121 62.4502C-223.38 62.4502 -229.498 70.8206 -235.419 78.9152C-241.273 86.9392 -246.814 94.5142 -258 94.5142V96.6351C-245.742 96.6351 -239.623 88.2647 -233.702 80.1701C-227.837 72.1496 -222.297 64.5711 -211.111 64.5711C-199.924 64.5711 -194.384 72.1461 -188.519 80.1701C-182.602 88.2647 -176.48 96.6351 -164.225 96.6351C-151.97 96.6351 -145.848 88.2647 -139.927 80.1701C-134.062 72.1496 -128.522 64.5711 -117.336 64.5711C-106.149 64.5711 -100.609 72.1461 -94.7444 80.1701C-88.8268 88.2647 -82.7046 96.6351 -70.4463 96.6351C-58.1879 96.6351 -52.0693 88.2647 -46.1482 80.1701C-40.2835 72.1496 -34.7432 64.5711 -23.5569 64.5711C-12.3707 64.5711 -6.83041 72.1461 -0.965729 80.1701C4.95187 88.2647 11.074 96.6351 23.3324 96.6351C35.5907 96.6351 41.7129 88.2647 47.6305 80.1701C53.4952 72.1496 59.0354 64.5711 70.2217 64.5711V62.4502H70.2111Z" fill="#51A3D3"/>
</g>
</g>
<mask id="path-37-inside-1_1452_74930" fill="white">
<path fill-rule="evenodd" clip-rule="evenodd" d="M231 70C239.284 70 246 63.2843 246 55C246 46.7157 239.284 40 231 40L191 40C182.716 40 176 46.7157 176 55C176 63.2843 182.716 70 191 70L207.536 70L211 76L214.464 70L231 70Z"/>
</mask>
<path fill-rule="evenodd" clip-rule="evenodd" d="M231 70C239.284 70 246 63.2843 246 55C246 46.7157 239.284 40 231 40L191 40C182.716 40 176 46.7157 176 55C176 63.2843 182.716 70 191 70L207.536 70L211 76L214.464 70L231 70Z" fill="#0074A2" fill-opacity="0.8"/>
<path d="M231 70V69V70ZM231 40V41V40ZM191 40V39V40ZM176 55H175H176ZM191 70V69V70ZM207.536 70L208.402 69.5L208.113 69H207.536V70ZM211 76L210.134 76.5L211 78L211.866 76.5L211 76ZM214.464 70V69H213.887L213.598 69.5L214.464 70ZM245 55C245 62.732 238.732 69 231 69V71C239.837 71 247 63.8366 247 55H245ZM231 41C238.732 41 245 47.268 245 55H247C247 46.1635 239.837 39 231 39V41ZM191 41L231 41V39L191 39V41ZM177 55C177 47.268 183.268 41 191 41V39C182.163 39 175 46.1634 175 55H177ZM191 69C183.268 69 177 62.732 177 55H175C175 63.8366 182.163 71 191 71V69ZM207.536 69L191 69V71L207.536 71V69ZM211.866 75.5L208.402 69.5L206.67 70.5L210.134 76.5L211.866 75.5ZM213.598 69.5L210.134 75.5L211.866 76.5L215.33 70.5L213.598 69.5ZM231 69L214.464 69V71L231 71V69Z" fill="#51A3D3" mask="url(#path-37-inside-1_1452_74930)"/>
<path d="M189.371 49.8V51.544H191.739V61H193.819V49.8H189.371ZM206.345 56.696H204.361V54.44H202.409V56.696H198.745L203.945 49.8H201.721L196.201 57.016V58.456H202.345V61H204.361V58.456H206.345V56.696ZM206.762 62.6H208.554L213.834 47.528H212.042L206.762 62.6ZM217.036 59.24L220.028 56.392C221.58 54.936 221.884 53.944 221.884 52.856C221.884 50.872 220.316 49.64 217.884 49.64C216.044 49.64 214.492 50.328 213.628 51.496L215.084 52.616C215.708 51.816 216.62 51.448 217.708 51.448C219.084 51.448 219.788 52.04 219.788 53.064C219.788 53.688 219.596 54.344 218.508 55.384L214.06 59.608V61H222.316V59.24H217.036ZM233.586 56.696H231.602V54.44H229.65V56.696H225.986L231.186 49.8H228.962L223.442 57.016V58.456H229.586V61H231.602V58.456H233.586V56.696Z" fill="white"/>
<circle cx="211" cy="102" r="24.5" fill="#022B42" fill-opacity="0.8" stroke="#51A3D3"/>
<circle cx="211" cy="102" r="28.5" stroke="#51A3D3" stroke-opacity="0.4"/>
<mask id="path-42-inside-2_1452_74930" fill="white">
<path fill-rule="evenodd" clip-rule="evenodd" d="M211.002 106.7C215.724 106.7 219.552 105.444 219.552 101.159C219.552 100.152 219.34 99.1902 218.956 98.3076C223.85 99.7766 227.152 102.559 227.152 105.75C227.152 110.472 219.921 114.3 211.002 114.3C202.082 114.3 194.852 110.472 194.852 105.75C194.852 102.559 198.154 99.7766 203.047 98.3076C202.663 99.1902 202.452 100.152 202.452 101.159C202.452 105.444 206.28 106.7 211.002 106.7Z"/>
</mask>
<path d="M218.956 98.3076L219.531 96.3921L215.399 95.1519L217.122 99.1065L218.956 98.3076ZM203.047 98.3076L204.881 99.1065L206.604 95.1519L202.472 96.3921L203.047 98.3076ZM217.552 101.159C217.552 101.923 217.384 102.438 217.165 102.803C216.945 103.169 216.604 103.498 216.085 103.783C214.982 104.389 213.253 104.7 211.002 104.7V108.7C213.472 108.7 216.018 108.384 218.01 107.289C219.038 106.725 219.949 105.936 220.594 104.862C221.241 103.786 221.552 102.537 221.552 101.159H217.552ZM217.122 99.1065C217.4 99.745 217.552 100.435 217.552 101.159H221.552C221.552 99.8687 221.28 98.6354 220.789 97.5088L217.122 99.1065ZM218.381 100.223C220.635 100.9 222.399 101.845 223.56 102.878C224.717 103.907 225.152 104.897 225.152 105.75H229.152C229.152 103.413 227.935 101.416 226.218 99.8888C224.504 98.3648 222.17 97.1843 219.531 96.3921L218.381 100.223ZM225.152 105.75C225.152 107.006 224.156 108.615 221.486 110.029C218.905 111.395 215.202 112.3 211.002 112.3V116.3C215.721 116.3 220.093 115.292 223.357 113.564C226.532 111.883 229.152 109.217 229.152 105.75H225.152ZM211.002 112.3C206.801 112.3 203.098 111.395 200.518 110.029C197.847 108.615 196.852 107.006 196.852 105.75H192.852C192.852 109.217 195.471 111.883 198.646 113.564C201.911 115.292 206.282 116.3 211.002 116.3V112.3ZM196.852 105.75C196.852 104.897 197.286 103.907 198.443 102.878C199.604 101.845 201.368 100.9 203.622 100.223L202.472 96.3921C199.833 97.1843 197.499 98.3648 195.785 99.8888C194.068 101.416 192.852 103.413 192.852 105.75H196.852ZM204.452 101.159C204.452 100.435 204.603 99.745 204.881 99.1065L201.214 97.5088C200.723 98.6354 200.452 99.8687 200.452 101.159H204.452ZM211.002 104.7C208.75 104.7 207.021 104.389 205.919 103.783C205.399 103.498 205.058 103.169 204.838 102.803C204.619 102.438 204.452 101.923 204.452 101.159H200.452C200.452 102.537 200.763 103.786 201.409 104.862C202.054 105.936 202.965 106.725 203.993 107.289C205.985 108.384 208.531 108.7 211.002 108.7V104.7Z" fill="#FF7987" mask="url(#path-42-inside-2_1452_74930)"/>
<path d="M211.003 107.7C213.419 107.7 215.761 107.385 217.53 106.413C218.431 105.918 219.2 105.244 219.738 104.347C220.278 103.449 220.553 102.383 220.553 101.159C220.553 96.2324 216.184 92.4004 211.003 92.4004C205.822 92.4004 201.453 96.2324 201.453 101.159C201.453 102.383 201.728 103.449 202.268 104.347C202.807 105.244 203.575 105.918 204.476 106.413C206.246 107.385 208.587 107.7 211.003 107.7Z" stroke="#FF7987" stroke-width="2"/>
<path fill-rule="evenodd" clip-rule="evenodd" d="M224.689 107.752C222.969 111.314 217.492 113.919 211 113.919C204.138 113.919 198.409 111.009 197.054 107.134C196.855 107.828 196.75 108.572 196.75 109.368C196.75 113.095 203.13 116.2 211 116.2C218.87 116.2 225.25 113.716 225.25 109.368C225.25 108.947 225.054 108.388 224.689 107.752Z" fill="#FF7987"/>
<path d="M213.22 115.726C213.22 116.322 212.57 117.101 211.37 117.101C210.169 117.101 209.52 116.322 209.52 115.726C209.52 115.129 210.169 114.351 211.37 114.351C212.57 114.351 213.22 115.129 213.22 115.726Z" fill="#FF7987" stroke="#FF7987" stroke-width="2"/>
<path d="M204.642 115.096C204.538 115.684 203.763 116.338 202.581 116.129C201.399 115.921 200.895 115.041 200.998 114.454C201.102 113.867 201.877 113.213 203.059 113.421C204.241 113.63 204.746 114.509 204.642 115.096Z" fill="#FF7987" stroke="#FF7987" stroke-width="2"/>
<path d="M221.162 114.454C221.266 115.042 220.761 115.921 219.579 116.13C218.397 116.338 217.622 115.684 217.518 115.097C217.415 114.51 217.919 113.63 219.101 113.422C220.283 113.213 221.059 113.867 221.162 114.454Z" fill="#FF7987" stroke="#FF7987" stroke-width="2"/>
<path d="M212.902 96.25C213.536 96.3652 215.942 97.2864 216.702 100.05" stroke="#FF7987" stroke-width="2" stroke-linecap="round"/>
<path d="M211 92.4504V88.6504" stroke="#FF7987" stroke-width="2" stroke-linecap="round"/>
<path d="M212.852 86.7504C212.852 87.7721 212.024 88.6004 211.002 88.6004C209.981 88.6004 209.152 87.7721 209.152 86.7504C209.152 85.7287 209.981 84.9004 211.002 84.9004C212.024 84.9004 212.852 85.7287 212.852 86.7504Z" stroke="#FF7987" stroke-width="2"/>
</g>
<defs>
<clipPath id="clip0_1452_74930">
<rect width="375" height="160" fill="white"/>
</clipPath>
<clipPath id="clip1_1452_74930">
<rect width="375" height="58" fill="white" transform="translate(0 51)"/>
</clipPath>
</defs>
</svg>
