<svg width="375" height="160" viewBox="0 0 375 160" fill="none" xmlns="http://www.w3.org/2000/svg">
<g clip-path="url(#clip0_1452_68234)">
<rect x="-0.5" y="32.5" width="376" height="99" fill="#004973" fill-opacity="0.5" stroke="#0074A2"/>
<line x1="93.5" y1="32" x2="93.5" y2="132" stroke="#0074A2"/>
<line x1="140.5" y1="32" x2="140.5" y2="132" stroke="#0074A2"/>
<line x1="46.5" y1="32" x2="46.5" y2="132" stroke="#0074A2"/>
<line x1="187.5" y1="32" x2="187.5" y2="132" stroke="#0074A2"/>
<line x1="234.5" y1="32" x2="234.5" y2="132" stroke="#0074A2"/>
<line x1="281.5" y1="32" x2="281.5" y2="132" stroke="#0074A2"/>
<line x1="328.5" y1="32" x2="328.5" y2="132" stroke="#0074A2"/>
<circle cx="33.5" cy="52.5" r="1.5" fill="#51A3D3" fill-opacity="0.5"/>
<circle cx="9.5" cy="103.5" r="1.5" fill="#51A3D3" fill-opacity="0.3"/>
<circle cx="75.5" cy="102.5" r="1.5" fill="#51A3D3" fill-opacity="0.5"/>
<circle cx="104.5" cy="43.5" r="1.5" fill="#51A3D3" fill-opacity="0.3"/>
<circle cx="35.5" cy="122.5" r="1.5" fill="#51A3D3" fill-opacity="0.7"/>
<circle cx="126.5" cy="119.5" r="1.5" fill="#51A3D3" fill-opacity="0.3"/>
<circle cx="149.5" cy="56.5" r="1.5" fill="#51A3D3" fill-opacity="0.7"/>
<circle cx="172.5" cy="96.5" r="1.5" fill="#51A3D3" fill-opacity="0.25"/>
<circle cx="206.5" cy="63.5" r="1.5" fill="#51A3D3" fill-opacity="0.5"/>
<circle cx="242.5" cy="41.5" r="1.5" fill="#51A3D3" fill-opacity="0.3"/>
<circle cx="256.5" cy="96.5" r="1.5" fill="#51A3D3" fill-opacity="0.5"/>
<circle cx="217.5" cy="120.5" r="1.5" fill="#51A3D3" fill-opacity="0.5"/>
<circle cx="337.5" cy="43.5" r="1.5" fill="#51A3D3" fill-opacity="0.5"/>
<circle cx="295.5" cy="65.5" r="1.5" fill="#51A3D3" fill-opacity="0.5"/>
<circle cx="315.5" cy="116.5" r="1.5" fill="#51A3D3" fill-opacity="0.7"/>
<path d="M358 93.5C358 94.3284 357.328 95 356.5 95C355.672 95 355 94.3284 355 93.5C355 92.6716 355.672 92 356.5 92C357.328 92 358 92.6716 358 93.5Z" fill="#51A3D3" fill-opacity="0.5"/>
<path d="M97.352 150.234H95.616V148.26H93.908V150.234H90.702L95.252 144.2H93.306L88.476 150.514V151.774H93.852V154H95.616V151.774H97.352V150.234Z" fill="#51A3D3"/>
<path d="M46.704 154.14C49.042 154.14 50.806 152.32 50.806 149.1C50.806 145.88 49.042 144.06 46.704 144.06C44.38 144.06 42.616 145.88 42.616 149.1C42.616 152.32 44.38 154.14 46.704 154.14ZM46.704 152.558C45.374 152.558 44.45 151.466 44.45 149.1C44.45 146.734 45.374 145.642 46.704 145.642C48.048 145.642 48.972 146.734 48.972 149.1C48.972 151.466 48.048 152.558 46.704 152.558Z" fill="#51A3D3"/>
<path d="M143.406 148.848C144.204 148.414 144.652 147.714 144.652 146.79C144.652 145.11 143.168 144.06 140.984 144.06C138.814 144.06 137.344 145.11 137.344 146.79C137.344 147.714 137.778 148.414 138.562 148.848C137.554 149.31 136.994 150.108 136.994 151.186C136.994 153.006 138.548 154.14 140.984 154.14C143.42 154.14 145.002 153.006 145.002 151.186C145.002 150.108 144.428 149.31 143.406 148.848ZM140.984 145.488C142.104 145.488 142.86 145.992 142.86 146.874C142.86 147.714 142.146 148.246 140.984 148.246C139.836 148.246 139.136 147.714 139.136 146.874C139.136 145.992 139.864 145.488 140.984 145.488ZM140.984 152.712C139.64 152.712 138.828 152.124 138.828 151.13C138.828 150.164 139.64 149.562 140.984 149.562C142.328 149.562 143.168 150.164 143.168 151.13C143.168 152.124 142.328 152.712 140.984 152.712Z" fill="#51A3D3"/>
<path d="M181.232 144.2V145.726H183.304V154H185.124V144.2H181.232ZM189.826 152.46L192.444 149.968C193.802 148.694 194.068 147.826 194.068 146.874C194.068 145.138 192.696 144.06 190.568 144.06C188.958 144.06 187.6 144.662 186.844 145.684L188.118 146.664C188.664 145.964 189.462 145.642 190.414 145.642C191.618 145.642 192.234 146.16 192.234 147.056C192.234 147.602 192.066 148.176 191.114 149.086L187.222 152.782V154H194.446V152.46H189.826Z" fill="#51A3D3"/>
<rect x="223" y="138" width="24" height="22" rx="8" fill="#0074A2"/>
<path d="M228.417 144.2V145.726H230.489V154H232.309V144.2H228.417ZM238.985 147.952C237.893 147.952 236.955 148.288 236.367 148.974V148.96C236.367 146.734 237.529 145.586 239.377 145.586C240.063 145.586 240.707 145.712 241.239 146.062L241.911 144.69C241.253 144.27 240.315 144.06 239.335 144.06C236.493 144.06 234.533 145.908 234.533 149.268C234.533 152.418 236.101 154.14 238.775 154.14C240.777 154.14 242.359 152.908 242.359 150.962C242.359 149.128 240.917 147.952 238.985 147.952ZM238.677 152.712C237.375 152.712 236.647 151.984 236.647 151.06C236.647 150.094 237.459 149.38 238.635 149.38C239.825 149.38 240.595 150.024 240.595 151.046C240.595 152.068 239.811 152.712 238.677 152.712Z" fill="white"/>
<rect x="317" y="138" width="24" height="22" rx="8" fill="#F4435A"/>
<path d="M276.19 152.46L278.808 149.968C280.166 148.694 280.432 147.826 280.432 146.874C280.432 145.138 279.06 144.06 276.932 144.06C275.322 144.06 273.964 144.662 273.208 145.684L274.482 146.664C275.028 145.964 275.826 145.642 276.778 145.642C277.982 145.642 278.598 146.16 278.598 147.056C278.598 147.602 278.43 148.176 277.478 149.086L273.586 152.782V154H280.81V152.46H276.19ZM286.188 154.14C288.526 154.14 290.29 152.32 290.29 149.1C290.29 145.88 288.526 144.06 286.188 144.06C283.864 144.06 282.1 145.88 282.1 149.1C282.1 152.32 283.864 154.14 286.188 154.14ZM286.188 152.558C284.858 152.558 283.934 151.466 283.934 149.1C283.934 146.734 284.858 145.642 286.188 145.642C287.532 145.642 288.456 146.734 288.456 149.1C288.456 151.466 287.532 152.558 286.188 152.558Z" fill="#51A3D3"/>
<path d="M323.094 152.46L325.712 149.968C327.07 148.694 327.336 147.826 327.336 146.874C327.336 145.138 325.964 144.06 323.836 144.06C322.226 144.06 320.868 144.662 320.112 145.684L321.386 146.664C321.932 145.964 322.73 145.642 323.682 145.642C324.886 145.642 325.502 146.16 325.502 147.056C325.502 147.602 325.334 148.176 324.382 149.086L320.49 152.782V154H327.714V152.46H323.094ZM337.575 150.234H335.839V148.26H334.131V150.234H330.925L335.475 144.2H333.529L328.699 150.514V151.774H334.075V154H335.839V151.774H337.575V150.234Z" fill="white"/>
<g clip-path="url(#clip1_1452_68234)">
<mask id="mask0_1452_68234" style="mask-type:alpha" maskUnits="userSpaceOnUse" x="0" y="32" width="293" height="100">
<rect y="32" width="293" height="100" fill="#51A3D3"/>
</mask>
<g mask="url(#mask0_1452_68234)">
<path d="M351.211 62.4502C338.953 62.4502 332.831 70.8206 326.913 78.9152C321.048 86.9356 315.508 94.5142 304.322 94.5142C293.135 94.5142 287.595 86.9392 281.731 78.9152C275.813 70.8206 269.691 62.4502 257.432 62.4502C245.174 62.4502 239.055 70.8206 233.134 78.9152C227.27 86.9356 221.729 94.5142 210.543 94.5142C199.357 94.5142 193.817 86.9392 187.952 78.9152C182.034 70.8206 175.912 62.4502 163.654 62.4502C151.395 62.4502 145.277 70.8206 139.356 78.9152C133.491 86.9356 127.951 94.5142 116.765 94.5142C105.578 94.5142 100.042 86.9392 94.1768 78.9152C88.2592 70.8206 82.1371 62.4502 69.8787 62.4502C57.6204 62.4502 51.5018 70.8206 45.5806 78.9152C39.7265 86.9392 34.1863 94.5142 23 94.5142V96.6351C35.2584 96.6351 41.377 88.2647 47.2981 80.1701C53.1628 72.1496 58.703 64.5711 69.8893 64.5711C81.0756 64.5711 86.6159 72.1461 92.4805 80.1701C98.3981 88.2647 104.52 96.6351 116.775 96.6351C129.03 96.6351 135.152 88.2647 141.073 80.1701C146.938 72.1496 152.478 64.5711 163.664 64.5711C174.851 64.5711 180.391 72.1461 186.256 80.1701C192.173 88.2647 198.295 96.6351 210.554 96.6351C222.812 96.6351 228.931 88.2647 234.852 80.1701C240.717 72.1496 246.257 64.5711 257.443 64.5711C268.629 64.5711 274.17 72.1461 280.034 80.1701C285.952 88.2647 292.074 96.6351 304.332 96.6351C316.591 96.6351 322.713 88.2647 328.63 80.1701C334.495 72.1496 340.035 64.5711 351.222 64.5711V62.4502H351.211Z" fill="#51A3D3"/>
<path d="M70.2111 62.4502C57.9527 62.4502 51.8306 70.8206 45.913 78.9152C40.0483 86.9356 34.5081 94.5142 23.3218 94.5142C12.1355 94.5142 6.59525 86.9392 0.73056 78.9152C-5.18703 70.8206 -11.3091 62.4502 -23.5675 62.4502C-35.8259 62.4502 -41.9445 70.8206 -47.8656 78.9152C-53.7303 86.9356 -59.2706 94.5142 -70.4568 94.5142C-81.6431 94.5142 -87.1834 86.9392 -93.0481 78.9152C-98.9657 70.8206 -105.088 62.4502 -117.346 62.4502C-129.605 62.4502 -135.723 70.8206 -141.644 78.9152C-147.509 86.9356 -153.049 94.5142 -164.235 94.5142C-175.422 94.5142 -180.958 86.9392 -186.823 78.9152C-192.741 70.8206 -198.863 62.4502 -211.121 62.4502C-223.38 62.4502 -229.498 70.8206 -235.419 78.9152C-241.273 86.9392 -246.814 94.5142 -258 94.5142V96.6351C-245.742 96.6351 -239.623 88.2647 -233.702 80.1701C-227.837 72.1496 -222.297 64.5711 -211.111 64.5711C-199.924 64.5711 -194.384 72.1461 -188.519 80.1701C-182.602 88.2647 -176.48 96.6351 -164.225 96.6351C-151.97 96.6351 -145.848 88.2647 -139.927 80.1701C-134.062 72.1496 -128.522 64.5711 -117.336 64.5711C-106.149 64.5711 -100.609 72.1461 -94.7444 80.1701C-88.8268 88.2647 -82.7046 96.6351 -70.4463 96.6351C-58.1879 96.6351 -52.0693 88.2647 -46.1482 80.1701C-40.2835 72.1496 -34.7432 64.5711 -23.5569 64.5711C-12.3707 64.5711 -6.83041 72.1461 -0.965729 80.1701C4.95187 88.2647 11.074 96.6351 23.3324 96.6351C35.5907 96.6351 41.7129 88.2647 47.6305 80.1701C53.4952 72.1496 59.0354 64.5711 70.2217 64.5711V62.4502H70.2111Z" fill="#51A3D3"/>
</g>
</g>
<mask id="path-37-inside-1_1452_68234" fill="white">
<path fill-rule="evenodd" clip-rule="evenodd" d="M313 60C321.284 60 328 53.2843 328 45C328 36.7157 321.284 30 313 30L273 30C264.716 30 258 36.7157 258 45C258 53.2843 264.716 60 273 60L289.536 60L293 66L296.464 60L313 60Z"/>
</mask>
<path fill-rule="evenodd" clip-rule="evenodd" d="M313 60C321.284 60 328 53.2843 328 45C328 36.7157 321.284 30 313 30L273 30C264.716 30 258 36.7157 258 45C258 53.2843 264.716 60 273 60L289.536 60L293 66L296.464 60L313 60Z" fill="#0074A2" fill-opacity="0.8"/>
<path d="M313 60V59V60ZM313 30V31V30ZM273 30V29V30ZM258 45H257H258ZM273 60V59V60ZM289.536 60L290.402 59.5L290.113 59H289.536V60ZM293 66L292.134 66.5L293 68L293.866 66.5L293 66ZM296.464 60V59H295.887L295.598 59.5L296.464 60ZM327 45C327 52.732 320.732 59 313 59V61C321.837 61 329 53.8366 329 45H327ZM313 31C320.732 31 327 37.268 327 45H329C329 36.1635 321.837 29 313 29V31ZM273 31L313 31V29L273 29V31ZM259 45C259 37.268 265.268 31 273 31V29C264.163 29 257 36.1634 257 45H259ZM273 59C265.268 59 259 52.732 259 45H257C257 53.8366 264.163 61 273 61V59ZM289.536 59L273 59V61L289.536 61V59ZM293.866 65.5L290.402 59.5L288.67 60.5L292.134 66.5L293.866 65.5ZM295.598 59.5L292.134 65.5L293.866 66.5L297.33 60.5L295.598 59.5ZM313 59L296.464 59V61L313 61V59Z" fill="#51A3D3" mask="url(#path-37-inside-1_1452_68234)"/>
<path d="M275.755 49.24L278.747 46.392C280.299 44.936 280.603 43.944 280.603 42.856C280.603 40.872 279.035 39.64 276.603 39.64C274.763 39.64 273.211 40.328 272.347 41.496L273.803 42.616C274.427 41.816 275.339 41.448 276.427 41.448C277.803 41.448 278.507 42.04 278.507 43.064C278.507 43.688 278.315 44.344 277.227 45.384L272.779 49.608V51H281.035V49.24H275.755ZM281.98 39.8V41.544H284.348V51H286.428V39.8H281.98ZM287.786 52.6H289.578L294.858 37.528H293.066L287.786 52.6ZM298.059 49.24L301.051 46.392C302.603 44.936 302.907 43.944 302.907 42.856C302.907 40.872 301.339 39.64 298.907 39.64C297.067 39.64 295.515 40.328 294.651 41.496L296.107 42.616C296.731 41.816 297.643 41.448 298.731 41.448C300.107 41.448 300.811 42.04 300.811 43.064C300.811 43.688 300.619 44.344 299.531 45.384L295.083 49.608V51H303.339V49.24H298.059ZM314.609 46.696H312.625V44.44H310.673V46.696H307.009L312.209 39.8H309.985L304.465 47.016V48.456H310.609V51H312.625V48.456H314.609V46.696Z" fill="white"/>
<circle cx="293" cy="92" r="24.5" fill="#022B42" fill-opacity="0.8" stroke="#51A3D3"/>
<circle cx="293" cy="92" r="28.5" stroke="#51A3D3" stroke-opacity="0.4"/>
<mask id="path-42-inside-2_1452_68234" fill="white">
<path fill-rule="evenodd" clip-rule="evenodd" d="M293.002 96.7004C297.724 96.7004 301.552 95.4436 301.552 91.1588C301.552 90.1521 301.34 89.1902 300.956 88.3076C305.85 89.7766 309.152 92.5594 309.152 95.7504C309.152 100.472 301.921 104.3 293.002 104.3C284.082 104.3 276.852 100.472 276.852 95.7504C276.852 92.5594 280.154 89.7766 285.047 88.3076C284.663 89.1902 284.452 90.1521 284.452 91.1588C284.452 95.4436 288.28 96.7004 293.002 96.7004Z"/>
</mask>
<path d="M300.956 88.3076L301.531 86.3921L297.399 85.1519L299.122 89.1065L300.956 88.3076ZM285.047 88.3076L286.881 89.1065L288.604 85.1519L284.472 86.3921L285.047 88.3076ZM299.552 91.1588C299.552 91.9232 299.384 92.4379 299.165 92.8026C298.945 93.1694 298.604 93.4983 298.085 93.7834C296.982 94.3888 295.253 94.7004 293.002 94.7004V98.7004C295.472 98.7004 298.018 98.3836 300.01 97.2894C301.038 96.7247 301.949 95.9359 302.594 94.862C303.241 93.7859 303.552 92.5367 303.552 91.1588H299.552ZM299.122 89.1065C299.4 89.745 299.552 90.4355 299.552 91.1588H303.552C303.552 89.8687 303.28 88.6354 302.789 87.5088L299.122 89.1065ZM300.381 90.2232C302.635 90.8999 304.399 91.8454 305.56 92.8777C306.717 93.9073 307.152 94.8972 307.152 95.7504H311.152C311.152 93.4126 309.935 91.4156 308.218 89.8888C306.504 88.3648 304.17 87.1843 301.531 86.3921L300.381 90.2232ZM307.152 95.7504C307.152 97.0056 306.156 98.615 303.486 100.029C300.905 101.395 297.202 102.3 293.002 102.3V106.3C297.721 106.3 302.093 105.292 305.357 103.564C308.532 101.883 311.152 99.2173 311.152 95.7504H307.152ZM293.002 102.3C288.801 102.3 285.098 101.395 282.518 100.029C279.847 98.615 278.852 97.0056 278.852 95.7504H274.852C274.852 99.2173 277.471 101.883 280.646 103.564C283.911 105.292 288.282 106.3 293.002 106.3V102.3ZM278.852 95.7504C278.852 94.8972 279.286 93.9073 280.443 92.8777C281.604 91.8454 283.368 90.8999 285.622 90.2232L284.472 86.3921C281.833 87.1843 279.499 88.3648 277.785 89.8888C276.068 91.4156 274.852 93.4126 274.852 95.7504H278.852ZM286.452 91.1588C286.452 90.4355 286.603 89.745 286.881 89.1065L283.214 87.5088C282.723 88.6354 282.452 89.8687 282.452 91.1588H286.452ZM293.002 94.7004C290.75 94.7004 289.021 94.3888 287.919 93.7834C287.399 93.4983 287.058 93.1694 286.838 92.8026C286.619 92.4379 286.452 91.9232 286.452 91.1588H282.452C282.452 92.5367 282.763 93.7859 283.409 94.862C284.054 95.9359 284.965 96.7247 285.993 97.2894C287.985 98.3836 290.531 98.7004 293.002 98.7004V94.7004Z" fill="#FF7987" mask="url(#path-42-inside-2_1452_68234)"/>
<path d="M293.003 97.7004C295.419 97.7004 297.761 97.3849 299.53 96.4129C300.431 95.9181 301.2 95.2443 301.738 94.3471C302.278 93.4489 302.553 92.3833 302.553 91.1587C302.553 86.2324 298.184 82.4004 293.003 82.4004C287.822 82.4004 283.453 86.2324 283.453 91.1587C283.453 92.3833 283.728 93.4489 284.268 94.3471C284.807 95.2443 285.575 95.9181 286.476 96.4129C288.246 97.3849 290.587 97.7004 293.003 97.7004Z" stroke="#FF7987" stroke-width="2"/>
<path fill-rule="evenodd" clip-rule="evenodd" d="M306.689 97.752C304.969 101.314 299.492 103.919 293 103.919C286.138 103.919 280.409 101.009 279.054 97.1338C278.855 97.8275 278.75 98.5722 278.75 99.3678C278.75 103.095 285.13 106.2 293 106.2C300.87 106.2 307.25 103.716 307.25 99.3678C307.25 98.9472 307.054 98.3881 306.689 97.752Z" fill="#FF7987"/>
<path d="M295.22 105.726C295.22 106.322 294.57 107.101 293.37 107.101C292.169 107.101 291.52 106.322 291.52 105.726C291.52 105.129 292.169 104.351 293.37 104.351C294.57 104.351 295.22 105.129 295.22 105.726Z" fill="#FF7987" stroke="#FF7987" stroke-width="2"/>
<path d="M286.642 105.096C286.538 105.684 285.763 106.338 284.581 106.129C283.399 105.921 282.895 105.041 282.998 104.454C283.102 103.867 283.877 103.213 285.059 103.421C286.241 103.63 286.746 104.509 286.642 105.096Z" fill="#FF7987" stroke="#FF7987" stroke-width="2"/>
<path d="M303.162 104.454C303.266 105.042 302.761 105.921 301.579 106.13C300.397 106.338 299.622 105.684 299.518 105.097C299.415 104.51 299.919 103.63 301.101 103.422C302.283 103.213 303.059 103.867 303.162 104.454Z" fill="#FF7987" stroke="#FF7987" stroke-width="2"/>
<path d="M294.902 86.25C295.536 86.3652 297.942 87.2864 298.702 90.05" stroke="#FF7987" stroke-width="2" stroke-linecap="round"/>
<path d="M293 82.4504V78.6504" stroke="#FF7987" stroke-width="2" stroke-linecap="round"/>
<path d="M294.852 76.7504C294.852 77.7721 294.024 78.6004 293.002 78.6004C291.981 78.6004 291.152 77.7721 291.152 76.7504C291.152 75.7287 291.981 74.9004 293.002 74.9004C294.024 74.9004 294.852 75.7287 294.852 76.7504Z" stroke="#FF7987" stroke-width="2"/>
</g>
<defs>
<clipPath id="clip0_1452_68234">
<rect width="375" height="160" fill="white"/>
</clipPath>
<clipPath id="clip1_1452_68234">
<rect width="375" height="58" fill="white" transform="translate(0 51)"/>
</clipPath>
</defs>
</svg>
