<svg width="375" height="160" viewBox="0 0 375 160" fill="none" xmlns="http://www.w3.org/2000/svg">
<g clip-path="url(#clip0_1452_69722)">
<rect x="-0.5" y="32.5" width="376" height="99" fill="#004973" fill-opacity="0.5" stroke="#0074A2"/>
<line x1="93.5" y1="32" x2="93.5" y2="132" stroke="#0074A2"/>
<line x1="140.5" y1="32" x2="140.5" y2="132" stroke="#0074A2"/>
<line x1="46.5" y1="32" x2="46.5" y2="132" stroke="#0074A2"/>
<line x1="187.5" y1="32" x2="187.5" y2="132" stroke="#0074A2"/>
<line x1="234.5" y1="32" x2="234.5" y2="132" stroke="#0074A2"/>
<line x1="281.5" y1="32" x2="281.5" y2="132" stroke="#0074A2"/>
<line x1="328.5" y1="32" x2="328.5" y2="132" stroke="#0074A2"/>
<circle cx="33.5" cy="52.5" r="1.5" fill="#51A3D3" fill-opacity="0.5"/>
<circle cx="9.5" cy="103.5" r="1.5" fill="#51A3D3" fill-opacity="0.3"/>
<circle cx="75.5" cy="102.5" r="1.5" fill="#51A3D3" fill-opacity="0.5"/>
<circle cx="104.5" cy="43.5" r="1.5" fill="#51A3D3" fill-opacity="0.3"/>
<circle cx="35.5" cy="122.5" r="1.5" fill="#51A3D3" fill-opacity="0.7"/>
<circle cx="126.5" cy="119.5" r="1.5" fill="#51A3D3" fill-opacity="0.3"/>
<circle cx="149.5" cy="56.5" r="1.5" fill="#51A3D3" fill-opacity="0.7"/>
<circle cx="172.5" cy="96.5" r="1.5" fill="#51A3D3" fill-opacity="0.25"/>
<circle cx="206.5" cy="63.5" r="1.5" fill="#51A3D3" fill-opacity="0.5"/>
<circle cx="242.5" cy="41.5" r="1.5" fill="#51A3D3" fill-opacity="0.3"/>
<circle cx="256.5" cy="96.5" r="1.5" fill="#51A3D3" fill-opacity="0.5"/>
<circle cx="217.5" cy="120.5" r="1.5" fill="#51A3D3" fill-opacity="0.5"/>
<circle cx="337.5" cy="43.5" r="1.5" fill="#51A3D3" fill-opacity="0.5"/>
<circle cx="295.5" cy="65.5" r="1.5" fill="#51A3D3" fill-opacity="0.5"/>
<circle cx="315.5" cy="116.5" r="1.5" fill="#51A3D3" fill-opacity="0.7"/>
<path d="M358 93.5C358 94.3284 357.328 95 356.5 95C355.672 95 355 94.3284 355 93.5C355 92.6716 355.672 92 356.5 92C357.328 92 358 92.6716 358 93.5Z" fill="#51A3D3" fill-opacity="0.5"/>
<path d="M97.352 150.234H95.616V148.26H93.908V150.234H90.702L95.252 144.2H93.306L88.476 150.514V151.774H93.852V154H95.616V151.774H97.352V150.234Z" fill="#51A3D3"/>
<path d="M46.704 154.14C49.042 154.14 50.806 152.32 50.806 149.1C50.806 145.88 49.042 144.06 46.704 144.06C44.38 144.06 42.616 145.88 42.616 149.1C42.616 152.32 44.38 154.14 46.704 154.14ZM46.704 152.558C45.374 152.558 44.45 151.466 44.45 149.1C44.45 146.734 45.374 145.642 46.704 145.642C48.048 145.642 48.972 146.734 48.972 149.1C48.972 151.466 48.048 152.558 46.704 152.558Z" fill="#51A3D3"/>
<path d="M143.406 148.848C144.204 148.414 144.652 147.714 144.652 146.79C144.652 145.11 143.168 144.06 140.984 144.06C138.814 144.06 137.344 145.11 137.344 146.79C137.344 147.714 137.778 148.414 138.562 148.848C137.554 149.31 136.994 150.108 136.994 151.186C136.994 153.006 138.548 154.14 140.984 154.14C143.42 154.14 145.002 153.006 145.002 151.186C145.002 150.108 144.428 149.31 143.406 148.848ZM140.984 145.488C142.104 145.488 142.86 145.992 142.86 146.874C142.86 147.714 142.146 148.246 140.984 148.246C139.836 148.246 139.136 147.714 139.136 146.874C139.136 145.992 139.864 145.488 140.984 145.488ZM140.984 152.712C139.64 152.712 138.828 152.124 138.828 151.13C138.828 150.164 139.64 149.562 140.984 149.562C142.328 149.562 143.168 150.164 143.168 151.13C143.168 152.124 142.328 152.712 140.984 152.712Z" fill="#51A3D3"/>
<path d="M181.232 144.2V145.726H183.304V154H185.124V144.2H181.232ZM189.826 152.46L192.444 149.968C193.802 148.694 194.068 147.826 194.068 146.874C194.068 145.138 192.696 144.06 190.568 144.06C188.958 144.06 187.6 144.662 186.844 145.684L188.118 146.664C188.664 145.964 189.462 145.642 190.414 145.642C191.618 145.642 192.234 146.16 192.234 147.056C192.234 147.602 192.066 148.176 191.114 149.086L187.222 152.782V154H194.446V152.46H189.826Z" fill="#51A3D3"/>
<rect x="223" y="138" width="24" height="22" rx="8" fill="#F4435A"/>
<path d="M228.417 144.2V145.726H230.489V154H232.309V144.2H228.417ZM238.985 147.952C237.893 147.952 236.955 148.288 236.367 148.974V148.96C236.367 146.734 237.529 145.586 239.377 145.586C240.063 145.586 240.707 145.712 241.239 146.062L241.911 144.69C241.253 144.27 240.315 144.06 239.335 144.06C236.493 144.06 234.533 145.908 234.533 149.268C234.533 152.418 236.101 154.14 238.775 154.14C240.777 154.14 242.359 152.908 242.359 150.962C242.359 149.128 240.917 147.952 238.985 147.952ZM238.677 152.712C237.375 152.712 236.647 151.984 236.647 151.06C236.647 150.094 237.459 149.38 238.635 149.38C239.825 149.38 240.595 150.024 240.595 151.046C240.595 152.068 239.811 152.712 238.677 152.712Z" fill="white"/>
<rect x="317" y="138" width="24" height="22" rx="8" fill="#F4435A"/>
<path d="M276.19 152.46L278.808 149.968C280.166 148.694 280.432 147.826 280.432 146.874C280.432 145.138 279.06 144.06 276.932 144.06C275.322 144.06 273.964 144.662 273.208 145.684L274.482 146.664C275.028 145.964 275.826 145.642 276.778 145.642C277.982 145.642 278.598 146.16 278.598 147.056C278.598 147.602 278.43 148.176 277.478 149.086L273.586 152.782V154H280.81V152.46H276.19ZM286.188 154.14C288.526 154.14 290.29 152.32 290.29 149.1C290.29 145.88 288.526 144.06 286.188 144.06C283.864 144.06 282.1 145.88 282.1 149.1C282.1 152.32 283.864 154.14 286.188 154.14ZM286.188 152.558C284.858 152.558 283.934 151.466 283.934 149.1C283.934 146.734 284.858 145.642 286.188 145.642C287.532 145.642 288.456 146.734 288.456 149.1C288.456 151.466 287.532 152.558 286.188 152.558Z" fill="#51A3D3"/>
<path d="M323.094 152.46L325.712 149.968C327.07 148.694 327.336 147.826 327.336 146.874C327.336 145.138 325.964 144.06 323.836 144.06C322.226 144.06 320.868 144.662 320.112 145.684L321.386 146.664C321.932 145.964 322.73 145.642 323.682 145.642C324.886 145.642 325.502 146.16 325.502 147.056C325.502 147.602 325.334 148.176 324.382 149.086L320.49 152.782V154H327.714V152.46H323.094ZM337.575 150.234H335.839V148.26H334.131V150.234H330.925L335.475 144.2H333.529L328.699 150.514V151.774H334.075V154H335.839V151.774H337.575V150.234Z" fill="white"/>
<g clip-path="url(#clip1_1452_69722)">
<mask id="mask0_1452_69722" style="mask-type:alpha" maskUnits="userSpaceOnUse" x="0" y="32" width="117" height="100">
<rect y="32" width="117" height="100" fill="#51A3D3"/>
</mask>
<g mask="url(#mask0_1452_69722)">
<path d="M351.211 62.4502C338.953 62.4502 332.831 70.8206 326.913 78.9152C321.048 86.9356 315.508 94.5142 304.322 94.5142C293.135 94.5142 287.595 86.9392 281.731 78.9152C275.813 70.8206 269.691 62.4502 257.432 62.4502C245.174 62.4502 239.055 70.8206 233.134 78.9152C227.27 86.9356 221.729 94.5142 210.543 94.5142C199.357 94.5142 193.817 86.9392 187.952 78.9152C182.034 70.8206 175.912 62.4502 163.654 62.4502C151.395 62.4502 145.277 70.8206 139.356 78.9152C133.491 86.9356 127.951 94.5142 116.765 94.5142C105.578 94.5142 100.042 86.9392 94.1768 78.9152C88.2592 70.8206 82.1371 62.4502 69.8787 62.4502C57.6204 62.4502 51.5018 70.8206 45.5806 78.9152C39.7265 86.9392 34.1863 94.5142 23 94.5142V96.6351C35.2584 96.6351 41.377 88.2647 47.2981 80.1701C53.1628 72.1496 58.703 64.5711 69.8893 64.5711C81.0756 64.5711 86.6159 72.1461 92.4805 80.1701C98.3981 88.2647 104.52 96.6351 116.775 96.6351C129.03 96.6351 135.152 88.2647 141.073 80.1701C146.938 72.1496 152.478 64.5711 163.664 64.5711C174.851 64.5711 180.391 72.1461 186.256 80.1701C192.173 88.2647 198.295 96.6351 210.554 96.6351C222.812 96.6351 228.931 88.2647 234.852 80.1701C240.717 72.1496 246.257 64.5711 257.443 64.5711C268.629 64.5711 274.17 72.1461 280.034 80.1701C285.952 88.2647 292.074 96.6351 304.332 96.6351C316.591 96.6351 322.713 88.2647 328.63 80.1701C334.495 72.1496 340.035 64.5711 351.222 64.5711V62.4502H351.211Z" fill="#51A3D3"/>
<path d="M70.2111 62.4502C57.9527 62.4502 51.8306 70.8206 45.913 78.9152C40.0483 86.9356 34.5081 94.5142 23.3218 94.5142C12.1355 94.5142 6.59525 86.9392 0.73056 78.9152C-5.18703 70.8206 -11.3091 62.4502 -23.5675 62.4502C-35.8259 62.4502 -41.9445 70.8206 -47.8656 78.9152C-53.7303 86.9356 -59.2706 94.5142 -70.4568 94.5142C-81.6431 94.5142 -87.1834 86.9392 -93.0481 78.9152C-98.9657 70.8206 -105.088 62.4502 -117.346 62.4502C-129.605 62.4502 -135.723 70.8206 -141.644 78.9152C-147.509 86.9356 -153.049 94.5142 -164.235 94.5142C-175.422 94.5142 -180.958 86.9392 -186.823 78.9152C-192.741 70.8206 -198.863 62.4502 -211.121 62.4502C-223.38 62.4502 -229.498 70.8206 -235.419 78.9152C-241.273 86.9392 -246.814 94.5142 -258 94.5142V96.6351C-245.742 96.6351 -239.623 88.2647 -233.702 80.1701C-227.837 72.1496 -222.297 64.5711 -211.111 64.5711C-199.924 64.5711 -194.384 72.1461 -188.519 80.1701C-182.602 88.2647 -176.48 96.6351 -164.225 96.6351C-151.97 96.6351 -145.848 88.2647 -139.927 80.1701C-134.062 72.1496 -128.522 64.5711 -117.336 64.5711C-106.149 64.5711 -100.609 72.1461 -94.7444 80.1701C-88.8268 88.2647 -82.7046 96.6351 -70.4463 96.6351C-58.1879 96.6351 -52.0693 88.2647 -46.1482 80.1701C-40.2835 72.1496 -34.7432 64.5711 -23.5569 64.5711C-12.3707 64.5711 -6.83041 72.1461 -0.965729 80.1701C4.95187 88.2647 11.074 96.6351 23.3324 96.6351C35.5907 96.6351 41.7129 88.2647 47.6305 80.1701C53.4952 72.1496 59.0354 64.5711 70.2217 64.5711V62.4502H70.2111Z" fill="#51A3D3"/>
</g>
</g>
<mask id="path-37-inside-1_1452_69722" fill="white">
<path fill-rule="evenodd" clip-rule="evenodd" d="M137 70C145.284 70 152 63.2843 152 55C152 46.7157 145.284 40 137 40L97 40C88.7157 40 82 46.7157 82 55C82 63.2843 88.7157 70 97 70L113.536 70L117 76L120.464 70L137 70Z"/>
</mask>
<path fill-rule="evenodd" clip-rule="evenodd" d="M137 70C145.284 70 152 63.2843 152 55C152 46.7157 145.284 40 137 40L97 40C88.7157 40 82 46.7157 82 55C82 63.2843 88.7157 70 97 70L113.536 70L117 76L120.464 70L137 70Z" fill="#0074A2" fill-opacity="0.8"/>
<path d="M137 70V69V70ZM137 40V41V40ZM97 40V39V40ZM82 55H81H82ZM97 70V69V70ZM113.536 70L114.402 69.5L114.113 69H113.536V70ZM117 76L116.134 76.5L117 78L117.866 76.5L117 76ZM120.464 70V69H119.887L119.598 69.5L120.464 70ZM151 55C151 62.732 144.732 69 137 69V71C145.837 71 153 63.8366 153 55H151ZM137 41C144.732 41 151 47.268 151 55H153C153 46.1635 145.837 39 137 39V41ZM97 41L137 41V39L97 39V41ZM83 55C83 47.268 89.268 41 97 41V39C88.1634 39 81 46.1634 81 55H83ZM97 69C89.268 69 83 62.732 83 55H81C81 63.8366 88.1634 71 97 71V69ZM113.536 69L97 69V71L113.536 71V69ZM117.866 75.5L114.402 69.5L112.67 70.5L116.134 76.5L117.866 75.5ZM119.598 69.5L116.134 75.5L117.866 76.5L121.33 70.5L119.598 69.5ZM137 69L120.464 69V71L137 71V69Z" fill="#51A3D3" mask="url(#path-37-inside-1_1452_69722)"/>
<path d="M104.281 54.088C103.033 54.088 101.961 54.472 101.289 55.256V55.24C101.289 52.696 102.617 51.384 104.729 51.384C105.513 51.384 106.249 51.528 106.857 51.928L107.625 50.36C106.873 49.88 105.801 49.64 104.681 49.64C101.433 49.64 99.1928 51.752 99.1928 55.592C99.1928 59.192 100.985 61.16 104.041 61.16C106.329 61.16 108.137 59.752 108.137 57.528C108.137 55.432 106.489 54.088 104.281 54.088ZM103.929 59.528C102.441 59.528 101.609 58.696 101.609 57.64C101.609 56.536 102.537 55.72 103.881 55.72C105.241 55.72 106.121 56.456 106.121 57.624C106.121 58.792 105.225 59.528 103.929 59.528ZM108.516 62.6H110.308L115.588 47.528H113.796L108.516 62.6ZM118.79 59.24L121.782 56.392C123.334 54.936 123.638 53.944 123.638 52.856C123.638 50.872 122.07 49.64 119.638 49.64C117.798 49.64 116.246 50.328 115.382 51.496L116.838 52.616C117.462 51.816 118.374 51.448 119.462 51.448C120.838 51.448 121.542 52.04 121.542 53.064C121.542 53.688 121.35 54.344 120.262 55.384L115.814 59.608V61H124.07V59.24H118.79ZM135.34 56.696H133.356V54.44H131.404V56.696H127.74L132.94 49.8H130.716L125.196 57.016V58.456H131.34V61H133.356V58.456H135.34V56.696Z" fill="white"/>
<circle cx="117" cy="102" r="24.5" fill="#022B42" fill-opacity="0.8" stroke="#51A3D3"/>
<circle cx="117" cy="102" r="28.5" stroke="#51A3D3" stroke-opacity="0.4"/>
<mask id="path-42-inside-2_1452_69722" fill="white">
<path fill-rule="evenodd" clip-rule="evenodd" d="M117.002 106.7C121.724 106.7 125.552 105.444 125.552 101.159C125.552 100.152 125.34 99.1902 124.956 98.3076C129.85 99.7766 133.152 102.559 133.152 105.75C133.152 110.472 125.921 114.3 117.002 114.3C108.082 114.3 100.852 110.472 100.852 105.75C100.852 102.559 104.154 99.7766 109.047 98.3076C108.663 99.1902 108.452 100.152 108.452 101.159C108.452 105.444 112.28 106.7 117.002 106.7Z"/>
</mask>
<path d="M124.956 98.3076L125.531 96.3921L121.399 95.1519L123.122 99.1065L124.956 98.3076ZM109.047 98.3076L110.881 99.1065L112.604 95.1519L108.472 96.3921L109.047 98.3076ZM123.552 101.159C123.552 101.923 123.384 102.438 123.165 102.803C122.945 103.169 122.604 103.498 122.085 103.783C120.982 104.389 119.253 104.7 117.002 104.7V108.7C119.472 108.7 122.018 108.384 124.01 107.289C125.038 106.725 125.949 105.936 126.594 104.862C127.241 103.786 127.552 102.537 127.552 101.159H123.552ZM123.122 99.1065C123.4 99.745 123.552 100.435 123.552 101.159H127.552C127.552 99.8687 127.28 98.6354 126.789 97.5088L123.122 99.1065ZM124.381 100.223C126.635 100.9 128.399 101.845 129.56 102.878C130.717 103.907 131.152 104.897 131.152 105.75H135.152C135.152 103.413 133.935 101.416 132.218 99.8888C130.504 98.3648 128.17 97.1843 125.531 96.3921L124.381 100.223ZM131.152 105.75C131.152 107.006 130.156 108.615 127.486 110.029C124.905 111.395 121.202 112.3 117.002 112.3V116.3C121.721 116.3 126.093 115.292 129.357 113.564C132.532 111.883 135.152 109.217 135.152 105.75H131.152ZM117.002 112.3C112.801 112.3 109.098 111.395 106.518 110.029C103.847 108.615 102.852 107.006 102.852 105.75H98.8516C98.8516 109.217 101.471 111.883 104.646 113.564C107.911 115.292 112.282 116.3 117.002 116.3V112.3ZM102.852 105.75C102.852 104.897 103.286 103.907 104.443 102.878C105.604 101.845 107.368 100.9 109.622 100.223L108.472 96.3921C105.833 97.1843 103.499 98.3648 101.785 99.8888C100.068 101.416 98.8516 103.413 98.8516 105.75H102.852ZM110.452 101.159C110.452 100.435 110.603 99.745 110.881 99.1065L107.214 97.5088C106.723 98.6354 106.452 99.8687 106.452 101.159H110.452ZM117.002 104.7C114.75 104.7 113.021 104.389 111.919 103.783C111.399 103.498 111.058 103.169 110.838 102.803C110.619 102.438 110.452 101.923 110.452 101.159H106.452C106.452 102.537 106.763 103.786 107.409 104.862C108.054 105.936 108.965 106.725 109.993 107.289C111.985 108.384 114.531 108.7 117.002 108.7V104.7Z" fill="#FF7987" mask="url(#path-42-inside-2_1452_69722)"/>
<path d="M117.003 107.7C119.419 107.7 121.761 107.385 123.53 106.413C124.431 105.918 125.2 105.244 125.738 104.347C126.278 103.449 126.553 102.383 126.553 101.159C126.553 96.2324 122.184 92.4004 117.003 92.4004C111.822 92.4004 107.453 96.2324 107.453 101.159C107.453 102.383 107.728 103.449 108.268 104.347C108.807 105.244 109.575 105.918 110.476 106.413C112.246 107.385 114.587 107.7 117.003 107.7Z" stroke="#FF7987" stroke-width="2"/>
<path fill-rule="evenodd" clip-rule="evenodd" d="M130.689 107.752C128.969 111.314 123.492 113.919 117 113.919C110.138 113.919 104.409 111.009 103.054 107.134C102.855 107.828 102.75 108.572 102.75 109.368C102.75 113.095 109.13 116.2 117 116.2C124.87 116.2 131.25 113.716 131.25 109.368C131.25 108.947 131.054 108.388 130.689 107.752Z" fill="#FF7987"/>
<path d="M119.22 115.726C119.22 116.322 118.57 117.101 117.37 117.101C116.169 117.101 115.52 116.322 115.52 115.726C115.52 115.129 116.169 114.351 117.37 114.351C118.57 114.351 119.22 115.129 119.22 115.726Z" fill="#FF7987" stroke="#FF7987" stroke-width="2"/>
<path d="M110.642 115.096C110.538 115.684 109.763 116.338 108.581 116.129C107.399 115.921 106.895 115.041 106.998 114.454C107.102 113.867 107.877 113.213 109.059 113.421C110.241 113.63 110.746 114.509 110.642 115.096Z" fill="#FF7987" stroke="#FF7987" stroke-width="2"/>
<path d="M127.162 114.454C127.266 115.042 126.761 115.921 125.579 116.13C124.397 116.338 123.622 115.684 123.518 115.097C123.415 114.51 123.919 113.63 125.101 113.422C126.283 113.213 127.059 113.867 127.162 114.454Z" fill="#FF7987" stroke="#FF7987" stroke-width="2"/>
<path d="M118.902 96.25C119.536 96.3652 121.942 97.2864 122.702 100.05" stroke="#FF7987" stroke-width="2" stroke-linecap="round"/>
<path d="M117 92.4504V88.6504" stroke="#FF7987" stroke-width="2" stroke-linecap="round"/>
<path d="M118.852 86.7504C118.852 87.7721 118.024 88.6004 117.002 88.6004C115.981 88.6004 115.152 87.7721 115.152 86.7504C115.152 85.7287 115.981 84.9004 117.002 84.9004C118.024 84.9004 118.852 85.7287 118.852 86.7504Z" stroke="#FF7987" stroke-width="2"/>
</g>
<defs>
<clipPath id="clip0_1452_69722">
<rect width="375" height="160" fill="white"/>
</clipPath>
<clipPath id="clip1_1452_69722">
<rect width="375" height="58" fill="white" transform="translate(0 51)"/>
</clipPath>
</defs>
</svg>
