<svg width="375" height="160" viewBox="0 0 375 160" fill="none" xmlns="http://www.w3.org/2000/svg">
<g clip-path="url(#clip0_1452_80138)">
<rect x="-0.5" y="32.5" width="376" height="99" fill="#004973" fill-opacity="0.5" stroke="#0074A2"/>
<line x1="93.5" y1="32" x2="93.5" y2="132" stroke="#0074A2"/>
<line x1="140.5" y1="32" x2="140.5" y2="132" stroke="#0074A2"/>
<line x1="46.5" y1="32" x2="46.5" y2="132" stroke="#0074A2"/>
<line x1="187.5" y1="32" x2="187.5" y2="132" stroke="#0074A2"/>
<line x1="234.5" y1="32" x2="234.5" y2="132" stroke="#0074A2"/>
<line x1="281.5" y1="32" x2="281.5" y2="132" stroke="#0074A2"/>
<line x1="328.5" y1="32" x2="328.5" y2="132" stroke="#0074A2"/>
<circle cx="33.5" cy="52.5" r="1.5" fill="#51A3D3" fill-opacity="0.5"/>
<circle cx="9.5" cy="103.5" r="1.5" fill="#51A3D3" fill-opacity="0.3"/>
<circle cx="75.5" cy="102.5" r="1.5" fill="#51A3D3" fill-opacity="0.5"/>
<circle cx="104.5" cy="43.5" r="1.5" fill="#51A3D3" fill-opacity="0.3"/>
<circle cx="35.5" cy="122.5" r="1.5" fill="#51A3D3" fill-opacity="0.7"/>
<circle cx="126.5" cy="119.5" r="1.5" fill="#51A3D3" fill-opacity="0.3"/>
<circle cx="149.5" cy="56.5" r="1.5" fill="#51A3D3" fill-opacity="0.7"/>
<circle cx="172.5" cy="96.5" r="1.5" fill="#51A3D3" fill-opacity="0.25"/>
<circle cx="206.5" cy="63.5" r="1.5" fill="#51A3D3" fill-opacity="0.5"/>
<circle cx="242.5" cy="41.5" r="1.5" fill="#51A3D3" fill-opacity="0.3"/>
<circle cx="256.5" cy="96.5" r="1.5" fill="#51A3D3" fill-opacity="0.5"/>
<circle cx="217.5" cy="120.5" r="1.5" fill="#51A3D3" fill-opacity="0.5"/>
<circle cx="337.5" cy="43.5" r="1.5" fill="#51A3D3" fill-opacity="0.5"/>
<circle cx="295.5" cy="65.5" r="1.5" fill="#51A3D3" fill-opacity="0.5"/>
<circle cx="315.5" cy="116.5" r="1.5" fill="#51A3D3" fill-opacity="0.7"/>
<path d="M358 93.5C358 94.3284 357.328 95 356.5 95C355.672 95 355 94.3284 355 93.5C355 92.6716 355.672 92 356.5 92C357.328 92 358 92.6716 358 93.5Z" fill="#51A3D3" fill-opacity="0.5"/>
<path d="M97.352 150.234H95.616V148.26H93.908V150.234H90.702L95.252 144.2H93.306L88.476 150.514V151.774H93.852V154H95.616V151.774H97.352V150.234Z" fill="#51A3D3"/>
<path d="M46.704 154.14C49.042 154.14 50.806 152.32 50.806 149.1C50.806 145.88 49.042 144.06 46.704 144.06C44.38 144.06 42.616 145.88 42.616 149.1C42.616 152.32 44.38 154.14 46.704 154.14ZM46.704 152.558C45.374 152.558 44.45 151.466 44.45 149.1C44.45 146.734 45.374 145.642 46.704 145.642C48.048 145.642 48.972 146.734 48.972 149.1C48.972 151.466 48.048 152.558 46.704 152.558Z" fill="#51A3D3"/>
<path d="M143.406 148.848C144.204 148.414 144.652 147.714 144.652 146.79C144.652 145.11 143.168 144.06 140.984 144.06C138.814 144.06 137.344 145.11 137.344 146.79C137.344 147.714 137.778 148.414 138.562 148.848C137.554 149.31 136.994 150.108 136.994 151.186C136.994 153.006 138.548 154.14 140.984 154.14C143.42 154.14 145.002 153.006 145.002 151.186C145.002 150.108 144.428 149.31 143.406 148.848ZM140.984 145.488C142.104 145.488 142.86 145.992 142.86 146.874C142.86 147.714 142.146 148.246 140.984 148.246C139.836 148.246 139.136 147.714 139.136 146.874C139.136 145.992 139.864 145.488 140.984 145.488ZM140.984 152.712C139.64 152.712 138.828 152.124 138.828 151.13C138.828 150.164 139.64 149.562 140.984 149.562C142.328 149.562 143.168 150.164 143.168 151.13C143.168 152.124 142.328 152.712 140.984 152.712Z" fill="#51A3D3"/>
<path d="M181.232 144.2V145.726H183.304V154H185.124V144.2H181.232ZM189.826 152.46L192.444 149.968C193.802 148.694 194.068 147.826 194.068 146.874C194.068 145.138 192.696 144.06 190.568 144.06C188.958 144.06 187.6 144.662 186.844 145.684L188.118 146.664C188.664 145.964 189.462 145.642 190.414 145.642C191.618 145.642 192.234 146.16 192.234 147.056C192.234 147.602 192.066 148.176 191.114 149.086L187.222 152.782V154H194.446V152.46H189.826Z" fill="#51A3D3"/>
<rect x="223" y="138" width="24" height="22" rx="8" fill="#0074A2"/>
<path d="M228.417 144.2V145.726H230.489V154H232.309V144.2H228.417ZM238.985 147.952C237.893 147.952 236.955 148.288 236.367 148.974V148.96C236.367 146.734 237.529 145.586 239.377 145.586C240.063 145.586 240.707 145.712 241.239 146.062L241.911 144.69C241.253 144.27 240.315 144.06 239.335 144.06C236.493 144.06 234.533 145.908 234.533 149.268C234.533 152.418 236.101 154.14 238.775 154.14C240.777 154.14 242.359 152.908 242.359 150.962C242.359 149.128 240.917 147.952 238.985 147.952ZM238.677 152.712C237.375 152.712 236.647 151.984 236.647 151.06C236.647 150.094 237.459 149.38 238.635 149.38C239.825 149.38 240.595 150.024 240.595 151.046C240.595 152.068 239.811 152.712 238.677 152.712Z" fill="white"/>
<rect x="317" y="138" width="24" height="22" rx="8" fill="#F4435A"/>
<path d="M276.19 152.46L278.808 149.968C280.166 148.694 280.432 147.826 280.432 146.874C280.432 145.138 279.06 144.06 276.932 144.06C275.322 144.06 273.964 144.662 273.208 145.684L274.482 146.664C275.028 145.964 275.826 145.642 276.778 145.642C277.982 145.642 278.598 146.16 278.598 147.056C278.598 147.602 278.43 148.176 277.478 149.086L273.586 152.782V154H280.81V152.46H276.19ZM286.188 154.14C288.526 154.14 290.29 152.32 290.29 149.1C290.29 145.88 288.526 144.06 286.188 144.06C283.864 144.06 282.1 145.88 282.1 149.1C282.1 152.32 283.864 154.14 286.188 154.14ZM286.188 152.558C284.858 152.558 283.934 151.466 283.934 149.1C283.934 146.734 284.858 145.642 286.188 145.642C287.532 145.642 288.456 146.734 288.456 149.1C288.456 151.466 287.532 152.558 286.188 152.558Z" fill="#51A3D3"/>
<path d="M323.094 152.46L325.712 149.968C327.07 148.694 327.336 147.826 327.336 146.874C327.336 145.138 325.964 144.06 323.836 144.06C322.226 144.06 320.868 144.662 320.112 145.684L321.386 146.664C321.932 145.964 322.73 145.642 323.682 145.642C324.886 145.642 325.502 146.16 325.502 147.056C325.502 147.602 325.334 148.176 324.382 149.086L320.49 152.782V154H327.714V152.46H323.094ZM337.575 150.234H335.839V148.26H334.131V150.234H330.925L335.475 144.2H333.529L328.699 150.514V151.774H334.075V154H335.839V151.774H337.575V150.234Z" fill="white"/>
<g clip-path="url(#clip1_1452_80138)">
<mask id="mask0_1452_80138" style="mask-type:alpha" maskUnits="userSpaceOnUse" x="0" y="32" width="305" height="100">
<rect y="32" width="305" height="100" fill="#51A3D3"/>
</mask>
<g mask="url(#mask0_1452_80138)">
<path d="M351.211 62.4502C338.953 62.4502 332.831 70.8206 326.913 78.9152C321.048 86.9356 315.508 94.5142 304.322 94.5142C293.135 94.5142 287.595 86.9392 281.731 78.9152C275.813 70.8206 269.691 62.4502 257.432 62.4502C245.174 62.4502 239.055 70.8206 233.134 78.9152C227.27 86.9356 221.729 94.5142 210.543 94.5142C199.357 94.5142 193.817 86.9392 187.952 78.9152C182.034 70.8206 175.912 62.4502 163.654 62.4502C151.395 62.4502 145.277 70.8206 139.356 78.9152C133.491 86.9356 127.951 94.5142 116.765 94.5142C105.578 94.5142 100.042 86.9392 94.1768 78.9152C88.2592 70.8206 82.1371 62.4502 69.8787 62.4502C57.6204 62.4502 51.5018 70.8206 45.5806 78.9152C39.7265 86.9392 34.1863 94.5142 23 94.5142V96.6351C35.2584 96.6351 41.377 88.2647 47.2981 80.1701C53.1628 72.1496 58.703 64.5711 69.8893 64.5711C81.0756 64.5711 86.6159 72.1461 92.4805 80.1701C98.3981 88.2647 104.52 96.6351 116.775 96.6351C129.03 96.6351 135.152 88.2647 141.073 80.1701C146.938 72.1496 152.478 64.5711 163.664 64.5711C174.851 64.5711 180.391 72.1461 186.256 80.1701C192.173 88.2647 198.295 96.6351 210.554 96.6351C222.812 96.6351 228.931 88.2647 234.852 80.1701C240.717 72.1496 246.257 64.5711 257.443 64.5711C268.629 64.5711 274.17 72.1461 280.034 80.1701C285.952 88.2647 292.074 96.6351 304.332 96.6351C316.591 96.6351 322.713 88.2647 328.63 80.1701C334.495 72.1496 340.035 64.5711 351.222 64.5711V62.4502H351.211Z" fill="#51A3D3"/>
<path d="M70.2111 62.4502C57.9527 62.4502 51.8306 70.8206 45.913 78.9152C40.0483 86.9356 34.5081 94.5142 23.3218 94.5142C12.1355 94.5142 6.59525 86.9392 0.73056 78.9152C-5.18703 70.8206 -11.3091 62.4502 -23.5675 62.4502C-35.8259 62.4502 -41.9445 70.8206 -47.8656 78.9152C-53.7303 86.9356 -59.2706 94.5142 -70.4568 94.5142C-81.6431 94.5142 -87.1834 86.9392 -93.0481 78.9152C-98.9657 70.8206 -105.088 62.4502 -117.346 62.4502C-129.605 62.4502 -135.723 70.8206 -141.644 78.9152C-147.509 86.9356 -153.049 94.5142 -164.235 94.5142C-175.422 94.5142 -180.958 86.9392 -186.823 78.9152C-192.741 70.8206 -198.863 62.4502 -211.121 62.4502C-223.38 62.4502 -229.498 70.8206 -235.419 78.9152C-241.273 86.9392 -246.814 94.5142 -258 94.5142V96.6351C-245.742 96.6351 -239.623 88.2647 -233.702 80.1701C-227.837 72.1496 -222.297 64.5711 -211.111 64.5711C-199.924 64.5711 -194.384 72.1461 -188.519 80.1701C-182.602 88.2647 -176.48 96.6351 -164.225 96.6351C-151.97 96.6351 -145.848 88.2647 -139.927 80.1701C-134.062 72.1496 -128.522 64.5711 -117.336 64.5711C-106.149 64.5711 -100.609 72.1461 -94.7444 80.1701C-88.8268 88.2647 -82.7046 96.6351 -70.4463 96.6351C-58.1879 96.6351 -52.0693 88.2647 -46.1482 80.1701C-40.2835 72.1496 -34.7432 64.5711 -23.5569 64.5711C-12.3707 64.5711 -6.83041 72.1461 -0.965729 80.1701C4.95187 88.2647 11.074 96.6351 23.3324 96.6351C35.5907 96.6351 41.7129 88.2647 47.6305 80.1701C53.4952 72.1496 59.0354 64.5711 70.2217 64.5711V62.4502H70.2111Z" fill="#51A3D3"/>
</g>
</g>
<mask id="path-37-inside-1_1452_80138" fill="white">
<path fill-rule="evenodd" clip-rule="evenodd" d="M325 70C333.284 70 340 63.2843 340 55C340 46.7157 333.284 40 325 40L285 40C276.716 40 270 46.7157 270 55C270 63.2843 276.716 70 285 70L301.536 70L305 76L308.464 70L325 70Z"/>
</mask>
<path fill-rule="evenodd" clip-rule="evenodd" d="M325 70C333.284 70 340 63.2843 340 55C340 46.7157 333.284 40 325 40L285 40C276.716 40 270 46.7157 270 55C270 63.2843 276.716 70 285 70L301.536 70L305 76L308.464 70L325 70Z" fill="#0074A2" fill-opacity="0.8"/>
<path d="M325 70V69V70ZM325 40V41V40ZM285 40V39V40ZM270 55H269H270ZM285 70V69V70ZM301.536 70L302.402 69.5L302.113 69H301.536V70ZM305 76L304.134 76.5L305 78L305.866 76.5L305 76ZM308.464 70V69H307.887L307.598 69.5L308.464 70ZM339 55C339 62.732 332.732 69 325 69V71C333.837 71 341 63.8366 341 55H339ZM325 41C332.732 41 339 47.268 339 55H341C341 46.1635 333.837 39 325 39V41ZM285 41L325 41V39L285 39V41ZM271 55C271 47.268 277.268 41 285 41V39C276.163 39 269 46.1634 269 55H271ZM285 69C277.268 69 271 62.732 271 55H269C269 63.8366 276.163 71 285 71V69ZM301.536 69L285 69V71L301.536 71V69ZM305.866 75.5L302.402 69.5L300.67 70.5L304.134 76.5L305.866 75.5ZM307.598 69.5L304.134 75.5L305.866 76.5L309.33 70.5L307.598 69.5ZM325 69L308.464 69V71L325 71V69Z" fill="#51A3D3" mask="url(#path-37-inside-1_1452_80138)"/>
<path d="M285.568 59.24L288.56 56.392C290.112 54.936 290.416 53.944 290.416 52.856C290.416 50.872 288.848 49.64 286.416 49.64C284.576 49.64 283.024 50.328 282.16 51.496L283.616 52.616C284.24 51.816 285.152 51.448 286.24 51.448C287.616 51.448 288.32 52.04 288.32 53.064C288.32 53.688 288.128 54.344 287.04 55.384L282.592 59.608V61H290.848V59.24H285.568ZM295.2 59.24L298.192 56.392C299.744 54.936 300.048 53.944 300.048 52.856C300.048 50.872 298.48 49.64 296.048 49.64C294.208 49.64 292.656 50.328 291.792 51.496L293.248 52.616C293.872 51.816 294.784 51.448 295.872 51.448C297.248 51.448 297.952 52.04 297.952 53.064C297.952 53.688 297.76 54.344 296.672 55.384L292.224 59.608V61H300.48V59.24H295.2ZM300.973 62.6H302.765L308.045 47.528H306.253L300.973 62.6ZM311.247 59.24L314.239 56.392C315.791 54.936 316.095 53.944 316.095 52.856C316.095 50.872 314.527 49.64 312.095 49.64C310.255 49.64 308.703 50.328 307.839 51.496L309.295 52.616C309.919 51.816 310.831 51.448 311.919 51.448C313.295 51.448 313.999 52.04 313.999 53.064C313.999 53.688 313.807 54.344 312.719 55.384L308.271 59.608V61H316.527V59.24H311.247ZM327.797 56.696H325.813V54.44H323.861V56.696H320.197L325.397 49.8H323.173L317.653 57.016V58.456H323.797V61H325.813V58.456H327.797V56.696Z" fill="white"/>
<circle cx="305" cy="102" r="24.5" fill="#022B42" fill-opacity="0.8" stroke="#51A3D3"/>
<circle cx="305" cy="102" r="28.5" stroke="#51A3D3" stroke-opacity="0.4"/>
<mask id="path-42-inside-2_1452_80138" fill="white">
<path fill-rule="evenodd" clip-rule="evenodd" d="M305.002 106.7C309.724 106.7 313.552 105.444 313.552 101.159C313.552 100.152 313.34 99.1902 312.956 98.3076C317.85 99.7766 321.152 102.559 321.152 105.75C321.152 110.472 313.921 114.3 305.002 114.3C296.082 114.3 288.852 110.472 288.852 105.75C288.852 102.559 292.154 99.7766 297.047 98.3076C296.663 99.1902 296.452 100.152 296.452 101.159C296.452 105.444 300.28 106.7 305.002 106.7Z"/>
</mask>
<path d="M312.956 98.3076L313.531 96.3921L309.399 95.1519L311.122 99.1065L312.956 98.3076ZM297.047 98.3076L298.881 99.1065L300.604 95.1519L296.472 96.3921L297.047 98.3076ZM311.552 101.159C311.552 101.923 311.384 102.438 311.165 102.803C310.945 103.169 310.604 103.498 310.085 103.783C308.982 104.389 307.253 104.7 305.002 104.7V108.7C307.472 108.7 310.018 108.384 312.01 107.289C313.038 106.725 313.949 105.936 314.594 104.862C315.241 103.786 315.552 102.537 315.552 101.159H311.552ZM311.122 99.1065C311.4 99.745 311.552 100.435 311.552 101.159H315.552C315.552 99.8687 315.28 98.6354 314.789 97.5088L311.122 99.1065ZM312.381 100.223C314.635 100.9 316.399 101.845 317.56 102.878C318.717 103.907 319.152 104.897 319.152 105.75H323.152C323.152 103.413 321.935 101.416 320.218 99.8888C318.504 98.3648 316.17 97.1843 313.531 96.3921L312.381 100.223ZM319.152 105.75C319.152 107.006 318.156 108.615 315.486 110.029C312.905 111.395 309.202 112.3 305.002 112.3V116.3C309.721 116.3 314.093 115.292 317.357 113.564C320.532 111.883 323.152 109.217 323.152 105.75H319.152ZM305.002 112.3C300.801 112.3 297.098 111.395 294.518 110.029C291.847 108.615 290.852 107.006 290.852 105.75H286.852C286.852 109.217 289.471 111.883 292.646 113.564C295.911 115.292 300.282 116.3 305.002 116.3V112.3ZM290.852 105.75C290.852 104.897 291.286 103.907 292.443 102.878C293.604 101.845 295.368 100.9 297.622 100.223L296.472 96.3921C293.833 97.1843 291.499 98.3648 289.785 99.8888C288.068 101.416 286.852 103.413 286.852 105.75H290.852ZM298.452 101.159C298.452 100.435 298.603 99.745 298.881 99.1065L295.214 97.5088C294.723 98.6354 294.452 99.8687 294.452 101.159H298.452ZM305.002 104.7C302.75 104.7 301.021 104.389 299.919 103.783C299.399 103.498 299.058 103.169 298.838 102.803C298.619 102.438 298.452 101.923 298.452 101.159H294.452C294.452 102.537 294.763 103.786 295.409 104.862C296.054 105.936 296.965 106.725 297.993 107.289C299.985 108.384 302.531 108.7 305.002 108.7V104.7Z" fill="#FF7987" mask="url(#path-42-inside-2_1452_80138)"/>
<path d="M305.003 107.7C307.419 107.7 309.761 107.385 311.53 106.413C312.431 105.918 313.2 105.244 313.738 104.347C314.278 103.449 314.553 102.383 314.553 101.159C314.553 96.2324 310.184 92.4004 305.003 92.4004C299.822 92.4004 295.453 96.2324 295.453 101.159C295.453 102.383 295.728 103.449 296.268 104.347C296.807 105.244 297.575 105.918 298.476 106.413C300.246 107.385 302.587 107.7 305.003 107.7Z" stroke="#FF7987" stroke-width="2"/>
<path fill-rule="evenodd" clip-rule="evenodd" d="M318.689 107.752C316.969 111.314 311.492 113.919 305 113.919C298.138 113.919 292.409 111.009 291.054 107.134C290.855 107.828 290.75 108.572 290.75 109.368C290.75 113.095 297.13 116.2 305 116.2C312.87 116.2 319.25 113.716 319.25 109.368C319.25 108.947 319.054 108.388 318.689 107.752Z" fill="#FF7987"/>
<path d="M307.22 115.726C307.22 116.322 306.57 117.101 305.37 117.101C304.169 117.101 303.52 116.322 303.52 115.726C303.52 115.129 304.169 114.351 305.37 114.351C306.57 114.351 307.22 115.129 307.22 115.726Z" fill="#FF7987" stroke="#FF7987" stroke-width="2"/>
<path d="M298.642 115.096C298.538 115.684 297.763 116.338 296.581 116.129C295.399 115.921 294.895 115.041 294.998 114.454C295.102 113.867 295.877 113.213 297.059 113.421C298.241 113.63 298.746 114.509 298.642 115.096Z" fill="#FF7987" stroke="#FF7987" stroke-width="2"/>
<path d="M315.162 114.454C315.266 115.042 314.761 115.921 313.579 116.13C312.397 116.338 311.622 115.684 311.518 115.097C311.415 114.51 311.919 113.63 313.101 113.422C314.283 113.213 315.059 113.867 315.162 114.454Z" fill="#FF7987" stroke="#FF7987" stroke-width="2"/>
<path d="M306.902 96.25C307.536 96.3652 309.942 97.2864 310.702 100.05" stroke="#FF7987" stroke-width="2" stroke-linecap="round"/>
<path d="M305 92.4504V88.6504" stroke="#FF7987" stroke-width="2" stroke-linecap="round"/>
<path d="M306.852 86.7504C306.852 87.7721 306.024 88.6004 305.002 88.6004C303.981 88.6004 303.152 87.7721 303.152 86.7504C303.152 85.7287 303.981 84.9004 305.002 84.9004C306.024 84.9004 306.852 85.7287 306.852 86.7504Z" stroke="#FF7987" stroke-width="2"/>
</g>
<defs>
<clipPath id="clip0_1452_80138">
<rect width="375" height="160" fill="white"/>
</clipPath>
<clipPath id="clip1_1452_80138">
<rect width="375" height="58" fill="white" transform="translate(0 51)"/>
</clipPath>
</defs>
</svg>
