<svg width="375" height="160" viewBox="0 0 375 160" fill="none" xmlns="http://www.w3.org/2000/svg">
<g clip-path="url(#clip0_1452_74186)">
<rect x="-0.5" y="32.5" width="376" height="99" fill="#004973" fill-opacity="0.5" stroke="#0074A2"/>
<line x1="93.5" y1="32" x2="93.5" y2="132" stroke="#0074A2"/>
<line x1="140.5" y1="32" x2="140.5" y2="132" stroke="#0074A2"/>
<line x1="46.5" y1="32" x2="46.5" y2="132" stroke="#0074A2"/>
<line x1="187.5" y1="32" x2="187.5" y2="132" stroke="#0074A2"/>
<line x1="234.5" y1="32" x2="234.5" y2="132" stroke="#0074A2"/>
<line x1="281.5" y1="32" x2="281.5" y2="132" stroke="#0074A2"/>
<line x1="328.5" y1="32" x2="328.5" y2="132" stroke="#0074A2"/>
<circle cx="33.5" cy="52.5" r="1.5" fill="#51A3D3" fill-opacity="0.5"/>
<circle cx="9.5" cy="103.5" r="1.5" fill="#51A3D3" fill-opacity="0.3"/>
<circle cx="75.5" cy="102.5" r="1.5" fill="#51A3D3" fill-opacity="0.5"/>
<circle cx="104.5" cy="43.5" r="1.5" fill="#51A3D3" fill-opacity="0.3"/>
<circle cx="35.5" cy="122.5" r="1.5" fill="#51A3D3" fill-opacity="0.7"/>
<circle cx="126.5" cy="119.5" r="1.5" fill="#51A3D3" fill-opacity="0.3"/>
<circle cx="149.5" cy="56.5" r="1.5" fill="#51A3D3" fill-opacity="0.7"/>
<circle cx="172.5" cy="96.5" r="1.5" fill="#51A3D3" fill-opacity="0.25"/>
<circle cx="206.5" cy="63.5" r="1.5" fill="#51A3D3" fill-opacity="0.5"/>
<circle cx="242.5" cy="41.5" r="1.5" fill="#51A3D3" fill-opacity="0.3"/>
<circle cx="256.5" cy="96.5" r="1.5" fill="#51A3D3" fill-opacity="0.5"/>
<circle cx="217.5" cy="120.5" r="1.5" fill="#51A3D3" fill-opacity="0.5"/>
<circle cx="337.5" cy="43.5" r="1.5" fill="#51A3D3" fill-opacity="0.5"/>
<circle cx="295.5" cy="65.5" r="1.5" fill="#51A3D3" fill-opacity="0.5"/>
<circle cx="315.5" cy="116.5" r="1.5" fill="#51A3D3" fill-opacity="0.7"/>
<path d="M358 93.5C358 94.3284 357.328 95 356.5 95C355.672 95 355 94.3284 355 93.5C355 92.6716 355.672 92 356.5 92C357.328 92 358 92.6716 358 93.5Z" fill="#51A3D3" fill-opacity="0.5"/>
<path d="M97.352 150.234H95.616V148.26H93.908V150.234H90.702L95.252 144.2H93.306L88.476 150.514V151.774H93.852V154H95.616V151.774H97.352V150.234Z" fill="#51A3D3"/>
<path d="M46.704 154.14C49.042 154.14 50.806 152.32 50.806 149.1C50.806 145.88 49.042 144.06 46.704 144.06C44.38 144.06 42.616 145.88 42.616 149.1C42.616 152.32 44.38 154.14 46.704 154.14ZM46.704 152.558C45.374 152.558 44.45 151.466 44.45 149.1C44.45 146.734 45.374 145.642 46.704 145.642C48.048 145.642 48.972 146.734 48.972 149.1C48.972 151.466 48.048 152.558 46.704 152.558Z" fill="#51A3D3"/>
<path d="M143.406 148.848C144.204 148.414 144.652 147.714 144.652 146.79C144.652 145.11 143.168 144.06 140.984 144.06C138.814 144.06 137.344 145.11 137.344 146.79C137.344 147.714 137.778 148.414 138.562 148.848C137.554 149.31 136.994 150.108 136.994 151.186C136.994 153.006 138.548 154.14 140.984 154.14C143.42 154.14 145.002 153.006 145.002 151.186C145.002 150.108 144.428 149.31 143.406 148.848ZM140.984 145.488C142.104 145.488 142.86 145.992 142.86 146.874C142.86 147.714 142.146 148.246 140.984 148.246C139.836 148.246 139.136 147.714 139.136 146.874C139.136 145.992 139.864 145.488 140.984 145.488ZM140.984 152.712C139.64 152.712 138.828 152.124 138.828 151.13C138.828 150.164 139.64 149.562 140.984 149.562C142.328 149.562 143.168 150.164 143.168 151.13C143.168 152.124 142.328 152.712 140.984 152.712Z" fill="#51A3D3"/>
<path d="M181.232 144.2V145.726H183.304V154H185.124V144.2H181.232ZM189.826 152.46L192.444 149.968C193.802 148.694 194.068 147.826 194.068 146.874C194.068 145.138 192.696 144.06 190.568 144.06C188.958 144.06 187.6 144.662 186.844 145.684L188.118 146.664C188.664 145.964 189.462 145.642 190.414 145.642C191.618 145.642 192.234 146.16 192.234 147.056C192.234 147.602 192.066 148.176 191.114 149.086L187.222 152.782V154H194.446V152.46H189.826Z" fill="#51A3D3"/>
<rect x="223" y="138" width="24" height="22" rx="8" fill="#F4435A"/>
<path d="M228.417 144.2V145.726H230.489V154H232.309V144.2H228.417ZM238.985 147.952C237.893 147.952 236.955 148.288 236.367 148.974V148.96C236.367 146.734 237.529 145.586 239.377 145.586C240.063 145.586 240.707 145.712 241.239 146.062L241.911 144.69C241.253 144.27 240.315 144.06 239.335 144.06C236.493 144.06 234.533 145.908 234.533 149.268C234.533 152.418 236.101 154.14 238.775 154.14C240.777 154.14 242.359 152.908 242.359 150.962C242.359 149.128 240.917 147.952 238.985 147.952ZM238.677 152.712C237.375 152.712 236.647 151.984 236.647 151.06C236.647 150.094 237.459 149.38 238.635 149.38C239.825 149.38 240.595 150.024 240.595 151.046C240.595 152.068 239.811 152.712 238.677 152.712Z" fill="white"/>
<rect x="317" y="138" width="24" height="22" rx="8" fill="#F4435A"/>
<path d="M276.19 152.46L278.808 149.968C280.166 148.694 280.432 147.826 280.432 146.874C280.432 145.138 279.06 144.06 276.932 144.06C275.322 144.06 273.964 144.662 273.208 145.684L274.482 146.664C275.028 145.964 275.826 145.642 276.778 145.642C277.982 145.642 278.598 146.16 278.598 147.056C278.598 147.602 278.43 148.176 277.478 149.086L273.586 152.782V154H280.81V152.46H276.19ZM286.188 154.14C288.526 154.14 290.29 152.32 290.29 149.1C290.29 145.88 288.526 144.06 286.188 144.06C283.864 144.06 282.1 145.88 282.1 149.1C282.1 152.32 283.864 154.14 286.188 154.14ZM286.188 152.558C284.858 152.558 283.934 151.466 283.934 149.1C283.934 146.734 284.858 145.642 286.188 145.642C287.532 145.642 288.456 146.734 288.456 149.1C288.456 151.466 287.532 152.558 286.188 152.558Z" fill="#51A3D3"/>
<path d="M323.094 152.46L325.712 149.968C327.07 148.694 327.336 147.826 327.336 146.874C327.336 145.138 325.964 144.06 323.836 144.06C322.226 144.06 320.868 144.662 320.112 145.684L321.386 146.664C321.932 145.964 322.73 145.642 323.682 145.642C324.886 145.642 325.502 146.16 325.502 147.056C325.502 147.602 325.334 148.176 324.382 149.086L320.49 152.782V154H327.714V152.46H323.094ZM337.575 150.234H335.839V148.26H334.131V150.234H330.925L335.475 144.2H333.529L328.699 150.514V151.774H334.075V154H335.839V151.774H337.575V150.234Z" fill="white"/>
<g clip-path="url(#clip1_1452_74186)">
<mask id="mask0_1452_74186" style="mask-type:alpha" maskUnits="userSpaceOnUse" x="0" y="32" width="199" height="100">
<rect y="32" width="199" height="100" fill="#51A3D3"/>
</mask>
<g mask="url(#mask0_1452_74186)">
<path d="M351.211 62.4502C338.953 62.4502 332.831 70.8206 326.913 78.9152C321.048 86.9356 315.508 94.5142 304.322 94.5142C293.135 94.5142 287.595 86.9392 281.731 78.9152C275.813 70.8206 269.691 62.4502 257.432 62.4502C245.174 62.4502 239.055 70.8206 233.134 78.9152C227.27 86.9356 221.729 94.5142 210.543 94.5142C199.357 94.5142 193.817 86.9392 187.952 78.9152C182.034 70.8206 175.912 62.4502 163.654 62.4502C151.395 62.4502 145.277 70.8206 139.356 78.9152C133.491 86.9356 127.951 94.5142 116.765 94.5142C105.578 94.5142 100.042 86.9392 94.1768 78.9152C88.2592 70.8206 82.1371 62.4502 69.8787 62.4502C57.6204 62.4502 51.5018 70.8206 45.5806 78.9152C39.7265 86.9392 34.1863 94.5142 23 94.5142V96.6351C35.2584 96.6351 41.377 88.2647 47.2981 80.1701C53.1628 72.1496 58.703 64.5711 69.8893 64.5711C81.0756 64.5711 86.6159 72.1461 92.4805 80.1701C98.3981 88.2647 104.52 96.6351 116.775 96.6351C129.03 96.6351 135.152 88.2647 141.073 80.1701C146.938 72.1496 152.478 64.5711 163.664 64.5711C174.851 64.5711 180.391 72.1461 186.256 80.1701C192.173 88.2647 198.295 96.6351 210.554 96.6351C222.812 96.6351 228.931 88.2647 234.852 80.1701C240.717 72.1496 246.257 64.5711 257.443 64.5711C268.629 64.5711 274.17 72.1461 280.034 80.1701C285.952 88.2647 292.074 96.6351 304.332 96.6351C316.591 96.6351 322.713 88.2647 328.63 80.1701C334.495 72.1496 340.035 64.5711 351.222 64.5711V62.4502H351.211Z" fill="#51A3D3"/>
<path d="M70.2111 62.4502C57.9527 62.4502 51.8306 70.8206 45.913 78.9152C40.0483 86.9356 34.5081 94.5142 23.3218 94.5142C12.1355 94.5142 6.59525 86.9392 0.73056 78.9152C-5.18703 70.8206 -11.3091 62.4502 -23.5675 62.4502C-35.8259 62.4502 -41.9445 70.8206 -47.8656 78.9152C-53.7303 86.9356 -59.2706 94.5142 -70.4568 94.5142C-81.6431 94.5142 -87.1834 86.9392 -93.0481 78.9152C-98.9657 70.8206 -105.088 62.4502 -117.346 62.4502C-129.605 62.4502 -135.723 70.8206 -141.644 78.9152C-147.509 86.9356 -153.049 94.5142 -164.235 94.5142C-175.422 94.5142 -180.958 86.9392 -186.823 78.9152C-192.741 70.8206 -198.863 62.4502 -211.121 62.4502C-223.38 62.4502 -229.498 70.8206 -235.419 78.9152C-241.273 86.9392 -246.814 94.5142 -258 94.5142V96.6351C-245.742 96.6351 -239.623 88.2647 -233.702 80.1701C-227.837 72.1496 -222.297 64.5711 -211.111 64.5711C-199.924 64.5711 -194.384 72.1461 -188.519 80.1701C-182.602 88.2647 -176.48 96.6351 -164.225 96.6351C-151.97 96.6351 -145.848 88.2647 -139.927 80.1701C-134.062 72.1496 -128.522 64.5711 -117.336 64.5711C-106.149 64.5711 -100.609 72.1461 -94.7444 80.1701C-88.8268 88.2647 -82.7046 96.6351 -70.4463 96.6351C-58.1879 96.6351 -52.0693 88.2647 -46.1482 80.1701C-40.2835 72.1496 -34.7432 64.5711 -23.5569 64.5711C-12.3707 64.5711 -6.83041 72.1461 -0.965729 80.1701C4.95187 88.2647 11.074 96.6351 23.3324 96.6351C35.5907 96.6351 41.7129 88.2647 47.6305 80.1701C53.4952 72.1496 59.0354 64.5711 70.2217 64.5711V62.4502H70.2111Z" fill="#51A3D3"/>
</g>
</g>
<mask id="path-37-inside-1_1452_74186" fill="white">
<path fill-rule="evenodd" clip-rule="evenodd" d="M219 60C227.284 60 234 53.2843 234 45C234 36.7157 227.284 30 219 30L179 30C170.716 30 164 36.7157 164 45C164 53.2843 170.716 60 179 60L195.536 60L199 66L202.464 60L219 60Z"/>
</mask>
<path fill-rule="evenodd" clip-rule="evenodd" d="M219 60C227.284 60 234 53.2843 234 45C234 36.7157 227.284 30 219 30L179 30C170.716 30 164 36.7157 164 45C164 53.2843 170.716 60 179 60L195.536 60L199 66L202.464 60L219 60Z" fill="#0074A2" fill-opacity="0.8"/>
<path d="M219 60V59V60ZM219 30V31V30ZM179 30V29V30ZM164 45H163H164ZM179 60V59V60ZM195.536 60L196.402 59.5L196.113 59H195.536V60ZM199 66L198.134 66.5L199 68L199.866 66.5L199 66ZM202.464 60V59H201.887L201.598 59.5L202.464 60ZM233 45C233 52.732 226.732 59 219 59V61C227.837 61 235 53.8366 235 45H233ZM219 31C226.732 31 233 37.268 233 45H235C235 36.1635 227.837 29 219 29V31ZM179 31L219 31V29L179 29V31ZM165 45C165 37.268 171.268 31 179 31V29C170.163 29 163 36.1634 163 45H165ZM179 59C171.268 59 165 52.732 165 45H163C163 53.8366 170.163 61 179 61V59ZM195.536 59L179 59V61L195.536 61V59ZM199.866 65.5L196.402 59.5L194.67 60.5L198.134 66.5L199.866 65.5ZM201.598 59.5L198.134 65.5L199.866 66.5L203.33 60.5L201.598 59.5ZM219 59L202.464 59V61L219 61V59Z" fill="#51A3D3" mask="url(#path-37-inside-1_1452_74186)"/>
<path d="M178.347 39.8V41.544H180.715V51H182.795V39.8H178.347ZM190.105 44.424L192.825 41.192V39.8H185.193V41.544H190.281L187.737 44.568V45.992H188.761C190.457 45.992 191.193 46.648 191.193 47.656C191.193 48.696 190.313 49.352 188.825 49.352C187.561 49.352 186.345 48.92 185.545 48.248L184.649 49.864C185.689 50.68 187.273 51.16 188.857 51.16C191.865 51.16 193.289 49.528 193.289 47.64C193.289 45.96 192.217 44.696 190.105 44.424ZM193.786 52.6H195.578L200.858 37.528H199.066L193.786 52.6ZM204.059 49.24L207.051 46.392C208.603 44.936 208.907 43.944 208.907 42.856C208.907 40.872 207.339 39.64 204.907 39.64C203.067 39.64 201.515 40.328 200.651 41.496L202.107 42.616C202.731 41.816 203.643 41.448 204.731 41.448C206.107 41.448 206.811 42.04 206.811 43.064C206.811 43.688 206.619 44.344 205.531 45.384L201.083 49.608V51H209.339V49.24H204.059ZM220.609 46.696H218.625V44.44H216.673V46.696H213.009L218.209 39.8H215.985L210.465 47.016V48.456H216.609V51H218.625V48.456H220.609V46.696Z" fill="white"/>
<circle cx="199" cy="92" r="24.5" fill="#022B42" fill-opacity="0.8" stroke="#51A3D3"/>
<circle cx="199" cy="92" r="28.5" stroke="#51A3D3" stroke-opacity="0.4"/>
<mask id="path-42-inside-2_1452_74186" fill="white">
<path fill-rule="evenodd" clip-rule="evenodd" d="M199.002 96.7004C203.724 96.7004 207.552 95.4436 207.552 91.1588C207.552 90.1521 207.34 89.1902 206.956 88.3076C211.85 89.7766 215.152 92.5594 215.152 95.7504C215.152 100.472 207.921 104.3 199.002 104.3C190.082 104.3 182.852 100.472 182.852 95.7504C182.852 92.5594 186.154 89.7766 191.047 88.3076C190.663 89.1902 190.452 90.1521 190.452 91.1588C190.452 95.4436 194.28 96.7004 199.002 96.7004Z"/>
</mask>
<path d="M206.956 88.3076L207.531 86.3921L203.399 85.1519L205.122 89.1065L206.956 88.3076ZM191.047 88.3076L192.881 89.1065L194.604 85.1519L190.472 86.3921L191.047 88.3076ZM205.552 91.1588C205.552 91.9232 205.384 92.4379 205.165 92.8026C204.945 93.1694 204.604 93.4983 204.085 93.7834C202.982 94.3888 201.253 94.7004 199.002 94.7004V98.7004C201.472 98.7004 204.018 98.3836 206.01 97.2894C207.038 96.7247 207.949 95.9359 208.594 94.862C209.241 93.7859 209.552 92.5367 209.552 91.1588H205.552ZM205.122 89.1065C205.4 89.745 205.552 90.4355 205.552 91.1588H209.552C209.552 89.8687 209.28 88.6354 208.789 87.5088L205.122 89.1065ZM206.381 90.2232C208.635 90.8999 210.399 91.8454 211.56 92.8777C212.717 93.9073 213.152 94.8972 213.152 95.7504H217.152C217.152 93.4126 215.935 91.4156 214.218 89.8888C212.504 88.3648 210.17 87.1843 207.531 86.3921L206.381 90.2232ZM213.152 95.7504C213.152 97.0056 212.156 98.615 209.486 100.029C206.905 101.395 203.202 102.3 199.002 102.3V106.3C203.721 106.3 208.093 105.292 211.357 103.564C214.532 101.883 217.152 99.2173 217.152 95.7504H213.152ZM199.002 102.3C194.801 102.3 191.098 101.395 188.518 100.029C185.847 98.615 184.852 97.0056 184.852 95.7504H180.852C180.852 99.2173 183.471 101.883 186.646 103.564C189.911 105.292 194.282 106.3 199.002 106.3V102.3ZM184.852 95.7504C184.852 94.8972 185.286 93.9073 186.443 92.8777C187.604 91.8454 189.368 90.8999 191.622 90.2232L190.472 86.3921C187.833 87.1843 185.499 88.3648 183.785 89.8888C182.068 91.4156 180.852 93.4126 180.852 95.7504H184.852ZM192.452 91.1588C192.452 90.4355 192.603 89.745 192.881 89.1065L189.214 87.5088C188.723 88.6354 188.452 89.8687 188.452 91.1588H192.452ZM199.002 94.7004C196.75 94.7004 195.021 94.3888 193.919 93.7834C193.399 93.4983 193.058 93.1694 192.838 92.8026C192.619 92.4379 192.452 91.9232 192.452 91.1588H188.452C188.452 92.5367 188.763 93.7859 189.409 94.862C190.054 95.9359 190.965 96.7247 191.993 97.2894C193.985 98.3836 196.531 98.7004 199.002 98.7004V94.7004Z" fill="#FF7987" mask="url(#path-42-inside-2_1452_74186)"/>
<path d="M199.003 97.7004C201.419 97.7004 203.761 97.3849 205.53 96.4129C206.431 95.9181 207.2 95.2443 207.738 94.3471C208.278 93.4489 208.553 92.3833 208.553 91.1587C208.553 86.2324 204.184 82.4004 199.003 82.4004C193.822 82.4004 189.453 86.2324 189.453 91.1587C189.453 92.3833 189.728 93.4489 190.268 94.3471C190.807 95.2443 191.575 95.9181 192.476 96.4129C194.246 97.3849 196.587 97.7004 199.003 97.7004Z" stroke="#FF7987" stroke-width="2"/>
<path fill-rule="evenodd" clip-rule="evenodd" d="M212.689 97.752C210.969 101.314 205.492 103.919 199 103.919C192.138 103.919 186.409 101.009 185.054 97.1338C184.855 97.8275 184.75 98.5722 184.75 99.3678C184.75 103.095 191.13 106.2 199 106.2C206.87 106.2 213.25 103.716 213.25 99.3678C213.25 98.9472 213.054 98.3881 212.689 97.752Z" fill="#FF7987"/>
<path d="M201.22 105.726C201.22 106.322 200.57 107.101 199.37 107.101C198.169 107.101 197.52 106.322 197.52 105.726C197.52 105.129 198.169 104.351 199.37 104.351C200.57 104.351 201.22 105.129 201.22 105.726Z" fill="#FF7987" stroke="#FF7987" stroke-width="2"/>
<path d="M192.642 105.096C192.538 105.684 191.763 106.338 190.581 106.129C189.399 105.921 188.895 105.041 188.998 104.454C189.102 103.867 189.877 103.213 191.059 103.421C192.241 103.63 192.746 104.509 192.642 105.096Z" fill="#FF7987" stroke="#FF7987" stroke-width="2"/>
<path d="M209.162 104.454C209.266 105.042 208.761 105.921 207.579 106.13C206.397 106.338 205.622 105.684 205.518 105.097C205.415 104.51 205.919 103.63 207.101 103.422C208.283 103.213 209.059 103.867 209.162 104.454Z" fill="#FF7987" stroke="#FF7987" stroke-width="2"/>
<path d="M200.902 86.25C201.536 86.3652 203.942 87.2864 204.702 90.05" stroke="#FF7987" stroke-width="2" stroke-linecap="round"/>
<path d="M199 82.4504V78.6504" stroke="#FF7987" stroke-width="2" stroke-linecap="round"/>
<path d="M200.852 76.7504C200.852 77.7721 200.024 78.6004 199.002 78.6004C197.981 78.6004 197.152 77.7721 197.152 76.7504C197.152 75.7287 197.981 74.9004 199.002 74.9004C200.024 74.9004 200.852 75.7287 200.852 76.7504Z" stroke="#FF7987" stroke-width="2"/>
</g>
<defs>
<clipPath id="clip0_1452_74186">
<rect width="375" height="160" fill="white"/>
</clipPath>
<clipPath id="clip1_1452_74186">
<rect width="375" height="58" fill="white" transform="translate(0 51)"/>
</clipPath>
</defs>
</svg>
