<svg width="375" height="160" viewBox="0 0 375 160" fill="none" xmlns="http://www.w3.org/2000/svg">
<g clip-path="url(#clip0_1452_77906)">
<rect x="-0.5" y="32.5" width="376" height="99" fill="#004973" fill-opacity="0.5" stroke="#0074A2"/>
<line x1="93.5" y1="32" x2="93.5" y2="132" stroke="#0074A2"/>
<line x1="140.5" y1="32" x2="140.5" y2="132" stroke="#0074A2"/>
<line x1="46.5" y1="32" x2="46.5" y2="132" stroke="#0074A2"/>
<line x1="187.5" y1="32" x2="187.5" y2="132" stroke="#0074A2"/>
<line x1="234.5" y1="32" x2="234.5" y2="132" stroke="#0074A2"/>
<line x1="281.5" y1="32" x2="281.5" y2="132" stroke="#0074A2"/>
<line x1="328.5" y1="32" x2="328.5" y2="132" stroke="#0074A2"/>
<circle cx="33.5" cy="52.5" r="1.5" fill="#51A3D3" fill-opacity="0.5"/>
<circle cx="9.5" cy="103.5" r="1.5" fill="#51A3D3" fill-opacity="0.3"/>
<circle cx="75.5" cy="102.5" r="1.5" fill="#51A3D3" fill-opacity="0.5"/>
<circle cx="104.5" cy="43.5" r="1.5" fill="#51A3D3" fill-opacity="0.3"/>
<circle cx="35.5" cy="122.5" r="1.5" fill="#51A3D3" fill-opacity="0.7"/>
<circle cx="126.5" cy="119.5" r="1.5" fill="#51A3D3" fill-opacity="0.3"/>
<circle cx="149.5" cy="56.5" r="1.5" fill="#51A3D3" fill-opacity="0.7"/>
<circle cx="172.5" cy="96.5" r="1.5" fill="#51A3D3" fill-opacity="0.25"/>
<circle cx="206.5" cy="63.5" r="1.5" fill="#51A3D3" fill-opacity="0.5"/>
<circle cx="242.5" cy="41.5" r="1.5" fill="#51A3D3" fill-opacity="0.3"/>
<circle cx="256.5" cy="96.5" r="1.5" fill="#51A3D3" fill-opacity="0.5"/>
<circle cx="217.5" cy="120.5" r="1.5" fill="#51A3D3" fill-opacity="0.5"/>
<circle cx="337.5" cy="43.5" r="1.5" fill="#51A3D3" fill-opacity="0.5"/>
<circle cx="295.5" cy="65.5" r="1.5" fill="#51A3D3" fill-opacity="0.5"/>
<circle cx="315.5" cy="116.5" r="1.5" fill="#51A3D3" fill-opacity="0.7"/>
<path d="M358 93.5C358 94.3284 357.328 95 356.5 95C355.672 95 355 94.3284 355 93.5C355 92.6716 355.672 92 356.5 92C357.328 92 358 92.6716 358 93.5Z" fill="#51A3D3" fill-opacity="0.5"/>
<path d="M97.352 150.234H95.616V148.26H93.908V150.234H90.702L95.252 144.2H93.306L88.476 150.514V151.774H93.852V154H95.616V151.774H97.352V150.234Z" fill="#51A3D3"/>
<path d="M46.704 154.14C49.042 154.14 50.806 152.32 50.806 149.1C50.806 145.88 49.042 144.06 46.704 144.06C44.38 144.06 42.616 145.88 42.616 149.1C42.616 152.32 44.38 154.14 46.704 154.14ZM46.704 152.558C45.374 152.558 44.45 151.466 44.45 149.1C44.45 146.734 45.374 145.642 46.704 145.642C48.048 145.642 48.972 146.734 48.972 149.1C48.972 151.466 48.048 152.558 46.704 152.558Z" fill="#51A3D3"/>
<path d="M143.406 148.848C144.204 148.414 144.652 147.714 144.652 146.79C144.652 145.11 143.168 144.06 140.984 144.06C138.814 144.06 137.344 145.11 137.344 146.79C137.344 147.714 137.778 148.414 138.562 148.848C137.554 149.31 136.994 150.108 136.994 151.186C136.994 153.006 138.548 154.14 140.984 154.14C143.42 154.14 145.002 153.006 145.002 151.186C145.002 150.108 144.428 149.31 143.406 148.848ZM140.984 145.488C142.104 145.488 142.86 145.992 142.86 146.874C142.86 147.714 142.146 148.246 140.984 148.246C139.836 148.246 139.136 147.714 139.136 146.874C139.136 145.992 139.864 145.488 140.984 145.488ZM140.984 152.712C139.64 152.712 138.828 152.124 138.828 151.13C138.828 150.164 139.64 149.562 140.984 149.562C142.328 149.562 143.168 150.164 143.168 151.13C143.168 152.124 142.328 152.712 140.984 152.712Z" fill="#51A3D3"/>
<path d="M181.232 144.2V145.726H183.304V154H185.124V144.2H181.232ZM189.826 152.46L192.444 149.968C193.802 148.694 194.068 147.826 194.068 146.874C194.068 145.138 192.696 144.06 190.568 144.06C188.958 144.06 187.6 144.662 186.844 145.684L188.118 146.664C188.664 145.964 189.462 145.642 190.414 145.642C191.618 145.642 192.234 146.16 192.234 147.056C192.234 147.602 192.066 148.176 191.114 149.086L187.222 152.782V154H194.446V152.46H189.826Z" fill="#51A3D3"/>
<rect x="223" y="138" width="24" height="22" rx="8" fill="#0074A2"/>
<path d="M228.417 144.2V145.726H230.489V154H232.309V144.2H228.417ZM238.985 147.952C237.893 147.952 236.955 148.288 236.367 148.974V148.96C236.367 146.734 237.529 145.586 239.377 145.586C240.063 145.586 240.707 145.712 241.239 146.062L241.911 144.69C241.253 144.27 240.315 144.06 239.335 144.06C236.493 144.06 234.533 145.908 234.533 149.268C234.533 152.418 236.101 154.14 238.775 154.14C240.777 154.14 242.359 152.908 242.359 150.962C242.359 149.128 240.917 147.952 238.985 147.952ZM238.677 152.712C237.375 152.712 236.647 151.984 236.647 151.06C236.647 150.094 237.459 149.38 238.635 149.38C239.825 149.38 240.595 150.024 240.595 151.046C240.595 152.068 239.811 152.712 238.677 152.712Z" fill="white"/>
<rect x="317" y="138" width="24" height="22" rx="8" fill="#F4435A"/>
<path d="M276.19 152.46L278.808 149.968C280.166 148.694 280.432 147.826 280.432 146.874C280.432 145.138 279.06 144.06 276.932 144.06C275.322 144.06 273.964 144.662 273.208 145.684L274.482 146.664C275.028 145.964 275.826 145.642 276.778 145.642C277.982 145.642 278.598 146.16 278.598 147.056C278.598 147.602 278.43 148.176 277.478 149.086L273.586 152.782V154H280.81V152.46H276.19ZM286.188 154.14C288.526 154.14 290.29 152.32 290.29 149.1C290.29 145.88 288.526 144.06 286.188 144.06C283.864 144.06 282.1 145.88 282.1 149.1C282.1 152.32 283.864 154.14 286.188 154.14ZM286.188 152.558C284.858 152.558 283.934 151.466 283.934 149.1C283.934 146.734 284.858 145.642 286.188 145.642C287.532 145.642 288.456 146.734 288.456 149.1C288.456 151.466 287.532 152.558 286.188 152.558Z" fill="#51A3D3"/>
<path d="M323.094 152.46L325.712 149.968C327.07 148.694 327.336 147.826 327.336 146.874C327.336 145.138 325.964 144.06 323.836 144.06C322.226 144.06 320.868 144.662 320.112 145.684L321.386 146.664C321.932 145.964 322.73 145.642 323.682 145.642C324.886 145.642 325.502 146.16 325.502 147.056C325.502 147.602 325.334 148.176 324.382 149.086L320.49 152.782V154H327.714V152.46H323.094ZM337.575 150.234H335.839V148.26H334.131V150.234H330.925L335.475 144.2H333.529L328.699 150.514V151.774H334.075V154H335.839V151.774H337.575V150.234Z" fill="white"/>
<g clip-path="url(#clip1_1452_77906)">
<mask id="mask0_1452_77906" style="mask-type:alpha" maskUnits="userSpaceOnUse" x="0" y="32" width="270" height="100">
<rect y="32" width="270" height="100" fill="#51A3D3"/>
</mask>
<g mask="url(#mask0_1452_77906)">
<path d="M351.211 62.4502C338.953 62.4502 332.831 70.8206 326.913 78.9152C321.048 86.9356 315.508 94.5142 304.322 94.5142C293.135 94.5142 287.595 86.9392 281.731 78.9152C275.813 70.8206 269.691 62.4502 257.432 62.4502C245.174 62.4502 239.055 70.8206 233.134 78.9152C227.27 86.9356 221.729 94.5142 210.543 94.5142C199.357 94.5142 193.817 86.9392 187.952 78.9152C182.034 70.8206 175.912 62.4502 163.654 62.4502C151.395 62.4502 145.277 70.8206 139.356 78.9152C133.491 86.9356 127.951 94.5142 116.765 94.5142C105.578 94.5142 100.042 86.9392 94.1768 78.9152C88.2592 70.8206 82.1371 62.4502 69.8787 62.4502C57.6204 62.4502 51.5018 70.8206 45.5806 78.9152C39.7265 86.9392 34.1863 94.5142 23 94.5142V96.6351C35.2584 96.6351 41.377 88.2647 47.2981 80.1701C53.1628 72.1496 58.703 64.5711 69.8893 64.5711C81.0756 64.5711 86.6159 72.1461 92.4805 80.1701C98.3981 88.2647 104.52 96.6351 116.775 96.6351C129.03 96.6351 135.152 88.2647 141.073 80.1701C146.938 72.1496 152.478 64.5711 163.664 64.5711C174.851 64.5711 180.391 72.1461 186.256 80.1701C192.173 88.2647 198.295 96.6351 210.554 96.6351C222.812 96.6351 228.931 88.2647 234.852 80.1701C240.717 72.1496 246.257 64.5711 257.443 64.5711C268.629 64.5711 274.17 72.1461 280.034 80.1701C285.952 88.2647 292.074 96.6351 304.332 96.6351C316.591 96.6351 322.713 88.2647 328.63 80.1701C334.495 72.1496 340.035 64.5711 351.222 64.5711V62.4502H351.211Z" fill="#51A3D3"/>
<path d="M70.2111 62.4502C57.9527 62.4502 51.8306 70.8206 45.913 78.9152C40.0483 86.9356 34.5081 94.5142 23.3218 94.5142C12.1355 94.5142 6.59525 86.9392 0.73056 78.9152C-5.18703 70.8206 -11.3091 62.4502 -23.5675 62.4502C-35.8259 62.4502 -41.9445 70.8206 -47.8656 78.9152C-53.7303 86.9356 -59.2706 94.5142 -70.4568 94.5142C-81.6431 94.5142 -87.1834 86.9392 -93.0481 78.9152C-98.9657 70.8206 -105.088 62.4502 -117.346 62.4502C-129.605 62.4502 -135.723 70.8206 -141.644 78.9152C-147.509 86.9356 -153.049 94.5142 -164.235 94.5142C-175.422 94.5142 -180.958 86.9392 -186.823 78.9152C-192.741 70.8206 -198.863 62.4502 -211.121 62.4502C-223.38 62.4502 -229.498 70.8206 -235.419 78.9152C-241.273 86.9392 -246.814 94.5142 -258 94.5142V96.6351C-245.742 96.6351 -239.623 88.2647 -233.702 80.1701C-227.837 72.1496 -222.297 64.5711 -211.111 64.5711C-199.924 64.5711 -194.384 72.1461 -188.519 80.1701C-182.602 88.2647 -176.48 96.6351 -164.225 96.6351C-151.97 96.6351 -145.848 88.2647 -139.927 80.1701C-134.062 72.1496 -128.522 64.5711 -117.336 64.5711C-106.149 64.5711 -100.609 72.1461 -94.7444 80.1701C-88.8268 88.2647 -82.7046 96.6351 -70.4463 96.6351C-58.1879 96.6351 -52.0693 88.2647 -46.1482 80.1701C-40.2835 72.1496 -34.7432 64.5711 -23.5569 64.5711C-12.3707 64.5711 -6.83041 72.1461 -0.965729 80.1701C4.95187 88.2647 11.074 96.6351 23.3324 96.6351C35.5907 96.6351 41.7129 88.2647 47.6305 80.1701C53.4952 72.1496 59.0354 64.5711 70.2217 64.5711V62.4502H70.2111Z" fill="#51A3D3"/>
</g>
</g>
<mask id="path-37-inside-1_1452_77906" fill="white">
<path fill-rule="evenodd" clip-rule="evenodd" d="M290 40C298.284 40 305 33.2843 305 25C305 16.7157 298.284 10 290 10L250 10C241.716 10 235 16.7157 235 25C235 33.2843 241.716 40 250 40L266.536 40L270 46L273.464 40L290 40Z"/>
</mask>
<path fill-rule="evenodd" clip-rule="evenodd" d="M290 40C298.284 40 305 33.2843 305 25C305 16.7157 298.284 10 290 10L250 10C241.716 10 235 16.7157 235 25C235 33.2843 241.716 40 250 40L266.536 40L270 46L273.464 40L290 40Z" fill="#0074A2" fill-opacity="0.8"/>
<path d="M290 40V39V40ZM290 10V11V10ZM250 10V9V10ZM235 25H234H235ZM250 40V39V40ZM266.536 40L267.402 39.5L267.113 39H266.536V40ZM270 46L269.134 46.5L270 48L270.866 46.5L270 46ZM273.464 40V39H272.887L272.598 39.5L273.464 40ZM304 25C304 32.732 297.732 39 290 39V41C298.837 41 306 33.8366 306 25H304ZM290 11C297.732 11 304 17.268 304 25H306C306 16.1635 298.837 9.00001 290 9V11ZM250 11L290 11V9L250 9V11ZM236 25C236 17.268 242.268 11 250 11V9C241.163 9 234 16.1634 234 25H236ZM250 39C242.268 39 236 32.732 236 25H234C234 33.8366 241.163 41 250 41V39ZM266.536 39L250 39V41L266.536 41V39ZM270.866 45.5L267.402 39.5L265.67 40.5L269.134 46.5L270.866 45.5ZM272.598 39.5L269.134 45.5L270.866 46.5L274.33 40.5L272.598 39.5ZM290 39L273.464 39V41L290 41V39Z" fill="#51A3D3" mask="url(#path-37-inside-1_1452_77906)"/>
<path d="M249.144 19.8V21.544H251.512V31H253.592V19.8H249.144ZM259.91 19.64C257.622 19.64 255.814 21.048 255.814 23.272C255.814 25.368 257.462 26.712 259.67 26.712C260.918 26.712 261.99 26.328 262.662 25.544V25.56C262.662 28.104 261.334 29.416 259.222 29.416C258.438 29.416 257.702 29.272 257.094 28.872L256.326 30.44C257.078 30.92 258.15 31.16 259.27 31.16C262.518 31.16 264.758 29.048 264.758 25.208C264.758 21.608 262.966 19.64 259.91 19.64ZM260.07 25.08C258.71 25.08 257.83 24.344 257.83 23.176C257.83 22.008 258.726 21.272 260.022 21.272C261.51 21.272 262.342 22.104 262.342 23.16C262.342 24.264 261.414 25.08 260.07 25.08ZM264.989 32.6H266.781L272.061 17.528H270.269L264.989 32.6ZM275.262 29.24L278.254 26.392C279.806 24.936 280.11 23.944 280.11 22.856C280.11 20.872 278.542 19.64 276.11 19.64C274.27 19.64 272.718 20.328 271.854 21.496L273.31 22.616C273.934 21.816 274.846 21.448 275.934 21.448C277.31 21.448 278.014 22.04 278.014 23.064C278.014 23.688 277.822 24.344 276.734 25.384L272.286 29.608V31H280.542V29.24H275.262ZM291.812 26.696H289.828V24.44H287.876V26.696H284.212L289.412 19.8H287.188L281.668 27.016V28.456H287.812V31H289.828V28.456H291.812V26.696Z" fill="white"/>
<circle cx="270" cy="72" r="24.5" fill="#022B42" fill-opacity="0.8" stroke="#51A3D3"/>
<circle cx="270" cy="72" r="28.5" stroke="#51A3D3" stroke-opacity="0.4"/>
<mask id="path-42-inside-2_1452_77906" fill="white">
<path fill-rule="evenodd" clip-rule="evenodd" d="M270.002 76.7004C274.724 76.7004 278.552 75.4436 278.552 71.1588C278.552 70.1521 278.34 69.1902 277.956 68.3076C282.85 69.7766 286.152 72.5594 286.152 75.7504C286.152 80.4724 278.921 84.3004 270.002 84.3004C261.082 84.3004 253.852 80.4724 253.852 75.7504C253.852 72.5594 257.154 69.7766 262.047 68.3076C261.663 69.1902 261.452 70.1521 261.452 71.1588C261.452 75.4436 265.28 76.7004 270.002 76.7004Z"/>
</mask>
<path d="M277.956 68.3076L278.531 66.3921L274.399 65.1519L276.122 69.1065L277.956 68.3076ZM262.047 68.3076L263.881 69.1065L265.604 65.1519L261.472 66.3921L262.047 68.3076ZM276.552 71.1588C276.552 71.9232 276.384 72.4379 276.165 72.8026C275.945 73.1694 275.604 73.4983 275.085 73.7834C273.982 74.3888 272.253 74.7004 270.002 74.7004V78.7004C272.472 78.7004 275.018 78.3836 277.01 77.2894C278.038 76.7247 278.949 75.9359 279.594 74.862C280.241 73.7859 280.552 72.5367 280.552 71.1588H276.552ZM276.122 69.1065C276.4 69.745 276.552 70.4355 276.552 71.1588H280.552C280.552 69.8687 280.28 68.6354 279.789 67.5088L276.122 69.1065ZM277.381 70.2232C279.635 70.8999 281.399 71.8454 282.56 72.8777C283.717 73.9073 284.152 74.8972 284.152 75.7504H288.152C288.152 73.4126 286.935 71.4156 285.218 69.8888C283.504 68.3648 281.17 67.1843 278.531 66.3921L277.381 70.2232ZM284.152 75.7504C284.152 77.0056 283.156 78.615 280.486 80.0286C277.905 81.3948 274.202 82.3004 270.002 82.3004V86.3004C274.721 86.3004 279.093 85.292 282.357 83.5638C285.532 81.8829 288.152 79.2173 288.152 75.7504H284.152ZM270.002 82.3004C265.801 82.3004 262.098 81.3948 259.518 80.0286C256.847 78.615 255.852 77.0056 255.852 75.7504H251.852C251.852 79.2173 254.471 81.8829 257.646 83.5638C260.911 85.292 265.282 86.3004 270.002 86.3004V82.3004ZM255.852 75.7504C255.852 74.8972 256.286 73.9073 257.443 72.8777C258.604 71.8454 260.368 70.8999 262.622 70.2232L261.472 66.3921C258.833 67.1843 256.499 68.3648 254.785 69.8888C253.068 71.4156 251.852 73.4126 251.852 75.7504H255.852ZM263.452 71.1588C263.452 70.4355 263.603 69.745 263.881 69.1065L260.214 67.5088C259.723 68.6354 259.452 69.8687 259.452 71.1588H263.452ZM270.002 74.7004C267.75 74.7004 266.021 74.3888 264.919 73.7834C264.399 73.4983 264.058 73.1694 263.838 72.8026C263.619 72.4379 263.452 71.9232 263.452 71.1588H259.452C259.452 72.5367 259.763 73.7859 260.409 74.862C261.054 75.9359 261.965 76.7247 262.993 77.2894C264.985 78.3836 267.531 78.7004 270.002 78.7004V74.7004Z" fill="#FF7987" mask="url(#path-42-inside-2_1452_77906)"/>
<path d="M270.003 77.7004C272.419 77.7004 274.761 77.3849 276.53 76.4129C277.431 75.9181 278.2 75.2443 278.738 74.3471C279.278 73.4489 279.553 72.3833 279.553 71.1587C279.553 66.2324 275.184 62.4004 270.003 62.4004C264.822 62.4004 260.453 66.2324 260.453 71.1587C260.453 72.3833 260.728 73.4489 261.268 74.3471C261.807 75.2443 262.575 75.9181 263.476 76.4129C265.246 77.3849 267.587 77.7004 270.003 77.7004Z" stroke="#FF7987" stroke-width="2"/>
<path fill-rule="evenodd" clip-rule="evenodd" d="M283.689 77.752C281.969 81.3144 276.492 83.9189 270 83.9189C263.138 83.9189 257.409 81.0091 256.054 77.1338C255.855 77.8275 255.75 78.5722 255.75 79.3678C255.75 83.0947 262.13 86.2005 270 86.2005C277.87 86.2005 284.25 83.7159 284.25 79.3678C284.25 78.9472 284.054 78.3881 283.689 77.752Z" fill="#FF7987"/>
<path d="M272.22 85.7256C272.22 86.322 271.57 87.1006 270.37 87.1006C269.169 87.1006 268.52 86.322 268.52 85.7256C268.52 85.1292 269.169 84.3506 270.37 84.3506C271.57 84.3506 272.22 85.1292 272.22 85.7256Z" fill="#FF7987" stroke="#FF7987" stroke-width="2"/>
<path d="M263.642 85.0965C263.538 85.6838 262.763 86.3377 261.581 86.1293C260.399 85.9209 259.895 85.0413 259.998 84.454C260.102 83.8666 260.877 83.2127 262.059 83.4211C263.241 83.6295 263.746 84.5091 263.642 85.0965Z" fill="#FF7987" stroke="#FF7987" stroke-width="2"/>
<path d="M280.162 84.4544C280.266 85.0418 279.761 85.9214 278.579 86.1298C277.397 86.3382 276.622 85.6843 276.518 85.0969C276.415 84.5096 276.919 83.63 278.101 83.4216C279.283 83.2131 280.059 83.8671 280.162 84.4544Z" fill="#FF7987" stroke="#FF7987" stroke-width="2"/>
<path d="M271.902 66.25C272.536 66.3652 274.942 67.2864 275.702 70.05" stroke="#FF7987" stroke-width="2" stroke-linecap="round"/>
<path d="M270 62.4504V58.6504" stroke="#FF7987" stroke-width="2" stroke-linecap="round"/>
<path d="M271.852 56.7504C271.852 57.7721 271.024 58.6004 270.002 58.6004C268.981 58.6004 268.152 57.7721 268.152 56.7504C268.152 55.7287 268.981 54.9004 270.002 54.9004C271.024 54.9004 271.852 55.7287 271.852 56.7504Z" stroke="#FF7987" stroke-width="2"/>
</g>
<defs>
<clipPath id="clip0_1452_77906">
<rect width="375" height="160" fill="white"/>
</clipPath>
<clipPath id="clip1_1452_77906">
<rect width="375" height="58" fill="white" transform="translate(0 51)"/>
</clipPath>
</defs>
</svg>
