<svg width="375" height="160" viewBox="0 0 375 160" fill="none" xmlns="http://www.w3.org/2000/svg">
<g clip-path="url(#clip0_1452_76418)">
<rect x="-0.5" y="32.5" width="376" height="99" fill="#004973" fill-opacity="0.5" stroke="#0074A2"/>
<line x1="93.5" y1="32" x2="93.5" y2="132" stroke="#0074A2"/>
<line x1="140.5" y1="32" x2="140.5" y2="132" stroke="#0074A2"/>
<line x1="46.5" y1="32" x2="46.5" y2="132" stroke="#0074A2"/>
<line x1="187.5" y1="32" x2="187.5" y2="132" stroke="#0074A2"/>
<line x1="234.5" y1="32" x2="234.5" y2="132" stroke="#0074A2"/>
<line x1="281.5" y1="32" x2="281.5" y2="132" stroke="#0074A2"/>
<line x1="328.5" y1="32" x2="328.5" y2="132" stroke="#0074A2"/>
<circle cx="33.5" cy="52.5" r="1.5" fill="#51A3D3" fill-opacity="0.5"/>
<circle cx="9.5" cy="103.5" r="1.5" fill="#51A3D3" fill-opacity="0.3"/>
<circle cx="75.5" cy="102.5" r="1.5" fill="#51A3D3" fill-opacity="0.5"/>
<circle cx="104.5" cy="43.5" r="1.5" fill="#51A3D3" fill-opacity="0.3"/>
<circle cx="35.5" cy="122.5" r="1.5" fill="#51A3D3" fill-opacity="0.7"/>
<circle cx="126.5" cy="119.5" r="1.5" fill="#51A3D3" fill-opacity="0.3"/>
<circle cx="149.5" cy="56.5" r="1.5" fill="#51A3D3" fill-opacity="0.7"/>
<circle cx="172.5" cy="96.5" r="1.5" fill="#51A3D3" fill-opacity="0.25"/>
<circle cx="206.5" cy="63.5" r="1.5" fill="#51A3D3" fill-opacity="0.5"/>
<circle cx="242.5" cy="41.5" r="1.5" fill="#51A3D3" fill-opacity="0.3"/>
<circle cx="256.5" cy="96.5" r="1.5" fill="#51A3D3" fill-opacity="0.5"/>
<circle cx="217.5" cy="120.5" r="1.5" fill="#51A3D3" fill-opacity="0.5"/>
<circle cx="337.5" cy="43.5" r="1.5" fill="#51A3D3" fill-opacity="0.5"/>
<circle cx="295.5" cy="65.5" r="1.5" fill="#51A3D3" fill-opacity="0.5"/>
<circle cx="315.5" cy="116.5" r="1.5" fill="#51A3D3" fill-opacity="0.7"/>
<path d="M358 93.5C358 94.3284 357.328 95 356.5 95C355.672 95 355 94.3284 355 93.5C355 92.6716 355.672 92 356.5 92C357.328 92 358 92.6716 358 93.5Z" fill="#51A3D3" fill-opacity="0.5"/>
<path d="M97.352 150.234H95.616V148.26H93.908V150.234H90.702L95.252 144.2H93.306L88.476 150.514V151.774H93.852V154H95.616V151.774H97.352V150.234Z" fill="#51A3D3"/>
<path d="M46.704 154.14C49.042 154.14 50.806 152.32 50.806 149.1C50.806 145.88 49.042 144.06 46.704 144.06C44.38 144.06 42.616 145.88 42.616 149.1C42.616 152.32 44.38 154.14 46.704 154.14ZM46.704 152.558C45.374 152.558 44.45 151.466 44.45 149.1C44.45 146.734 45.374 145.642 46.704 145.642C48.048 145.642 48.972 146.734 48.972 149.1C48.972 151.466 48.048 152.558 46.704 152.558Z" fill="#51A3D3"/>
<path d="M143.406 148.848C144.204 148.414 144.652 147.714 144.652 146.79C144.652 145.11 143.168 144.06 140.984 144.06C138.814 144.06 137.344 145.11 137.344 146.79C137.344 147.714 137.778 148.414 138.562 148.848C137.554 149.31 136.994 150.108 136.994 151.186C136.994 153.006 138.548 154.14 140.984 154.14C143.42 154.14 145.002 153.006 145.002 151.186C145.002 150.108 144.428 149.31 143.406 148.848ZM140.984 145.488C142.104 145.488 142.86 145.992 142.86 146.874C142.86 147.714 142.146 148.246 140.984 148.246C139.836 148.246 139.136 147.714 139.136 146.874C139.136 145.992 139.864 145.488 140.984 145.488ZM140.984 152.712C139.64 152.712 138.828 152.124 138.828 151.13C138.828 150.164 139.64 149.562 140.984 149.562C142.328 149.562 143.168 150.164 143.168 151.13C143.168 152.124 142.328 152.712 140.984 152.712Z" fill="#51A3D3"/>
<path d="M181.232 144.2V145.726H183.304V154H185.124V144.2H181.232ZM189.826 152.46L192.444 149.968C193.802 148.694 194.068 147.826 194.068 146.874C194.068 145.138 192.696 144.06 190.568 144.06C188.958 144.06 187.6 144.662 186.844 145.684L188.118 146.664C188.664 145.964 189.462 145.642 190.414 145.642C191.618 145.642 192.234 146.16 192.234 147.056C192.234 147.602 192.066 148.176 191.114 149.086L187.222 152.782V154H194.446V152.46H189.826Z" fill="#51A3D3"/>
<rect x="223" y="138" width="24" height="22" rx="8" fill="#0074A2"/>
<path d="M228.417 144.2V145.726H230.489V154H232.309V144.2H228.417ZM238.985 147.952C237.893 147.952 236.955 148.288 236.367 148.974V148.96C236.367 146.734 237.529 145.586 239.377 145.586C240.063 145.586 240.707 145.712 241.239 146.062L241.911 144.69C241.253 144.27 240.315 144.06 239.335 144.06C236.493 144.06 234.533 145.908 234.533 149.268C234.533 152.418 236.101 154.14 238.775 154.14C240.777 154.14 242.359 152.908 242.359 150.962C242.359 149.128 240.917 147.952 238.985 147.952ZM238.677 152.712C237.375 152.712 236.647 151.984 236.647 151.06C236.647 150.094 237.459 149.38 238.635 149.38C239.825 149.38 240.595 150.024 240.595 151.046C240.595 152.068 239.811 152.712 238.677 152.712Z" fill="white"/>
<rect x="317" y="138" width="24" height="22" rx="8" fill="#F4435A"/>
<path d="M276.19 152.46L278.808 149.968C280.166 148.694 280.432 147.826 280.432 146.874C280.432 145.138 279.06 144.06 276.932 144.06C275.322 144.06 273.964 144.662 273.208 145.684L274.482 146.664C275.028 145.964 275.826 145.642 276.778 145.642C277.982 145.642 278.598 146.16 278.598 147.056C278.598 147.602 278.43 148.176 277.478 149.086L273.586 152.782V154H280.81V152.46H276.19ZM286.188 154.14C288.526 154.14 290.29 152.32 290.29 149.1C290.29 145.88 288.526 144.06 286.188 144.06C283.864 144.06 282.1 145.88 282.1 149.1C282.1 152.32 283.864 154.14 286.188 154.14ZM286.188 152.558C284.858 152.558 283.934 151.466 283.934 149.1C283.934 146.734 284.858 145.642 286.188 145.642C287.532 145.642 288.456 146.734 288.456 149.1C288.456 151.466 287.532 152.558 286.188 152.558Z" fill="#51A3D3"/>
<path d="M323.094 152.46L325.712 149.968C327.07 148.694 327.336 147.826 327.336 146.874C327.336 145.138 325.964 144.06 323.836 144.06C322.226 144.06 320.868 144.662 320.112 145.684L321.386 146.664C321.932 145.964 322.73 145.642 323.682 145.642C324.886 145.642 325.502 146.16 325.502 147.056C325.502 147.602 325.334 148.176 324.382 149.086L320.49 152.782V154H327.714V152.46H323.094ZM337.575 150.234H335.839V148.26H334.131V150.234H330.925L335.475 144.2H333.529L328.699 150.514V151.774H334.075V154H335.839V151.774H337.575V150.234Z" fill="white"/>
<g clip-path="url(#clip1_1452_76418)">
<mask id="mask0_1452_76418" style="mask-type:alpha" maskUnits="userSpaceOnUse" x="0" y="32" width="235" height="100">
<rect y="32" width="235" height="100" fill="#51A3D3"/>
</mask>
<g mask="url(#mask0_1452_76418)">
<path d="M351.211 62.4502C338.953 62.4502 332.831 70.8206 326.913 78.9152C321.048 86.9356 315.508 94.5142 304.322 94.5142C293.135 94.5142 287.595 86.9392 281.731 78.9152C275.813 70.8206 269.691 62.4502 257.432 62.4502C245.174 62.4502 239.055 70.8206 233.134 78.9152C227.27 86.9356 221.729 94.5142 210.543 94.5142C199.357 94.5142 193.817 86.9392 187.952 78.9152C182.034 70.8206 175.912 62.4502 163.654 62.4502C151.395 62.4502 145.277 70.8206 139.356 78.9152C133.491 86.9356 127.951 94.5142 116.765 94.5142C105.578 94.5142 100.042 86.9392 94.1768 78.9152C88.2592 70.8206 82.1371 62.4502 69.8787 62.4502C57.6204 62.4502 51.5018 70.8206 45.5806 78.9152C39.7265 86.9392 34.1863 94.5142 23 94.5142V96.6351C35.2584 96.6351 41.377 88.2647 47.2981 80.1701C53.1628 72.1496 58.703 64.5711 69.8893 64.5711C81.0756 64.5711 86.6159 72.1461 92.4805 80.1701C98.3981 88.2647 104.52 96.6351 116.775 96.6351C129.03 96.6351 135.152 88.2647 141.073 80.1701C146.938 72.1496 152.478 64.5711 163.664 64.5711C174.851 64.5711 180.391 72.1461 186.256 80.1701C192.173 88.2647 198.295 96.6351 210.554 96.6351C222.812 96.6351 228.931 88.2647 234.852 80.1701C240.717 72.1496 246.257 64.5711 257.443 64.5711C268.629 64.5711 274.17 72.1461 280.034 80.1701C285.952 88.2647 292.074 96.6351 304.332 96.6351C316.591 96.6351 322.713 88.2647 328.63 80.1701C334.495 72.1496 340.035 64.5711 351.222 64.5711V62.4502H351.211Z" fill="#51A3D3"/>
<path d="M70.2111 62.4502C57.9527 62.4502 51.8306 70.8206 45.913 78.9152C40.0483 86.9356 34.5081 94.5142 23.3218 94.5142C12.1355 94.5142 6.59525 86.9392 0.73056 78.9152C-5.18703 70.8206 -11.3091 62.4502 -23.5675 62.4502C-35.8259 62.4502 -41.9445 70.8206 -47.8656 78.9152C-53.7303 86.9356 -59.2706 94.5142 -70.4568 94.5142C-81.6431 94.5142 -87.1834 86.9392 -93.0481 78.9152C-98.9657 70.8206 -105.088 62.4502 -117.346 62.4502C-129.605 62.4502 -135.723 70.8206 -141.644 78.9152C-147.509 86.9356 -153.049 94.5142 -164.235 94.5142C-175.422 94.5142 -180.958 86.9392 -186.823 78.9152C-192.741 70.8206 -198.863 62.4502 -211.121 62.4502C-223.38 62.4502 -229.498 70.8206 -235.419 78.9152C-241.273 86.9392 -246.814 94.5142 -258 94.5142V96.6351C-245.742 96.6351 -239.623 88.2647 -233.702 80.1701C-227.837 72.1496 -222.297 64.5711 -211.111 64.5711C-199.924 64.5711 -194.384 72.1461 -188.519 80.1701C-182.602 88.2647 -176.48 96.6351 -164.225 96.6351C-151.97 96.6351 -145.848 88.2647 -139.927 80.1701C-134.062 72.1496 -128.522 64.5711 -117.336 64.5711C-106.149 64.5711 -100.609 72.1461 -94.7444 80.1701C-88.8268 88.2647 -82.7046 96.6351 -70.4463 96.6351C-58.1879 96.6351 -52.0693 88.2647 -46.1482 80.1701C-40.2835 72.1496 -34.7432 64.5711 -23.5569 64.5711C-12.3707 64.5711 -6.83041 72.1461 -0.965729 80.1701C4.95187 88.2647 11.074 96.6351 23.3324 96.6351C35.5907 96.6351 41.7129 88.2647 47.6305 80.1701C53.4952 72.1496 59.0354 64.5711 70.2217 64.5711V62.4502H70.2111Z" fill="#51A3D3"/>
</g>
</g>
<mask id="path-37-inside-1_1452_76418" fill="white">
<path fill-rule="evenodd" clip-rule="evenodd" d="M254 50C262.284 50 269 43.2843 269 35C269 26.7157 262.284 20 254 20L214 20C205.716 20 199 26.7157 199 35C199 43.2843 205.716 50 214 50L230.536 50L234 56L237.464 50L254 50Z"/>
</mask>
<path fill-rule="evenodd" clip-rule="evenodd" d="M254 50C262.284 50 269 43.2843 269 35C269 26.7157 262.284 20 254 20L214 20C205.716 20 199 26.7157 199 35C199 43.2843 205.716 50 214 50L230.536 50L234 56L237.464 50L254 50Z" fill="#0074A2" fill-opacity="0.8"/>
<path d="M254 50V49V50ZM254 20V21V20ZM214 20V19V20ZM199 35H198H199ZM214 50V49V50ZM230.536 50L231.402 49.5L231.113 49H230.536V50ZM234 56L233.134 56.5L234 58L234.866 56.5L234 56ZM237.464 50V49H236.887L236.598 49.5L237.464 50ZM268 35C268 42.732 261.732 49 254 49V51C262.837 51 270 43.8366 270 35H268ZM254 21C261.732 21 268 27.268 268 35H270C270 26.1635 262.837 19 254 19V21ZM214 21L254 21V19L214 19V21ZM200 35C200 27.268 206.268 21 214 21V19C205.163 19 198 26.1634 198 35H200ZM214 49C206.268 49 200 42.732 200 35H198C198 43.8366 205.163 51 214 51V49ZM230.536 49L214 49V51L230.536 51V49ZM234.866 55.5L231.402 49.5L229.67 50.5L233.134 56.5L234.866 55.5ZM236.598 49.5L233.134 55.5L234.866 56.5L238.33 50.5L236.598 49.5ZM254 49L237.464 49V51L254 51V49Z" fill="#51A3D3" mask="url(#path-37-inside-1_1452_76418)"/>
<path d="M212.41 29.8V31.544H214.778V41H216.858V29.8H212.41ZM224.488 34.088C223.24 34.088 222.168 34.472 221.496 35.256V35.24C221.496 32.696 222.824 31.384 224.936 31.384C225.72 31.384 226.456 31.528 227.064 31.928L227.832 30.36C227.08 29.88 226.008 29.64 224.888 29.64C221.64 29.64 219.4 31.752 219.4 35.592C219.4 39.192 221.192 41.16 224.248 41.16C226.536 41.16 228.344 39.752 228.344 37.528C228.344 35.432 226.696 34.088 224.488 34.088ZM224.136 39.528C222.648 39.528 221.816 38.696 221.816 37.64C221.816 36.536 222.744 35.72 224.088 35.72C225.448 35.72 226.328 36.456 226.328 37.624C226.328 38.792 225.432 39.528 224.136 39.528ZM228.723 42.6H230.515L235.795 27.528H234.003L228.723 42.6ZM238.997 39.24L241.989 36.392C243.541 34.936 243.845 33.944 243.845 32.856C243.845 30.872 242.277 29.64 239.845 29.64C238.005 29.64 236.453 30.328 235.589 31.496L237.045 32.616C237.669 31.816 238.581 31.448 239.669 31.448C241.045 31.448 241.749 32.04 241.749 33.064C241.749 33.688 241.557 34.344 240.469 35.384L236.021 39.608V41H244.277V39.24H238.997ZM255.547 36.696H253.563V34.44H251.611V36.696H247.947L253.147 29.8H250.923L245.403 37.016V38.456H251.547V41H253.563V38.456H255.547V36.696Z" fill="white"/>
<circle cx="234" cy="82" r="24.5" fill="#022B42" fill-opacity="0.8" stroke="#51A3D3"/>
<circle cx="234" cy="82" r="28.5" stroke="#51A3D3" stroke-opacity="0.4"/>
<mask id="path-42-inside-2_1452_76418" fill="white">
<path fill-rule="evenodd" clip-rule="evenodd" d="M234.002 86.7004C238.724 86.7004 242.552 85.4436 242.552 81.1588C242.552 80.1521 242.34 79.1902 241.956 78.3076C246.85 79.7766 250.152 82.5594 250.152 85.7504C250.152 90.4724 242.921 94.3004 234.002 94.3004C225.082 94.3004 217.852 90.4724 217.852 85.7504C217.852 82.5594 221.154 79.7766 226.047 78.3076C225.663 79.1902 225.452 80.1521 225.452 81.1588C225.452 85.4436 229.28 86.7004 234.002 86.7004Z"/>
</mask>
<path d="M241.956 78.3076L242.531 76.3921L238.399 75.1519L240.122 79.1065L241.956 78.3076ZM226.047 78.3076L227.881 79.1065L229.604 75.1519L225.472 76.3921L226.047 78.3076ZM240.552 81.1588C240.552 81.9232 240.384 82.4379 240.165 82.8026C239.945 83.1694 239.604 83.4983 239.085 83.7834C237.982 84.3888 236.253 84.7004 234.002 84.7004V88.7004C236.472 88.7004 239.018 88.3836 241.01 87.2894C242.038 86.7247 242.949 85.9359 243.594 84.862C244.241 83.7859 244.552 82.5367 244.552 81.1588H240.552ZM240.122 79.1065C240.4 79.745 240.552 80.4355 240.552 81.1588H244.552C244.552 79.8687 244.28 78.6354 243.789 77.5088L240.122 79.1065ZM241.381 80.2232C243.635 80.8999 245.399 81.8454 246.56 82.8777C247.717 83.9073 248.152 84.8972 248.152 85.7504H252.152C252.152 83.4126 250.935 81.4156 249.218 79.8888C247.504 78.3648 245.17 77.1843 242.531 76.3921L241.381 80.2232ZM248.152 85.7504C248.152 87.0056 247.156 88.615 244.486 90.0286C241.905 91.3948 238.202 92.3004 234.002 92.3004V96.3004C238.721 96.3004 243.093 95.292 246.357 93.5638C249.532 91.8829 252.152 89.2173 252.152 85.7504H248.152ZM234.002 92.3004C229.801 92.3004 226.098 91.3948 223.518 90.0286C220.847 88.615 219.852 87.0056 219.852 85.7504H215.852C215.852 89.2173 218.471 91.8829 221.646 93.5638C224.911 95.292 229.282 96.3004 234.002 96.3004V92.3004ZM219.852 85.7504C219.852 84.8972 220.286 83.9073 221.443 82.8777C222.604 81.8454 224.368 80.8999 226.622 80.2232L225.472 76.3921C222.833 77.1843 220.499 78.3648 218.785 79.8888C217.068 81.4156 215.852 83.4126 215.852 85.7504H219.852ZM227.452 81.1588C227.452 80.4355 227.603 79.745 227.881 79.1065L224.214 77.5088C223.723 78.6354 223.452 79.8687 223.452 81.1588H227.452ZM234.002 84.7004C231.75 84.7004 230.021 84.3888 228.919 83.7834C228.399 83.4983 228.058 83.1694 227.838 82.8026C227.619 82.4379 227.452 81.9232 227.452 81.1588H223.452C223.452 82.5367 223.763 83.7859 224.409 84.862C225.054 85.9359 225.965 86.7247 226.993 87.2894C228.985 88.3836 231.531 88.7004 234.002 88.7004V84.7004Z" fill="#FF7987" mask="url(#path-42-inside-2_1452_76418)"/>
<path d="M234.003 87.7004C236.419 87.7004 238.761 87.3849 240.53 86.4129C241.431 85.9181 242.2 85.2443 242.738 84.3471C243.278 83.4489 243.553 82.3833 243.553 81.1587C243.553 76.2324 239.184 72.4004 234.003 72.4004C228.822 72.4004 224.453 76.2324 224.453 81.1587C224.453 82.3833 224.728 83.4489 225.268 84.3471C225.807 85.2443 226.575 85.9181 227.476 86.4129C229.246 87.3849 231.587 87.7004 234.003 87.7004Z" stroke="#FF7987" stroke-width="2"/>
<path fill-rule="evenodd" clip-rule="evenodd" d="M247.689 87.752C245.969 91.3144 240.492 93.9189 234 93.9189C227.138 93.9189 221.409 91.0091 220.054 87.1338C219.855 87.8275 219.75 88.5722 219.75 89.3678C219.75 93.0947 226.13 96.2005 234 96.2005C241.87 96.2005 248.25 93.7159 248.25 89.3678C248.25 88.9472 248.054 88.3881 247.689 87.752Z" fill="#FF7987"/>
<path d="M236.22 95.7256C236.22 96.322 235.57 97.1006 234.37 97.1006C233.169 97.1006 232.52 96.322 232.52 95.7256C232.52 95.1292 233.169 94.3506 234.37 94.3506C235.57 94.3506 236.22 95.1292 236.22 95.7256Z" fill="#FF7987" stroke="#FF7987" stroke-width="2"/>
<path d="M227.642 95.0965C227.538 95.6838 226.763 96.3377 225.581 96.1293C224.399 95.9209 223.895 95.0413 223.998 94.454C224.102 93.8666 224.877 93.2127 226.059 93.4211C227.241 93.6295 227.746 94.5091 227.642 95.0965Z" fill="#FF7987" stroke="#FF7987" stroke-width="2"/>
<path d="M244.162 94.4544C244.266 95.0418 243.761 95.9214 242.579 96.1298C241.397 96.3382 240.622 95.6843 240.518 95.0969C240.415 94.5096 240.919 93.63 242.101 93.4216C243.283 93.2131 244.059 93.8671 244.162 94.4544Z" fill="#FF7987" stroke="#FF7987" stroke-width="2"/>
<path d="M235.902 76.25C236.536 76.3652 238.942 77.2864 239.702 80.05" stroke="#FF7987" stroke-width="2" stroke-linecap="round"/>
<path d="M234 72.4504V68.6504" stroke="#FF7987" stroke-width="2" stroke-linecap="round"/>
<path d="M235.852 66.7504C235.852 67.7721 235.024 68.6004 234.002 68.6004C232.981 68.6004 232.152 67.7721 232.152 66.7504C232.152 65.7287 232.981 64.9004 234.002 64.9004C235.024 64.9004 235.852 65.7287 235.852 66.7504Z" stroke="#FF7987" stroke-width="2"/>
</g>
<defs>
<clipPath id="clip0_1452_76418">
<rect width="375" height="160" fill="white"/>
</clipPath>
<clipPath id="clip1_1452_76418">
<rect width="375" height="58" fill="white" transform="translate(0 51)"/>
</clipPath>
</defs>
</svg>
