<svg width="375" height="160" viewBox="0 0 375 160" fill="none" xmlns="http://www.w3.org/2000/svg">
<g clip-path="url(#clip0_1452_64514)">
<rect x="-0.5" y="32.5" width="376" height="99" fill="#004973" fill-opacity="0.5" stroke="#0074A2"/>
<line x1="93.5" y1="32" x2="93.5" y2="132" stroke="#0074A2"/>
<line x1="140.5" y1="32" x2="140.5" y2="132" stroke="#0074A2"/>
<line x1="46.5" y1="32" x2="46.5" y2="132" stroke="#0074A2"/>
<line x1="187.5" y1="32" x2="187.5" y2="132" stroke="#0074A2"/>
<line x1="234.5" y1="32" x2="234.5" y2="132" stroke="#0074A2"/>
<line x1="281.5" y1="32" x2="281.5" y2="132" stroke="#0074A2"/>
<line x1="328.5" y1="32" x2="328.5" y2="132" stroke="#0074A2"/>
<circle cx="33.5" cy="52.5" r="1.5" fill="#51A3D3" fill-opacity="0.5"/>
<circle cx="9.5" cy="103.5" r="1.5" fill="#51A3D3" fill-opacity="0.3"/>
<circle cx="75.5" cy="102.5" r="1.5" fill="#51A3D3" fill-opacity="0.5"/>
<circle cx="104.5" cy="43.5" r="1.5" fill="#51A3D3" fill-opacity="0.3"/>
<circle cx="35.5" cy="122.5" r="1.5" fill="#51A3D3" fill-opacity="0.7"/>
<circle cx="126.5" cy="119.5" r="1.5" fill="#51A3D3" fill-opacity="0.3"/>
<circle cx="149.5" cy="56.5" r="1.5" fill="#51A3D3" fill-opacity="0.7"/>
<circle cx="172.5" cy="96.5" r="1.5" fill="#51A3D3" fill-opacity="0.25"/>
<circle cx="206.5" cy="63.5" r="1.5" fill="#51A3D3" fill-opacity="0.5"/>
<circle cx="242.5" cy="41.5" r="1.5" fill="#51A3D3" fill-opacity="0.3"/>
<circle cx="256.5" cy="96.5" r="1.5" fill="#51A3D3" fill-opacity="0.5"/>
<circle cx="217.5" cy="120.5" r="1.5" fill="#51A3D3" fill-opacity="0.5"/>
<circle cx="337.5" cy="43.5" r="1.5" fill="#51A3D3" fill-opacity="0.5"/>
<circle cx="295.5" cy="65.5" r="1.5" fill="#51A3D3" fill-opacity="0.5"/>
<circle cx="315.5" cy="116.5" r="1.5" fill="#51A3D3" fill-opacity="0.7"/>
<path d="M358 93.5C358 94.3284 357.328 95 356.5 95C355.672 95 355 94.3284 355 93.5C355 92.6716 355.672 92 356.5 92C357.328 92 358 92.6716 358 93.5Z" fill="#51A3D3" fill-opacity="0.5"/>
<path d="M97.352 150.234H95.616V148.26H93.908V150.234H90.702L95.252 144.2H93.306L88.476 150.514V151.774H93.852V154H95.616V151.774H97.352V150.234Z" fill="#51A3D3"/>
<path d="M46.704 154.14C49.042 154.14 50.806 152.32 50.806 149.1C50.806 145.88 49.042 144.06 46.704 144.06C44.38 144.06 42.616 145.88 42.616 149.1C42.616 152.32 44.38 154.14 46.704 154.14ZM46.704 152.558C45.374 152.558 44.45 151.466 44.45 149.1C44.45 146.734 45.374 145.642 46.704 145.642C48.048 145.642 48.972 146.734 48.972 149.1C48.972 151.466 48.048 152.558 46.704 152.558Z" fill="#51A3D3"/>
<path d="M143.406 148.848C144.204 148.414 144.652 147.714 144.652 146.79C144.652 145.11 143.168 144.06 140.984 144.06C138.814 144.06 137.344 145.11 137.344 146.79C137.344 147.714 137.778 148.414 138.562 148.848C137.554 149.31 136.994 150.108 136.994 151.186C136.994 153.006 138.548 154.14 140.984 154.14C143.42 154.14 145.002 153.006 145.002 151.186C145.002 150.108 144.428 149.31 143.406 148.848ZM140.984 145.488C142.104 145.488 142.86 145.992 142.86 146.874C142.86 147.714 142.146 148.246 140.984 148.246C139.836 148.246 139.136 147.714 139.136 146.874C139.136 145.992 139.864 145.488 140.984 145.488ZM140.984 152.712C139.64 152.712 138.828 152.124 138.828 151.13C138.828 150.164 139.64 149.562 140.984 149.562C142.328 149.562 143.168 150.164 143.168 151.13C143.168 152.124 142.328 152.712 140.984 152.712Z" fill="#51A3D3"/>
<path d="M181.232 144.2V145.726H183.304V154H185.124V144.2H181.232ZM189.826 152.46L192.444 149.968C193.802 148.694 194.068 147.826 194.068 146.874C194.068 145.138 192.696 144.06 190.568 144.06C188.958 144.06 187.6 144.662 186.844 145.684L188.118 146.664C188.664 145.964 189.462 145.642 190.414 145.642C191.618 145.642 192.234 146.16 192.234 147.056C192.234 147.602 192.066 148.176 191.114 149.086L187.222 152.782V154H194.446V152.46H189.826Z" fill="#51A3D3"/>
<rect x="223" y="138" width="24" height="22" rx="8" fill="#F4435A"/>
<path d="M228.417 144.2V145.726H230.489V154H232.309V144.2H228.417ZM238.985 147.952C237.893 147.952 236.955 148.288 236.367 148.974V148.96C236.367 146.734 237.529 145.586 239.377 145.586C240.063 145.586 240.707 145.712 241.239 146.062L241.911 144.69C241.253 144.27 240.315 144.06 239.335 144.06C236.493 144.06 234.533 145.908 234.533 149.268C234.533 152.418 236.101 154.14 238.775 154.14C240.777 154.14 242.359 152.908 242.359 150.962C242.359 149.128 240.917 147.952 238.985 147.952ZM238.677 152.712C237.375 152.712 236.647 151.984 236.647 151.06C236.647 150.094 237.459 149.38 238.635 149.38C239.825 149.38 240.595 150.024 240.595 151.046C240.595 152.068 239.811 152.712 238.677 152.712Z" fill="white"/>
<rect x="317" y="138" width="24" height="22" rx="8" fill="#F4435A"/>
<path d="M276.19 152.46L278.808 149.968C280.166 148.694 280.432 147.826 280.432 146.874C280.432 145.138 279.06 144.06 276.932 144.06C275.322 144.06 273.964 144.662 273.208 145.684L274.482 146.664C275.028 145.964 275.826 145.642 276.778 145.642C277.982 145.642 278.598 146.16 278.598 147.056C278.598 147.602 278.43 148.176 277.478 149.086L273.586 152.782V154H280.81V152.46H276.19ZM286.188 154.14C288.526 154.14 290.29 152.32 290.29 149.1C290.29 145.88 288.526 144.06 286.188 144.06C283.864 144.06 282.1 145.88 282.1 149.1C282.1 152.32 283.864 154.14 286.188 154.14ZM286.188 152.558C284.858 152.558 283.934 151.466 283.934 149.1C283.934 146.734 284.858 145.642 286.188 145.642C287.532 145.642 288.456 146.734 288.456 149.1C288.456 151.466 287.532 152.558 286.188 152.558Z" fill="#51A3D3"/>
<path d="M323.094 152.46L325.712 149.968C327.07 148.694 327.336 147.826 327.336 146.874C327.336 145.138 325.964 144.06 323.836 144.06C322.226 144.06 320.868 144.662 320.112 145.684L321.386 146.664C321.932 145.964 322.73 145.642 323.682 145.642C324.886 145.642 325.502 146.16 325.502 147.056C325.502 147.602 325.334 148.176 324.382 149.086L320.49 152.782V154H327.714V152.46H323.094ZM337.575 150.234H335.839V148.26H334.131V150.234H330.925L335.475 144.2H333.529L328.699 150.514V151.774H334.075V154H335.839V151.774H337.575V150.234Z" fill="white"/>
<g clip-path="url(#clip1_1452_64514)">
<mask id="mask0_1452_64514" style="mask-type:alpha" maskUnits="userSpaceOnUse" x="0" y="32" width="176" height="100">
<rect y="32" width="176" height="100" fill="#51A3D3"/>
</mask>
<g mask="url(#mask0_1452_64514)">
<path d="M351.211 62.4502C338.953 62.4502 332.831 70.8206 326.913 78.9152C321.048 86.9356 315.508 94.5142 304.322 94.5142C293.135 94.5142 287.595 86.9392 281.731 78.9152C275.813 70.8206 269.691 62.4502 257.432 62.4502C245.174 62.4502 239.055 70.8206 233.134 78.9152C227.27 86.9356 221.729 94.5142 210.543 94.5142C199.357 94.5142 193.817 86.9392 187.952 78.9152C182.034 70.8206 175.912 62.4502 163.654 62.4502C151.395 62.4502 145.277 70.8206 139.356 78.9152C133.491 86.9356 127.951 94.5142 116.765 94.5142C105.578 94.5142 100.042 86.9392 94.1768 78.9152C88.2592 70.8206 82.1371 62.4502 69.8787 62.4502C57.6204 62.4502 51.5018 70.8206 45.5806 78.9152C39.7265 86.9392 34.1863 94.5142 23 94.5142V96.6351C35.2584 96.6351 41.377 88.2647 47.2981 80.1701C53.1628 72.1496 58.703 64.5711 69.8893 64.5711C81.0756 64.5711 86.6159 72.1461 92.4805 80.1701C98.3981 88.2647 104.52 96.6351 116.775 96.6351C129.03 96.6351 135.152 88.2647 141.073 80.1701C146.938 72.1496 152.478 64.5711 163.664 64.5711C174.851 64.5711 180.391 72.1461 186.256 80.1701C192.173 88.2647 198.295 96.6351 210.554 96.6351C222.812 96.6351 228.931 88.2647 234.852 80.1701C240.717 72.1496 246.257 64.5711 257.443 64.5711C268.629 64.5711 274.17 72.1461 280.034 80.1701C285.952 88.2647 292.074 96.6351 304.332 96.6351C316.591 96.6351 322.713 88.2647 328.63 80.1701C334.495 72.1496 340.035 64.5711 351.222 64.5711V62.4502H351.211Z" fill="#51A3D3"/>
<path d="M70.2111 62.4502C57.9527 62.4502 51.8306 70.8206 45.913 78.9152C40.0483 86.9356 34.5081 94.5142 23.3218 94.5142C12.1355 94.5142 6.59525 86.9392 0.73056 78.9152C-5.18703 70.8206 -11.3091 62.4502 -23.5675 62.4502C-35.8259 62.4502 -41.9445 70.8206 -47.8656 78.9152C-53.7303 86.9356 -59.2706 94.5142 -70.4568 94.5142C-81.6431 94.5142 -87.1834 86.9392 -93.0481 78.9152C-98.9657 70.8206 -105.088 62.4502 -117.346 62.4502C-129.605 62.4502 -135.723 70.8206 -141.644 78.9152C-147.509 86.9356 -153.049 94.5142 -164.235 94.5142C-175.422 94.5142 -180.958 86.9392 -186.823 78.9152C-192.741 70.8206 -198.863 62.4502 -211.121 62.4502C-223.38 62.4502 -229.498 70.8206 -235.419 78.9152C-241.273 86.9392 -246.814 94.5142 -258 94.5142V96.6351C-245.742 96.6351 -239.623 88.2647 -233.702 80.1701C-227.837 72.1496 -222.297 64.5711 -211.111 64.5711C-199.924 64.5711 -194.384 72.1461 -188.519 80.1701C-182.602 88.2647 -176.48 96.6351 -164.225 96.6351C-151.97 96.6351 -145.848 88.2647 -139.927 80.1701C-134.062 72.1496 -128.522 64.5711 -117.336 64.5711C-106.149 64.5711 -100.609 72.1461 -94.7444 80.1701C-88.8268 88.2647 -82.7046 96.6351 -70.4463 96.6351C-58.1879 96.6351 -52.0693 88.2647 -46.1482 80.1701C-40.2835 72.1496 -34.7432 64.5711 -23.5569 64.5711C-12.3707 64.5711 -6.83041 72.1461 -0.965729 80.1701C4.95187 88.2647 11.074 96.6351 23.3324 96.6351C35.5907 96.6351 41.7129 88.2647 47.6305 80.1701C53.4952 72.1496 59.0354 64.5711 70.2217 64.5711V62.4502H70.2111Z" fill="#51A3D3"/>
</g>
</g>
<mask id="path-37-inside-1_1452_64514" fill="white">
<path fill-rule="evenodd" clip-rule="evenodd" d="M196 40C204.284 40 211 33.2843 211 25C211 16.7157 204.284 10 196 10L156 10C147.716 10 141 16.7157 141 25C141 33.2843 147.716 40 156 40L172.536 40L176 46L179.464 40L196 40Z"/>
</mask>
<path fill-rule="evenodd" clip-rule="evenodd" d="M196 40C204.284 40 211 33.2843 211 25C211 16.7157 204.284 10 196 10L156 10C147.716 10 141 16.7157 141 25C141 33.2843 147.716 40 156 40L172.536 40L176 46L179.464 40L196 40Z" fill="#0074A2" fill-opacity="0.8"/>
<path d="M196 40V39V40ZM196 10V11V10ZM156 10V9V10ZM141 25H140H141ZM156 40V39V40ZM172.536 40L173.402 39.5L173.113 39H172.536V40ZM176 46L175.134 46.5L176 48L176.866 46.5L176 46ZM179.464 40V39H178.887L178.598 39.5L179.464 40ZM210 25C210 32.732 203.732 39 196 39V41C204.837 41 212 33.8366 212 25H210ZM196 11C203.732 11 210 17.268 210 25H212C212 16.1635 204.837 9.00001 196 9V11ZM156 11L196 11V9L156 9V11ZM142 25C142 17.268 148.268 11 156 11V9C147.163 9 140 16.1634 140 25H142ZM156 39C148.268 39 142 32.732 142 25H140C140 33.8366 147.163 41 156 41V39ZM172.536 39L156 39V41L172.536 41V39ZM176.866 45.5L173.402 39.5L171.67 40.5L175.134 46.5L176.866 45.5ZM178.598 39.5L175.134 45.5L176.866 46.5L180.33 40.5L178.598 39.5ZM196 39L179.464 39V41L196 41V39Z" fill="#51A3D3" mask="url(#path-37-inside-1_1452_64514)"/>
<path d="M154.586 19.8V21.544H156.954V31H159.034V19.8H154.586ZM161 19.8V21.544H163.368V31H165.448V19.8H161ZM171.547 32.6H173.339L178.619 17.528H176.827L171.547 32.6ZM181.821 29.24L184.813 26.392C186.365 24.936 186.669 23.944 186.669 22.856C186.669 20.872 185.101 19.64 182.669 19.64C180.829 19.64 179.277 20.328 178.413 21.496L179.869 22.616C180.493 21.816 181.405 21.448 182.493 21.448C183.869 21.448 184.573 22.04 184.573 23.064C184.573 23.688 184.381 24.344 183.293 25.384L178.845 29.608V31H187.101V29.24H181.821ZM198.371 26.696H196.387V24.44H194.435V26.696H190.771L195.971 19.8H193.747L188.227 27.016V28.456H194.371V31H196.387V28.456H198.371V26.696Z" fill="white"/>
<circle cx="176" cy="72" r="24.5" fill="#022B42" fill-opacity="0.8" stroke="#51A3D3"/>
<circle cx="176" cy="72" r="28.5" stroke="#51A3D3" stroke-opacity="0.4"/>
<mask id="path-42-inside-2_1452_64514" fill="white">
<path fill-rule="evenodd" clip-rule="evenodd" d="M176.002 76.7004C180.724 76.7004 184.552 75.4436 184.552 71.1588C184.552 70.1521 184.34 69.1902 183.956 68.3076C188.85 69.7766 192.152 72.5594 192.152 75.7504C192.152 80.4724 184.921 84.3004 176.002 84.3004C167.082 84.3004 159.852 80.4724 159.852 75.7504C159.852 72.5594 163.154 69.7766 168.047 68.3076C167.663 69.1902 167.452 70.1521 167.452 71.1588C167.452 75.4436 171.28 76.7004 176.002 76.7004Z"/>
</mask>
<path d="M183.956 68.3076L184.531 66.3921L180.399 65.1519L182.122 69.1065L183.956 68.3076ZM168.047 68.3076L169.881 69.1065L171.604 65.1519L167.472 66.3921L168.047 68.3076ZM182.552 71.1588C182.552 71.9232 182.384 72.4379 182.165 72.8026C181.945 73.1694 181.604 73.4983 181.085 73.7834C179.982 74.3888 178.253 74.7004 176.002 74.7004V78.7004C178.472 78.7004 181.018 78.3836 183.01 77.2894C184.038 76.7247 184.949 75.9359 185.594 74.862C186.241 73.7859 186.552 72.5367 186.552 71.1588H182.552ZM182.122 69.1065C182.4 69.745 182.552 70.4355 182.552 71.1588H186.552C186.552 69.8687 186.28 68.6354 185.789 67.5088L182.122 69.1065ZM183.381 70.2232C185.635 70.8999 187.399 71.8454 188.56 72.8777C189.717 73.9073 190.152 74.8972 190.152 75.7504H194.152C194.152 73.4126 192.935 71.4156 191.218 69.8888C189.504 68.3648 187.17 67.1843 184.531 66.3921L183.381 70.2232ZM190.152 75.7504C190.152 77.0056 189.156 78.615 186.486 80.0286C183.905 81.3948 180.202 82.3004 176.002 82.3004V86.3004C180.721 86.3004 185.093 85.292 188.357 83.5638C191.532 81.8829 194.152 79.2173 194.152 75.7504H190.152ZM176.002 82.3004C171.801 82.3004 168.098 81.3948 165.518 80.0286C162.847 78.615 161.852 77.0056 161.852 75.7504H157.852C157.852 79.2173 160.471 81.8829 163.646 83.5638C166.911 85.292 171.282 86.3004 176.002 86.3004V82.3004ZM161.852 75.7504C161.852 74.8972 162.286 73.9073 163.443 72.8777C164.604 71.8454 166.368 70.8999 168.622 70.2232L167.472 66.3921C164.833 67.1843 162.499 68.3648 160.785 69.8888C159.068 71.4156 157.852 73.4126 157.852 75.7504H161.852ZM169.452 71.1588C169.452 70.4355 169.603 69.745 169.881 69.1065L166.214 67.5088C165.723 68.6354 165.452 69.8687 165.452 71.1588H169.452ZM176.002 74.7004C173.75 74.7004 172.021 74.3888 170.919 73.7834C170.399 73.4983 170.058 73.1694 169.838 72.8026C169.619 72.4379 169.452 71.9232 169.452 71.1588H165.452C165.452 72.5367 165.763 73.7859 166.409 74.862C167.054 75.9359 167.965 76.7247 168.993 77.2894C170.985 78.3836 173.531 78.7004 176.002 78.7004V74.7004Z" fill="#FF7987" mask="url(#path-42-inside-2_1452_64514)"/>
<path d="M176.003 77.7004C178.419 77.7004 180.761 77.3849 182.53 76.4129C183.431 75.9181 184.2 75.2443 184.738 74.3471C185.278 73.4489 185.553 72.3833 185.553 71.1587C185.553 66.2324 181.184 62.4004 176.003 62.4004C170.822 62.4004 166.453 66.2324 166.453 71.1587C166.453 72.3833 166.728 73.4489 167.268 74.3471C167.807 75.2443 168.575 75.9181 169.476 76.4129C171.246 77.3849 173.587 77.7004 176.003 77.7004Z" stroke="#FF7987" stroke-width="2"/>
<path fill-rule="evenodd" clip-rule="evenodd" d="M189.689 77.752C187.969 81.3144 182.492 83.9189 176 83.9189C169.138 83.9189 163.409 81.0091 162.054 77.1338C161.855 77.8275 161.75 78.5722 161.75 79.3678C161.75 83.0947 168.13 86.2005 176 86.2005C183.87 86.2005 190.25 83.7159 190.25 79.3678C190.25 78.9472 190.054 78.3881 189.689 77.752Z" fill="#FF7987"/>
<path d="M178.22 85.7256C178.22 86.322 177.57 87.1006 176.37 87.1006C175.169 87.1006 174.52 86.322 174.52 85.7256C174.52 85.1292 175.169 84.3506 176.37 84.3506C177.57 84.3506 178.22 85.1292 178.22 85.7256Z" fill="#FF7987" stroke="#FF7987" stroke-width="2"/>
<path d="M169.642 85.0965C169.538 85.6838 168.763 86.3377 167.581 86.1293C166.399 85.9209 165.895 85.0413 165.998 84.454C166.102 83.8666 166.877 83.2127 168.059 83.4211C169.241 83.6295 169.746 84.5091 169.642 85.0965Z" fill="#FF7987" stroke="#FF7987" stroke-width="2"/>
<path d="M186.162 84.4544C186.266 85.0418 185.761 85.9214 184.579 86.1298C183.397 86.3382 182.622 85.6843 182.518 85.0969C182.415 84.5096 182.919 83.63 184.101 83.4216C185.283 83.2131 186.059 83.8671 186.162 84.4544Z" fill="#FF7987" stroke="#FF7987" stroke-width="2"/>
<path d="M177.902 66.25C178.536 66.3652 180.942 67.2864 181.702 70.05" stroke="#FF7987" stroke-width="2" stroke-linecap="round"/>
<path d="M176 62.4504V58.6504" stroke="#FF7987" stroke-width="2" stroke-linecap="round"/>
<path d="M177.852 56.7504C177.852 57.7721 177.024 58.6004 176.002 58.6004C174.981 58.6004 174.152 57.7721 174.152 56.7504C174.152 55.7287 174.981 54.9004 176.002 54.9004C177.024 54.9004 177.852 55.7287 177.852 56.7504Z" stroke="#FF7987" stroke-width="2"/>
</g>
<defs>
<clipPath id="clip0_1452_64514">
<rect width="375" height="160" fill="white"/>
</clipPath>
<clipPath id="clip1_1452_64514">
<rect width="375" height="58" fill="white" transform="translate(0 51)"/>
</clipPath>
</defs>
</svg>
