<svg width="375" height="160" viewBox="0 0 375 160" fill="none" xmlns="http://www.w3.org/2000/svg">
<g clip-path="url(#clip0_1452_62282)">
<rect x="-0.5" y="32.5" width="376" height="99" fill="#004973" fill-opacity="0.5" stroke="#0074A2"/>
<line x1="93.5" y1="32" x2="93.5" y2="132" stroke="#0074A2"/>
<line x1="140.5" y1="32" x2="140.5" y2="132" stroke="#0074A2"/>
<line x1="46.5" y1="32" x2="46.5" y2="132" stroke="#0074A2"/>
<line x1="187.5" y1="32" x2="187.5" y2="132" stroke="#0074A2"/>
<line x1="234.5" y1="32" x2="234.5" y2="132" stroke="#0074A2"/>
<line x1="281.5" y1="32" x2="281.5" y2="132" stroke="#0074A2"/>
<line x1="328.5" y1="32" x2="328.5" y2="132" stroke="#0074A2"/>
<circle cx="33.5" cy="52.5" r="1.5" fill="#51A3D3" fill-opacity="0.5"/>
<circle cx="9.5" cy="103.5" r="1.5" fill="#51A3D3" fill-opacity="0.3"/>
<circle cx="75.5" cy="102.5" r="1.5" fill="#51A3D3" fill-opacity="0.5"/>
<circle cx="104.5" cy="43.5" r="1.5" fill="#51A3D3" fill-opacity="0.3"/>
<circle cx="35.5" cy="122.5" r="1.5" fill="#51A3D3" fill-opacity="0.7"/>
<circle cx="126.5" cy="119.5" r="1.5" fill="#51A3D3" fill-opacity="0.3"/>
<circle cx="149.5" cy="56.5" r="1.5" fill="#51A3D3" fill-opacity="0.7"/>
<circle cx="172.5" cy="96.5" r="1.5" fill="#51A3D3" fill-opacity="0.25"/>
<circle cx="206.5" cy="63.5" r="1.5" fill="#51A3D3" fill-opacity="0.5"/>
<circle cx="242.5" cy="41.5" r="1.5" fill="#51A3D3" fill-opacity="0.3"/>
<circle cx="256.5" cy="96.5" r="1.5" fill="#51A3D3" fill-opacity="0.5"/>
<circle cx="217.5" cy="120.5" r="1.5" fill="#51A3D3" fill-opacity="0.5"/>
<circle cx="337.5" cy="43.5" r="1.5" fill="#51A3D3" fill-opacity="0.5"/>
<circle cx="295.5" cy="65.5" r="1.5" fill="#51A3D3" fill-opacity="0.5"/>
<circle cx="315.5" cy="116.5" r="1.5" fill="#51A3D3" fill-opacity="0.7"/>
<path d="M358 93.5C358 94.3284 357.328 95 356.5 95C355.672 95 355 94.3284 355 93.5C355 92.6716 355.672 92 356.5 92C357.328 92 358 92.6716 358 93.5Z" fill="#51A3D3" fill-opacity="0.5"/>
<path d="M97.352 150.234H95.616V148.26H93.908V150.234H90.702L95.252 144.2H93.306L88.476 150.514V151.774H93.852V154H95.616V151.774H97.352V150.234Z" fill="#51A3D3"/>
<path d="M46.704 154.14C49.042 154.14 50.806 152.32 50.806 149.1C50.806 145.88 49.042 144.06 46.704 144.06C44.38 144.06 42.616 145.88 42.616 149.1C42.616 152.32 44.38 154.14 46.704 154.14ZM46.704 152.558C45.374 152.558 44.45 151.466 44.45 149.1C44.45 146.734 45.374 145.642 46.704 145.642C48.048 145.642 48.972 146.734 48.972 149.1C48.972 151.466 48.048 152.558 46.704 152.558Z" fill="#51A3D3"/>
<path d="M143.406 148.848C144.204 148.414 144.652 147.714 144.652 146.79C144.652 145.11 143.168 144.06 140.984 144.06C138.814 144.06 137.344 145.11 137.344 146.79C137.344 147.714 137.778 148.414 138.562 148.848C137.554 149.31 136.994 150.108 136.994 151.186C136.994 153.006 138.548 154.14 140.984 154.14C143.42 154.14 145.002 153.006 145.002 151.186C145.002 150.108 144.428 149.31 143.406 148.848ZM140.984 145.488C142.104 145.488 142.86 145.992 142.86 146.874C142.86 147.714 142.146 148.246 140.984 148.246C139.836 148.246 139.136 147.714 139.136 146.874C139.136 145.992 139.864 145.488 140.984 145.488ZM140.984 152.712C139.64 152.712 138.828 152.124 138.828 151.13C138.828 150.164 139.64 149.562 140.984 149.562C142.328 149.562 143.168 150.164 143.168 151.13C143.168 152.124 142.328 152.712 140.984 152.712Z" fill="#51A3D3"/>
<path d="M181.232 144.2V145.726H183.304V154H185.124V144.2H181.232ZM189.826 152.46L192.444 149.968C193.802 148.694 194.068 147.826 194.068 146.874C194.068 145.138 192.696 144.06 190.568 144.06C188.958 144.06 187.6 144.662 186.844 145.684L188.118 146.664C188.664 145.964 189.462 145.642 190.414 145.642C191.618 145.642 192.234 146.16 192.234 147.056C192.234 147.602 192.066 148.176 191.114 149.086L187.222 152.782V154H194.446V152.46H189.826Z" fill="#51A3D3"/>
<rect x="223" y="138" width="24" height="22" rx="8" fill="#F4435A"/>
<path d="M228.417 144.2V145.726H230.489V154H232.309V144.2H228.417ZM238.985 147.952C237.893 147.952 236.955 148.288 236.367 148.974V148.96C236.367 146.734 237.529 145.586 239.377 145.586C240.063 145.586 240.707 145.712 241.239 146.062L241.911 144.69C241.253 144.27 240.315 144.06 239.335 144.06C236.493 144.06 234.533 145.908 234.533 149.268C234.533 152.418 236.101 154.14 238.775 154.14C240.777 154.14 242.359 152.908 242.359 150.962C242.359 149.128 240.917 147.952 238.985 147.952ZM238.677 152.712C237.375 152.712 236.647 151.984 236.647 151.06C236.647 150.094 237.459 149.38 238.635 149.38C239.825 149.38 240.595 150.024 240.595 151.046C240.595 152.068 239.811 152.712 238.677 152.712Z" fill="white"/>
<rect x="317" y="138" width="24" height="22" rx="8" fill="#F4435A"/>
<path d="M276.19 152.46L278.808 149.968C280.166 148.694 280.432 147.826 280.432 146.874C280.432 145.138 279.06 144.06 276.932 144.06C275.322 144.06 273.964 144.662 273.208 145.684L274.482 146.664C275.028 145.964 275.826 145.642 276.778 145.642C277.982 145.642 278.598 146.16 278.598 147.056C278.598 147.602 278.43 148.176 277.478 149.086L273.586 152.782V154H280.81V152.46H276.19ZM286.188 154.14C288.526 154.14 290.29 152.32 290.29 149.1C290.29 145.88 288.526 144.06 286.188 144.06C283.864 144.06 282.1 145.88 282.1 149.1C282.1 152.32 283.864 154.14 286.188 154.14ZM286.188 152.558C284.858 152.558 283.934 151.466 283.934 149.1C283.934 146.734 284.858 145.642 286.188 145.642C287.532 145.642 288.456 146.734 288.456 149.1C288.456 151.466 287.532 152.558 286.188 152.558Z" fill="#51A3D3"/>
<path d="M323.094 152.46L325.712 149.968C327.07 148.694 327.336 147.826 327.336 146.874C327.336 145.138 325.964 144.06 323.836 144.06C322.226 144.06 320.868 144.662 320.112 145.684L321.386 146.664C321.932 145.964 322.73 145.642 323.682 145.642C324.886 145.642 325.502 146.16 325.502 147.056C325.502 147.602 325.334 148.176 324.382 149.086L320.49 152.782V154H327.714V152.46H323.094ZM337.575 150.234H335.839V148.26H334.131V150.234H330.925L335.475 144.2H333.529L328.699 150.514V151.774H334.075V154H335.839V151.774H337.575V150.234Z" fill="white"/>
<g clip-path="url(#clip1_1452_62282)">
<mask id="mask0_1452_62282" style="mask-type:alpha" maskUnits="userSpaceOnUse" x="0" y="32" width="82" height="100">
<rect y="32" width="82" height="100" fill="#51A3D3"/>
</mask>
<g mask="url(#mask0_1452_62282)">
<path d="M351.211 62.4502C338.953 62.4502 332.831 70.8206 326.913 78.9152C321.048 86.9356 315.508 94.5142 304.322 94.5142C293.135 94.5142 287.595 86.9392 281.731 78.9152C275.813 70.8206 269.691 62.4502 257.432 62.4502C245.174 62.4502 239.055 70.8206 233.134 78.9152C227.27 86.9356 221.729 94.5142 210.543 94.5142C199.357 94.5142 193.817 86.9392 187.952 78.9152C182.034 70.8206 175.912 62.4502 163.654 62.4502C151.395 62.4502 145.277 70.8206 139.356 78.9152C133.491 86.9356 127.951 94.5142 116.765 94.5142C105.578 94.5142 100.042 86.9392 94.1768 78.9152C88.2592 70.8206 82.1371 62.4502 69.8787 62.4502C57.6204 62.4502 51.5018 70.8206 45.5806 78.9152C39.7265 86.9392 34.1863 94.5142 23 94.5142V96.6351C35.2584 96.6351 41.377 88.2647 47.2981 80.1701C53.1628 72.1496 58.703 64.5711 69.8893 64.5711C81.0756 64.5711 86.6159 72.1461 92.4805 80.1701C98.3981 88.2647 104.52 96.6351 116.775 96.6351C129.03 96.6351 135.152 88.2647 141.073 80.1701C146.938 72.1496 152.478 64.5711 163.664 64.5711C174.851 64.5711 180.391 72.1461 186.256 80.1701C192.173 88.2647 198.295 96.6351 210.554 96.6351C222.812 96.6351 228.931 88.2647 234.852 80.1701C240.717 72.1496 246.257 64.5711 257.443 64.5711C268.629 64.5711 274.17 72.1461 280.034 80.1701C285.952 88.2647 292.074 96.6351 304.332 96.6351C316.591 96.6351 322.713 88.2647 328.63 80.1701C334.495 72.1496 340.035 64.5711 351.222 64.5711V62.4502H351.211Z" fill="#51A3D3"/>
<path d="M70.2111 62.4502C57.9527 62.4502 51.8306 70.8206 45.913 78.9152C40.0483 86.9356 34.5081 94.5142 23.3218 94.5142C12.1355 94.5142 6.59525 86.9392 0.73056 78.9152C-5.18703 70.8206 -11.3091 62.4502 -23.5675 62.4502C-35.8259 62.4502 -41.9445 70.8206 -47.8656 78.9152C-53.7303 86.9356 -59.2706 94.5142 -70.4568 94.5142C-81.6431 94.5142 -87.1834 86.9392 -93.0481 78.9152C-98.9657 70.8206 -105.088 62.4502 -117.346 62.4502C-129.605 62.4502 -135.723 70.8206 -141.644 78.9152C-147.509 86.9356 -153.049 94.5142 -164.235 94.5142C-175.422 94.5142 -180.958 86.9392 -186.823 78.9152C-192.741 70.8206 -198.863 62.4502 -211.121 62.4502C-223.38 62.4502 -229.498 70.8206 -235.419 78.9152C-241.273 86.9392 -246.814 94.5142 -258 94.5142V96.6351C-245.742 96.6351 -239.623 88.2647 -233.702 80.1701C-227.837 72.1496 -222.297 64.5711 -211.111 64.5711C-199.924 64.5711 -194.384 72.1461 -188.519 80.1701C-182.602 88.2647 -176.48 96.6351 -164.225 96.6351C-151.97 96.6351 -145.848 88.2647 -139.927 80.1701C-134.062 72.1496 -128.522 64.5711 -117.336 64.5711C-106.149 64.5711 -100.609 72.1461 -94.7444 80.1701C-88.8268 88.2647 -82.7046 96.6351 -70.4463 96.6351C-58.1879 96.6351 -52.0693 88.2647 -46.1482 80.1701C-40.2835 72.1496 -34.7432 64.5711 -23.5569 64.5711C-12.3707 64.5711 -6.83041 72.1461 -0.965729 80.1701C4.95187 88.2647 11.074 96.6351 23.3324 96.6351C35.5907 96.6351 41.7129 88.2647 47.6305 80.1701C53.4952 72.1496 59.0354 64.5711 70.2217 64.5711V62.4502H70.2111Z" fill="#51A3D3"/>
</g>
</g>
<mask id="path-37-inside-1_1452_62282" fill="white">
<path fill-rule="evenodd" clip-rule="evenodd" d="M102 40C110.284 40 117 33.2843 117 25C117 16.7157 110.284 10 102 10L62 10C53.7157 10 47 16.7157 47 25C47 33.2843 53.7157 40 62 40L78.5359 40L82 46L85.4641 40L102 40Z"/>
</mask>
<path fill-rule="evenodd" clip-rule="evenodd" d="M102 40C110.284 40 117 33.2843 117 25C117 16.7157 110.284 10 102 10L62 10C53.7157 10 47 16.7157 47 25C47 33.2843 53.7157 40 62 40L78.5359 40L82 46L85.4641 40L102 40Z" fill="#0074A2" fill-opacity="0.8"/>
<path d="M102 40V39V40ZM102 10V11V10ZM62 10V9V10ZM47 25H46H47ZM62 40V39V40ZM78.5359 40L79.4019 39.5L79.1132 39H78.5359V40ZM82 46L81.134 46.5L82 48L82.866 46.5L82 46ZM85.4641 40V39H84.8868L84.5981 39.5L85.4641 40ZM116 25C116 32.732 109.732 39 102 39V41C110.837 41 118 33.8366 118 25H116ZM102 11C109.732 11 116 17.268 116 25H118C118 16.1635 110.837 9.00001 102 9V11ZM62 11L102 11V9L62 9V11ZM48 25C48 17.268 54.268 11 62 11V9C53.1634 9 46 16.1634 46 25H48ZM62 39C54.268 39 48 32.732 48 25H46C46 33.8366 53.1634 41 62 41V39ZM78.5359 39L62 39V41L78.5359 41V39ZM82.866 45.5L79.4019 39.5L77.6699 40.5L81.134 46.5L82.866 45.5ZM84.5981 39.5L81.134 45.5L82.866 46.5L86.3301 40.5L84.5981 39.5ZM102 39L85.4641 39V41L102 41V39Z" fill="#51A3D3" mask="url(#path-37-inside-1_1452_62282)"/>
<path d="M69.8983 24.424L72.6183 21.192V19.8H64.9863V21.544H70.0743L67.5303 24.568V25.992H68.5543C70.2503 25.992 70.9863 26.648 70.9863 27.656C70.9863 28.696 70.1063 29.352 68.6183 29.352C67.3543 29.352 66.1383 28.92 65.3383 28.248L64.4423 29.864C65.4823 30.68 67.0663 31.16 68.6503 31.16C71.6583 31.16 73.0823 29.528 73.0823 27.64C73.0823 25.96 72.0103 24.696 69.8983 24.424ZM73.5788 32.6H75.3708L80.6508 17.528H78.8588L73.5788 32.6ZM83.8523 29.24L86.8443 26.392C88.3962 24.936 88.7003 23.944 88.7003 22.856C88.7003 20.872 87.1323 19.64 84.7003 19.64C82.8602 19.64 81.3082 20.328 80.4442 21.496L81.9002 22.616C82.5243 21.816 83.4362 21.448 84.5243 21.448C85.9002 21.448 86.6042 22.04 86.6042 23.064C86.6042 23.688 86.4123 24.344 85.3243 25.384L80.8762 29.608V31H89.1322V29.24H83.8523ZM100.402 26.696H98.4184V24.44H96.4664V26.696H92.8024L98.0024 19.8H95.7784L90.2584 27.016V28.456H96.4024V31H98.4184V28.456H100.402V26.696Z" fill="white"/>
<circle cx="82" cy="72" r="24.5" fill="#022B42" fill-opacity="0.8" stroke="#51A3D3"/>
<circle cx="82" cy="72" r="28.5" stroke="#51A3D3" stroke-opacity="0.4"/>
<mask id="path-42-inside-2_1452_62282" fill="white">
<path fill-rule="evenodd" clip-rule="evenodd" d="M82.0016 76.7004C86.7236 76.7004 90.5516 75.4436 90.5516 71.1588C90.5516 70.1521 90.3403 69.1902 89.9557 68.3076C94.8495 69.7766 98.1516 72.5594 98.1516 75.7504C98.1516 80.4724 90.921 84.3004 82.0016 84.3004C73.0822 84.3004 65.8516 80.4724 65.8516 75.7504C65.8516 72.5594 69.1536 69.7766 74.0474 68.3076C73.6629 69.1902 73.4516 70.1521 73.4516 71.1588C73.4516 75.4436 77.2795 76.7004 82.0016 76.7004Z"/>
</mask>
<path d="M89.9557 68.3076L90.5307 66.3921L86.3992 65.1519L88.1222 69.1065L89.9557 68.3076ZM74.0474 68.3076L75.8809 69.1065L77.6039 65.1519L73.4724 66.3921L74.0474 68.3076ZM88.5516 71.1588C88.5516 71.9232 88.3841 72.4379 88.1651 72.8026C87.9448 73.1694 87.6036 73.4983 87.0845 73.7834C85.9822 74.3888 84.2533 74.7004 82.0016 74.7004V78.7004C84.4719 78.7004 87.0179 78.3836 89.0101 77.2894C90.0382 76.7247 90.9492 75.9359 91.5942 74.862C92.2405 73.7859 92.5516 72.5367 92.5516 71.1588H88.5516ZM88.1222 69.1065C88.4004 69.745 88.5516 70.4355 88.5516 71.1588H92.5516C92.5516 69.8687 92.2802 68.6354 91.7893 67.5088L88.1222 69.1065ZM89.3807 70.2232C91.6352 70.8999 93.3989 71.8454 94.5597 72.8777C95.7174 73.9073 96.1516 74.8972 96.1516 75.7504H100.152C100.152 73.4126 98.9347 71.4156 97.2179 69.8888C95.5043 68.3648 93.1701 67.1843 90.5307 66.3921L89.3807 70.2232ZM96.1516 75.7504C96.1516 77.0056 95.1557 78.615 92.4856 80.0286C89.9049 81.3948 86.2017 82.3004 82.0016 82.3004V86.3004C86.7209 86.3004 91.0926 85.292 94.3571 83.5638C97.5321 81.8829 100.152 79.2173 100.152 75.7504H96.1516ZM82.0016 82.3004C77.8015 82.3004 74.0982 81.3948 71.5176 80.0286C68.8474 78.615 67.8516 77.0056 67.8516 75.7504H63.8516C63.8516 79.2173 66.471 81.8829 69.646 83.5638C72.9105 85.292 77.2823 86.3004 82.0016 86.3004V82.3004ZM67.8516 75.7504C67.8516 74.8972 68.2857 73.9073 69.4434 72.8777C70.6042 71.8454 72.368 70.8999 74.6224 70.2232L73.4724 66.3921C70.833 67.1843 68.4988 68.3648 66.7852 69.8888C65.0684 71.4156 63.8516 73.4126 63.8516 75.7504H67.8516ZM75.4516 71.1588C75.4516 70.4355 75.6027 69.745 75.8809 69.1065L72.2139 67.5088C71.723 68.6354 71.4516 69.8687 71.4516 71.1588H75.4516ZM82.0016 74.7004C79.7498 74.7004 78.0209 74.3888 76.9186 73.7834C76.3995 73.4983 76.0583 73.1694 75.838 72.8026C75.619 72.4379 75.4516 71.9232 75.4516 71.1588H71.4516C71.4516 72.5367 71.7626 73.7859 72.4089 74.862C73.0539 75.9359 73.9649 76.7247 74.993 77.2894C76.9852 78.3836 79.5312 78.7004 82.0016 78.7004V74.7004Z" fill="#FF7987" mask="url(#path-42-inside-2_1452_62282)"/>
<path d="M82.0031 77.7004C84.4188 77.7004 86.7606 77.3849 88.5303 76.4129C89.4312 75.9181 90.1997 75.2443 90.7385 74.3471C91.278 73.4489 91.5531 72.3833 91.5531 71.1587C91.5531 66.2324 87.1838 62.4004 82.0031 62.4004C76.8224 62.4004 72.4531 66.2324 72.4531 71.1587C72.4531 72.3833 72.7283 73.4489 73.2678 74.3471C73.8066 75.2443 74.5751 75.9181 75.476 76.4129C77.2457 77.3849 79.5875 77.7004 82.0031 77.7004Z" stroke="#FF7987" stroke-width="2"/>
<path fill-rule="evenodd" clip-rule="evenodd" d="M95.6891 77.752C93.9695 81.3144 88.4917 83.9189 82 83.9189C75.1383 83.9189 69.4094 81.0091 68.0539 77.1338C67.8548 77.8275 67.7501 78.5722 67.75 79.3678C67.7496 83.0947 74.1299 86.2005 82 86.2005C89.8701 86.2005 96.25 83.7159 96.25 79.3678C96.25 78.9472 96.0543 78.3881 95.6891 77.752Z" fill="#FF7987"/>
<path d="M84.2195 85.7256C84.2195 86.322 83.5697 87.1006 82.3695 87.1006C81.1693 87.1006 80.5195 86.322 80.5195 85.7256C80.5195 85.1292 81.1693 84.3506 82.3695 84.3506C83.5697 84.3506 84.2195 85.1292 84.2195 85.7256Z" fill="#FF7987" stroke="#FF7987" stroke-width="2"/>
<path d="M75.642 85.0965C75.5384 85.6838 74.7633 86.3377 73.5813 86.1293C72.3993 85.9209 71.8946 85.0413 71.9982 84.454C72.1017 83.8666 72.8769 83.2127 74.0588 83.4211C75.2408 83.6295 75.7455 84.5091 75.642 85.0965Z" fill="#FF7987" stroke="#FF7987" stroke-width="2"/>
<path d="M92.1621 84.4544C92.2657 85.0418 91.7609 85.9214 90.579 86.1298C89.397 86.3382 88.6219 85.6843 88.5183 85.0969C88.4147 84.5096 88.9195 83.63 90.1014 83.4216C91.2834 83.2131 92.0585 83.8671 92.1621 84.4544Z" fill="#FF7987" stroke="#FF7987" stroke-width="2"/>
<path d="M83.9023 66.25C84.5357 66.3652 86.9423 67.2864 87.7023 70.05" stroke="#FF7987" stroke-width="2" stroke-linecap="round"/>
<path d="M82 62.4504V58.6504" stroke="#FF7987" stroke-width="2" stroke-linecap="round"/>
<path d="M83.8523 56.7504C83.8523 57.7721 83.0241 58.6004 82.0023 58.6004C80.9806 58.6004 80.1523 57.7721 80.1523 56.7504C80.1523 55.7287 80.9806 54.9004 82.0023 54.9004C83.0241 54.9004 83.8523 55.7287 83.8523 56.7504Z" stroke="#FF7987" stroke-width="2"/>
</g>
<defs>
<clipPath id="clip0_1452_62282">
<rect width="375" height="160" fill="white"/>
</clipPath>
<clipPath id="clip1_1452_62282">
<rect width="375" height="58" fill="white" transform="translate(0 51)"/>
</clipPath>
</defs>
</svg>
