<svg width="375" height="160" viewBox="0 0 375 160" fill="none" xmlns="http://www.w3.org/2000/svg">
<g clip-path="url(#clip0_1452_63026)">
<rect x="-0.5" y="32.5" width="376" height="99" fill="#004973" fill-opacity="0.5" stroke="#0074A2"/>
<line x1="93.5" y1="32" x2="93.5" y2="132" stroke="#0074A2"/>
<line x1="140.5" y1="32" x2="140.5" y2="132" stroke="#0074A2"/>
<line x1="46.5" y1="32" x2="46.5" y2="132" stroke="#0074A2"/>
<line x1="187.5" y1="32" x2="187.5" y2="132" stroke="#0074A2"/>
<line x1="234.5" y1="32" x2="234.5" y2="132" stroke="#0074A2"/>
<line x1="281.5" y1="32" x2="281.5" y2="132" stroke="#0074A2"/>
<line x1="328.5" y1="32" x2="328.5" y2="132" stroke="#0074A2"/>
<circle cx="33.5" cy="52.5" r="1.5" fill="#51A3D3" fill-opacity="0.5"/>
<circle cx="9.5" cy="103.5" r="1.5" fill="#51A3D3" fill-opacity="0.3"/>
<circle cx="75.5" cy="102.5" r="1.5" fill="#51A3D3" fill-opacity="0.5"/>
<circle cx="104.5" cy="43.5" r="1.5" fill="#51A3D3" fill-opacity="0.3"/>
<circle cx="35.5" cy="122.5" r="1.5" fill="#51A3D3" fill-opacity="0.7"/>
<circle cx="126.5" cy="119.5" r="1.5" fill="#51A3D3" fill-opacity="0.3"/>
<circle cx="149.5" cy="56.5" r="1.5" fill="#51A3D3" fill-opacity="0.7"/>
<circle cx="172.5" cy="96.5" r="1.5" fill="#51A3D3" fill-opacity="0.25"/>
<circle cx="206.5" cy="63.5" r="1.5" fill="#51A3D3" fill-opacity="0.5"/>
<circle cx="242.5" cy="41.5" r="1.5" fill="#51A3D3" fill-opacity="0.3"/>
<circle cx="256.5" cy="96.5" r="1.5" fill="#51A3D3" fill-opacity="0.5"/>
<circle cx="217.5" cy="120.5" r="1.5" fill="#51A3D3" fill-opacity="0.5"/>
<circle cx="337.5" cy="43.5" r="1.5" fill="#51A3D3" fill-opacity="0.5"/>
<circle cx="295.5" cy="65.5" r="1.5" fill="#51A3D3" fill-opacity="0.5"/>
<circle cx="315.5" cy="116.5" r="1.5" fill="#51A3D3" fill-opacity="0.7"/>
<path d="M358 93.5C358 94.3284 357.328 95 356.5 95C355.672 95 355 94.3284 355 93.5C355 92.6716 355.672 92 356.5 92C357.328 92 358 92.6716 358 93.5Z" fill="#51A3D3" fill-opacity="0.5"/>
<path d="M97.352 150.234H95.616V148.26H93.908V150.234H90.702L95.252 144.2H93.306L88.476 150.514V151.774H93.852V154H95.616V151.774H97.352V150.234Z" fill="#51A3D3"/>
<path d="M46.704 154.14C49.042 154.14 50.806 152.32 50.806 149.1C50.806 145.88 49.042 144.06 46.704 144.06C44.38 144.06 42.616 145.88 42.616 149.1C42.616 152.32 44.38 154.14 46.704 154.14ZM46.704 152.558C45.374 152.558 44.45 151.466 44.45 149.1C44.45 146.734 45.374 145.642 46.704 145.642C48.048 145.642 48.972 146.734 48.972 149.1C48.972 151.466 48.048 152.558 46.704 152.558Z" fill="#51A3D3"/>
<path d="M143.406 148.848C144.204 148.414 144.652 147.714 144.652 146.79C144.652 145.11 143.168 144.06 140.984 144.06C138.814 144.06 137.344 145.11 137.344 146.79C137.344 147.714 137.778 148.414 138.562 148.848C137.554 149.31 136.994 150.108 136.994 151.186C136.994 153.006 138.548 154.14 140.984 154.14C143.42 154.14 145.002 153.006 145.002 151.186C145.002 150.108 144.428 149.31 143.406 148.848ZM140.984 145.488C142.104 145.488 142.86 145.992 142.86 146.874C142.86 147.714 142.146 148.246 140.984 148.246C139.836 148.246 139.136 147.714 139.136 146.874C139.136 145.992 139.864 145.488 140.984 145.488ZM140.984 152.712C139.64 152.712 138.828 152.124 138.828 151.13C138.828 150.164 139.64 149.562 140.984 149.562C142.328 149.562 143.168 150.164 143.168 151.13C143.168 152.124 142.328 152.712 140.984 152.712Z" fill="#51A3D3"/>
<path d="M181.232 144.2V145.726H183.304V154H185.124V144.2H181.232ZM189.826 152.46L192.444 149.968C193.802 148.694 194.068 147.826 194.068 146.874C194.068 145.138 192.696 144.06 190.568 144.06C188.958 144.06 187.6 144.662 186.844 145.684L188.118 146.664C188.664 145.964 189.462 145.642 190.414 145.642C191.618 145.642 192.234 146.16 192.234 147.056C192.234 147.602 192.066 148.176 191.114 149.086L187.222 152.782V154H194.446V152.46H189.826Z" fill="#51A3D3"/>
<rect x="223" y="138" width="24" height="22" rx="8" fill="#F4435A"/>
<path d="M228.417 144.2V145.726H230.489V154H232.309V144.2H228.417ZM238.985 147.952C237.893 147.952 236.955 148.288 236.367 148.974V148.96C236.367 146.734 237.529 145.586 239.377 145.586C240.063 145.586 240.707 145.712 241.239 146.062L241.911 144.69C241.253 144.27 240.315 144.06 239.335 144.06C236.493 144.06 234.533 145.908 234.533 149.268C234.533 152.418 236.101 154.14 238.775 154.14C240.777 154.14 242.359 152.908 242.359 150.962C242.359 149.128 240.917 147.952 238.985 147.952ZM238.677 152.712C237.375 152.712 236.647 151.984 236.647 151.06C236.647 150.094 237.459 149.38 238.635 149.38C239.825 149.38 240.595 150.024 240.595 151.046C240.595 152.068 239.811 152.712 238.677 152.712Z" fill="white"/>
<rect x="317" y="138" width="24" height="22" rx="8" fill="#F4435A"/>
<path d="M276.19 152.46L278.808 149.968C280.166 148.694 280.432 147.826 280.432 146.874C280.432 145.138 279.06 144.06 276.932 144.06C275.322 144.06 273.964 144.662 273.208 145.684L274.482 146.664C275.028 145.964 275.826 145.642 276.778 145.642C277.982 145.642 278.598 146.16 278.598 147.056C278.598 147.602 278.43 148.176 277.478 149.086L273.586 152.782V154H280.81V152.46H276.19ZM286.188 154.14C288.526 154.14 290.29 152.32 290.29 149.1C290.29 145.88 288.526 144.06 286.188 144.06C283.864 144.06 282.1 145.88 282.1 149.1C282.1 152.32 283.864 154.14 286.188 154.14ZM286.188 152.558C284.858 152.558 283.934 151.466 283.934 149.1C283.934 146.734 284.858 145.642 286.188 145.642C287.532 145.642 288.456 146.734 288.456 149.1C288.456 151.466 287.532 152.558 286.188 152.558Z" fill="#51A3D3"/>
<path d="M323.094 152.46L325.712 149.968C327.07 148.694 327.336 147.826 327.336 146.874C327.336 145.138 325.964 144.06 323.836 144.06C322.226 144.06 320.868 144.662 320.112 145.684L321.386 146.664C321.932 145.964 322.73 145.642 323.682 145.642C324.886 145.642 325.502 146.16 325.502 147.056C325.502 147.602 325.334 148.176 324.382 149.086L320.49 152.782V154H327.714V152.46H323.094ZM337.575 150.234H335.839V148.26H334.131V150.234H330.925L335.475 144.2H333.529L328.699 150.514V151.774H334.075V154H335.839V151.774H337.575V150.234Z" fill="white"/>
<g clip-path="url(#clip1_1452_63026)">
<mask id="mask0_1452_63026" style="mask-type:alpha" maskUnits="userSpaceOnUse" x="0" y="32" width="46" height="100">
<rect y="32" width="46" height="100" fill="#F4435A"/>
</mask>
<g mask="url(#mask0_1452_63026)">
<path d="M351.211 62.4502C338.953 62.4502 332.831 70.8206 326.913 78.9152C321.048 86.9356 315.508 94.5142 304.322 94.5142C293.135 94.5142 287.595 86.9392 281.731 78.9152C275.813 70.8206 269.691 62.4502 257.432 62.4502C245.174 62.4502 239.055 70.8206 233.134 78.9152C227.27 86.9356 221.729 94.5142 210.543 94.5142C199.357 94.5142 193.817 86.9392 187.952 78.9152C182.034 70.8206 175.912 62.4502 163.654 62.4502C151.395 62.4502 145.277 70.8206 139.356 78.9152C133.491 86.9356 127.951 94.5142 116.765 94.5142C105.578 94.5142 100.042 86.9392 94.1768 78.9152C88.2592 70.8206 82.1371 62.4502 69.8787 62.4502C57.6204 62.4502 51.5018 70.8206 45.5806 78.9152C39.7265 86.9392 34.1863 94.5142 23 94.5142V96.6351C35.2584 96.6351 41.377 88.2647 47.2981 80.1701C53.1628 72.1496 58.703 64.5711 69.8893 64.5711C81.0756 64.5711 86.6159 72.1461 92.4805 80.1701C98.3981 88.2647 104.52 96.6351 116.775 96.6351C129.03 96.6351 135.152 88.2647 141.073 80.1701C146.938 72.1496 152.478 64.5711 163.664 64.5711C174.851 64.5711 180.391 72.1461 186.256 80.1701C192.173 88.2647 198.295 96.6351 210.554 96.6351C222.812 96.6351 228.931 88.2647 234.852 80.1701C240.717 72.1496 246.257 64.5711 257.443 64.5711C268.629 64.5711 274.17 72.1461 280.034 80.1701C285.952 88.2647 292.074 96.6351 304.332 96.6351C316.591 96.6351 322.713 88.2647 328.63 80.1701C334.495 72.1496 340.035 64.5711 351.222 64.5711V62.4502H351.211Z" fill="#51A3D3"/>
<path d="M70.2111 62.4502C57.9527 62.4502 51.8306 70.8206 45.913 78.9152C40.0483 86.9356 34.5081 94.5142 23.3218 94.5142C12.1355 94.5142 6.59525 86.9392 0.73056 78.9152C-5.18703 70.8206 -11.3091 62.4502 -23.5675 62.4502C-35.8259 62.4502 -41.9445 70.8206 -47.8656 78.9152C-53.7303 86.9356 -59.2706 94.5142 -70.4568 94.5142C-81.6431 94.5142 -87.1834 86.9392 -93.0481 78.9152C-98.9657 70.8206 -105.088 62.4502 -117.346 62.4502C-129.605 62.4502 -135.723 70.8206 -141.644 78.9152C-147.509 86.9356 -153.049 94.5142 -164.235 94.5142C-175.422 94.5142 -180.958 86.9392 -186.823 78.9152C-192.741 70.8206 -198.863 62.4502 -211.121 62.4502C-223.38 62.4502 -229.498 70.8206 -235.419 78.9152C-241.273 86.9392 -246.814 94.5142 -258 94.5142V96.6351C-245.742 96.6351 -239.623 88.2647 -233.702 80.1701C-227.837 72.1496 -222.297 64.5711 -211.111 64.5711C-199.924 64.5711 -194.384 72.1461 -188.519 80.1701C-182.602 88.2647 -176.48 96.6351 -164.225 96.6351C-151.97 96.6351 -145.848 88.2647 -139.927 80.1701C-134.062 72.1496 -128.522 64.5711 -117.336 64.5711C-106.149 64.5711 -100.609 72.1461 -94.7444 80.1701C-88.8268 88.2647 -82.7046 96.6351 -70.4463 96.6351C-58.1879 96.6351 -52.0693 88.2647 -46.1482 80.1701C-40.2835 72.1496 -34.7432 64.5711 -23.5569 64.5711C-12.3707 64.5711 -6.83041 72.1461 -0.965729 80.1701C4.95187 88.2647 11.074 96.6351 23.3324 96.6351C35.5907 96.6351 41.7129 88.2647 47.6305 80.1701C53.4952 72.1496 59.0354 64.5711 70.2217 64.5711V62.4502H70.2111Z" fill="#51A3D3"/>
</g>
</g>
<mask id="path-37-inside-1_1452_63026" fill="white">
<path fill-rule="evenodd" clip-rule="evenodd" d="M66 50C74.2843 50 81 43.2843 81 35C81 26.7157 74.2843 20 66 20L26 20C17.7157 20 11 26.7157 11 35C11 43.2843 17.7157 50 26 50L42.5359 50L46 56L49.4641 50L66 50Z"/>
</mask>
<path fill-rule="evenodd" clip-rule="evenodd" d="M66 50C74.2843 50 81 43.2843 81 35C81 26.7157 74.2843 20 66 20L26 20C17.7157 20 11 26.7157 11 35C11 43.2843 17.7157 50 26 50L42.5359 50L46 56L49.4641 50L66 50Z" fill="#0074A2" fill-opacity="0.8"/>
<path d="M66 50V49V50ZM66 20V21V20ZM26 20V19V20ZM11 35H10H11ZM26 50V49V50ZM42.5359 50L43.4019 49.5L43.1132 49H42.5359V50ZM46 56L45.134 56.5L46 58L46.866 56.5L46 56ZM49.4641 50V49H48.8868L48.5981 49.5L49.4641 50ZM80 35C80 42.732 73.732 49 66 49V51C74.8366 51 82 43.8366 82 35H80ZM66 21C73.732 21 80 27.268 80 35H82C82 26.1635 74.8366 19 66 19V21ZM26 21L66 21V19L26 19V21ZM12 35C12 27.268 18.268 21 26 21V19C17.1634 19 10 26.1634 10 35H12ZM26 49C18.268 49 12 42.732 12 35H10C10 43.8366 17.1634 51 26 51V49ZM42.5359 49L26 49V51L42.5359 51V49ZM46.866 55.5L43.4019 49.5L41.6699 50.5L45.134 56.5L46.866 55.5ZM48.5981 49.5L45.134 55.5L46.866 56.5L50.3301 50.5L48.5981 49.5ZM66 49L49.4641 49V51L66 51V49Z" fill="#51A3D3" mask="url(#path-37-inside-1_1452_63026)"/>
<path d="M32.7319 41.16C35.4039 41.16 37.4199 39.08 37.4199 35.4C37.4199 31.72 35.4039 29.64 32.7319 29.64C30.0759 29.64 28.0599 31.72 28.0599 35.4C28.0599 39.08 30.0759 41.16 32.7319 41.16ZM32.7319 39.352C31.2119 39.352 30.1559 38.104 30.1559 35.4C30.1559 32.696 31.2119 31.448 32.7319 31.448C34.2679 31.448 35.3239 32.696 35.3239 35.4C35.3239 38.104 34.2679 39.352 32.7319 39.352ZM37.6491 42.6H39.4411L44.7211 27.528H42.9291L37.6491 42.6ZM47.9226 39.24L50.9146 36.392C52.4666 34.936 52.7706 33.944 52.7706 32.856C52.7706 30.872 51.2026 29.64 48.7706 29.64C46.9306 29.64 45.3786 30.328 44.5146 31.496L45.9706 32.616C46.5946 31.816 47.5066 31.448 48.5946 31.448C49.9706 31.448 50.6746 32.04 50.6746 33.064C50.6746 33.688 50.4826 34.344 49.3946 35.384L44.9466 39.608V41H53.2026V39.24H47.9226ZM64.4727 36.696H62.4887V34.44H60.5367V36.696H56.8727L62.0727 29.8H59.8487L54.3287 37.016V38.456H60.4727V41H62.4887V38.456H64.4727V36.696Z" fill="white"/>
<circle cx="46" cy="82" r="24.5" fill="#022B42" fill-opacity="0.8" stroke="#51A3D3"/>
<circle cx="46" cy="82" r="28.5" stroke="#51A3D3" stroke-opacity="0.4"/>
<mask id="path-42-inside-2_1452_63026" fill="white">
<path fill-rule="evenodd" clip-rule="evenodd" d="M46.0016 86.7004C50.7236 86.7004 54.5516 85.4436 54.5516 81.1588C54.5516 80.1521 54.3403 79.1902 53.9557 78.3076C58.8495 79.7766 62.1516 82.5594 62.1516 85.7504C62.1516 90.4724 54.921 94.3004 46.0016 94.3004C37.0822 94.3004 29.8516 90.4724 29.8516 85.7504C29.8516 82.5594 33.1536 79.7766 38.0474 78.3076C37.6629 79.1902 37.4516 80.1521 37.4516 81.1588C37.4516 85.4436 41.2795 86.7004 46.0016 86.7004Z"/>
</mask>
<path d="M53.9557 78.3076L54.5307 76.3921L50.3992 75.1519L52.1222 79.1065L53.9557 78.3076ZM38.0474 78.3076L39.8809 79.1065L41.6039 75.1519L37.4724 76.3921L38.0474 78.3076ZM52.5516 81.1588C52.5516 81.9232 52.3841 82.4379 52.1651 82.8026C51.9448 83.1694 51.6036 83.4983 51.0845 83.7834C49.9822 84.3888 48.2533 84.7004 46.0016 84.7004V88.7004C48.4719 88.7004 51.0179 88.3836 53.0101 87.2894C54.0382 86.7247 54.9492 85.9359 55.5942 84.862C56.2405 83.7859 56.5516 82.5367 56.5516 81.1588H52.5516ZM52.1222 79.1065C52.4004 79.745 52.5516 80.4355 52.5516 81.1588H56.5516C56.5516 79.8687 56.2802 78.6354 55.7893 77.5088L52.1222 79.1065ZM53.3807 80.2232C55.6352 80.8999 57.3989 81.8454 58.5597 82.8777C59.7174 83.9073 60.1516 84.8972 60.1516 85.7504H64.1516C64.1516 83.4126 62.9347 81.4156 61.2179 79.8888C59.5043 78.3648 57.1701 77.1843 54.5307 76.3921L53.3807 80.2232ZM60.1516 85.7504C60.1516 87.0056 59.1557 88.615 56.4856 90.0286C53.9049 91.3948 50.2017 92.3004 46.0016 92.3004V96.3004C50.7209 96.3004 55.0926 95.292 58.3571 93.5638C61.5321 91.8829 64.1516 89.2173 64.1516 85.7504H60.1516ZM46.0016 92.3004C41.8015 92.3004 38.0982 91.3948 35.5176 90.0286C32.8474 88.615 31.8516 87.0056 31.8516 85.7504H27.8516C27.8516 89.2173 30.471 91.8829 33.646 93.5638C36.9105 95.292 41.2823 96.3004 46.0016 96.3004V92.3004ZM31.8516 85.7504C31.8516 84.8972 32.2857 83.9073 33.4434 82.8777C34.6042 81.8454 36.368 80.8999 38.6224 80.2232L37.4724 76.3921C34.833 77.1843 32.4988 78.3648 30.7852 79.8888C29.0684 81.4156 27.8516 83.4126 27.8516 85.7504H31.8516ZM39.4516 81.1588C39.4516 80.4355 39.6027 79.745 39.8809 79.1065L36.2139 77.5088C35.723 78.6354 35.4516 79.8687 35.4516 81.1588H39.4516ZM46.0016 84.7004C43.7498 84.7004 42.0209 84.3888 40.9186 83.7834C40.3995 83.4983 40.0583 83.1694 39.838 82.8026C39.619 82.4379 39.4516 81.9232 39.4516 81.1588H35.4516C35.4516 82.5367 35.7626 83.7859 36.4089 84.862C37.0539 85.9359 37.9649 86.7247 38.993 87.2894C40.9852 88.3836 43.5312 88.7004 46.0016 88.7004V84.7004Z" fill="#FF7987" mask="url(#path-42-inside-2_1452_63026)"/>
<path d="M46.0031 87.7004C48.4188 87.7004 50.7606 87.3849 52.5303 86.4129C53.4312 85.9181 54.1997 85.2443 54.7385 84.3471C55.278 83.4489 55.5531 82.3833 55.5531 81.1587C55.5531 76.2324 51.1838 72.4004 46.0031 72.4004C40.8224 72.4004 36.4531 76.2324 36.4531 81.1587C36.4531 82.3833 36.7283 83.4489 37.2678 84.3471C37.8066 85.2443 38.5751 85.9181 39.476 86.4129C41.2457 87.3849 43.5875 87.7004 46.0031 87.7004Z" stroke="#FF7987" stroke-width="2"/>
<path fill-rule="evenodd" clip-rule="evenodd" d="M59.6891 87.752C57.9695 91.3144 52.4917 93.9189 46 93.9189C39.1383 93.9189 33.4094 91.0091 32.0539 87.1338C31.8548 87.8275 31.7501 88.5722 31.75 89.3678C31.7496 93.0947 38.1299 96.2005 46 96.2005C53.8701 96.2005 60.25 93.7159 60.25 89.3678C60.25 88.9472 60.0543 88.3881 59.6891 87.752Z" fill="#FF7987"/>
<path d="M48.2195 95.7256C48.2195 96.322 47.5697 97.1006 46.3695 97.1006C45.1693 97.1006 44.5195 96.322 44.5195 95.7256C44.5195 95.1292 45.1693 94.3506 46.3695 94.3506C47.5697 94.3506 48.2195 95.1292 48.2195 95.7256Z" fill="#FF7987" stroke="#FF7987" stroke-width="2"/>
<path d="M39.642 95.0965C39.5384 95.6838 38.7633 96.3377 37.5813 96.1293C36.3993 95.9209 35.8946 95.0413 35.9982 94.454C36.1017 93.8666 36.8769 93.2127 38.0588 93.4211C39.2408 93.6295 39.7455 94.5091 39.642 95.0965Z" fill="#FF7987" stroke="#FF7987" stroke-width="2"/>
<path d="M56.1621 94.4544C56.2657 95.0418 55.7609 95.9214 54.579 96.1298C53.397 96.3382 52.6219 95.6843 52.5183 95.0969C52.4147 94.5096 52.9195 93.63 54.1014 93.4216C55.2834 93.2131 56.0585 93.8671 56.1621 94.4544Z" fill="#FF7987" stroke="#FF7987" stroke-width="2"/>
<path d="M47.9023 76.25C48.5357 76.3652 50.9423 77.2864 51.7023 80.05" stroke="#FF7987" stroke-width="2" stroke-linecap="round"/>
<path d="M46 72.4504V68.6504" stroke="#FF7987" stroke-width="2" stroke-linecap="round"/>
<path d="M47.8523 66.7504C47.8523 67.7721 47.0241 68.6004 46.0023 68.6004C44.9806 68.6004 44.1523 67.7721 44.1523 66.7504C44.1523 65.7287 44.9806 64.9004 46.0023 64.9004C47.0241 64.9004 47.8523 65.7287 47.8523 66.7504Z" stroke="#FF7987" stroke-width="2"/>
</g>
<defs>
<clipPath id="clip0_1452_63026">
<rect width="375" height="160" fill="white"/>
</clipPath>
<clipPath id="clip1_1452_63026">
<rect width="375" height="58" fill="white" transform="translate(0 51)"/>
</clipPath>
</defs>
</svg>
