<svg width="66" height="66" viewBox="0 0 66 66" fill="none" xmlns="http://www.w3.org/2000/svg">
<mask id="path-1-inside-1_2349_12788" fill="white">
<path d="M66 33.078C65.9518 32.318 65.6679 31.5919 65.1879 31.0011C64.9374 30.6575 64.6693 30.3271 64.3846 30.0113C63.9697 29.5341 63.696 29.5517 64.0315 28.9419C64.9142 27.3776 65.744 25.5924 64.3846 24.0458C63.8251 23.4421 63.1902 22.9134 62.4955 22.4726C62.7929 21.6189 62.9596 20.725 62.9898 19.8213C62.9898 18.0537 61.3479 17.2318 59.9002 16.622C59.3617 16.401 59.141 16.5159 59.1763 15.8884C59.1763 15.4554 59.1763 15.0046 59.1763 14.5981C59.2118 13.826 59.0444 13.0581 58.6908 12.371C58.2747 11.753 57.6464 11.3095 56.9253 11.1248C56.5418 11.0023 56.1492 10.9107 55.7512 10.8509C54.8685 10.7006 54.9744 10.7095 54.8067 9.88753C54.5065 8.34974 53.9239 6.95336 52.2114 6.65287C51.3891 6.54092 50.5565 6.52607 49.7308 6.60867C48.9716 6.65286 48.698 5.15928 48.3096 4.50528C47.9934 3.89005 47.4781 3.40036 46.848 3.11622C46.2178 2.83209 45.5101 2.77031 44.8403 2.94097C44.4134 3.02101 43.9919 3.12728 43.578 3.25914C42.9424 3.44474 43.013 3.17959 42.6423 2.69351C42.1562 1.93177 41.4687 1.3199 40.6561 0.925937C39.1377 0.333802 37.4958 1.46506 36.2423 2.18092C35.0682 1.13806 33.594 -0.417409 31.8285 0.104024C31.0929 0.369464 30.4219 0.788161 29.86 1.33247C29.4009 1.73017 29.4098 2.00417 28.8271 1.68601C28.4495 1.47338 28.0605 1.28158 27.6619 1.11152C26.9803 0.78987 26.2063 0.722649 25.4795 0.921973C24.7528 1.1213 24.121 1.57406 23.6983 2.19859C23.2393 2.7377 22.8156 3.86896 22.1094 3.67452C21.3219 3.41987 20.507 3.25966 19.6818 3.19727C17.9163 3.14424 17.0335 4.42573 16.4332 5.84863C16.2214 6.34355 16.3361 6.57333 15.7447 6.53798C15.3386 6.53798 14.9414 6.53798 14.5353 6.53798C13.7813 6.52193 13.0419 6.74803 12.4255 7.18315C11.9149 7.63753 11.552 8.23476 11.3839 8.8977C11.172 9.58705 11.2338 11.1425 10.5011 11.2662C9.16816 11.496 7.42913 11.7435 6.70527 13.0338C6.37625 13.712 6.23017 14.4646 6.28154 15.2168C6.28154 15.641 6.28155 16.0563 6.35217 16.4806C5.87706 16.6662 5.41156 16.8757 4.95741 17.108C4.27727 17.381 3.71457 17.8846 3.36765 18.5308C3.02073 19.177 2.91165 19.9247 3.05948 20.6432C3.16542 21.359 3.94224 22.7201 3.30666 23.1443C2.56058 23.6383 1.88625 24.2331 1.3028 24.9119C0.199355 26.3083 0.790802 27.8902 1.56763 29.3308C1.9119 29.9406 1.56763 29.9494 1.19687 30.4444C0.912441 30.7826 0.655615 31.1432 0.428872 31.5226C0.192127 31.9051 0.0487691 32.3381 0.0104259 32.7865C-0.0279174 33.2349 0.0398332 33.686 0.208183 34.1032C0.554332 34.8425 1.02292 35.5178 1.59411 36.1006C2.01783 36.5778 2.28266 36.5602 1.94721 37.17C1.72652 37.5853 1.50583 38.0007 1.31163 38.4338C0.902816 39.1777 0.793939 40.0501 1.00735 40.8718C1.22075 41.6936 1.74025 42.4024 2.45921 42.8527C2.79466 43.109 3.13893 43.3476 3.49203 43.5863C3.35962 44.037 3.23604 44.47 3.13893 44.9473C2.90799 45.7383 2.94524 46.5836 3.24486 47.3512C3.57575 47.9521 4.08041 48.4389 4.69258 48.7476C5.023 48.9395 5.36499 49.1106 5.71658 49.2601C6.29037 49.5076 6.83768 49.4723 6.80237 50.1439C6.73175 51.6022 6.60816 53.4846 7.98526 54.4214C8.6527 54.8278 9.39906 55.087 10.1745 55.1815C10.7395 55.2876 10.9425 55.1196 11.0573 55.7295C11.1389 56.2695 11.2659 56.8016 11.4368 57.3203C12.0018 58.9553 13.2906 59.4678 14.9679 59.4678C15.3916 59.4678 15.8506 59.4679 16.239 59.4237C16.8658 59.4237 16.7599 59.6093 16.9806 60.1395C17.2861 60.953 17.7312 61.7067 18.2959 62.3667C19.417 63.5333 21.0059 63.1886 22.4007 62.7732C23.1334 62.5523 23.5836 63.7366 24.1662 64.2668C24.627 64.7826 25.2498 65.1255 25.9317 65.239C26.6979 65.2666 27.4574 65.0864 28.1298 64.7175C28.5447 64.5143 28.9507 64.2933 29.348 64.0724C29.9482 63.7366 29.9747 64.0724 30.4514 64.4613C31.5902 65.4423 32.9408 66.4498 34.4944 65.7869C35.2144 65.4395 35.8709 64.9735 36.4365 64.4082C36.9926 63.9045 38.0078 64.8148 38.7052 65.0534C39.3554 65.2689 40.0584 65.2646 40.706 65.041C41.3535 64.8174 41.9098 64.3871 42.2892 63.8161C42.7394 63.277 43.1719 62.1457 43.8693 62.349C44.6596 62.6045 45.4775 62.7647 46.3057 62.8263C48.0712 62.8793 48.954 61.5978 49.5454 60.1749C49.7573 59.68 49.6425 59.4413 50.2428 59.4767C50.6456 59.4989 51.0494 59.4989 51.4522 59.4767C52.2057 59.4891 52.9439 59.2633 53.562 58.8316C54.7095 57.9478 54.8508 56.1802 55.0626 54.8192C56.4044 54.5894 58.1611 54.4214 59.0615 53.2548C59.473 52.6483 59.6858 51.9287 59.6706 51.1956C59.6706 50.7803 59.6706 50.3649 59.6706 49.9495C59.6706 49.3308 59.8384 49.4546 60.3592 49.2248C61.6833 48.6415 62.9633 47.8196 63.0075 46.2111C62.9725 45.3071 62.8029 44.4135 62.5043 43.5597C62.3101 42.9146 62.5043 42.9941 63.0163 42.6318C63.3252 42.402 63.643 42.1633 63.899 41.907C64.5064 41.4742 64.9461 40.8448 65.1439 40.1252C65.3417 39.4055 65.2855 38.6395 64.9848 37.9565C64.8128 37.5383 64.6152 37.131 64.3934 36.7369C64.0491 36.1271 64.3934 36.1183 64.773 35.6233C65.4571 34.9378 65.8895 34.0408 66 33.078ZM60.933 34.5098C60.5992 40.7629 58.1787 46.7228 54.0592 51.4348C49.9396 56.1468 44.3596 59.338 38.2129 60.4973C32.0663 61.6565 25.7089 60.7167 20.1593 57.8283C14.6097 54.9399 10.1891 50.2702 7.60568 44.5672C4.98135 38.7785 4.40547 32.2674 5.97298 26.107C7.54048 19.9467 11.1578 14.505 16.2286 10.6789C21.2995 6.85282 27.5211 4.87076 33.868 5.05946C40.2149 5.24816 46.3081 7.59634 51.1432 11.7169C54.3632 14.4764 56.9216 17.9259 58.629 21.8098C60.2801 25.8122 61.0654 30.1195 60.933 34.4479V34.5098Z"/>
</mask>
<path d="M66 33.078C65.9518 32.318 65.6679 31.5919 65.1879 31.0011C64.9374 30.6575 64.6693 30.3271 64.3846 30.0113C63.9697 29.5341 63.696 29.5517 64.0315 28.9419C64.9142 27.3776 65.744 25.5924 64.3846 24.0458C63.8251 23.4421 63.1902 22.9134 62.4955 22.4726C62.7929 21.6189 62.9596 20.725 62.9898 19.8213C62.9898 18.0537 61.3479 17.2318 59.9002 16.622C59.3617 16.401 59.141 16.5159 59.1763 15.8884C59.1763 15.4554 59.1763 15.0046 59.1763 14.5981C59.2118 13.826 59.0444 13.0581 58.6908 12.371C58.2747 11.753 57.6464 11.3095 56.9253 11.1248C56.5418 11.0023 56.1492 10.9107 55.7512 10.8509C54.8685 10.7006 54.9744 10.7095 54.8067 9.88753C54.5065 8.34974 53.9239 6.95336 52.2114 6.65287C51.3891 6.54092 50.5565 6.52607 49.7308 6.60867C48.9716 6.65286 48.698 5.15928 48.3096 4.50528C47.9934 3.89005 47.4781 3.40036 46.848 3.11622C46.2178 2.83209 45.5101 2.77031 44.8403 2.94097C44.4134 3.02101 43.9919 3.12728 43.578 3.25914C42.9424 3.44474 43.013 3.17959 42.6423 2.69351C42.1562 1.93177 41.4687 1.3199 40.6561 0.925937C39.1377 0.333802 37.4958 1.46506 36.2423 2.18092C35.0682 1.13806 33.594 -0.417409 31.8285 0.104024C31.0929 0.369464 30.4219 0.788161 29.86 1.33247C29.4009 1.73017 29.4098 2.00417 28.8271 1.68601C28.4495 1.47338 28.0605 1.28158 27.6619 1.11152C26.9803 0.78987 26.2063 0.722649 25.4795 0.921973C24.7528 1.1213 24.121 1.57406 23.6983 2.19859C23.2393 2.7377 22.8156 3.86896 22.1094 3.67452C21.3219 3.41987 20.507 3.25966 19.6818 3.19727C17.9163 3.14424 17.0335 4.42573 16.4332 5.84863C16.2214 6.34355 16.3361 6.57333 15.7447 6.53798C15.3386 6.53798 14.9414 6.53798 14.5353 6.53798C13.7813 6.52193 13.0419 6.74803 12.4255 7.18315C11.9149 7.63753 11.552 8.23476 11.3839 8.8977C11.172 9.58705 11.2338 11.1425 10.5011 11.2662C9.16816 11.496 7.42913 11.7435 6.70527 13.0338C6.37625 13.712 6.23017 14.4646 6.28154 15.2168C6.28154 15.641 6.28155 16.0563 6.35217 16.4806C5.87706 16.6662 5.41156 16.8757 4.95741 17.108C4.27727 17.381 3.71457 17.8846 3.36765 18.5308C3.02073 19.177 2.91165 19.9247 3.05948 20.6432C3.16542 21.359 3.94224 22.7201 3.30666 23.1443C2.56058 23.6383 1.88625 24.2331 1.3028 24.9119C0.199355 26.3083 0.790802 27.8902 1.56763 29.3308C1.9119 29.9406 1.56763 29.9494 1.19687 30.4444C0.912441 30.7826 0.655615 31.1432 0.428872 31.5226C0.192127 31.9051 0.0487691 32.3381 0.0104259 32.7865C-0.0279174 33.2349 0.0398332 33.686 0.208183 34.1032C0.554332 34.8425 1.02292 35.5178 1.59411 36.1006C2.01783 36.5778 2.28266 36.5602 1.94721 37.17C1.72652 37.5853 1.50583 38.0007 1.31163 38.4338C0.902816 39.1777 0.793939 40.0501 1.00735 40.8718C1.22075 41.6936 1.74025 42.4024 2.45921 42.8527C2.79466 43.109 3.13893 43.3476 3.49203 43.5863C3.35962 44.037 3.23604 44.47 3.13893 44.9473C2.90799 45.7383 2.94524 46.5836 3.24486 47.3512C3.57575 47.9521 4.08041 48.4389 4.69258 48.7476C5.023 48.9395 5.36499 49.1106 5.71658 49.2601C6.29037 49.5076 6.83768 49.4723 6.80237 50.1439C6.73175 51.6022 6.60816 53.4846 7.98526 54.4214C8.6527 54.8278 9.39906 55.087 10.1745 55.1815C10.7395 55.2876 10.9425 55.1196 11.0573 55.7295C11.1389 56.2695 11.2659 56.8016 11.4368 57.3203C12.0018 58.9553 13.2906 59.4678 14.9679 59.4678C15.3916 59.4678 15.8506 59.4679 16.239 59.4237C16.8658 59.4237 16.7599 59.6093 16.9806 60.1395C17.2861 60.953 17.7312 61.7067 18.2959 62.3667C19.417 63.5333 21.0059 63.1886 22.4007 62.7732C23.1334 62.5523 23.5836 63.7366 24.1662 64.2668C24.627 64.7826 25.2498 65.1255 25.9317 65.239C26.6979 65.2666 27.4574 65.0864 28.1298 64.7175C28.5447 64.5143 28.9507 64.2933 29.348 64.0724C29.9482 63.7366 29.9747 64.0724 30.4514 64.4613C31.5902 65.4423 32.9408 66.4498 34.4944 65.7869C35.2144 65.4395 35.8709 64.9735 36.4365 64.4082C36.9926 63.9045 38.0078 64.8148 38.7052 65.0534C39.3554 65.2689 40.0584 65.2646 40.706 65.041C41.3535 64.8174 41.9098 64.3871 42.2892 63.8161C42.7394 63.277 43.1719 62.1457 43.8693 62.349C44.6596 62.6045 45.4775 62.7647 46.3057 62.8263C48.0712 62.8793 48.954 61.5978 49.5454 60.1749C49.7573 59.68 49.6425 59.4413 50.2428 59.4767C50.6456 59.4989 51.0494 59.4989 51.4522 59.4767C52.2057 59.4891 52.9439 59.2633 53.562 58.8316C54.7095 57.9478 54.8508 56.1802 55.0626 54.8192C56.4044 54.5894 58.1611 54.4214 59.0615 53.2548C59.473 52.6483 59.6858 51.9287 59.6706 51.1956C59.6706 50.7803 59.6706 50.3649 59.6706 49.9495C59.6706 49.3308 59.8384 49.4546 60.3592 49.2248C61.6833 48.6415 62.9633 47.8196 63.0075 46.2111C62.9725 45.3071 62.8029 44.4135 62.5043 43.5597C62.3101 42.9146 62.5043 42.9941 63.0163 42.6318C63.3252 42.402 63.643 42.1633 63.899 41.907C64.5064 41.4742 64.9461 40.8448 65.1439 40.1252C65.3417 39.4055 65.2855 38.6395 64.9848 37.9565C64.8128 37.5383 64.6152 37.131 64.3934 36.7369C64.0491 36.1271 64.3934 36.1183 64.773 35.6233C65.4571 34.9378 65.8895 34.0408 66 33.078ZM60.933 34.5098C60.5992 40.7629 58.1787 46.7228 54.0592 51.4348C49.9396 56.1468 44.3596 59.338 38.2129 60.4973C32.0663 61.6565 25.7089 60.7167 20.1593 57.8283C14.6097 54.9399 10.1891 50.2702 7.60568 44.5672C4.98135 38.7785 4.40547 32.2674 5.97298 26.107C7.54048 19.9467 11.1578 14.505 16.2286 10.6789C21.2995 6.85282 27.5211 4.87076 33.868 5.05946C40.2149 5.24816 46.3081 7.59634 51.1432 11.7169C54.3632 14.4764 56.9216 17.9259 58.629 21.8098C60.2801 25.8122 61.0654 30.1195 60.933 34.4479V34.5098Z" fill="#A5A5A5" fill-opacity="0.4" stroke="#A5A5A5" stroke-width="2" mask="url(#path-1-inside-1_2349_12788)"/>
<path d="M58.6989 32.9718C58.6989 47.2084 47.1715 58.7484 32.953 58.7484C18.7344 58.7484 7.20703 47.2084 7.20703 32.9718C7.20703 18.7353 18.7344 7.19531 32.953 7.19531C47.1715 7.19531 58.6989 18.7353 58.6989 32.9718Z" fill="#A5A5A5" fill-opacity="0.4" stroke="#A5A5A5"/>
<path d="M14.1442 40.5934L17.5502 46.4997C18.5084 48.1612 19.3937 48.1831 21.527 46.95C22.0239 46.6627 25.3329 44.7501 25.8662 44.4418C27.9631 43.2297 28.0339 42.3156 26.9806 39.9006C26.6063 40.0361 25.9853 40.1363 25.5512 40.1123C26.4656 42.0902 26.4885 42.5783 25.1915 43.3279C24.4158 43.7763 21.4826 45.4718 20.8402 45.8431C19.5069 46.6138 19.1735 46.5962 18.7329 45.8322L15.3199 39.9138L14.1442 40.5934ZM15.8618 42.0585L16.5192 43.1985L23.4766 39.177L22.8191 38.037L15.8618 42.0585ZM12.2946 38.7033L12.9521 39.8433L20.6973 35.3664L23.3759 40.0114L24.5638 39.3248L21.2277 33.5398L12.2946 38.7033Z" fill="white"/>
<path d="M29.3946 33.1851L33.5884 30.761L34.7424 32.7621L30.5486 35.1862L29.3946 33.1851ZM27.5811 32.8427L29.938 36.9298L36.6166 33.0695L34.2596 28.9824L27.5811 32.8427ZM31.3263 35.6099C32.2374 37.6382 32.4692 39.1051 29.8441 41.4471C30.1952 41.5515 30.7449 41.832 31.0218 42.0601C33.8832 39.3712 33.6495 37.4526 32.5141 34.9233L31.3263 35.6099ZM33.4334 34.3596L35.1679 37.3673C35.8113 38.4831 36.3274 38.6214 37.6244 37.8717C37.891 37.7176 39.2243 36.9469 39.491 36.7928C40.5576 36.1762 40.635 35.5817 39.8451 33.9038C39.495 34.0253 38.9174 34.1166 38.57 34.0748C39.2279 35.3278 39.241 35.5466 38.7925 35.8058C38.4774 35.988 37.3865 36.6185 37.1562 36.7516C36.635 37.0529 36.5101 37.0604 36.3003 36.6966L34.5728 33.701L33.4334 34.3596ZM27.2657 29.2411C27.2159 31.0325 26.4258 33.0254 25.2851 34.6064C25.6949 34.6445 26.4315 34.8008 26.7775 34.9243C27.7997 33.25 28.6201 31.0293 28.7034 28.9599L27.2657 29.2411ZM30.3164 28.2539C32.3118 28.4912 34.8951 29.0193 36.2322 29.5724L36.888 28.2716C35.447 27.7624 32.8623 27.316 30.9383 27.1183L30.3164 28.2539Z" fill="white"/>
<path d="M39.4504 30.445L40.3657 31.3875C41.2122 30.4454 42.2695 29.2521 43.254 28.1009L42.4899 27.1681C41.3911 28.4015 40.2369 29.6508 39.4504 30.445ZM37.349 26.4366L37.9575 27.4917L41.5573 25.4109L40.9489 24.3558L37.349 26.4366ZM37.3166 23.2697L43.0096 33.1418C43.1006 33.2995 43.08 33.376 42.9346 33.4601C42.7891 33.5442 42.377 33.7824 41.9216 34.0295C42.2437 34.2799 42.6638 34.7001 42.8871 34.9752C43.6265 34.5479 44.0904 34.2312 44.3057 33.848C44.5211 33.4648 44.4483 33.0864 44.1126 32.5043L38.4196 22.6322L37.3166 23.2697ZM41.8983 20.6214C42.1207 21.932 42.1125 23.6832 41.472 25.3471C41.7741 25.3665 42.3182 25.5533 42.5965 25.6996C43.2775 23.7698 43.3007 21.8483 43.0628 20.1747L41.8983 20.6214ZM42.5771 21.4903L42.5684 22.7082L45.4774 21.0267L44.9528 20.1171L42.5771 21.4903ZM42.1293 24.385L44.9478 29.2725L45.8933 28.7261L43.6133 24.7724L47.6495 22.4393L49.9295 26.393L50.8992 25.8325L48.0806 20.945L42.1293 24.385ZM43.8136 29.4916L44.3591 30.4375L52.0195 26.0097L51.4739 25.0637L43.8136 29.4916ZM46.5225 26.4542C47.6187 28.7475 47.8524 30.2456 45.1094 32.6073C45.4413 32.7065 45.9388 32.9526 46.1775 33.1704C49.1759 30.467 48.9301 28.5554 47.6376 25.8097L46.5225 26.4542ZM44.6619 20.2853L44.7738 20.4793C44.8825 21.1442 44.9357 22.2454 44.8173 22.993C45.1055 22.9881 45.5637 22.9981 45.8295 23.0386C45.9683 22.2144 46.0396 20.9928 45.9593 20.069L45.0218 20.0126L44.8801 20.1592L44.6619 20.2853ZM45.3526 23.5568C45.4734 24.635 45.2753 25.833 44.7882 26.8098C45.0763 26.805 45.5938 26.8616 45.8475 26.9091C46.2632 25.8926 46.4883 24.5173 46.346 23.2898L45.3526 23.5568ZM45.8114 24.9409C46.7522 24.9469 47.9746 25.0489 48.6436 25.2282L48.8133 24.2892C48.1391 24.1291 46.9186 24.0584 46.0109 24.0818L45.8114 24.9409ZM48.9823 28.5899C50.29 28.7557 52.0929 29.0235 53.0346 29.2553L53.3613 28.1124C52.3902 27.9137 50.5911 27.7085 49.3165 27.572L48.9823 28.5899Z" fill="white"/>
</svg>
