<svg width="22" height="22" viewBox="0 0 22 22" fill="none" xmlns="http://www.w3.org/2000/svg">
<g clip-path="url(#clip0_2349_12807)">
<path d="M15.0598 6.54692C16.0576 6.54692 16.8665 5.73805 16.8665 4.74025C16.8665 3.74246 16.0576 2.93359 15.0598 2.93359C14.062 2.93359 13.2532 3.74246 13.2532 4.74025C13.2532 5.73805 14.062 6.54692 15.0598 6.54692Z" stroke="white" stroke-width="1.5" stroke-linecap="round" stroke-linejoin="round"/>
<path d="M15.0598 19.1934C16.0576 19.1934 16.8665 18.3845 16.8665 17.3867C16.8665 16.3889 16.0576 15.5801 15.0598 15.5801C14.062 15.5801 13.2532 16.3889 13.2532 17.3867C13.2532 18.3845 14.062 19.1934 15.0598 19.1934Z" stroke="white" stroke-width="1.5" stroke-linecap="round" stroke-linejoin="round"/>
<path d="M6.20656 12.8702C7.20435 12.8702 8.01322 12.0613 8.01322 11.0635C8.01322 10.0657 7.20435 9.25684 6.20656 9.25684C5.20877 9.25684 4.3999 10.0657 4.3999 11.0635C4.3999 12.0613 5.20877 12.8702 6.20656 12.8702Z" stroke="white" stroke-width="1.5" stroke-linecap="round" stroke-linejoin="round"/>
<path d="M13.2532 6.54688L7.83319 10.1602" stroke="white" stroke-width="1.5" stroke-linecap="square" stroke-linejoin="round"/>
<path d="M13.2532 15.5801L7.83319 11.9668" stroke="white" stroke-width="1.5" stroke-linecap="square" stroke-linejoin="round"/>
</g>
<defs>
<clipPath id="clip0_2349_12807">
<rect width="22" height="22" fill="white"/>
</clipPath>
</defs>
</svg>
