<svg width="100" height="100" viewBox="0 0 100 100" fill="none" xmlns="http://www.w3.org/2000/svg">
<circle cx="50.0019" cy="50.0009" r="42.6034" fill="#022B42" fill-opacity="0.8" stroke="#FF7987"/>
<circle cx="50" cy="50" r="49.5" stroke="#FF7987" stroke-opacity="0.4"/>
<mask id="path-3-inside-1_2349_12872" fill="white">
<path fill-rule="evenodd" clip-rule="evenodd" d="M50 61.9998C57.4558 61.9998 63.5 60.0153 63.5 53.2498C63.5 51.6604 63.1664 50.1416 62.5592 48.748C70.2863 51.0675 75.5 55.4613 75.5 60.4998C75.5 67.9557 64.0833 73.9998 50 73.9998C35.9167 73.9998 24.5 67.9557 24.5 60.4998C24.5 55.4613 29.7137 51.0675 37.4408 48.748C36.8336 50.1416 36.5 51.6604 36.5 53.2498C36.5 60.0153 42.5442 61.9998 50 61.9998Z"/>
</mask>
<path d="M62.5592 48.748L63.4217 45.8747L57.2245 44.0144L59.8089 49.9463L62.5592 48.748ZM37.4408 48.748L40.1911 49.9463L42.7755 44.0144L36.5783 45.8747L37.4408 48.748ZM60.5 53.2498C60.5 54.4811 60.2299 55.3228 59.8673 55.9266C59.5026 56.5338 58.9415 57.0712 58.1017 57.5324C56.3262 58.5076 53.564 58.9998 50 58.9998V64.9998C53.8919 64.9998 57.8797 64.4998 60.9902 62.7914C62.5934 61.9108 64.0093 60.6835 65.0109 59.0158C66.0146 57.3447 66.5 55.4013 66.5 53.2498H60.5ZM59.8089 49.9463C60.2566 50.9737 60.5 52.0855 60.5 53.2498H66.5C66.5 51.2353 66.0762 49.3095 65.3095 47.5498L59.8089 49.9463ZM61.6967 51.6214C65.2715 52.6945 68.0789 54.1966 69.9336 55.846C71.7836 57.4914 72.5 59.094 72.5 60.4998H78.5C78.5 56.8672 76.6095 53.7537 73.9209 51.3626C71.237 48.9757 67.574 47.1211 63.4217 45.8747L61.6967 51.6214ZM72.5 60.4998C72.5 62.5689 70.8635 65.1518 66.6276 67.3944C62.5258 69.5659 56.6522 70.9998 50 70.9998V76.9998C57.431 76.9998 64.3074 75.4117 69.4349 72.6971C74.4281 70.0537 78.5 65.8866 78.5 60.4998H72.5ZM50 70.9998C43.3478 70.9998 37.4742 69.5659 33.3724 67.3944C29.1365 65.1518 27.5 62.5689 27.5 60.4998H21.5C21.5 65.8866 25.5719 70.0537 30.5651 72.6971C35.6926 75.4117 42.569 76.9998 50 76.9998V70.9998ZM27.5 60.4998C27.5 59.094 28.2164 57.4914 30.0664 55.846C31.9211 54.1966 34.7285 52.6945 38.3033 51.6214L36.5783 45.8747C32.426 47.1211 28.763 48.9757 26.0791 51.3626C23.3905 53.7537 21.5 56.8672 21.5 60.4998H27.5ZM39.5 53.2498C39.5 52.0855 39.7434 50.9737 40.1911 49.9463L34.6905 47.5498C33.9238 49.3095 33.5 51.2353 33.5 53.2498H39.5ZM50 58.9998C46.436 58.9998 43.6738 58.5076 41.8983 57.5324C41.0585 57.0712 40.4974 56.5338 40.1327 55.9266C39.7701 55.3228 39.5 54.4811 39.5 53.2498H33.5C33.5 55.4013 33.9854 57.3447 34.9891 59.0158C35.9907 60.6835 37.4066 61.9108 39.0098 62.7914C42.1203 64.4998 46.1081 64.9998 50 64.9998V58.9998Z" fill="#FF7987" mask="url(#path-3-inside-1_2349_12872)"/>
<path d="M50 63.5C53.8099 63.5 57.4913 63.0019 60.2681 61.4768C61.6804 60.7011 62.8826 59.6462 63.725 58.2437C64.5684 56.8394 65 55.1714 65 53.25C65 45.5223 58.1438 39.5 50 39.5C41.8562 39.5 35 45.5223 35 53.25C35 55.1714 35.4316 56.8394 36.275 58.2437C37.1174 59.6462 38.3196 60.7011 39.7319 61.4768C42.5087 63.0019 46.1901 63.5 50 63.5Z" stroke="#FF7987" stroke-width="3"/>
<path fill-rule="evenodd" clip-rule="evenodd" d="M71.6144 63.6607C68.8992 69.2856 60.25 73.3979 50 73.3979C39.1658 73.3979 30.12 68.8034 27.9799 62.6846C27.6655 63.7799 27.5001 64.9557 27.5 66.212C27.4994 72.0966 37.5736 77.0004 50 77.0004C62.4264 77.0004 72.5 73.0773 72.5 66.212C72.5 65.5479 72.191 64.6651 71.6144 63.6607Z" fill="#FF7987"/>
<path d="M54.0833 76.25C54.0833 77.6058 52.6947 79 50.5833 79C48.4718 79 47.0833 77.6058 47.0833 76.25C47.0833 74.8942 48.4718 73.5 50.5833 73.5C52.6947 73.5 54.0833 74.8942 54.0833 76.25Z" fill="#FF7987" stroke="#FF7987" stroke-width="2"/>
<path d="M40.5296 75.3576C40.2942 76.6928 38.6847 77.8247 36.6053 77.4581C34.5259 77.0914 33.4006 75.4773 33.636 74.1421C33.8714 72.8069 35.481 71.675 37.5604 72.0416C39.6397 72.4083 40.7651 74.0224 40.5296 75.3576Z" fill="#FF7987" stroke="#FF7987" stroke-width="2"/>
<path d="M66.6126 74.1417C66.8481 75.4769 65.7227 77.0911 63.6434 77.4577C61.564 77.8244 59.9544 76.6925 59.719 75.3573C59.4836 74.0221 60.6089 72.4079 62.6883 72.0413C64.7677 71.6746 66.3772 72.8065 66.6126 74.1417Z" fill="#FF7987" stroke="#FF7987" stroke-width="2"/>
<path d="M53 45.5C54 45.6818 57.8 47.1364 59 51.5" stroke="#FF7987" stroke-width="2" stroke-linecap="round"/>
<path d="M50 39.5V33.5" stroke="#FF7987" stroke-width="3" stroke-linecap="round"/>
<circle cx="50" cy="30.5" r="3" stroke="#FF7987" stroke-width="3"/>
<path d="M36 30H40.3077M50 17V21M59.6923 30H64M40.0444 20.7556L43.2872 23.7667M59.9556 20.7556L56.7128 23.7667" stroke="#FF7987" stroke-width="3" stroke-linecap="round" stroke-linejoin="round"/>
</svg>
