<svg width="375" height="140" viewBox="0 0 375 140" fill="none" xmlns="http://www.w3.org/2000/svg">
<g clip-path="url(#clip0_2582_13059)">
<rect x="-0.5" y="12.5" width="376" height="99" fill="#004973" fill-opacity="0.5" stroke="#0074A2"/>
<line x1="93.5" y1="12" x2="93.5" y2="112" stroke="#0074A2"/>
<line x1="140.5" y1="12" x2="140.5" y2="112" stroke="#0074A2"/>
<line x1="46.5" y1="12" x2="46.5" y2="112" stroke="#0074A2"/>
<line x1="187.5" y1="12" x2="187.5" y2="112" stroke="#0074A2"/>
<line x1="234.5" y1="12" x2="234.5" y2="112" stroke="#0074A2"/>
<line x1="281.5" y1="12" x2="281.5" y2="112" stroke="#0074A2"/>
<line x1="328.5" y1="12" x2="328.5" y2="112" stroke="#0074A2"/>
<circle cx="33.5" cy="32.5" r="1.5" fill="#51A3D3" fill-opacity="0.5"/>
<circle cx="9.5" cy="83.5" r="1.5" fill="#51A3D3" fill-opacity="0.3"/>
<circle cx="75.5" cy="82.5" r="1.5" fill="#51A3D3" fill-opacity="0.5"/>
<circle cx="104.5" cy="23.5" r="1.5" fill="#51A3D3" fill-opacity="0.3"/>
<circle cx="35.5" cy="102.5" r="1.5" fill="#51A3D3" fill-opacity="0.7"/>
<circle cx="126.5" cy="99.5" r="1.5" fill="#51A3D3" fill-opacity="0.3"/>
<circle cx="149.5" cy="36.5" r="1.5" fill="#51A3D3" fill-opacity="0.7"/>
<circle cx="172.5" cy="76.5" r="1.5" fill="#51A3D3" fill-opacity="0.25"/>
<circle cx="206.5" cy="43.5" r="1.5" fill="#51A3D3" fill-opacity="0.5"/>
<circle cx="242.5" cy="21.5" r="1.5" fill="#51A3D3" fill-opacity="0.3"/>
<circle cx="256.5" cy="76.5" r="1.5" fill="#51A3D3" fill-opacity="0.5"/>
<circle cx="217.5" cy="100.5" r="1.5" fill="#51A3D3" fill-opacity="0.5"/>
<circle cx="337.5" cy="23.5" r="1.5" fill="#51A3D3" fill-opacity="0.5"/>
<circle cx="295.5" cy="45.5" r="1.5" fill="#51A3D3" fill-opacity="0.5"/>
<circle cx="315.5" cy="96.5" r="1.5" fill="#51A3D3" fill-opacity="0.7"/>
<path d="M358 73.5C358 74.3284 357.328 75 356.5 75C355.672 75 355 74.3284 355 73.5C355 72.6716 355.672 72 356.5 72C357.328 72 358 72.6716 358 73.5Z" fill="#51A3D3" fill-opacity="0.5"/>
<g clip-path="url(#clip1_2582_13059)">
<mask id="mask0_2582_13059" style="mask-type:alpha" maskUnits="userSpaceOnUse" x="-14" y="42" width="403" height="36">
<path d="M-14 43C8.38402 43 8.38402 77 30.779 77C53.174 77 53.163 43 75.558 43C97.953 43 97.942 77 120.326 77C142.71 77 142.71 43 165.105 43C187.5 43 187.489 77 209.884 77C232.279 77 232.268 43 254.663 43C277.058 43 277.047 77 299.442 77C321.837 77 321.826 43 344.221 43C366.616 43 366.616 77 389 77" stroke="#51A3D3" stroke-width="2" stroke-miterlimit="10"/>
</mask>
<g mask="url(#mask0_2582_13059)">
<rect y="24" width="47" height="58" fill="#51A3D3"/>
</g>
</g>
<path d="M97.352 130.234H95.616V128.26H93.908V130.234H90.702L95.252 124.2H93.306L88.476 130.514V131.774H93.852V134H95.616V131.774H97.352V130.234Z" fill="#51A3D3"/>
<path d="M46.704 134.14C49.042 134.14 50.806 132.32 50.806 129.1C50.806 125.88 49.042 124.06 46.704 124.06C44.38 124.06 42.616 125.88 42.616 129.1C42.616 132.32 44.38 134.14 46.704 134.14ZM46.704 132.558C45.374 132.558 44.45 131.466 44.45 129.1C44.45 126.734 45.374 125.642 46.704 125.642C48.048 125.642 48.972 126.734 48.972 129.1C48.972 131.466 48.048 132.558 46.704 132.558Z" fill="#51A3D3"/>
<path d="M143.406 128.848C144.204 128.414 144.652 127.714 144.652 126.79C144.652 125.11 143.168 124.06 140.984 124.06C138.814 124.06 137.344 125.11 137.344 126.79C137.344 127.714 137.778 128.414 138.562 128.848C137.554 129.31 136.994 130.108 136.994 131.186C136.994 133.006 138.548 134.14 140.984 134.14C143.42 134.14 145.002 133.006 145.002 131.186C145.002 130.108 144.428 129.31 143.406 128.848ZM140.984 125.488C142.104 125.488 142.86 125.992 142.86 126.874C142.86 127.714 142.146 128.246 140.984 128.246C139.836 128.246 139.136 127.714 139.136 126.874C139.136 125.992 139.864 125.488 140.984 125.488ZM140.984 132.712C139.64 132.712 138.828 132.124 138.828 131.13C138.828 130.164 139.64 129.562 140.984 129.562C142.328 129.562 143.168 130.164 143.168 131.13C143.168 132.124 142.328 132.712 140.984 132.712Z" fill="#51A3D3"/>
<path d="M181.232 124.2V125.726H183.304V134H185.124V124.2H181.232ZM189.826 132.46L192.444 129.968C193.802 128.694 194.068 127.826 194.068 126.874C194.068 125.138 192.696 124.06 190.568 124.06C188.958 124.06 187.6 124.662 186.844 125.684L188.118 126.664C188.664 125.964 189.462 125.642 190.414 125.642C191.618 125.642 192.234 126.16 192.234 127.056C192.234 127.602 192.066 128.176 191.114 129.086L187.222 132.782V134H194.446V132.46H189.826Z" fill="#51A3D3"/>
<rect x="223" y="118" width="24" height="22" rx="8" fill="#F4435A"/>
<path d="M228.417 124.2V125.726H230.489V134H232.309V124.2H228.417ZM238.985 127.952C237.893 127.952 236.955 128.288 236.367 128.974V128.96C236.367 126.734 237.529 125.586 239.377 125.586C240.063 125.586 240.707 125.712 241.239 126.062L241.911 124.69C241.253 124.27 240.315 124.06 239.335 124.06C236.493 124.06 234.533 125.908 234.533 129.268C234.533 132.418 236.101 134.14 238.775 134.14C240.777 134.14 242.359 132.908 242.359 130.962C242.359 129.128 240.917 127.952 238.985 127.952ZM238.677 132.712C237.375 132.712 236.647 131.984 236.647 131.06C236.647 130.094 237.459 129.38 238.635 129.38C239.825 129.38 240.595 130.024 240.595 131.046C240.595 132.068 239.811 132.712 238.677 132.712Z" fill="white"/>
<rect x="317" y="118" width="24" height="22" rx="8" fill="#F4435A"/>
<path d="M276.19 132.46L278.808 129.968C280.166 128.694 280.432 127.826 280.432 126.874C280.432 125.138 279.06 124.06 276.932 124.06C275.322 124.06 273.964 124.662 273.208 125.684L274.482 126.664C275.028 125.964 275.826 125.642 276.778 125.642C277.982 125.642 278.598 126.16 278.598 127.056C278.598 127.602 278.43 128.176 277.478 129.086L273.586 132.782V134H280.81V132.46H276.19ZM286.188 134.14C288.526 134.14 290.29 132.32 290.29 129.1C290.29 125.88 288.526 124.06 286.188 124.06C283.864 124.06 282.1 125.88 282.1 129.1C282.1 132.32 283.864 134.14 286.188 134.14ZM286.188 132.558C284.858 132.558 283.934 131.466 283.934 129.1C283.934 126.734 284.858 125.642 286.188 125.642C287.532 125.642 288.456 126.734 288.456 129.1C288.456 131.466 287.532 132.558 286.188 132.558Z" fill="#51A3D3"/>
<path d="M323.094 132.46L325.712 129.968C327.07 128.694 327.336 127.826 327.336 126.874C327.336 125.138 325.964 124.06 323.836 124.06C322.226 124.06 320.868 124.662 320.112 125.684L321.386 126.664C321.932 125.964 322.73 125.642 323.682 125.642C324.886 125.642 325.502 126.16 325.502 127.056C325.502 127.602 325.334 128.176 324.382 129.086L320.49 132.782V134H327.714V132.46H323.094ZM337.575 130.234H335.839V128.26H334.131V130.234H330.925L335.475 124.2H333.529L328.699 130.514V131.774H334.075V134H335.839V131.774H337.575V130.234Z" fill="white"/>
<mask id="path-36-inside-1_2582_13059" fill="white">
<path fill-rule="evenodd" clip-rule="evenodd" d="M66 30C74.2843 30 81 23.2843 81 15C81 6.71573 74.2843 5.13494e-06 66 4.4107e-06L26 0C17.7157 0 11 6.71573 11 15C11 23.2843 17.7157 30 26 30L42.5359 30L46 36L49.4641 30L66 30Z"/>
</mask>
<path fill-rule="evenodd" clip-rule="evenodd" d="M66 30C74.2843 30 81 23.2843 81 15C81 6.71573 74.2843 5.13494e-06 66 4.4107e-06L26 0C17.7157 0 11 6.71573 11 15C11 23.2843 17.7157 30 26 30L42.5359 30L46 36L49.4641 30L66 30Z" fill="#0074A2" fill-opacity="0.8"/>
<path d="M66 30L66 29L66 29L66 30ZM66 4.4107e-06L66 1L66 4.4107e-06ZM26 0L26 -1H26V0ZM11 15L10 15V15H11ZM26 30L26 29H26V30ZM42.5359 30L43.4019 29.5L43.1132 29L42.5359 29L42.5359 30ZM46 36L45.134 36.5L46 38L46.866 36.5L46 36ZM49.4641 30L49.4641 29L48.8868 29L48.5981 29.5L49.4641 30ZM80 15C80 22.732 73.732 29 66 29L66 31C74.8366 31 82 23.8366 82 15H80ZM66 1C73.732 1.00001 80 7.26802 80 15H82C82 6.16345 74.8366 -0.999995 66 -0.999996L66 1ZM26 1L66 1L66 -0.999996L26 -1L26 1ZM12 15C12 7.26801 18.268 1 26 1V-1C17.1634 -1 10 6.16344 10 15L12 15ZM26 29C18.268 29 12 22.732 12 15H10C10 23.8366 17.1634 31 26 31V29ZM42.5359 29L26 29L26 31L42.5359 31L42.5359 29ZM46.866 35.5L43.4019 29.5L41.6699 30.5L45.134 36.5L46.866 35.5ZM48.5981 29.5L45.134 35.5L46.866 36.5L50.3301 30.5L48.5981 29.5ZM66 29L49.4641 29L49.4641 31L66 31L66 29Z" fill="#51A3D3" mask="url(#path-36-inside-1_2582_13059)"/>
<path d="M32.7319 21.16C31.8466 21.16 31.0466 20.936 30.3319 20.488C29.6279 20.04 29.0733 19.3893 28.6679 18.536C28.2626 17.672 28.0599 16.6267 28.0599 15.4C28.0599 14.1733 28.2626 13.1333 28.6679 12.28C29.0733 11.416 29.6279 10.76 30.3319 10.312C31.0466 9.864 31.8466 9.64 32.7319 9.64C33.6279 9.64 34.4279 9.864 35.1319 10.312C35.8359 10.76 36.3906 11.416 36.7959 12.28C37.2119 13.1333 37.4199 14.1733 37.4199 15.4C37.4199 16.6267 37.2119 17.672 36.7959 18.536C36.3906 19.3893 35.8359 20.04 35.1319 20.488C34.4279 20.936 33.6279 21.16 32.7319 21.16ZM32.7319 19.352C33.2546 19.352 33.7079 19.2133 34.0919 18.936C34.4759 18.648 34.7746 18.2107 34.9879 17.624C35.2119 17.0373 35.3239 16.296 35.3239 15.4C35.3239 14.4933 35.2119 13.752 34.9879 13.176C34.7746 12.5893 34.4759 12.1573 34.0919 11.88C33.7079 11.592 33.2546 11.448 32.7319 11.448C32.2306 11.448 31.7826 11.592 31.3879 11.88C31.0039 12.1573 30.6999 12.5893 30.4759 13.176C30.2626 13.752 30.1559 14.4933 30.1559 15.4C30.1559 16.296 30.2626 17.0373 30.4759 17.624C30.6999 18.2107 31.0039 18.648 31.3879 18.936C31.7826 19.2133 32.2306 19.352 32.7319 19.352ZM37.6491 22.6L42.9291 7.528H44.7211L39.4411 22.6H37.6491ZM44.9466 21V19.608L49.3946 15.384C49.7679 15.032 50.0452 14.7227 50.2266 14.456C50.4079 14.1893 50.5252 13.944 50.5786 13.72C50.6426 13.4853 50.6746 13.2667 50.6746 13.064C50.6746 12.552 50.4986 12.1573 50.1466 11.88C49.7946 11.592 49.2772 11.448 48.5946 11.448C48.0506 11.448 47.5546 11.544 47.1066 11.736C46.6692 11.928 46.2906 12.2213 45.9706 12.616L44.5146 11.496C44.9519 10.9093 45.5386 10.456 46.2746 10.136C47.0212 9.80533 47.8532 9.64 48.7706 9.64C49.5812 9.64 50.2852 9.77333 50.8826 10.04C51.4906 10.296 51.9546 10.664 52.2746 11.144C52.6052 11.624 52.7706 12.1947 52.7706 12.856C52.7706 13.2187 52.7226 13.5813 52.6266 13.944C52.5306 14.296 52.3492 14.6693 52.0826 15.064C51.8159 15.4587 51.4266 15.9013 50.9146 16.392L47.0906 20.024L46.6586 19.24H53.2026V21H44.9466ZM54.3287 18.456V17.016L59.8487 9.8H62.0727L56.6327 17.016L55.5927 16.696H64.4727V18.456H54.3287ZM60.4727 21V18.456L60.5367 16.696V14.44H62.4887V21H60.4727Z" fill="white"/>
<circle cx="46" cy="62" r="24.5" fill="#022B42" fill-opacity="0.8" stroke="#51A3D3"/>
<circle cx="46" cy="62" r="28.5" stroke="#51A3D3" stroke-opacity="0.4"/>
<mask id="path-41-inside-2_2582_13059" fill="white">
<path fill-rule="evenodd" clip-rule="evenodd" d="M46.0001 66.7004C50.7221 66.7004 54.5501 65.4436 54.5501 61.1588C54.5501 60.1521 54.3388 59.1902 53.9543 58.3076C58.8481 59.7766 62.1501 62.5594 62.1501 65.7504C62.1501 70.4724 54.9195 74.3004 46.0001 74.3004C37.0807 74.3004 29.8501 70.4724 29.8501 65.7504C29.8501 62.5594 33.1521 59.7766 38.0459 58.3076C37.6614 59.1902 37.4501 60.1521 37.4501 61.1588C37.4501 65.4436 41.2781 66.7004 46.0001 66.7004Z"/>
</mask>
<path d="M53.9543 58.3076L54.5293 56.3921L50.3978 55.1519L52.1207 59.1065L53.9543 58.3076ZM38.0459 58.3076L39.8795 59.1065L41.6024 55.1519L37.4709 56.3921L38.0459 58.3076ZM52.5501 61.1588C52.5501 61.9232 52.3826 62.4379 52.1637 62.8026C51.9433 63.1694 51.6022 63.4983 51.083 63.7834C49.9808 64.3888 48.2518 64.7004 46.0001 64.7004V68.7004C48.4704 68.7004 51.0165 68.3836 53.0087 67.2894C54.0368 66.7247 54.9478 65.9359 55.5927 64.862C56.2391 63.7859 56.5501 62.5367 56.5501 61.1588H52.5501ZM52.1207 59.1065C52.3989 59.745 52.5501 60.4355 52.5501 61.1588H56.5501C56.5501 59.8687 56.2787 58.6354 55.7878 57.5088L52.1207 59.1065ZM53.3793 60.2232C55.6337 60.8999 57.3974 61.8454 58.5583 62.8777C59.716 63.9073 60.1501 64.8972 60.1501 65.7504H64.1501C64.1501 63.4126 62.9332 61.4156 61.2165 59.8888C59.5028 58.3648 57.1687 57.1843 54.5293 56.3921L53.3793 60.2232ZM60.1501 65.7504C60.1501 67.0056 59.1542 68.615 56.4841 70.0286C53.9034 71.3948 50.2002 72.3004 46.0001 72.3004V76.3004C50.7194 76.3004 55.0912 75.292 58.3557 73.5638C61.5307 71.8829 64.1501 69.2173 64.1501 65.7504H60.1501ZM46.0001 72.3004C41.8 72.3004 38.0968 71.3948 35.5161 70.0286C32.846 68.615 31.8501 67.0056 31.8501 65.7504H27.8501C27.8501 69.2173 30.4695 71.8829 33.6445 73.5638C36.909 75.292 41.2808 76.3004 46.0001 76.3004V72.3004ZM31.8501 65.7504C31.8501 64.8972 32.2842 63.9073 33.4419 62.8777C34.6028 61.8454 36.3665 60.8999 38.6209 60.2232L37.4709 56.3921C34.8315 57.1843 32.4974 58.3648 30.7837 59.8888C29.067 61.4156 27.8501 63.4126 27.8501 65.7504H31.8501ZM39.4501 61.1588C39.4501 60.4355 39.6013 59.745 39.8795 59.1065L36.2124 57.5088C35.7215 58.6354 35.4501 59.8687 35.4501 61.1588H39.4501ZM46.0001 64.7004C43.7484 64.7004 42.0194 64.3888 40.9172 63.7834C40.398 63.4983 40.0569 63.1694 39.8365 62.8026C39.6176 62.4379 39.4501 61.9232 39.4501 61.1588H35.4501C35.4501 62.5367 35.7611 63.7859 36.4075 64.862C37.0524 65.9359 37.9634 66.7247 38.9915 67.2894C40.9837 68.3836 43.5298 68.7004 46.0001 68.7004V64.7004Z" fill="#FF7987" mask="url(#path-41-inside-2_2582_13059)"/>
<path d="M46.0002 67.7004C48.4159 67.7004 50.7576 67.3849 52.5274 66.4129C53.4282 65.9181 54.1968 65.2443 54.7356 64.3471C55.275 63.4489 55.5502 62.3833 55.5502 61.1587C55.5502 56.2324 51.1809 52.4004 46.0002 52.4004C40.8195 52.4004 36.4502 56.2324 36.4502 61.1587C36.4502 62.3833 36.7253 63.4489 37.2648 64.3471C37.8036 65.2443 38.5722 65.9181 39.473 66.4129C41.2428 67.3849 43.5845 67.7004 46.0002 67.7004Z" stroke="#FF7987" stroke-width="2"/>
<path fill-rule="evenodd" clip-rule="evenodd" d="M59.6891 67.752C57.9695 71.3144 52.4917 73.9189 46 73.9189C39.1383 73.9189 33.4094 71.0091 32.0539 67.1338C31.8548 67.8275 31.7501 68.5722 31.75 69.3678C31.7496 73.0947 38.1299 76.2005 46 76.2005C53.8701 76.2005 60.25 73.7159 60.25 69.3678C60.25 68.9472 60.0543 68.3881 59.6891 67.752Z" fill="#FF7987"/>
<path d="M48.2195 75.7256C48.2195 76.322 47.5697 77.1006 46.3695 77.1006C45.1693 77.1006 44.5195 76.322 44.5195 75.7256C44.5195 75.1292 45.1693 74.3506 46.3695 74.3506C47.5697 74.3506 48.2195 75.1292 48.2195 75.7256Z" fill="#FF7987" stroke="#FF7987" stroke-width="2"/>
<path d="M39.641 75.0965C39.5374 75.6838 38.7623 76.3377 37.5803 76.1293C36.3984 75.9209 35.8936 75.0413 35.9972 74.454C36.1008 73.8666 36.8759 73.2127 38.0579 73.4211C39.2398 73.6295 39.7446 74.5091 39.641 75.0965Z" fill="#FF7987" stroke="#FF7987" stroke-width="2"/>
<path d="M56.1602 74.4544C56.2637 75.0418 55.759 75.9214 54.577 76.1298C53.3951 76.3382 52.6199 75.6843 52.5164 75.0969C52.4128 74.5096 52.9175 73.63 54.0995 73.4216C55.2814 73.2131 56.0566 73.8671 56.1602 74.4544Z" fill="#FF7987" stroke="#FF7987" stroke-width="2"/>
<path d="M47.9001 56.25C48.5335 56.3652 50.9401 57.2864 51.7001 60.05" stroke="#FF7987" stroke-width="2" stroke-linecap="round"/>
<path d="M46 52.4504V48.6504" stroke="#FF7987" stroke-width="2" stroke-linecap="round"/>
<path d="M47.8501 46.7504C47.8501 47.7721 47.0219 48.6004 46.0001 48.6004C44.9784 48.6004 44.1501 47.7721 44.1501 46.7504C44.1501 45.7287 44.9784 44.9004 46.0001 44.9004C47.0219 44.9004 47.8501 45.7287 47.8501 46.7504Z" stroke="#FF7987" stroke-width="2"/>
</g>
<defs>
<clipPath id="clip0_2582_13059">
<rect width="375" height="140" fill="white"/>
</clipPath>
<clipPath id="clip1_2582_13059">
<rect width="375" height="58" fill="white" transform="translate(0 31)"/>
</clipPath>
</defs>
</svg>
