<svg width="70" height="70" viewBox="0 0 70 70" fill="none" xmlns="http://www.w3.org/2000/svg">
<circle cx="35.0005" cy="34.9996" r="29.6724" fill="#022B42" fill-opacity="0.8" stroke="#51A3D3"/>
<circle cx="35" cy="35" r="34.5" stroke="#51A3D3" stroke-opacity="0.4"/>
<circle cx="12.5" cy="29.5" r="2.5" fill="#FF7987"/>
<path d="M49.7192 46.2192H50.7808V47.2808C50.7808 47.6783 51.1025 48 51.5 48C51.8975 48 52.2192 47.6783 52.2192 47.2808V46.2192H53.2808C53.6783 46.2192 54 45.8975 54 45.5C54 45.1025 53.6783 44.7808 53.2808 44.7808H52.2192V43.7192C52.2192 43.3217 51.8975 43 51.5 43C51.1025 43 50.7808 43.3217 50.7808 43.7192V44.7808H49.7192C49.3217 44.7808 49 45.1025 49 45.5C49 45.8975 49.3217 46.2192 49.7192 46.2192Z" fill="#FF7987"/>
<path d="M33.7192 13.2192H34.7808V14.2808C34.7808 14.6783 35.1025 15 35.5 15C35.8975 15 36.2192 14.6783 36.2192 14.2808V13.2192H37.2808C37.6783 13.2192 38 12.8975 38 12.5C38 12.1025 37.6783 11.7808 37.2808 11.7808H36.2192V10.7192C36.2192 10.3217 35.8975 10 35.5 10C35.1025 10 34.7808 10.3217 34.7808 10.7192V11.7808H33.7192C33.3217 11.7808 33 12.1025 33 12.5C33 12.8975 33.3217 13.2192 33.7192 13.2192Z" fill="#FF7987"/>
<path d="M56.837 32.959C56.5381 32.959 56.2969 33.2002 56.2969 33.4992C56.2969 33.7981 56.5381 34.0393 56.837 34.0393C57.136 34.0393 57.3772 33.7981 57.3772 33.4992C57.3772 33.2002 57.136 32.959 56.837 32.959Z" fill="#FF7987"/>
<path d="M56.5 24C57.8792 24 59 22.8778 59 21.5C59 20.1222 57.8778 19 56.5 19C55.1222 19 54 20.1208 54 21.5C54 22.8792 55.1208 24 56.5 24ZM56.5 19.8938C57.3852 19.8938 58.1048 20.6134 58.1048 21.4986C58.1048 22.3838 57.3852 23.1048 56.5 23.1048C55.6148 23.1048 54.8952 22.3852 54.8952 21.4986C54.8952 20.6119 55.6162 19.8938 56.5 19.8938Z" fill="#FF7987"/>
<path d="M40.0341 48.1475C40.3698 47.6981 40.5322 47.1432 40.4902 46.5869L39.919 38.7822C39.8594 37.9674 40.1207 37.1755 40.654 36.5556L48.3909 27.5598C49.0366 26.8086 49.5184 25.9505 49.8216 25.0084L50.8192 21.9209C51.1034 21.0411 50.8747 20.0895 50.2209 19.4358C49.5671 18.782 48.6156 18.5532 47.7358 18.8375L44.6483 19.835C43.7049 20.1396 42.8467 20.6215 42.0982 21.2671L33.1024 29.0041C32.4825 29.5374 31.6907 29.7986 30.8758 29.739L23.0725 29.1664C22.5135 29.1245 21.9585 29.2869 21.5092 29.6226L20.2761 30.5444C19.2636 31.2997 19.0362 32.7019 19.759 33.7361L24.3679 38.7429L23.8739 39.0854C23.2093 39.5442 22.8898 40.3726 23.0739 41.1468C23.3013 42.0943 24.1148 42.9078 25.1476 43.9298L25.7283 44.5104C25.823 44.6052 25.9164 44.6986 26.0085 44.7906C26.9059 45.6881 27.653 46.3784 28.5112 46.5841C29.2854 46.7682 30.1125 46.4474 30.5727 45.7842L30.9165 45.2861L35.857 49.8476L35.9206 49.8977C36.9547 50.6205 38.357 50.3931 39.1123 49.3806L40.0341 48.1475ZM28.7914 45.416C28.1769 45.2698 27.4351 44.5253 26.581 43.6631L25.9949 43.077C25.1313 42.2216 24.3896 41.4825 24.242 40.8667C24.1703 40.5702 24.2975 40.2508 24.5574 40.0721L30.93 35.6676C31.8071 35.0612 32.9874 35.1668 33.74 35.9194C34.4926 36.672 34.5981 37.8523 33.9918 38.7294L29.5873 45.102C29.4086 45.3619 29.0878 45.4877 28.7927 45.4173L28.7914 45.416ZM36.6366 48.9353L31.6041 44.2898L34.9772 39.4116C35.9125 38.0594 35.7487 36.2334 34.5873 35.0721C33.4259 33.9107 31.6 33.7469 30.2478 34.6822L25.3655 38.0567L20.7228 33.0214C20.3992 32.5246 20.5143 31.8654 20.9948 31.5068L22.2279 30.585C22.4445 30.4226 22.7138 30.3427 22.9845 30.3644L30.7892 30.9356C31.9235 31.0195 33.0239 30.6554 33.8848 29.9136L42.8806 22.1767C43.51 21.6366 44.2287 21.2319 45.0178 20.9761L48.1053 19.9785C48.5615 19.831 49.0352 19.9447 49.3736 20.2831C49.712 20.6215 49.8257 21.0952 49.6781 21.5514L48.6806 24.6389C48.4248 25.428 48.0214 26.1481 47.4813 26.7775L39.7444 35.7732C39.0026 36.6368 38.6399 37.7359 38.7225 38.8688L39.2937 46.6735C39.314 46.9428 39.2355 47.2109 39.0717 47.4288L38.1499 48.6619C37.7912 49.1424 37.1321 49.2574 36.6353 48.9339L36.6366 48.9353Z" fill="#FF7987" stroke="#FF7987" stroke-width="0.5"/>
<path d="M21.6385 45.4237C21.4043 45.1895 21.0253 45.1895 20.7912 45.4237L17.4249 48.79C17.1907 49.0241 17.1907 49.4031 17.4249 49.6373C17.659 49.8715 18.038 49.8715 18.2722 49.6373L21.6385 46.271C21.8727 46.0368 21.8727 45.6578 21.6385 45.4237Z" fill="#FF7987"/>
<path d="M24.3065 46.0584C24.0723 45.8243 23.6933 45.8243 23.4591 46.0584L17.5387 51.9789C17.3045 52.2131 17.3045 52.5921 17.5387 52.8262C17.7728 53.0604 18.1518 53.0604 18.386 52.8262L24.3065 46.9058C24.5406 46.6716 24.5406 46.2926 24.3065 46.0584Z" fill="#FF7987"/>
<path d="M24.9393 48.7244C24.7051 48.4903 24.3261 48.4903 24.092 48.7244L22.0603 50.7561C21.8261 50.9903 21.8261 51.3693 22.0603 51.6035C22.2944 51.8376 22.6734 51.8376 22.9076 51.6035L24.9393 49.5718C25.1735 49.3376 25.1735 48.9586 24.9393 48.7244Z" fill="#FF7987"/>
<circle cx="21" cy="16" r="1" fill="#FF7987"/>
<circle cx="38.5" cy="63.5" r="1.5" fill="#FF7987"/>
</svg>
