<svg width="100" height="100" viewBox="0 0 100 100" fill="none" xmlns="http://www.w3.org/2000/svg">
<circle cx="50.0019" cy="50.0009" r="42.6034" fill="#022B42" fill-opacity="0.8" stroke="#51A3D3"/>
<circle cx="50" cy="50" r="49.5" stroke="#51A3D3" stroke-opacity="0.4"/>
<g clip-path="url(#clip0_2349_12799)">
<path d="M50.0001 36.6667C52.9456 36.6667 55.3334 34.2789 55.3334 31.3333C55.3334 28.3878 52.9456 26 50.0001 26C47.0546 26 44.6667 28.3878 44.6667 31.3333C44.6667 34.2789 47.0546 36.6667 50.0001 36.6667Z" stroke="#FF7987" stroke-width="3" stroke-linecap="round" stroke-linejoin="round"/>
<path d="M71.3333 51.333V63.9997C71.3508 64.2959 71.3006 64.5923 71.1867 64.8663C71.0087 65.2953 70.6781 65.643 70.2587 65.8423L55.6933 72.7223C53.9132 73.5634 51.9688 73.9996 50 73.9996C48.0312 73.9996 46.0868 73.5634 44.3067 72.7223L29.7413 65.8423C29.3976 65.6794 29.1114 65.4161 28.9205 65.0871C28.7296 64.7581 28.6429 64.3789 28.672 63.9997L28.6667 51.333" stroke="#FF7987" stroke-width="3" stroke-linecap="round" stroke-linejoin="round"/>
<path d="M29.8161 50.5762L44.8401 44.3575C48.1445 42.9915 51.8557 42.9915 55.1601 44.3575L70.1841 50.5762C70.5169 50.7122 70.8028 50.9424 71.0065 51.2387C71.2103 51.5349 71.323 51.8842 71.331 52.2437C71.3389 52.6032 71.2416 52.9571 71.0512 53.262C70.8607 53.567 70.5853 53.8096 70.2588 53.9602L55.6934 60.7415C53.91 61.5707 51.9669 62.0004 50.0001 62.0004C48.0333 62.0004 46.0902 61.5707 44.3068 60.7415L29.7414 53.9602C29.4131 53.8109 29.1359 53.5685 28.944 53.2631C28.7522 52.9578 28.6541 52.6028 28.6621 52.2422C28.67 51.8817 28.7836 51.5314 28.9887 51.2347C29.1939 50.9381 29.4815 50.7082 29.8161 50.5735V50.5762Z" stroke="#FF7987" stroke-width="3" stroke-linecap="round" stroke-linejoin="round"/>
<path d="M50 36.667V52.667" stroke="#FF7987" stroke-width="3" stroke-linecap="round" stroke-linejoin="round"/>
</g>
<defs>
<clipPath id="clip0_2349_12799">
<rect width="64" height="64" fill="white" transform="translate(18 18)"/>
</clipPath>
</defs>
</svg>
