<svg width="100" height="100" viewBox="0 0 100 100" fill="none" xmlns="http://www.w3.org/2000/svg">
<circle cx="50.0019" cy="50.0009" r="42.6034" fill="#022B42" fill-opacity="0.8" stroke="#51A3D3"/>
<circle cx="50" cy="50" r="49.5" stroke="#51A3D3" stroke-opacity="0.4"/>
<mask id="path-3-inside-1_2349_12803" fill="white">
<path fill-rule="evenodd" clip-rule="evenodd" d="M50.0008 58.1032C58.1423 58.1032 64.7422 55.9362 64.7422 48.5486C64.7422 46.8129 64.3779 45.1545 63.7149 43.6328C72.1525 46.1656 77.8457 50.9634 77.8457 56.4652C77.8457 64.6067 65.3791 71.2066 50.0008 71.2066C34.6226 71.2066 22.156 64.6067 22.156 56.4652C22.156 50.9634 27.8491 46.1656 36.2867 43.6328C35.6237 45.1545 35.2595 46.8129 35.2595 48.5486C35.2595 55.9362 41.8594 58.1032 50.0008 58.1032Z"/>
</mask>
<path d="M63.7149 43.6328L64.5774 40.7595L58.3802 38.8992L60.9646 44.8311L63.7149 43.6328ZM36.2867 43.6328L39.037 44.8311L41.6215 38.8992L35.4242 40.7595L36.2867 43.6328ZM61.7422 48.5486C61.7422 49.9353 61.4374 50.9051 61.012 51.6135C60.5845 52.3253 59.9324 52.9438 58.9803 53.4667C56.9801 54.5653 53.9076 55.1032 50.0008 55.1032V61.1032C54.2355 61.1032 58.5337 60.5575 61.8688 58.7257C63.5844 57.7834 65.0912 56.475 66.1556 54.7027C67.222 52.927 67.7422 50.8556 67.7422 48.5486H61.7422ZM60.9646 44.8311C61.4681 45.9866 61.7422 47.238 61.7422 48.5486H67.7422C67.7422 46.3878 67.2877 44.3224 66.4652 42.4345L60.9646 44.8311ZM62.8524 46.5061C66.7825 47.6859 69.8873 49.3423 71.9507 51.1774C74.0094 53.0083 74.8457 54.8277 74.8457 56.4652H80.8457C80.8457 52.6009 78.8353 49.2706 75.938 46.6939C73.0455 44.1214 69.085 42.1125 64.5774 40.7595L62.8524 46.5061ZM74.8457 56.4652C74.8457 58.8771 72.9467 61.7704 68.2864 64.2376C63.7604 66.6337 57.3006 68.2066 50.0008 68.2066V74.2066C58.0794 74.2066 65.542 72.4795 71.0938 69.5403C76.5113 66.6722 80.8457 62.1947 80.8457 56.4652H74.8457ZM50.0008 68.2066C42.7011 68.2066 36.2413 66.6337 31.7152 64.2376C27.055 61.7704 25.156 58.8771 25.156 56.4652H19.156C19.156 62.1947 23.4903 66.6722 28.9079 69.5403C34.4597 72.4795 41.9223 74.2066 50.0008 74.2066V68.2066ZM25.156 56.4652C25.156 54.8277 25.9922 53.0083 28.0509 51.1774C30.1143 49.3423 33.2192 47.6859 37.1492 46.5062L35.4242 40.7595C30.9167 42.1125 26.9562 44.1214 24.0636 46.6939C21.1663 49.2706 19.156 52.6009 19.156 56.4652H25.156ZM38.2595 48.5486C38.2595 47.238 38.5336 45.9866 39.037 44.8311L33.5364 42.4345C32.7139 44.3224 32.2595 46.3878 32.2595 48.5486H38.2595ZM50.0008 55.1032C46.0941 55.1032 43.0215 54.5653 41.0213 53.4667C40.0692 52.9438 39.4172 52.3253 38.9897 51.6135C38.5643 50.9051 38.2595 49.9353 38.2595 48.5486H32.2595C32.2595 50.8556 32.7796 52.927 33.8461 54.7027C34.9105 56.475 36.4173 57.7834 38.1329 58.7257C41.468 60.5575 45.7662 61.1032 50.0008 61.1032V55.1032Z" fill="#FF7987" mask="url(#path-3-inside-1_2349_12803)"/>
<path d="M50.0009 59.6029C54.1536 59.6029 58.1453 59.0592 61.1467 57.4107C62.6714 56.5733 63.9645 55.4373 64.8697 53.9302C65.7759 52.4213 66.2423 50.6253 66.2423 48.5483C66.2423 40.1985 58.8303 33.6719 50.0009 33.6719C41.1715 33.6719 33.7595 40.1985 33.7595 48.5483C33.7595 50.6253 34.2259 52.4213 35.1321 53.9302C36.0373 55.4373 37.3304 56.5733 38.8551 57.4107C41.8565 59.0592 45.8482 59.6029 50.0009 59.6029Z" stroke="#FF7987" stroke-width="3"/>
<path fill-rule="evenodd" clip-rule="evenodd" d="M73.6028 59.9165C70.6379 66.0586 61.1934 70.5491 50.0008 70.5491C38.1704 70.5491 28.2928 65.5321 25.9559 58.8506C25.6126 60.0466 25.432 61.3306 25.4319 62.7023C25.4312 69.1281 36.4318 74.4828 50.0008 74.4828C63.5699 74.4828 74.5698 70.199 74.5698 62.7023C74.5698 61.9772 74.2324 61.0133 73.6028 59.9165Z" fill="#FF7987"/>
<path d="M54.5515 73.6632C54.5515 75.2094 52.9777 76.758 50.6377 76.758C48.2977 76.758 46.7239 75.2094 46.7239 73.6632C46.7239 72.1169 48.2977 70.5684 50.6377 70.5684C52.9777 70.5684 54.5515 72.1169 54.5515 73.6632Z" fill="#FF7987" stroke="#FF7987" stroke-width="2"/>
<path d="M39.7502 72.7052C39.4817 74.2279 37.6629 75.4797 35.3585 75.0733C33.0541 74.667 31.7731 72.8687 32.0416 71.3459C32.3101 69.8232 34.1289 68.5714 36.4333 68.9777C38.7378 69.3841 40.0187 71.1824 39.7502 72.7052Z" fill="#FF7987" stroke="#FF7987" stroke-width="2"/>
<path d="M68.2317 71.3464C68.5002 72.8692 67.2192 74.6675 64.9148 75.0738C62.6103 75.4802 60.7915 74.2284 60.523 72.7056C60.2545 71.1829 61.5355 69.3846 63.8399 68.9782C66.1444 68.5719 67.9632 69.8236 68.2317 71.3464Z" fill="#FF7987" stroke="#FF7987" stroke-width="2"/>
<path d="M53.2766 40.0859C54.3686 40.2845 58.518 41.8728 59.8283 46.6377" stroke="#FF7987" stroke-width="2" stroke-linecap="round"/>
<path d="M50.0007 33.5341V26.9824" stroke="#FF7987" stroke-width="3" stroke-linecap="round"/>
<path d="M53.4147 23.7068C53.4147 25.5921 51.8863 27.1206 50.0009 27.1206C48.1156 27.1206 46.5872 25.5921 46.5872 23.7068C46.5872 21.8214 48.1156 20.293 50.0009 20.293C51.8863 20.293 53.4147 21.8214 53.4147 23.7068Z" stroke="#FF7987" stroke-width="3"/>
</svg>
