<svg width="70" height="70" viewBox="0 0 70 70" fill="none" xmlns="http://www.w3.org/2000/svg">
<circle cx="35.1724" cy="35.1724" r="29.6724" fill="#022B42" fill-opacity="0.8" stroke="#51A3D3"/>
<circle cx="35" cy="35" r="34.5" stroke="#51A3D3" stroke-opacity="0.4"/>
<path d="M30.3762 32C29.6145 32 29 32.6145 29 33.3762C29 34.1379 29.6145 34.7524 30.3762 34.7524C31.1378 34.7524 31.7523 34.1379 31.7523 33.3762C31.7523 32.6145 31.1378 32 30.3762 32Z" fill="#FF7987"/>
<path d="M40.0676 32C39.3059 32 38.6914 32.6145 38.6914 33.3762C38.6914 34.1379 39.3059 34.7524 40.0676 34.7524C40.8292 34.7524 41.4437 34.1379 41.4437 33.3762C41.4437 32.6145 40.8292 32 40.0676 32Z" fill="#FF7987"/>
<path d="M32.6914 37.7891L32.9743 38.0405C34.2257 39.1528 36.1115 39.1528 37.3629 38.0405L37.6457 37.7891" stroke="#FF7987" stroke-width="1.65144" stroke-linecap="round"/>
<path d="M34.9128 20.1367C34.9263 20.1134 34.939 20.1041 34.9487 20.0987C34.961 20.0919 34.9787 20.0865 35 20.0865C35.0213 20.0865 35.039 20.0919 35.0513 20.0987C35.061 20.1041 35.0737 20.1134 35.0872 20.1367L35.9513 19.6334L35.0872 20.1367L39.7108 28.0748C40.0077 28.5845 40.5051 28.9459 41.0816 29.0708L50.06 31.015C50.0863 31.0207 50.0991 31.0298 50.1072 31.0374C50.1174 31.047 50.128 31.0622 50.1346 31.0825C50.1412 31.1027 50.1416 31.1212 50.1389 31.1351C50.1368 31.1459 50.1319 31.1608 50.1139 31.1809L43.993 38.0312C43.6 38.471 43.41 39.0558 43.4694 39.6427L44.3948 48.7824C44.3975 48.8093 44.3928 48.8242 44.3881 48.8342C44.3821 48.847 44.371 48.8617 44.3537 48.8743C44.3365 48.8868 44.319 48.8929 44.305 48.8946C44.294 48.896 44.2783 48.8959 44.2537 48.885L35.8472 45.1805C35.3074 44.9427 34.6926 44.9427 34.1528 45.1806L25.7463 48.885C25.7217 48.8959 25.706 48.896 25.695 48.8946C25.681 48.8929 25.6635 48.8868 25.6463 48.8743C25.6291 48.8617 25.6179 48.847 25.6119 48.8342C25.6072 48.8242 25.6025 48.8093 25.6052 48.7824L26.5306 39.6427C26.59 39.0558 26.4 38.471 26.007 38.0312L19.8861 31.1809C19.8681 31.1608 19.8632 31.1459 19.8611 31.1351C19.8584 31.1212 19.8588 31.1027 19.8654 31.0825C19.872 31.0622 19.8826 31.047 19.8928 31.0374C19.9009 31.0298 19.9137 31.0207 19.94 31.015L28.9184 29.0708C29.4949 28.9459 29.9923 28.5845 30.2892 28.0748L34.9128 20.1367Z" stroke="#FF7987" stroke-width="2"/>
<path d="M21 19L25 23" stroke="#FF7987" stroke-width="1.5" stroke-linecap="round"/>
<path d="M49 20L45.1878 23.5307" stroke="#FF7987" stroke-width="1.5" stroke-linecap="round"/>
<path d="M54 41.7939L49 40" stroke="#FF7987" stroke-width="1.5" stroke-linecap="round"/>
<path d="M35 57L35 52" stroke="#FF7987" stroke-width="1.5" stroke-linecap="round"/>
<path d="M15 42L19.5456 40.273" stroke="#FF7987" stroke-width="1.5" stroke-linecap="round"/>
<circle cx="36.5" cy="12.5" r="1.5" fill="#FF7987"/>
<circle cx="50.5" cy="54.5" r="1.5" fill="#FF7987"/>
<circle cx="22" cy="55" r="1.5" stroke="#FF7987"/>
<path d="M54.7192 26.2192H55.7808V27.2808C55.7808 27.6783 56.1025 28 56.5 28C56.8975 28 57.2192 27.6783 57.2192 27.2808V26.2192H58.2808C58.6783 26.2192 59 25.8975 59 25.5C59 25.1025 58.6783 24.7808 58.2808 24.7808H57.2192V23.7192C57.2192 23.3217 56.8975 23 56.5 23C56.1025 23 55.7808 23.3217 55.7808 23.7192V24.7808H54.7192C54.3217 24.7808 54 25.1025 54 25.5C54 25.8975 54.3217 26.2192 54.7192 26.2192Z" fill="#FF7987"/>
<circle cx="13" cy="30" r="1" fill="#FF7987"/>
</svg>
