<svg width="70" height="70" viewBox="0 0 70 70" fill="none" xmlns="http://www.w3.org/2000/svg">
<circle cx="35.0005" cy="34.9996" r="29.6724" fill="#022B42" fill-opacity="0.8" stroke="#51A3D3"/>
<circle cx="35" cy="35" r="34.5" stroke="#51A3D3" stroke-opacity="0.4"/>
<circle cx="35.5" cy="35.5" r="14.5" stroke="#FF7987" stroke-width="2"/>
<circle cx="38" cy="26" r="1" fill="#FF7987"/>
<circle cx="31.5" cy="34.5" r="2.5" fill="#FF7987"/>
<path d="M51.7192 52.2192H52.7808V53.2808C52.7808 53.6783 53.1025 54 53.5 54C53.8975 54 54.2192 53.6783 54.2192 53.2808V52.2192H55.2808C55.6783 52.2192 56 51.8975 56 51.5C56 51.1025 55.6783 50.7808 55.2808 50.7808H54.2192V49.7192C54.2192 49.3217 53.8975 49 53.5 49C53.1025 49 52.7808 49.3217 52.7808 49.7192V50.7808H51.7192C51.3217 50.7808 51 51.1025 51 51.5C51 51.8975 51.3217 52.2192 51.7192 52.2192Z" fill="#FF7987"/>
<path d="M56.837 32.959C56.5381 32.959 56.2969 33.2002 56.2969 33.4992C56.2969 33.7981 56.5381 34.0393 56.837 34.0393C57.136 34.0393 57.3772 33.7981 57.3772 33.4992C57.3772 33.2002 57.136 32.959 56.837 32.959Z" fill="#FF7987"/>
<path d="M55.5 22C56.8792 22 58 20.8778 58 19.5C58 18.1222 56.8778 17 55.5 17C54.1222 17 53 18.1208 53 19.5C53 20.8792 54.1208 22 55.5 22ZM55.5 17.8938C56.3852 17.8938 57.1048 18.6134 57.1048 19.4986C57.1048 20.3838 56.3852 21.1048 55.5 21.1048C54.6148 21.1048 53.8952 20.3852 53.8952 19.4986C53.8952 18.6119 54.6162 17.8938 55.5 17.8938Z" fill="#FF7987"/>
<circle cx="25" cy="58" r="1" fill="#FF7987"/>
<circle cx="28" cy="12" r="1" fill="#FF7987"/>
<path d="M47.4999 28.5007C53.3521 27.9052 56.3572 28.873 56.811 30.5669C57.5528 33.3352 48.3685 38.2014 36.2973 41.4359C24.226 44.6704 13.8391 45.0483 13.0973 42.2799C12.6802 40.7234 15.8921 38.2201 20.5 36" stroke="#FF7987" stroke-width="2"/>
<path d="M14.7603 36.8001L15.5174 37.5442L14.7733 38.3013C14.4946 38.5848 14.4985 39.0397 14.7821 39.3184C15.0656 39.597 15.5205 39.5931 15.7991 39.3096L16.5433 38.5525L17.3004 39.2966C17.5839 39.5753 18.0388 39.5713 18.3175 39.2878C18.5961 39.0043 18.5922 38.5494 18.3087 38.2707L17.5516 37.5266L18.2957 36.7695C18.5743 36.486 18.5704 36.0311 18.2869 35.7524C18.0034 35.4738 17.5485 35.4777 17.2698 35.7612L16.5257 36.5183L15.7686 35.7742C15.4851 35.4955 15.0301 35.4995 14.7515 35.783C14.4728 36.0665 14.4768 36.5214 14.7603 36.8001Z" fill="#FF7987"/>
<path d="M12.7603 20.8001L13.5174 21.5442L12.7733 22.3013C12.4946 22.5848 12.4985 23.0397 12.7821 23.3184C13.0656 23.597 13.5205 23.5931 13.7991 23.3096L14.5433 22.5525L15.3004 23.2966C15.5839 23.5753 16.0388 23.5713 16.3175 23.2878C16.5961 23.0043 16.5922 22.5494 16.3087 22.2707L15.5516 21.5266L16.2957 20.7695C16.5743 20.486 16.5704 20.0311 16.2869 19.7524C16.0034 19.4738 15.5485 19.4777 15.2698 19.7612L14.5257 20.5183L13.7686 19.7742C13.4851 19.4955 13.0301 19.4995 12.7515 19.783C12.4728 20.0665 12.4768 20.5214 12.7603 20.8001Z" fill="#FF7987"/>
</svg>
