<svg width="375" height="812" viewBox="0 0 375 812" fill="none" xmlns="http://www.w3.org/2000/svg">
<mask id="mask0_2349_12708" style="mask-type:alpha" maskUnits="userSpaceOnUse" x="0" y="0" width="375" height="812">
<rect width="375" height="812" fill="white"/>
</mask>
<g mask="url(#mask0_2349_12708)">
<path d="M-192.596 4.62598C-185.217 17.5633 -347.619 278.602 -63.7207 420.895C111.056 508.493 -39.1304 735.159 -160.739 866.901" stroke="#004973" stroke-miterlimit="10"/>
<path d="M-150.623 3.19336C-135.866 29.068 -307.737 288.125 -28.7026 419.903C154.826 506.58 -7.0403 736.471 -118.257 863.916" stroke="#004973" stroke-miterlimit="10"/>
<path d="M-108.652 1.76562C-86.517 40.5776 -267.257 297.105 6.31712 418.916C198.864 504.652 25.0515 737.787 -75.7737 860.932" stroke="#004973" stroke-miterlimit="10"/>
<path d="M-66.6821 0.333008C-37.1728 52.0823 -226.251 305.559 41.3369 417.925C243.145 502.666 57.1478 739.098 -33.2944 857.947" stroke="#004973" stroke-miterlimit="10"/>
<path d="M-24.7075 -1.09961C12.1802 63.5871 -184.781 313.525 76.3565 416.933C287.651 500.603 89.2395 740.41 9.18923 854.962" stroke="#004973" stroke-miterlimit="10"/>
<path d="M17.263 -2.53125C61.5291 75.0927 -142.919 321.033 111.376 415.942C332.383 498.428 121.331 741.722 51.6732 851.974" stroke="#004973" stroke-miterlimit="10"/>
<path d="M59.234 -3.95996C110.879 86.5977 -100.709 328.11 146.397 414.955C377.313 496.11 153.424 743.038 94.1577 848.993" stroke="#004973" stroke-miterlimit="10"/>
<path d="M101.209 -5.3916C160.232 98.1034 -58.2069 334.78 181.417 413.964C422.441 493.607 185.516 744.351 136.637 846.009" stroke="#004973" stroke-miterlimit="10"/>
<path d="M143.181 -6.8252C209.583 109.607 -15.4596 341.076 216.439 412.971C467.752 490.887 217.61 745.661 179.123 843.019" stroke="#004973" stroke-miterlimit="10"/>
<path d="M185.152 -8.25684C258.932 121.113 27.4881 347.024 251.458 411.981C513.235 487.903 249.702 746.974 221.607 840.035" stroke="#004973" stroke-miterlimit="10"/>
<path d="M227.125 -9.68555C308.283 132.621 70.6053 352.655 286.477 410.993C558.884 484.608 281.792 748.289 264.089 837.054" stroke="#004973" stroke-miterlimit="10"/>
<path d="M269.097 -11.1172C357.63 144.127 113.848 357.979 321.499 410.002C604.695 480.95 313.89 749.602 306.57 834.066" stroke="#004973" stroke-miterlimit="10"/>
<path d="M311.065 -12.5488C406.976 155.633 157.181 363.027 356.511 409.008C650.64 476.861 345.975 750.911 349.047 831.078" stroke="#004973" stroke-miterlimit="10"/>
<path d="M353.039 -13.9824C456.328 167.137 200.583 367.811 391.535 408.015C696.727 472.272 378.071 752.221 391.535 828.092" stroke="#004973" stroke-miterlimit="10"/>
<path d="M395.01 -15.4141C505.678 178.642 244 372.36 426.555 407.024C742.932 467.105 410.163 753.534 434.019 825.104" stroke="#004973" stroke-miterlimit="10"/>
</g>
</svg>
