<svg width="100" height="100" viewBox="0 0 100 100" fill="none" xmlns="http://www.w3.org/2000/svg">
<rect width="100" height="100" fill="#A5A5A5"/>
<path d="M51.28 67.56C56.04 67.56 60.08 63.72 60.08 57.88C60.08 51.64 56.72 48.64 51.76 48.64C49.56 48.64 46.84 50 45.12 52.32L45.32 55.68C47.08 53 49.2 51.96 50.96 51.96C54.08 51.96 55.8 54.08 55.8 57.88C55.8 61.68 53.8 64 51.24 64C47.64 64 45.4 60.44 45.4 52.84C45.4 43.84 48.56 40.8 52.48 40.8C54.2 40.8 56 41.72 57.08 43L59.6 40.2C57.92 38.4 55.52 37.04 52.24 37.04C46.4 37.04 41.12 41.56 41.12 52.84C41.12 62.84 45.68 67.56 51.28 67.56Z" fill="black"/>
</svg>
