<svg width="100" height="100" viewBox="0 0 100 100" fill="none" xmlns="http://www.w3.org/2000/svg">
<rect width="100" height="100" fill="white"/>
<path d="M48.68 67.56C54.12 67.56 58.56 64.44 58.56 59.12C58.56 55.12 55.88 52.6 52.48 51.72V51.52C55.6 50.36 57.56 48 57.56 44.6C57.56 39.76 53.84 37.04 48.56 37.04C45.16 37.04 42.44 38.48 40.08 40.56L42.52 43.48C44.2 41.8 46.12 40.72 48.36 40.72C51.2 40.72 52.88 42.36 52.88 44.96C52.88 47.92 50.96 50.08 45.2 50.08V53.52C51.8 53.52 53.88 55.6 53.88 58.88C53.88 61.92 51.6 63.76 48.32 63.76C45.24 63.76 43.08 62.28 41.36 60.52L39.08 63.48C41.08 65.72 44.08 67.56 48.68 67.56Z" fill="black"/>
</svg>
