<svg width="100" height="100" viewBox="0 0 100 100" fill="none" xmlns="http://www.w3.org/2000/svg">
<rect width="100" height="100" fill="#A5A5A5"/>
<path d="M48.72 67.56C53.84 67.56 58.64 63.84 58.64 57.36C58.64 50.88 54.6 48 49.68 48C48.08 48 46.88 48.36 45.64 49L46.32 41.48H57.24V37.56H42.28L41.4 51.56L43.68 53C45.4 51.88 46.52 51.36 48.36 51.36C51.72 51.36 53.96 53.6 53.96 57.48C53.96 61.4 51.48 63.76 48.16 63.76C45.08 63.76 42.92 62.28 41.28 60.6L39.04 63.6C41.16 65.68 44.08 67.56 48.72 67.56Z" fill="black"/>
</svg>
